%TF.GenerationSoftware,KiCad,Pcbnew,9.0.0*%
%TF.CreationDate,2025-04-12T13:05:06-05:00*%
%TF.ProjectId,Chassis,43686173-7369-4732-9e6b-696361645f70,rev?*%
%TF.SameCoordinates,Original*%
%TF.FileFunction,Copper,L2,Inr*%
%TF.FilePolarity,Positive*%
%FSLAX46Y46*%
G04 Gerber Fmt 4.6, Leading zero omitted, Abs format (unit mm)*
G04 Created by KiCad (PCBNEW 9.0.0) date 2025-04-12 13:05:06*
%MOMM*%
%LPD*%
G01*
G04 APERTURE LIST*
G04 Aperture macros list*
%AMRotRect*
0 Rectangle, with rotation*
0 The origin of the aperture is its center*
0 $1 length*
0 $2 width*
0 $3 Rotation angle, in degrees counterclockwise*
0 Add horizontal line*
21,1,$1,$2,0,0,$3*%
G04 Aperture macros list end*
%TA.AperFunction,ComponentPad*%
%ADD10R,3.800000X3.800000*%
%TD*%
%TA.AperFunction,ComponentPad*%
%ADD11C,4.000000*%
%TD*%
%TA.AperFunction,ComponentPad*%
%ADD12RotRect,3.800000X3.800000X315.000000*%
%TD*%
%TA.AperFunction,ComponentPad*%
%ADD13RotRect,3.800000X3.800000X135.000000*%
%TD*%
%TA.AperFunction,ComponentPad*%
%ADD14R,1.520000X1.520000*%
%TD*%
%TA.AperFunction,ComponentPad*%
%ADD15C,1.520000*%
%TD*%
%TA.AperFunction,ComponentPad*%
%ADD16C,1.381000*%
%TD*%
%TA.AperFunction,ComponentPad*%
%ADD17RotRect,3.800000X3.800000X225.000000*%
%TD*%
%TA.AperFunction,ComponentPad*%
%ADD18RotRect,3.800000X3.800000X45.000000*%
%TD*%
%TA.AperFunction,ViaPad*%
%ADD19C,0.800000*%
%TD*%
%TA.AperFunction,Conductor*%
%ADD20C,0.200000*%
%TD*%
G04 APERTURE END LIST*
D10*
X58700000Y-49750000D03*
D11*
X53700000Y-49750000D03*
D12*
X53372614Y-91372614D03*
D11*
X56908148Y-94908148D03*
D13*
X123227387Y-39427387D03*
D11*
X119691853Y-35891853D03*
D14*
X95339998Y-52804000D03*
D15*
X95339998Y-56304001D03*
X95339998Y-59804001D03*
X95339998Y-63304002D03*
X90739997Y-52804000D03*
X90739997Y-56304001D03*
X90739997Y-59804001D03*
X90739997Y-63304002D03*
D16*
X82375000Y-58774999D03*
X80375000Y-58774999D03*
X82375000Y-60774999D03*
X80375000Y-60774999D03*
X82375000Y-62774999D03*
X80375000Y-62774999D03*
X82375000Y-64774999D03*
X80375000Y-64774999D03*
X82375000Y-66774999D03*
X80375000Y-66774999D03*
X82375000Y-68774999D03*
X80375000Y-68774999D03*
X82375000Y-70774999D03*
X80375000Y-70774999D03*
X82375000Y-72774999D03*
X80375000Y-72774999D03*
D17*
X57127387Y-35572614D03*
D11*
X53591853Y-39108148D03*
D10*
X122000000Y-74750000D03*
D11*
X117000000Y-74750000D03*
D10*
X122000000Y-64750000D03*
D11*
X117000000Y-64750000D03*
D18*
X119272613Y-94827387D03*
D11*
X122808147Y-91291853D03*
D10*
X77250000Y-98500000D03*
D11*
X72250000Y-98500000D03*
D10*
X122000000Y-54750000D03*
D11*
X117000000Y-54750000D03*
D10*
X101000000Y-93000000D03*
D11*
X101000000Y-98000000D03*
D10*
X98000000Y-30000000D03*
D11*
X93000000Y-30000000D03*
D10*
X79500000Y-30000000D03*
D11*
X74500000Y-30000000D03*
D19*
X62750000Y-92500000D03*
X108966000Y-34290000D03*
X62800000Y-95800000D03*
X79756000Y-43500000D03*
X97375000Y-79875000D03*
X66450000Y-77000000D03*
X65050000Y-75550000D03*
X66450000Y-75550000D03*
X65750000Y-76300000D03*
X65050000Y-77000000D03*
X70845000Y-77356000D03*
X78325000Y-86098999D03*
X69750000Y-78500000D03*
X78075000Y-87598999D03*
X68050999Y-79895999D03*
X77423600Y-79921399D03*
X70750000Y-79250000D03*
X64600000Y-44480000D03*
X79325000Y-86848999D03*
X106950000Y-74700000D03*
X106750000Y-54550000D03*
X106650000Y-62150000D03*
X73899998Y-69700000D03*
X103000000Y-80750000D03*
X103000000Y-76750000D03*
X103000000Y-78500000D03*
X64500000Y-42750000D03*
X82000000Y-82000000D03*
X63100000Y-51712500D03*
X80500000Y-82000000D03*
X65500000Y-43500000D03*
X61000000Y-41750000D03*
X65500000Y-42000000D03*
X61000000Y-43250000D03*
X60250000Y-42500000D03*
X81250000Y-81250000D03*
X64500000Y-41250000D03*
X82750000Y-81250000D03*
X103000000Y-74250000D03*
X71400000Y-47900000D03*
X69900000Y-46600000D03*
X76962000Y-43434000D03*
X98625000Y-79625000D03*
X110800000Y-102400000D03*
X106426000Y-32766000D03*
X97500000Y-65250000D03*
X107000000Y-102400000D03*
X98750000Y-66500000D03*
D20*
X98750000Y-66500000D02*
X97500000Y-65250000D01*
%TA.AperFunction,Conductor*%
G36*
X124295737Y-25400448D02*
G01*
X124344259Y-25400500D01*
X124344270Y-25400503D01*
X124349855Y-25400632D01*
X124677403Y-25415775D01*
X124683794Y-25416237D01*
X124758695Y-25423614D01*
X124763651Y-25424204D01*
X125050199Y-25464176D01*
X125057207Y-25465360D01*
X125126026Y-25479049D01*
X125130093Y-25479932D01*
X125417629Y-25547560D01*
X125425174Y-25549589D01*
X125482880Y-25567094D01*
X125486134Y-25568132D01*
X125776215Y-25665358D01*
X125784189Y-25668342D01*
X125823884Y-25684784D01*
X125826425Y-25685871D01*
X126122511Y-25816606D01*
X126130870Y-25820678D01*
X126140995Y-25826089D01*
X126142757Y-25827049D01*
X126447458Y-25996768D01*
X126457190Y-26002794D01*
X126652754Y-26136758D01*
X126752512Y-26205093D01*
X126761649Y-26211994D01*
X126890502Y-26318992D01*
X127037035Y-26440671D01*
X127045499Y-26448387D01*
X127298612Y-26701500D01*
X127306328Y-26709964D01*
X127535003Y-26985347D01*
X127541906Y-26994487D01*
X127744205Y-27289809D01*
X127750234Y-27299546D01*
X127919907Y-27604165D01*
X127920909Y-27606003D01*
X127926320Y-27616128D01*
X127930392Y-27624487D01*
X128061111Y-27920537D01*
X128062237Y-27923168D01*
X128078641Y-27962769D01*
X128081653Y-27970818D01*
X128178840Y-28260785D01*
X128179929Y-28264196D01*
X128197401Y-28321794D01*
X128199446Y-28329399D01*
X128267051Y-28616838D01*
X128267963Y-28621038D01*
X128281633Y-28689764D01*
X128282826Y-28696823D01*
X128322793Y-28983341D01*
X128323385Y-28988318D01*
X128330759Y-29063186D01*
X128331224Y-29069613D01*
X128346368Y-29397145D01*
X128346500Y-29402872D01*
X128346500Y-101397127D01*
X128346368Y-101402854D01*
X128331224Y-101730385D01*
X128330759Y-101736812D01*
X128323385Y-101811680D01*
X128322793Y-101816657D01*
X128282826Y-102103175D01*
X128281633Y-102110234D01*
X128267963Y-102178960D01*
X128267051Y-102183160D01*
X128199446Y-102470599D01*
X128197401Y-102478204D01*
X128179929Y-102535802D01*
X128178840Y-102539213D01*
X128081653Y-102829180D01*
X128078641Y-102837229D01*
X128062237Y-102876830D01*
X128061111Y-102879461D01*
X127930392Y-103175511D01*
X127926320Y-103183870D01*
X127920909Y-103193995D01*
X127919876Y-103195889D01*
X127750234Y-103500452D01*
X127744205Y-103510190D01*
X127541906Y-103805512D01*
X127535003Y-103814652D01*
X127306328Y-104090035D01*
X127298612Y-104098499D01*
X127045499Y-104351612D01*
X127037035Y-104359328D01*
X126761652Y-104588003D01*
X126752512Y-104594906D01*
X126457190Y-104797205D01*
X126447452Y-104803234D01*
X126142889Y-104972876D01*
X126140995Y-104973909D01*
X126130870Y-104979320D01*
X126122511Y-104983392D01*
X125826461Y-105114111D01*
X125823830Y-105115237D01*
X125784229Y-105131641D01*
X125776180Y-105134653D01*
X125486213Y-105231840D01*
X125482802Y-105232929D01*
X125425204Y-105250401D01*
X125417599Y-105252446D01*
X125130160Y-105320051D01*
X125125960Y-105320963D01*
X125057234Y-105334633D01*
X125050175Y-105335826D01*
X124763657Y-105375793D01*
X124758680Y-105376385D01*
X124683812Y-105383759D01*
X124677385Y-105384224D01*
X124349855Y-105399368D01*
X124344128Y-105399500D01*
X52349872Y-105399500D01*
X52344145Y-105399368D01*
X52016613Y-105384224D01*
X52010186Y-105383759D01*
X51935318Y-105376385D01*
X51930341Y-105375793D01*
X51643823Y-105335826D01*
X51636764Y-105334633D01*
X51568038Y-105320963D01*
X51563838Y-105320051D01*
X51276399Y-105252446D01*
X51268794Y-105250401D01*
X51211196Y-105232929D01*
X51207785Y-105231840D01*
X50917818Y-105134653D01*
X50909779Y-105131644D01*
X50890269Y-105123563D01*
X50870168Y-105115237D01*
X50867537Y-105114111D01*
X50571487Y-104983392D01*
X50563128Y-104979320D01*
X50553003Y-104973909D01*
X50551165Y-104972907D01*
X50246546Y-104803234D01*
X50236809Y-104797205D01*
X49941487Y-104594906D01*
X49932347Y-104588003D01*
X49656964Y-104359328D01*
X49648500Y-104351612D01*
X49395387Y-104098499D01*
X49387671Y-104090035D01*
X49158996Y-103814652D01*
X49152093Y-103805512D01*
X48949794Y-103510190D01*
X48943765Y-103500453D01*
X48774049Y-103195757D01*
X48773089Y-103193995D01*
X48767678Y-103183870D01*
X48763606Y-103175511D01*
X48714027Y-103063226D01*
X48632871Y-102879425D01*
X48631784Y-102876884D01*
X48615342Y-102837189D01*
X48612358Y-102829215D01*
X48515132Y-102539134D01*
X48514094Y-102535880D01*
X48496589Y-102478174D01*
X48494560Y-102470629D01*
X48426932Y-102183093D01*
X48426049Y-102179026D01*
X48412360Y-102110207D01*
X48411176Y-102103199D01*
X48371204Y-101816651D01*
X48370613Y-101811680D01*
X48363239Y-101736812D01*
X48362774Y-101730385D01*
X48361394Y-101700538D01*
X48347630Y-101402825D01*
X48347499Y-101397146D01*
X48347499Y-101397127D01*
X48347468Y-101278711D01*
X50496500Y-101278711D01*
X50496500Y-101521288D01*
X50524873Y-101736812D01*
X50528162Y-101761789D01*
X50541530Y-101811680D01*
X50590947Y-101996104D01*
X50683773Y-102220205D01*
X50683777Y-102220214D01*
X50687118Y-102226000D01*
X50805064Y-102430289D01*
X50805066Y-102430292D01*
X50805067Y-102430293D01*
X50952733Y-102622736D01*
X50952739Y-102622743D01*
X51124256Y-102794260D01*
X51124263Y-102794266D01*
X51204064Y-102855499D01*
X51316711Y-102941936D01*
X51526788Y-103063224D01*
X51750900Y-103156054D01*
X51985211Y-103218838D01*
X52165586Y-103242584D01*
X52225711Y-103250500D01*
X52225712Y-103250500D01*
X52468289Y-103250500D01*
X52516388Y-103244167D01*
X52708789Y-103218838D01*
X52943100Y-103156054D01*
X53167212Y-103063224D01*
X53377289Y-102941936D01*
X53569738Y-102794265D01*
X53741265Y-102622738D01*
X53888936Y-102430289D01*
X54010224Y-102220212D01*
X54103054Y-101996100D01*
X54165838Y-101761789D01*
X54197500Y-101521288D01*
X54197500Y-101278712D01*
X54165838Y-101038211D01*
X54103054Y-100803900D01*
X54010224Y-100579788D01*
X53888936Y-100369711D01*
X53752761Y-100192244D01*
X53741266Y-100177263D01*
X53741260Y-100177256D01*
X53569743Y-100005739D01*
X53569736Y-100005733D01*
X53377293Y-99858067D01*
X53377292Y-99858066D01*
X53377289Y-99858064D01*
X53167212Y-99736776D01*
X53167205Y-99736773D01*
X52943104Y-99643947D01*
X52708785Y-99581161D01*
X52468289Y-99549500D01*
X52468288Y-99549500D01*
X52225712Y-99549500D01*
X52225711Y-99549500D01*
X51985214Y-99581161D01*
X51750895Y-99643947D01*
X51526794Y-99736773D01*
X51526785Y-99736777D01*
X51316706Y-99858067D01*
X51124263Y-100005733D01*
X51124256Y-100005739D01*
X50952739Y-100177256D01*
X50952733Y-100177263D01*
X50805067Y-100369706D01*
X50683777Y-100579785D01*
X50683773Y-100579794D01*
X50590947Y-100803895D01*
X50528161Y-101038214D01*
X50496500Y-101278711D01*
X48347468Y-101278711D01*
X48344916Y-91372614D01*
X50180467Y-91372614D01*
X50200927Y-91514927D01*
X50200929Y-91514935D01*
X50260651Y-91645708D01*
X50260656Y-91645715D01*
X50298233Y-91692346D01*
X51145227Y-92539340D01*
X52047648Y-91636919D01*
X52055856Y-91688740D01*
X52121520Y-91890834D01*
X52217991Y-92080168D01*
X52342892Y-92252080D01*
X52493148Y-92402336D01*
X52665060Y-92527237D01*
X52854394Y-92623708D01*
X53056488Y-92689372D01*
X53108307Y-92697579D01*
X52205887Y-93600000D01*
X53052881Y-94446994D01*
X53099512Y-94484571D01*
X53099519Y-94484576D01*
X53230292Y-94544298D01*
X53230300Y-94544300D01*
X53372614Y-94564760D01*
X53514927Y-94544300D01*
X53514935Y-94544298D01*
X53645708Y-94484576D01*
X53645715Y-94484571D01*
X53692346Y-94446994D01*
X54454267Y-93685073D01*
X54515590Y-93651588D01*
X54585281Y-93656572D01*
X54641215Y-93698444D01*
X54665632Y-93763908D01*
X54653668Y-93826555D01*
X54594351Y-93949728D01*
X54594348Y-93949736D01*
X54501591Y-94214818D01*
X54501587Y-94214830D01*
X54439093Y-94488635D01*
X54439090Y-94488653D01*
X54407648Y-94767716D01*
X54407648Y-95048579D01*
X54439090Y-95327642D01*
X54439093Y-95327660D01*
X54501587Y-95601465D01*
X54501591Y-95601477D01*
X54594348Y-95866559D01*
X54716201Y-96119590D01*
X54716203Y-96119593D01*
X54865625Y-96357396D01*
X54878897Y-96374038D01*
X55031153Y-96564962D01*
X55040732Y-96576973D01*
X55239323Y-96775564D01*
X55458900Y-96950671D01*
X55696703Y-97100093D01*
X55949740Y-97221949D01*
X56140089Y-97288555D01*
X56214818Y-97314704D01*
X56214830Y-97314708D01*
X56488639Y-97377203D01*
X56488645Y-97377203D01*
X56488653Y-97377205D01*
X56674695Y-97398166D01*
X56767717Y-97408647D01*
X56767720Y-97408648D01*
X56767723Y-97408648D01*
X57048576Y-97408648D01*
X57048577Y-97408647D01*
X57191203Y-97392577D01*
X57327642Y-97377205D01*
X57327647Y-97377204D01*
X57327657Y-97377203D01*
X57601466Y-97314708D01*
X57866556Y-97221949D01*
X58119593Y-97100093D01*
X58357396Y-96950671D01*
X58576973Y-96775564D01*
X58775564Y-96576973D01*
X58950671Y-96357396D01*
X59100093Y-96119593D01*
X59221949Y-95866556D01*
X59276273Y-95711304D01*
X61899500Y-95711304D01*
X61899500Y-95888695D01*
X61934103Y-96062658D01*
X61934106Y-96062667D01*
X62001983Y-96226540D01*
X62001990Y-96226553D01*
X62100535Y-96374034D01*
X62100538Y-96374038D01*
X62225961Y-96499461D01*
X62225965Y-96499464D01*
X62373446Y-96598009D01*
X62373459Y-96598016D01*
X62496363Y-96648923D01*
X62537334Y-96665894D01*
X62537336Y-96665894D01*
X62537341Y-96665896D01*
X62711304Y-96700499D01*
X62711307Y-96700500D01*
X62711309Y-96700500D01*
X62888693Y-96700500D01*
X62888694Y-96700499D01*
X62946682Y-96688964D01*
X63062658Y-96665896D01*
X63062661Y-96665894D01*
X63062666Y-96665894D01*
X63226547Y-96598013D01*
X63374035Y-96499464D01*
X63499464Y-96374035D01*
X63598013Y-96226547D01*
X63665894Y-96062666D01*
X63672205Y-96030942D01*
X63688964Y-95946682D01*
X63700500Y-95888691D01*
X63700500Y-95711309D01*
X63700500Y-95711306D01*
X63700499Y-95711304D01*
X63665896Y-95537341D01*
X63665893Y-95537332D01*
X63663247Y-95530945D01*
X63609009Y-95399999D01*
X63598016Y-95373459D01*
X63598009Y-95373446D01*
X63499464Y-95225965D01*
X63499461Y-95225961D01*
X63374038Y-95100538D01*
X63374034Y-95100535D01*
X63226553Y-95001990D01*
X63226540Y-95001983D01*
X63062667Y-94934106D01*
X63062658Y-94934103D01*
X62888694Y-94899500D01*
X62888691Y-94899500D01*
X62711309Y-94899500D01*
X62711306Y-94899500D01*
X62537341Y-94934103D01*
X62537332Y-94934106D01*
X62373459Y-95001983D01*
X62373446Y-95001990D01*
X62225965Y-95100535D01*
X62225961Y-95100538D01*
X62100538Y-95225961D01*
X62100535Y-95225965D01*
X62001990Y-95373446D01*
X62001983Y-95373459D01*
X61934106Y-95537332D01*
X61934103Y-95537341D01*
X61899500Y-95711304D01*
X59276273Y-95711304D01*
X59277068Y-95709032D01*
X59292735Y-95664262D01*
X59292735Y-95664261D01*
X59314706Y-95601471D01*
X59314708Y-95601465D01*
X59329344Y-95537341D01*
X59377203Y-95327657D01*
X59408648Y-95048573D01*
X59408648Y-94767723D01*
X59385780Y-94564760D01*
X59377205Y-94488653D01*
X59377202Y-94488635D01*
X59376274Y-94484571D01*
X59314708Y-94214830D01*
X59221949Y-93949740D01*
X59100931Y-93698444D01*
X59100094Y-93696705D01*
X59092785Y-93685073D01*
X58950671Y-93458900D01*
X58775564Y-93239323D01*
X58576973Y-93040732D01*
X58357396Y-92865625D01*
X58119593Y-92716203D01*
X58119590Y-92716201D01*
X57866559Y-92594348D01*
X57660539Y-92522258D01*
X57601477Y-92501591D01*
X57601465Y-92501587D01*
X57327660Y-92439093D01*
X57327642Y-92439090D01*
X57081028Y-92411304D01*
X61849500Y-92411304D01*
X61849500Y-92588695D01*
X61884103Y-92762658D01*
X61884106Y-92762667D01*
X61951983Y-92926540D01*
X61951990Y-92926553D01*
X62050535Y-93074034D01*
X62050538Y-93074038D01*
X62175961Y-93199461D01*
X62175965Y-93199464D01*
X62323446Y-93298009D01*
X62323459Y-93298016D01*
X62411242Y-93334376D01*
X62487334Y-93365894D01*
X62487336Y-93365894D01*
X62487341Y-93365896D01*
X62661304Y-93400499D01*
X62661307Y-93400500D01*
X62661309Y-93400500D01*
X62838693Y-93400500D01*
X62838694Y-93400499D01*
X62896682Y-93388964D01*
X63012658Y-93365896D01*
X63012661Y-93365894D01*
X63012666Y-93365894D01*
X63176547Y-93298013D01*
X63324035Y-93199464D01*
X63449464Y-93074035D01*
X63548013Y-92926547D01*
X63615894Y-92762666D01*
X63650500Y-92588691D01*
X63650500Y-92411309D01*
X63650500Y-92411306D01*
X63650499Y-92411304D01*
X63615896Y-92237341D01*
X63615893Y-92237332D01*
X63548016Y-92073459D01*
X63548009Y-92073446D01*
X63449464Y-91925965D01*
X63449461Y-91925961D01*
X63324038Y-91800538D01*
X63324034Y-91800535D01*
X63176553Y-91701990D01*
X63176540Y-91701983D01*
X63012667Y-91634106D01*
X63012658Y-91634103D01*
X62838694Y-91599500D01*
X62838691Y-91599500D01*
X62661309Y-91599500D01*
X62661306Y-91599500D01*
X62487341Y-91634103D01*
X62487332Y-91634106D01*
X62323459Y-91701983D01*
X62323446Y-91701990D01*
X62175965Y-91800535D01*
X62175961Y-91800538D01*
X62050538Y-91925961D01*
X62050535Y-91925965D01*
X61951990Y-92073446D01*
X61951983Y-92073459D01*
X61884106Y-92237332D01*
X61884103Y-92237341D01*
X61849500Y-92411304D01*
X57081028Y-92411304D01*
X57048579Y-92407648D01*
X57048573Y-92407648D01*
X56767723Y-92407648D01*
X56767716Y-92407648D01*
X56488653Y-92439090D01*
X56488635Y-92439093D01*
X56214830Y-92501587D01*
X56214818Y-92501591D01*
X55949736Y-92594348D01*
X55949728Y-92594351D01*
X55826555Y-92653668D01*
X55757613Y-92665020D01*
X55693479Y-92637297D01*
X55654514Y-92579302D01*
X55653089Y-92509447D01*
X55685073Y-92454267D01*
X56446994Y-91692346D01*
X56484571Y-91645715D01*
X56484576Y-91645708D01*
X56544298Y-91514935D01*
X56544300Y-91514927D01*
X56564760Y-91372614D01*
X56544300Y-91230300D01*
X56544298Y-91230292D01*
X56484576Y-91099519D01*
X56484571Y-91099512D01*
X56446994Y-91052881D01*
X55600000Y-90205887D01*
X55599999Y-90205887D01*
X54697579Y-91108307D01*
X54689372Y-91056488D01*
X54623708Y-90854394D01*
X54527237Y-90665060D01*
X54402336Y-90493148D01*
X54252080Y-90342892D01*
X54080168Y-90217991D01*
X53890834Y-90121520D01*
X53688740Y-90055856D01*
X53636920Y-90047648D01*
X54539340Y-89145227D01*
X54539340Y-89145226D01*
X53692350Y-88298237D01*
X53692346Y-88298233D01*
X53645715Y-88260656D01*
X53645708Y-88260651D01*
X53514935Y-88200929D01*
X53514927Y-88200927D01*
X53372614Y-88180467D01*
X53230300Y-88200927D01*
X53230292Y-88200929D01*
X53099519Y-88260651D01*
X53099512Y-88260656D01*
X53052876Y-88298237D01*
X52205887Y-89145226D01*
X52205887Y-89145227D01*
X53108308Y-90047648D01*
X53056488Y-90055856D01*
X52854394Y-90121520D01*
X52665060Y-90217991D01*
X52493148Y-90342892D01*
X52342892Y-90493148D01*
X52217991Y-90665060D01*
X52121520Y-90854394D01*
X52055856Y-91056488D01*
X52047648Y-91108308D01*
X51145227Y-90205887D01*
X51145226Y-90205887D01*
X50298237Y-91052876D01*
X50260656Y-91099512D01*
X50260651Y-91099519D01*
X50200929Y-91230292D01*
X50200927Y-91230300D01*
X50180467Y-91372614D01*
X48344916Y-91372614D01*
X48334153Y-49609568D01*
X51199500Y-49609568D01*
X51199500Y-49890431D01*
X51230942Y-50169494D01*
X51230945Y-50169512D01*
X51293439Y-50443317D01*
X51293443Y-50443329D01*
X51386200Y-50708411D01*
X51508053Y-50961442D01*
X51508055Y-50961445D01*
X51657477Y-51199248D01*
X51832584Y-51418825D01*
X52031175Y-51617416D01*
X52250752Y-51792523D01*
X52488555Y-51941945D01*
X52741592Y-52063801D01*
X52875256Y-52110572D01*
X53006670Y-52156556D01*
X53006682Y-52156560D01*
X53280491Y-52219055D01*
X53280497Y-52219055D01*
X53280505Y-52219057D01*
X53466547Y-52240018D01*
X53559569Y-52250499D01*
X53559572Y-52250500D01*
X53559575Y-52250500D01*
X53840428Y-52250500D01*
X53840429Y-52250499D01*
X53983055Y-52234429D01*
X54119494Y-52219057D01*
X54119499Y-52219056D01*
X54119509Y-52219055D01*
X54393318Y-52156560D01*
X54658408Y-52063801D01*
X54911445Y-51941945D01*
X55149248Y-51792523D01*
X55368825Y-51617416D01*
X55567416Y-51418825D01*
X55742523Y-51199248D01*
X55891945Y-50961445D01*
X56013801Y-50708408D01*
X56058459Y-50580783D01*
X56099180Y-50524007D01*
X56164133Y-50498260D01*
X56232695Y-50511716D01*
X56283097Y-50560104D01*
X56299500Y-50621738D01*
X56299500Y-51390224D01*
X56279815Y-51457263D01*
X56227011Y-51503018D01*
X56210436Y-51509201D01*
X56112496Y-51537959D01*
X56112492Y-51537961D01*
X55991462Y-51615743D01*
X55991451Y-51615751D01*
X55938659Y-51661495D01*
X55844433Y-51770236D01*
X55844430Y-51770240D01*
X55784664Y-51901106D01*
X55764976Y-51968154D01*
X55744500Y-52110573D01*
X55744500Y-74204778D01*
X55745535Y-74237128D01*
X55746546Y-74252918D01*
X55749649Y-74285149D01*
X55788137Y-74423782D01*
X55816219Y-74487763D01*
X55892206Y-74609942D01*
X74338588Y-96546181D01*
X74348240Y-96559324D01*
X74351836Y-96564965D01*
X74420658Y-96650694D01*
X74535838Y-96736920D01*
X74573951Y-96757732D01*
X74597155Y-96770403D01*
X74597157Y-96770404D01*
X74597161Y-96770406D01*
X74731966Y-96820689D01*
X74734346Y-96820859D01*
X74736584Y-96821693D01*
X74740634Y-96822575D01*
X74740507Y-96823157D01*
X74799810Y-96845276D01*
X74841682Y-96901209D01*
X74849500Y-96944543D01*
X74849500Y-97628261D01*
X74829815Y-97695300D01*
X74777011Y-97741055D01*
X74707853Y-97750999D01*
X74644297Y-97721974D01*
X74608459Y-97669216D01*
X74577411Y-97580487D01*
X74563801Y-97541592D01*
X74454538Y-97314704D01*
X74441946Y-97288557D01*
X74441945Y-97288555D01*
X74292523Y-97050752D01*
X74117416Y-96831175D01*
X73918825Y-96632584D01*
X73699248Y-96457477D01*
X73461445Y-96308055D01*
X73461442Y-96308053D01*
X73208411Y-96186200D01*
X72943329Y-96093443D01*
X72943317Y-96093439D01*
X72669512Y-96030945D01*
X72669494Y-96030942D01*
X72390431Y-95999500D01*
X72390425Y-95999500D01*
X72109575Y-95999500D01*
X72109568Y-95999500D01*
X71830505Y-96030942D01*
X71830487Y-96030945D01*
X71556682Y-96093439D01*
X71556670Y-96093443D01*
X71291588Y-96186200D01*
X71038557Y-96308053D01*
X70800753Y-96457476D01*
X70581175Y-96632583D01*
X70382583Y-96831175D01*
X70207476Y-97050753D01*
X70058053Y-97288557D01*
X69936200Y-97541588D01*
X69843443Y-97806670D01*
X69843439Y-97806682D01*
X69780945Y-98080487D01*
X69780942Y-98080505D01*
X69749500Y-98359568D01*
X69749500Y-98640431D01*
X69780942Y-98919494D01*
X69780945Y-98919512D01*
X69843439Y-99193317D01*
X69843443Y-99193329D01*
X69936200Y-99458411D01*
X70058053Y-99711442D01*
X70073972Y-99736777D01*
X70207477Y-99949248D01*
X70382584Y-100168825D01*
X70581175Y-100367416D01*
X70800752Y-100542523D01*
X71038555Y-100691945D01*
X71291592Y-100813801D01*
X71490680Y-100883465D01*
X71556670Y-100906556D01*
X71556682Y-100906560D01*
X71830491Y-100969055D01*
X71830497Y-100969055D01*
X71830505Y-100969057D01*
X72016547Y-100990018D01*
X72109569Y-101000499D01*
X72109572Y-101000500D01*
X72109575Y-101000500D01*
X72390428Y-101000500D01*
X72390429Y-101000499D01*
X72533055Y-100984429D01*
X72669494Y-100969057D01*
X72669499Y-100969056D01*
X72669509Y-100969055D01*
X72943318Y-100906560D01*
X73208408Y-100813801D01*
X73461445Y-100691945D01*
X73699248Y-100542523D01*
X73918825Y-100367416D01*
X74117416Y-100168825D01*
X74292523Y-99949248D01*
X74441945Y-99711445D01*
X74563801Y-99458408D01*
X74608459Y-99330783D01*
X74649180Y-99274007D01*
X74714133Y-99248260D01*
X74782695Y-99261716D01*
X74833097Y-99310104D01*
X74849500Y-99371738D01*
X74849500Y-100070791D01*
X74829815Y-100137830D01*
X74777011Y-100183585D01*
X74754790Y-100190981D01*
X74754794Y-100190995D01*
X74754413Y-100191106D01*
X74751856Y-100191958D01*
X74750538Y-100192244D01*
X74612498Y-100232777D01*
X74612492Y-100232780D01*
X74491462Y-100310562D01*
X74491451Y-100310570D01*
X74438659Y-100356314D01*
X74344433Y-100465055D01*
X74344430Y-100465059D01*
X74284664Y-100595925D01*
X74264976Y-100662973D01*
X74251325Y-100757919D01*
X74244500Y-100805391D01*
X74244500Y-102226000D01*
X74244501Y-102226009D01*
X74256052Y-102333450D01*
X74256054Y-102333462D01*
X74267260Y-102384972D01*
X74301383Y-102487497D01*
X74301386Y-102487503D01*
X74379171Y-102608537D01*
X74379179Y-102608548D01*
X74424923Y-102661340D01*
X74424926Y-102661343D01*
X74424930Y-102661347D01*
X74533664Y-102755567D01*
X74533667Y-102755568D01*
X74533668Y-102755569D01*
X74627925Y-102798616D01*
X74664541Y-102815338D01*
X74731580Y-102835023D01*
X74731584Y-102835024D01*
X74874000Y-102855500D01*
X74874003Y-102855500D01*
X81025990Y-102855500D01*
X81026000Y-102855500D01*
X81133456Y-102843947D01*
X81184967Y-102832741D01*
X81219197Y-102821347D01*
X81287497Y-102798616D01*
X81287501Y-102798613D01*
X81287504Y-102798613D01*
X81408543Y-102720825D01*
X81461347Y-102675070D01*
X81555567Y-102566336D01*
X81615338Y-102435459D01*
X81635023Y-102368420D01*
X81635024Y-102368416D01*
X81643235Y-102311304D01*
X106099500Y-102311304D01*
X106099500Y-102488695D01*
X106134103Y-102662658D01*
X106134106Y-102662667D01*
X106201983Y-102826540D01*
X106201990Y-102826553D01*
X106300535Y-102974034D01*
X106300538Y-102974038D01*
X106425961Y-103099461D01*
X106425965Y-103099464D01*
X106573446Y-103198009D01*
X106573459Y-103198016D01*
X106696363Y-103248923D01*
X106737334Y-103265894D01*
X106737336Y-103265894D01*
X106737341Y-103265896D01*
X106911304Y-103300499D01*
X106911307Y-103300500D01*
X106911309Y-103300500D01*
X107088693Y-103300500D01*
X107088694Y-103300499D01*
X107146682Y-103288964D01*
X107262658Y-103265896D01*
X107262661Y-103265894D01*
X107262666Y-103265894D01*
X107426547Y-103198013D01*
X107574035Y-103099464D01*
X107699464Y-102974035D01*
X107798013Y-102826547D01*
X107865894Y-102662666D01*
X107866157Y-102661347D01*
X107891129Y-102535802D01*
X107900500Y-102488691D01*
X107900500Y-102311309D01*
X107900500Y-102311306D01*
X107900499Y-102311304D01*
X109899500Y-102311304D01*
X109899500Y-102488695D01*
X109934103Y-102662658D01*
X109934106Y-102662667D01*
X110001983Y-102826540D01*
X110001990Y-102826553D01*
X110100535Y-102974034D01*
X110100538Y-102974038D01*
X110225961Y-103099461D01*
X110225965Y-103099464D01*
X110373446Y-103198009D01*
X110373459Y-103198016D01*
X110496363Y-103248923D01*
X110537334Y-103265894D01*
X110537336Y-103265894D01*
X110537341Y-103265896D01*
X110711304Y-103300499D01*
X110711307Y-103300500D01*
X110711309Y-103300500D01*
X110888693Y-103300500D01*
X110888694Y-103300499D01*
X110946682Y-103288964D01*
X111062658Y-103265896D01*
X111062661Y-103265894D01*
X111062666Y-103265894D01*
X111226547Y-103198013D01*
X111374035Y-103099464D01*
X111499464Y-102974035D01*
X111598013Y-102826547D01*
X111665894Y-102662666D01*
X111666157Y-102661347D01*
X111691129Y-102535802D01*
X111700500Y-102488691D01*
X111700500Y-102311309D01*
X111700500Y-102311306D01*
X111700499Y-102311304D01*
X111665896Y-102137341D01*
X111665893Y-102137332D01*
X111598016Y-101973459D01*
X111598009Y-101973446D01*
X111499464Y-101825965D01*
X111499461Y-101825961D01*
X111374038Y-101700538D01*
X111374034Y-101700535D01*
X111226553Y-101601990D01*
X111226540Y-101601983D01*
X111062667Y-101534106D01*
X111062658Y-101534103D01*
X110888694Y-101499500D01*
X110888691Y-101499500D01*
X110711309Y-101499500D01*
X110711306Y-101499500D01*
X110537341Y-101534103D01*
X110537332Y-101534106D01*
X110373459Y-101601983D01*
X110373446Y-101601990D01*
X110225965Y-101700535D01*
X110225961Y-101700538D01*
X110100538Y-101825961D01*
X110100535Y-101825965D01*
X110001990Y-101973446D01*
X110001983Y-101973459D01*
X109934106Y-102137332D01*
X109934103Y-102137341D01*
X109899500Y-102311304D01*
X107900499Y-102311304D01*
X107865896Y-102137341D01*
X107865893Y-102137332D01*
X107798016Y-101973459D01*
X107798009Y-101973446D01*
X107699464Y-101825965D01*
X107699461Y-101825961D01*
X107574038Y-101700538D01*
X107574034Y-101700535D01*
X107426553Y-101601990D01*
X107426540Y-101601983D01*
X107262667Y-101534106D01*
X107262658Y-101534103D01*
X107088694Y-101499500D01*
X107088691Y-101499500D01*
X106911309Y-101499500D01*
X106911306Y-101499500D01*
X106737341Y-101534103D01*
X106737332Y-101534106D01*
X106573459Y-101601983D01*
X106573446Y-101601990D01*
X106425965Y-101700535D01*
X106425961Y-101700538D01*
X106300538Y-101825961D01*
X106300535Y-101825965D01*
X106201990Y-101973446D01*
X106201983Y-101973459D01*
X106134106Y-102137332D01*
X106134103Y-102137341D01*
X106099500Y-102311304D01*
X81643235Y-102311304D01*
X81655500Y-102226000D01*
X81655500Y-101278711D01*
X122496500Y-101278711D01*
X122496500Y-101521288D01*
X122524873Y-101736812D01*
X122528162Y-101761789D01*
X122541530Y-101811680D01*
X122590947Y-101996104D01*
X122683773Y-102220205D01*
X122683777Y-102220214D01*
X122687118Y-102226000D01*
X122805064Y-102430289D01*
X122805066Y-102430292D01*
X122805067Y-102430293D01*
X122952733Y-102622736D01*
X122952739Y-102622743D01*
X123124256Y-102794260D01*
X123124263Y-102794266D01*
X123204064Y-102855499D01*
X123316711Y-102941936D01*
X123526788Y-103063224D01*
X123750900Y-103156054D01*
X123985211Y-103218838D01*
X124165586Y-103242584D01*
X124225711Y-103250500D01*
X124225712Y-103250500D01*
X124468289Y-103250500D01*
X124516388Y-103244167D01*
X124708789Y-103218838D01*
X124943100Y-103156054D01*
X125167212Y-103063224D01*
X125377289Y-102941936D01*
X125569738Y-102794265D01*
X125741265Y-102622738D01*
X125888936Y-102430289D01*
X126010224Y-102220212D01*
X126103054Y-101996100D01*
X126165838Y-101761789D01*
X126197500Y-101521288D01*
X126197500Y-101278712D01*
X126165838Y-101038211D01*
X126103054Y-100803900D01*
X126010224Y-100579788D01*
X125888936Y-100369711D01*
X125752761Y-100192244D01*
X125741266Y-100177263D01*
X125741260Y-100177256D01*
X125569743Y-100005739D01*
X125569736Y-100005733D01*
X125377293Y-99858067D01*
X125377292Y-99858066D01*
X125377289Y-99858064D01*
X125167212Y-99736776D01*
X125167205Y-99736773D01*
X124943104Y-99643947D01*
X124708785Y-99581161D01*
X124468289Y-99549500D01*
X124468288Y-99549500D01*
X124225712Y-99549500D01*
X124225711Y-99549500D01*
X123985214Y-99581161D01*
X123750895Y-99643947D01*
X123526794Y-99736773D01*
X123526785Y-99736777D01*
X123316706Y-99858067D01*
X123124263Y-100005733D01*
X123124256Y-100005739D01*
X122952739Y-100177256D01*
X122952733Y-100177263D01*
X122805067Y-100369706D01*
X122683777Y-100579785D01*
X122683773Y-100579794D01*
X122590947Y-100803895D01*
X122528161Y-101038214D01*
X122496500Y-101278711D01*
X81655500Y-101278711D01*
X81655500Y-97859568D01*
X98499500Y-97859568D01*
X98499500Y-98140431D01*
X98530942Y-98419494D01*
X98530945Y-98419512D01*
X98593439Y-98693317D01*
X98593443Y-98693329D01*
X98686200Y-98958411D01*
X98808053Y-99211442D01*
X98808055Y-99211445D01*
X98957477Y-99449248D01*
X99132584Y-99668825D01*
X99331175Y-99867416D01*
X99550752Y-100042523D01*
X99788555Y-100191945D01*
X100041592Y-100313801D01*
X100201374Y-100369711D01*
X100306670Y-100406556D01*
X100306682Y-100406560D01*
X100580491Y-100469055D01*
X100580497Y-100469055D01*
X100580505Y-100469057D01*
X100766547Y-100490018D01*
X100859569Y-100500499D01*
X100859572Y-100500500D01*
X100859575Y-100500500D01*
X101140428Y-100500500D01*
X101140429Y-100500499D01*
X101283055Y-100484429D01*
X101419494Y-100469057D01*
X101419499Y-100469056D01*
X101419509Y-100469055D01*
X101693318Y-100406560D01*
X101958408Y-100313801D01*
X102211445Y-100191945D01*
X102449248Y-100042523D01*
X102668825Y-99867416D01*
X102867416Y-99668825D01*
X103042523Y-99449248D01*
X103191945Y-99211445D01*
X103313801Y-98958408D01*
X103406560Y-98693318D01*
X103469055Y-98419509D01*
X103500500Y-98140425D01*
X103500500Y-97859575D01*
X103479052Y-97669216D01*
X103469057Y-97580505D01*
X103469054Y-97580487D01*
X103460176Y-97541592D01*
X103406560Y-97306682D01*
X103313801Y-97041592D01*
X103208608Y-96823157D01*
X103191946Y-96788557D01*
X103136616Y-96700500D01*
X103042523Y-96550752D01*
X102867416Y-96331175D01*
X102668825Y-96132584D01*
X102449248Y-95957477D01*
X102211445Y-95808055D01*
X102211442Y-95808053D01*
X101958411Y-95686200D01*
X101829355Y-95641041D01*
X101772579Y-95600319D01*
X101746832Y-95535367D01*
X101760288Y-95466805D01*
X101808676Y-95416402D01*
X101870310Y-95400000D01*
X102947828Y-95400000D01*
X102947844Y-95399999D01*
X103007372Y-95393598D01*
X103007379Y-95393596D01*
X103142086Y-95343354D01*
X103142093Y-95343350D01*
X103257187Y-95257190D01*
X103257190Y-95257187D01*
X103343350Y-95142093D01*
X103343354Y-95142086D01*
X103393596Y-95007379D01*
X103393598Y-95007372D01*
X103399999Y-94947844D01*
X103400000Y-94947827D01*
X103400000Y-94827387D01*
X116080466Y-94827387D01*
X116100926Y-94969700D01*
X116100928Y-94969708D01*
X116160650Y-95100481D01*
X116160655Y-95100488D01*
X116198232Y-95147119D01*
X117045226Y-95994113D01*
X117947647Y-95091691D01*
X117955855Y-95143513D01*
X118021519Y-95345607D01*
X118117990Y-95534941D01*
X118242891Y-95706853D01*
X118393147Y-95857109D01*
X118565059Y-95982010D01*
X118754393Y-96078481D01*
X118956487Y-96144145D01*
X119008306Y-96152352D01*
X118105886Y-97054772D01*
X118105886Y-97054773D01*
X118952880Y-97901767D01*
X118999511Y-97939344D01*
X118999518Y-97939349D01*
X119130291Y-97999071D01*
X119130299Y-97999073D01*
X119272613Y-98019533D01*
X119414926Y-97999073D01*
X119414934Y-97999071D01*
X119545707Y-97939349D01*
X119545714Y-97939344D01*
X119592345Y-97901767D01*
X120439339Y-97054773D01*
X120439339Y-97054772D01*
X119536918Y-96152352D01*
X119588739Y-96144145D01*
X119790833Y-96078481D01*
X119980167Y-95982010D01*
X120152079Y-95857109D01*
X120302335Y-95706853D01*
X120427236Y-95534941D01*
X120523707Y-95345607D01*
X120589371Y-95143513D01*
X120597578Y-95091692D01*
X121499999Y-95994113D01*
X122346993Y-95147119D01*
X122384570Y-95100488D01*
X122384575Y-95100481D01*
X122444297Y-94969708D01*
X122444299Y-94969700D01*
X122464759Y-94827387D01*
X122444299Y-94685073D01*
X122444297Y-94685065D01*
X122384575Y-94554292D01*
X122384570Y-94554285D01*
X122346993Y-94507654D01*
X121585072Y-93745733D01*
X121551587Y-93684410D01*
X121556571Y-93614718D01*
X121598443Y-93558785D01*
X121663907Y-93534368D01*
X121726555Y-93546332D01*
X121849739Y-93605654D01*
X122006937Y-93660660D01*
X122114817Y-93698409D01*
X122114829Y-93698413D01*
X122388638Y-93760908D01*
X122388644Y-93760908D01*
X122388652Y-93760910D01*
X122574694Y-93781871D01*
X122667716Y-93792352D01*
X122667719Y-93792353D01*
X122667722Y-93792353D01*
X122948575Y-93792353D01*
X122948576Y-93792352D01*
X123091202Y-93776282D01*
X123227641Y-93760910D01*
X123227646Y-93760909D01*
X123227656Y-93760908D01*
X123501465Y-93698413D01*
X123766555Y-93605654D01*
X124019592Y-93483798D01*
X124257395Y-93334376D01*
X124476972Y-93159269D01*
X124675563Y-92960678D01*
X124850670Y-92741101D01*
X125000092Y-92503298D01*
X125121948Y-92250261D01*
X125214707Y-91985171D01*
X125277202Y-91711362D01*
X125278259Y-91701987D01*
X125308646Y-91432284D01*
X125308647Y-91432280D01*
X125308647Y-91151425D01*
X125308646Y-91151421D01*
X125306078Y-91128632D01*
X125297950Y-91056488D01*
X125277204Y-90872358D01*
X125277201Y-90872340D01*
X125247636Y-90742809D01*
X125214707Y-90598535D01*
X125121948Y-90333445D01*
X125000092Y-90080408D01*
X124850670Y-89842605D01*
X124675563Y-89623028D01*
X124476972Y-89424437D01*
X124257395Y-89249330D01*
X124019592Y-89099908D01*
X124019589Y-89099906D01*
X123766558Y-88978053D01*
X123501476Y-88885296D01*
X123501464Y-88885292D01*
X123227659Y-88822798D01*
X123227641Y-88822795D01*
X122948578Y-88791353D01*
X122948572Y-88791353D01*
X122667722Y-88791353D01*
X122667715Y-88791353D01*
X122388652Y-88822795D01*
X122388634Y-88822798D01*
X122114829Y-88885292D01*
X122114817Y-88885296D01*
X121849735Y-88978053D01*
X121596704Y-89099906D01*
X121358900Y-89249329D01*
X121139322Y-89424436D01*
X120940730Y-89623028D01*
X120765623Y-89842606D01*
X120616200Y-90080410D01*
X120494347Y-90333441D01*
X120401590Y-90598523D01*
X120401586Y-90598535D01*
X120339092Y-90872340D01*
X120339089Y-90872358D01*
X120307647Y-91151421D01*
X120307647Y-91432284D01*
X120339089Y-91711347D01*
X120339092Y-91711365D01*
X120401586Y-91985170D01*
X120401590Y-91985182D01*
X120494347Y-92250264D01*
X120494350Y-92250272D01*
X120553667Y-92373445D01*
X120565019Y-92442386D01*
X120537297Y-92506521D01*
X120479301Y-92545486D01*
X120409446Y-92546911D01*
X120354266Y-92514927D01*
X119592345Y-91753006D01*
X119545714Y-91715429D01*
X119545707Y-91715424D01*
X119414934Y-91655702D01*
X119414926Y-91655700D01*
X119272613Y-91635240D01*
X119130299Y-91655700D01*
X119130291Y-91655702D01*
X118999518Y-91715424D01*
X118999511Y-91715429D01*
X118952875Y-91753010D01*
X118105886Y-92599999D01*
X118105886Y-92600000D01*
X119008307Y-93502421D01*
X118956487Y-93510629D01*
X118754393Y-93576293D01*
X118565059Y-93672764D01*
X118393147Y-93797665D01*
X118242891Y-93947921D01*
X118117990Y-94119833D01*
X118021519Y-94309167D01*
X117955855Y-94511261D01*
X117947647Y-94563081D01*
X117045226Y-93660660D01*
X117045225Y-93660660D01*
X116198236Y-94507649D01*
X116160655Y-94554285D01*
X116160650Y-94554292D01*
X116100928Y-94685065D01*
X116100926Y-94685073D01*
X116080466Y-94827387D01*
X103400000Y-94827387D01*
X103400000Y-93750000D01*
X102123784Y-93750000D01*
X102154623Y-93707554D01*
X102251094Y-93518220D01*
X102316758Y-93316126D01*
X102350000Y-93106247D01*
X102350000Y-92893753D01*
X102316758Y-92683874D01*
X102251094Y-92481780D01*
X102154623Y-92292446D01*
X102123784Y-92250000D01*
X103400000Y-92250000D01*
X103400000Y-91052172D01*
X103399999Y-91052155D01*
X103393598Y-90992627D01*
X103393596Y-90992620D01*
X103343354Y-90857913D01*
X103343350Y-90857906D01*
X103257190Y-90742812D01*
X103257187Y-90742809D01*
X103142093Y-90656649D01*
X103142086Y-90656645D01*
X103007379Y-90606403D01*
X103007372Y-90606401D01*
X102947844Y-90600000D01*
X101750000Y-90600000D01*
X101750000Y-91876215D01*
X101707554Y-91845377D01*
X101518220Y-91748906D01*
X101316126Y-91683242D01*
X101106247Y-91650000D01*
X100893753Y-91650000D01*
X100683874Y-91683242D01*
X100481780Y-91748906D01*
X100292446Y-91845377D01*
X100250000Y-91876215D01*
X100250000Y-90600000D01*
X99052155Y-90600000D01*
X98992627Y-90606401D01*
X98992620Y-90606403D01*
X98857913Y-90656645D01*
X98857906Y-90656649D01*
X98742812Y-90742809D01*
X98742809Y-90742812D01*
X98656649Y-90857906D01*
X98656645Y-90857913D01*
X98606403Y-90992620D01*
X98606401Y-90992627D01*
X98600000Y-91052155D01*
X98600000Y-92250000D01*
X99876216Y-92250000D01*
X99845377Y-92292446D01*
X99748906Y-92481780D01*
X99683242Y-92683874D01*
X99650000Y-92893753D01*
X99650000Y-93106247D01*
X99683242Y-93316126D01*
X99748906Y-93518220D01*
X99845377Y-93707554D01*
X99876216Y-93750000D01*
X98600000Y-93750000D01*
X98600000Y-94947844D01*
X98606401Y-95007372D01*
X98606403Y-95007379D01*
X98656645Y-95142086D01*
X98656649Y-95142093D01*
X98742809Y-95257187D01*
X98742812Y-95257190D01*
X98857906Y-95343350D01*
X98857913Y-95343354D01*
X98992620Y-95393596D01*
X98992627Y-95393598D01*
X99052155Y-95399999D01*
X99052172Y-95400000D01*
X100129690Y-95400000D01*
X100196729Y-95419685D01*
X100242484Y-95472489D01*
X100252428Y-95541647D01*
X100223403Y-95605203D01*
X100170645Y-95641041D01*
X100041588Y-95686200D01*
X99788557Y-95808053D01*
X99550753Y-95957476D01*
X99331175Y-96132583D01*
X99132583Y-96331175D01*
X98957476Y-96550753D01*
X98808053Y-96788557D01*
X98686200Y-97041588D01*
X98593443Y-97306670D01*
X98593439Y-97306682D01*
X98530945Y-97580487D01*
X98530942Y-97580505D01*
X98499500Y-97859568D01*
X81655500Y-97859568D01*
X81655500Y-96295187D01*
X81654470Y-96262929D01*
X81653460Y-96247134D01*
X81650372Y-96214997D01*
X81611920Y-96076350D01*
X81583856Y-96012365D01*
X81507904Y-95890171D01*
X81507902Y-95890169D01*
X81507900Y-95890165D01*
X78766566Y-92628418D01*
X77506072Y-91128632D01*
X74526985Y-87583997D01*
X74465049Y-87510303D01*
X77174500Y-87510303D01*
X77174500Y-87687694D01*
X77209103Y-87861657D01*
X77209106Y-87861666D01*
X77276983Y-88025539D01*
X77276990Y-88025552D01*
X77375535Y-88173033D01*
X77375538Y-88173037D01*
X77500961Y-88298460D01*
X77500965Y-88298463D01*
X77648446Y-88397008D01*
X77648459Y-88397015D01*
X77771363Y-88447922D01*
X77812334Y-88464893D01*
X77812336Y-88464893D01*
X77812341Y-88464895D01*
X77986304Y-88499498D01*
X77986307Y-88499499D01*
X77986309Y-88499499D01*
X78163693Y-88499499D01*
X78163694Y-88499498D01*
X78221682Y-88487963D01*
X78337658Y-88464895D01*
X78337661Y-88464893D01*
X78337666Y-88464893D01*
X78501547Y-88397012D01*
X78649035Y-88298463D01*
X78774464Y-88173034D01*
X78873013Y-88025546D01*
X78940894Y-87861665D01*
X78949408Y-87818858D01*
X78981791Y-87756950D01*
X79042506Y-87722375D01*
X79095217Y-87721434D01*
X79236306Y-87749499D01*
X79236309Y-87749499D01*
X79413693Y-87749499D01*
X79413694Y-87749498D01*
X79471682Y-87737963D01*
X79587658Y-87714895D01*
X79587661Y-87714893D01*
X79587666Y-87714893D01*
X79751547Y-87647012D01*
X79899035Y-87548463D01*
X80024464Y-87423034D01*
X80123013Y-87275546D01*
X80190894Y-87111665D01*
X80225500Y-86937690D01*
X80225500Y-86760308D01*
X80225500Y-86760305D01*
X80225499Y-86760303D01*
X80190896Y-86586340D01*
X80190893Y-86586331D01*
X80123016Y-86422458D01*
X80123009Y-86422445D01*
X80024464Y-86274964D01*
X80024461Y-86274960D01*
X79899038Y-86149537D01*
X79899034Y-86149534D01*
X79751553Y-86050989D01*
X79751540Y-86050982D01*
X79587667Y-85983105D01*
X79587658Y-85983102D01*
X79413694Y-85948499D01*
X79413691Y-85948499D01*
X79314969Y-85948499D01*
X79247930Y-85928814D01*
X79202175Y-85876010D01*
X79193352Y-85848694D01*
X79190894Y-85836333D01*
X79163741Y-85770780D01*
X79123016Y-85672458D01*
X79123009Y-85672445D01*
X79024464Y-85524964D01*
X79024461Y-85524960D01*
X78899038Y-85399537D01*
X78899034Y-85399534D01*
X78751553Y-85300989D01*
X78751540Y-85300982D01*
X78587667Y-85233105D01*
X78587658Y-85233102D01*
X78413694Y-85198499D01*
X78413691Y-85198499D01*
X78236309Y-85198499D01*
X78236306Y-85198499D01*
X78062341Y-85233102D01*
X78062332Y-85233105D01*
X77898459Y-85300982D01*
X77898446Y-85300989D01*
X77750965Y-85399534D01*
X77750961Y-85399537D01*
X77625538Y-85524960D01*
X77625535Y-85524964D01*
X77526990Y-85672445D01*
X77526983Y-85672458D01*
X77459106Y-85836331D01*
X77459103Y-85836340D01*
X77424500Y-86010303D01*
X77424500Y-86187694D01*
X77459103Y-86361657D01*
X77459106Y-86361666D01*
X77526983Y-86525539D01*
X77526990Y-86525552D01*
X77622824Y-86668976D01*
X77643702Y-86735653D01*
X77625218Y-86803033D01*
X77588614Y-86840969D01*
X77500961Y-86899537D01*
X77375538Y-87024960D01*
X77375535Y-87024964D01*
X77276990Y-87172445D01*
X77276983Y-87172458D01*
X77209106Y-87336331D01*
X77209103Y-87336340D01*
X77174500Y-87510303D01*
X74465049Y-87510303D01*
X69821310Y-81984998D01*
X69759374Y-81911304D01*
X79599500Y-81911304D01*
X79599500Y-82088695D01*
X79634103Y-82262658D01*
X79634106Y-82262667D01*
X79701983Y-82426540D01*
X79701990Y-82426553D01*
X79800535Y-82574034D01*
X79800538Y-82574038D01*
X79925961Y-82699461D01*
X79925965Y-82699464D01*
X80073446Y-82798009D01*
X80073459Y-82798016D01*
X80196363Y-82848923D01*
X80237334Y-82865894D01*
X80237336Y-82865894D01*
X80237341Y-82865896D01*
X80411304Y-82900499D01*
X80411307Y-82900500D01*
X80411309Y-82900500D01*
X80588693Y-82900500D01*
X80588694Y-82900499D01*
X80646682Y-82888964D01*
X80762658Y-82865896D01*
X80762661Y-82865894D01*
X80762666Y-82865894D01*
X80926547Y-82798013D01*
X81074035Y-82699464D01*
X81074038Y-82699461D01*
X81162319Y-82611181D01*
X81223642Y-82577696D01*
X81293334Y-82582680D01*
X81337681Y-82611181D01*
X81425961Y-82699461D01*
X81425965Y-82699464D01*
X81573446Y-82798009D01*
X81573459Y-82798016D01*
X81696363Y-82848923D01*
X81737334Y-82865894D01*
X81737336Y-82865894D01*
X81737341Y-82865896D01*
X81911304Y-82900499D01*
X81911307Y-82900500D01*
X81911309Y-82900500D01*
X82088693Y-82900500D01*
X82088694Y-82900499D01*
X82146682Y-82888964D01*
X82262658Y-82865896D01*
X82262661Y-82865894D01*
X82262666Y-82865894D01*
X82426547Y-82798013D01*
X82574035Y-82699464D01*
X82699464Y-82574035D01*
X82798013Y-82426547D01*
X82865894Y-82262666D01*
X82874081Y-82221505D01*
X82906465Y-82159597D01*
X82967180Y-82125022D01*
X82971464Y-82124089D01*
X83012666Y-82115894D01*
X83176547Y-82048013D01*
X83324035Y-81949464D01*
X83449464Y-81824035D01*
X83548013Y-81676547D01*
X83615894Y-81512666D01*
X83628467Y-81449461D01*
X83650499Y-81338695D01*
X83650500Y-81338693D01*
X83650500Y-81161306D01*
X83650499Y-81161304D01*
X83615896Y-80987341D01*
X83615893Y-80987332D01*
X83548016Y-80823459D01*
X83548009Y-80823446D01*
X83449464Y-80675965D01*
X83449461Y-80675961D01*
X83324038Y-80550538D01*
X83324034Y-80550535D01*
X83176553Y-80451990D01*
X83176540Y-80451983D01*
X83012667Y-80384106D01*
X83012658Y-80384103D01*
X82838694Y-80349500D01*
X82838691Y-80349500D01*
X82661309Y-80349500D01*
X82661306Y-80349500D01*
X82487341Y-80384103D01*
X82487332Y-80384106D01*
X82323459Y-80451983D01*
X82323446Y-80451990D01*
X82175965Y-80550535D01*
X82175961Y-80550538D01*
X82087681Y-80638819D01*
X82026358Y-80672304D01*
X81956666Y-80667320D01*
X81912319Y-80638819D01*
X81824038Y-80550538D01*
X81824034Y-80550535D01*
X81676553Y-80451990D01*
X81676540Y-80451983D01*
X81512667Y-80384106D01*
X81512658Y-80384103D01*
X81338694Y-80349500D01*
X81338691Y-80349500D01*
X81161309Y-80349500D01*
X81161306Y-80349500D01*
X80987341Y-80384103D01*
X80987332Y-80384106D01*
X80823459Y-80451983D01*
X80823446Y-80451990D01*
X80675965Y-80550535D01*
X80675961Y-80550538D01*
X80550538Y-80675961D01*
X80550535Y-80675965D01*
X80451990Y-80823446D01*
X80451983Y-80823459D01*
X80384106Y-80987331D01*
X80384104Y-80987339D01*
X80375918Y-81028493D01*
X80343532Y-81090404D01*
X80282816Y-81124978D01*
X80278493Y-81125918D01*
X80237339Y-81134104D01*
X80237331Y-81134106D01*
X80073459Y-81201983D01*
X80073446Y-81201990D01*
X79925965Y-81300535D01*
X79925961Y-81300538D01*
X79800538Y-81425961D01*
X79800535Y-81425965D01*
X79701990Y-81573446D01*
X79701983Y-81573459D01*
X79634106Y-81737332D01*
X79634103Y-81737341D01*
X79599500Y-81911304D01*
X69759374Y-81911304D01*
X68713651Y-80667062D01*
X68685587Y-80603076D01*
X68696572Y-80534075D01*
X68720892Y-80499603D01*
X68750463Y-80470034D01*
X68849012Y-80322546D01*
X68857708Y-80301553D01*
X68900171Y-80199035D01*
X68916893Y-80158665D01*
X68918518Y-80150500D01*
X68946446Y-80010092D01*
X68951499Y-79984690D01*
X68951499Y-79807308D01*
X68951499Y-79807305D01*
X68951498Y-79807303D01*
X68916895Y-79633340D01*
X68916892Y-79633331D01*
X68849015Y-79469458D01*
X68849008Y-79469445D01*
X68750463Y-79321964D01*
X68750460Y-79321960D01*
X68625037Y-79196537D01*
X68625033Y-79196534D01*
X68477552Y-79097989D01*
X68477539Y-79097982D01*
X68313666Y-79030105D01*
X68313657Y-79030102D01*
X68139693Y-78995499D01*
X68139690Y-78995499D01*
X67962308Y-78995499D01*
X67962305Y-78995499D01*
X67788340Y-79030102D01*
X67788331Y-79030105D01*
X67624459Y-79097982D01*
X67624448Y-79097988D01*
X67569818Y-79134491D01*
X67503140Y-79155368D01*
X67435760Y-79136883D01*
X67406002Y-79111169D01*
X66879737Y-78484998D01*
X66817801Y-78411304D01*
X68849500Y-78411304D01*
X68849500Y-78588695D01*
X68884103Y-78762658D01*
X68884106Y-78762667D01*
X68951983Y-78926540D01*
X68951990Y-78926553D01*
X69050535Y-79074034D01*
X69050538Y-79074038D01*
X69175961Y-79199461D01*
X69175965Y-79199464D01*
X69323446Y-79298009D01*
X69323459Y-79298016D01*
X69381276Y-79321964D01*
X69487334Y-79365894D01*
X69487336Y-79365894D01*
X69487341Y-79365896D01*
X69661304Y-79400499D01*
X69661307Y-79400500D01*
X69760031Y-79400500D01*
X69827070Y-79420185D01*
X69872825Y-79472989D01*
X69881649Y-79500312D01*
X69884105Y-79512663D01*
X69884106Y-79512667D01*
X69951983Y-79676540D01*
X69951990Y-79676553D01*
X70050535Y-79824034D01*
X70050538Y-79824038D01*
X70175961Y-79949461D01*
X70175965Y-79949464D01*
X70323446Y-80048009D01*
X70323459Y-80048016D01*
X70446363Y-80098923D01*
X70487334Y-80115894D01*
X70487336Y-80115894D01*
X70487341Y-80115896D01*
X70661304Y-80150499D01*
X70661307Y-80150500D01*
X70661309Y-80150500D01*
X70838693Y-80150500D01*
X70838694Y-80150499D01*
X70896682Y-80138964D01*
X71012658Y-80115896D01*
X71012661Y-80115894D01*
X71012666Y-80115894D01*
X71176547Y-80048013D01*
X71324035Y-79949464D01*
X71440796Y-79832703D01*
X76523100Y-79832703D01*
X76523100Y-80010094D01*
X76557703Y-80184057D01*
X76557706Y-80184066D01*
X76625583Y-80347939D01*
X76625590Y-80347952D01*
X76724135Y-80495433D01*
X76724138Y-80495437D01*
X76849561Y-80620860D01*
X76849565Y-80620863D01*
X76997046Y-80719408D01*
X76997059Y-80719415D01*
X77119963Y-80770322D01*
X77160934Y-80787293D01*
X77160936Y-80787293D01*
X77160941Y-80787295D01*
X77334904Y-80821898D01*
X77334907Y-80821899D01*
X77334909Y-80821899D01*
X77512293Y-80821899D01*
X77512294Y-80821898D01*
X77570282Y-80810363D01*
X77686258Y-80787295D01*
X77686261Y-80787293D01*
X77686266Y-80787293D01*
X77850147Y-80719412D01*
X77997635Y-80620863D01*
X78123064Y-80495434D01*
X78221613Y-80347946D01*
X78289494Y-80184065D01*
X78291106Y-80175965D01*
X78324099Y-80010094D01*
X78324100Y-80010092D01*
X78324100Y-79832706D01*
X78318471Y-79804410D01*
X78318471Y-79804408D01*
X78314870Y-79786304D01*
X96474500Y-79786304D01*
X96474500Y-79963695D01*
X96509103Y-80137658D01*
X96509106Y-80137667D01*
X96576983Y-80301540D01*
X96576990Y-80301553D01*
X96675535Y-80449034D01*
X96675538Y-80449038D01*
X96800961Y-80574461D01*
X96800965Y-80574464D01*
X96948446Y-80673009D01*
X96948459Y-80673016D01*
X97071363Y-80723923D01*
X97112334Y-80740894D01*
X97112336Y-80740894D01*
X97112341Y-80740896D01*
X97286304Y-80775499D01*
X97286307Y-80775500D01*
X97286309Y-80775500D01*
X97463693Y-80775500D01*
X97463694Y-80775499D01*
X97521682Y-80763964D01*
X97637658Y-80740896D01*
X97637661Y-80740894D01*
X97637666Y-80740894D01*
X97801547Y-80673013D01*
X97819071Y-80661304D01*
X102099500Y-80661304D01*
X102099500Y-80838695D01*
X102134103Y-81012658D01*
X102134106Y-81012667D01*
X102201983Y-81176540D01*
X102201990Y-81176553D01*
X102300535Y-81324034D01*
X102300538Y-81324038D01*
X102425961Y-81449461D01*
X102425965Y-81449464D01*
X102573446Y-81548009D01*
X102573459Y-81548016D01*
X102696363Y-81598923D01*
X102737334Y-81615894D01*
X102737336Y-81615894D01*
X102737341Y-81615896D01*
X102911304Y-81650499D01*
X102911307Y-81650500D01*
X102911309Y-81650500D01*
X103088693Y-81650500D01*
X103088694Y-81650499D01*
X103146682Y-81638964D01*
X103262658Y-81615896D01*
X103262661Y-81615894D01*
X103262666Y-81615894D01*
X103426547Y-81548013D01*
X103574035Y-81449464D01*
X103699464Y-81324035D01*
X103798013Y-81176547D01*
X103865894Y-81012666D01*
X103870932Y-80987341D01*
X103900499Y-80838695D01*
X103900500Y-80838693D01*
X103900500Y-80661306D01*
X103900499Y-80661304D01*
X103865896Y-80487341D01*
X103865893Y-80487332D01*
X103798016Y-80323459D01*
X103798009Y-80323446D01*
X103699464Y-80175965D01*
X103699461Y-80175961D01*
X103574038Y-80050538D01*
X103574034Y-80050535D01*
X103426553Y-79951990D01*
X103426540Y-79951983D01*
X103262667Y-79884106D01*
X103262658Y-79884103D01*
X103088694Y-79849500D01*
X103088691Y-79849500D01*
X102911309Y-79849500D01*
X102911306Y-79849500D01*
X102737341Y-79884103D01*
X102737332Y-79884106D01*
X102573459Y-79951983D01*
X102573446Y-79951990D01*
X102425965Y-80050535D01*
X102425961Y-80050538D01*
X102300538Y-80175961D01*
X102300535Y-80175965D01*
X102201990Y-80323446D01*
X102201983Y-80323459D01*
X102134106Y-80487332D01*
X102134103Y-80487341D01*
X102099500Y-80661304D01*
X97819071Y-80661304D01*
X97949035Y-80574464D01*
X98070594Y-80452904D01*
X98131915Y-80419421D01*
X98201607Y-80424405D01*
X98205726Y-80426026D01*
X98311961Y-80470029D01*
X98362334Y-80490894D01*
X98362336Y-80490894D01*
X98362341Y-80490896D01*
X98536304Y-80525499D01*
X98536307Y-80525500D01*
X98536309Y-80525500D01*
X98713693Y-80525500D01*
X98713694Y-80525499D01*
X98771682Y-80513964D01*
X98887658Y-80490896D01*
X98887661Y-80490894D01*
X98887666Y-80490894D01*
X99044273Y-80426026D01*
X99051540Y-80423016D01*
X99051540Y-80423015D01*
X99051547Y-80423013D01*
X99199035Y-80324464D01*
X99324464Y-80199035D01*
X99423013Y-80051547D01*
X99424479Y-80048009D01*
X99459402Y-79963695D01*
X99490894Y-79887666D01*
X99491603Y-79884106D01*
X99525499Y-79713695D01*
X99525500Y-79713693D01*
X99525500Y-79536306D01*
X99525499Y-79536304D01*
X99490896Y-79362341D01*
X99490893Y-79362332D01*
X99481102Y-79338695D01*
X99464250Y-79298009D01*
X99423016Y-79198459D01*
X99423009Y-79198446D01*
X99324464Y-79050965D01*
X99324461Y-79050961D01*
X99199038Y-78925538D01*
X99199034Y-78925535D01*
X99051553Y-78826990D01*
X99051540Y-78826983D01*
X98887667Y-78759106D01*
X98887658Y-78759103D01*
X98713694Y-78724500D01*
X98713691Y-78724500D01*
X98536309Y-78724500D01*
X98536306Y-78724500D01*
X98362341Y-78759103D01*
X98362332Y-78759106D01*
X98198459Y-78826983D01*
X98198446Y-78826990D01*
X98050965Y-78925535D01*
X98050961Y-78925538D01*
X97929407Y-79047093D01*
X97868084Y-79080578D01*
X97798392Y-79075594D01*
X97794275Y-79073974D01*
X97704970Y-79036984D01*
X97637666Y-79009106D01*
X97637662Y-79009105D01*
X97637658Y-79009103D01*
X97463694Y-78974500D01*
X97463691Y-78974500D01*
X97286309Y-78974500D01*
X97286306Y-78974500D01*
X97112341Y-79009103D01*
X97112332Y-79009106D01*
X96948459Y-79076983D01*
X96948446Y-79076990D01*
X96800965Y-79175535D01*
X96800961Y-79175538D01*
X96675538Y-79300961D01*
X96675535Y-79300965D01*
X96576990Y-79448446D01*
X96576983Y-79448459D01*
X96509106Y-79612332D01*
X96509103Y-79612341D01*
X96474500Y-79786304D01*
X78314870Y-79786304D01*
X78289496Y-79658740D01*
X78289493Y-79658731D01*
X78221616Y-79494858D01*
X78221609Y-79494845D01*
X78123064Y-79347364D01*
X78123061Y-79347360D01*
X77997638Y-79221937D01*
X77997634Y-79221934D01*
X77850153Y-79123389D01*
X77850140Y-79123382D01*
X77686267Y-79055505D01*
X77686258Y-79055502D01*
X77512294Y-79020899D01*
X77512291Y-79020899D01*
X77334909Y-79020899D01*
X77334906Y-79020899D01*
X77160941Y-79055502D01*
X77160932Y-79055505D01*
X76997059Y-79123382D01*
X76997046Y-79123389D01*
X76849565Y-79221934D01*
X76849561Y-79221937D01*
X76724138Y-79347360D01*
X76724135Y-79347364D01*
X76625590Y-79494845D01*
X76625583Y-79494858D01*
X76557706Y-79658731D01*
X76557703Y-79658740D01*
X76523100Y-79832703D01*
X71440796Y-79832703D01*
X71449464Y-79824035D01*
X71474675Y-79786304D01*
X71493772Y-79757725D01*
X71548009Y-79676553D01*
X71548009Y-79676552D01*
X71548013Y-79676547D01*
X71615894Y-79512666D01*
X71618352Y-79500312D01*
X71639085Y-79396079D01*
X71650500Y-79338691D01*
X71650500Y-79161309D01*
X71650500Y-79161306D01*
X71650499Y-79161304D01*
X71615896Y-78987341D01*
X71615893Y-78987332D01*
X71548016Y-78823459D01*
X71548009Y-78823446D01*
X71449464Y-78675965D01*
X71449461Y-78675961D01*
X71324038Y-78550538D01*
X71324034Y-78550535D01*
X71176553Y-78451990D01*
X71176544Y-78451985D01*
X71140933Y-78437235D01*
X71086530Y-78393394D01*
X71064465Y-78327100D01*
X71081744Y-78259401D01*
X71132881Y-78211790D01*
X71140895Y-78208130D01*
X71271547Y-78154013D01*
X71419035Y-78055464D01*
X71544464Y-77930035D01*
X71643013Y-77782547D01*
X71710894Y-77618666D01*
X71711446Y-77615894D01*
X71744184Y-77451306D01*
X71745500Y-77444691D01*
X71745500Y-77267309D01*
X71745500Y-77267306D01*
X71745499Y-77267304D01*
X71710896Y-77093341D01*
X71710893Y-77093332D01*
X71643016Y-76929459D01*
X71643009Y-76929446D01*
X71544464Y-76781965D01*
X71544461Y-76781961D01*
X71419038Y-76656538D01*
X71419034Y-76656535D01*
X71271553Y-76557990D01*
X71271540Y-76557983D01*
X71107667Y-76490106D01*
X71107658Y-76490103D01*
X70933694Y-76455500D01*
X70933691Y-76455500D01*
X70756309Y-76455500D01*
X70756306Y-76455500D01*
X70582341Y-76490103D01*
X70582332Y-76490106D01*
X70418459Y-76557983D01*
X70418446Y-76557990D01*
X70270965Y-76656535D01*
X70270961Y-76656538D01*
X70145538Y-76781961D01*
X70145535Y-76781965D01*
X70046990Y-76929446D01*
X70046983Y-76929459D01*
X69979106Y-77093332D01*
X69979103Y-77093341D01*
X69944500Y-77267304D01*
X69944500Y-77267309D01*
X69944500Y-77444691D01*
X69945816Y-77451306D01*
X69939590Y-77520898D01*
X69896728Y-77576076D01*
X69830839Y-77599322D01*
X69824199Y-77599500D01*
X69661306Y-77599500D01*
X69487341Y-77634103D01*
X69487332Y-77634106D01*
X69323459Y-77701983D01*
X69323446Y-77701990D01*
X69175965Y-77800535D01*
X69175961Y-77800538D01*
X69050538Y-77925961D01*
X69050535Y-77925965D01*
X68951990Y-78073446D01*
X68951983Y-78073459D01*
X68884106Y-78237332D01*
X68884103Y-78237341D01*
X68849500Y-78411304D01*
X66817801Y-78411304D01*
X66544897Y-78086593D01*
X66516833Y-78022607D01*
X66527818Y-77953606D01*
X66574364Y-77901498D01*
X66615626Y-77885196D01*
X66712666Y-77865894D01*
X66876547Y-77798013D01*
X67024035Y-77699464D01*
X67149464Y-77574035D01*
X67248013Y-77426547D01*
X67315894Y-77262666D01*
X67350500Y-77088691D01*
X67350500Y-76911309D01*
X67350500Y-76911306D01*
X67350499Y-76911304D01*
X67315896Y-76737341D01*
X67315893Y-76737332D01*
X67248016Y-76573459D01*
X67248009Y-76573446D01*
X67149464Y-76425965D01*
X67149461Y-76425961D01*
X67086181Y-76362681D01*
X67052696Y-76301358D01*
X67057680Y-76231666D01*
X67086181Y-76187319D01*
X67149461Y-76124038D01*
X67149464Y-76124035D01*
X67248013Y-75976547D01*
X67315894Y-75812666D01*
X67316657Y-75808834D01*
X67345240Y-75665134D01*
X67350500Y-75638691D01*
X67350500Y-75461309D01*
X67350500Y-75461306D01*
X67350499Y-75461304D01*
X67315896Y-75287341D01*
X67315893Y-75287332D01*
X67313201Y-75280834D01*
X67290584Y-75226229D01*
X67248016Y-75123459D01*
X67248009Y-75123446D01*
X67149464Y-74975965D01*
X67149461Y-74975961D01*
X67024038Y-74850538D01*
X67024034Y-74850535D01*
X66876553Y-74751990D01*
X66876540Y-74751983D01*
X66712667Y-74684106D01*
X66712658Y-74684103D01*
X66538694Y-74649500D01*
X66538691Y-74649500D01*
X66361309Y-74649500D01*
X66361306Y-74649500D01*
X66187341Y-74684103D01*
X66187332Y-74684106D01*
X66023459Y-74751983D01*
X66023446Y-74751990D01*
X65875965Y-74850535D01*
X65875961Y-74850538D01*
X65837681Y-74888819D01*
X65776358Y-74922304D01*
X65706666Y-74917320D01*
X65662319Y-74888819D01*
X65624038Y-74850538D01*
X65624034Y-74850535D01*
X65476553Y-74751990D01*
X65476540Y-74751983D01*
X65312667Y-74684106D01*
X65312658Y-74684103D01*
X65138694Y-74649500D01*
X65138691Y-74649500D01*
X64961309Y-74649500D01*
X64961306Y-74649500D01*
X64787341Y-74684103D01*
X64787332Y-74684106D01*
X64623459Y-74751983D01*
X64623446Y-74751990D01*
X64475965Y-74850535D01*
X64475961Y-74850538D01*
X64350538Y-74975961D01*
X64350535Y-74975965D01*
X64256292Y-75117009D01*
X64202679Y-75161814D01*
X64133354Y-75170521D01*
X64070327Y-75140366D01*
X64058264Y-75127899D01*
X62984574Y-73850379D01*
X62956510Y-73786393D01*
X62955500Y-73770598D01*
X62955500Y-69611304D01*
X72999498Y-69611304D01*
X72999498Y-69788695D01*
X73034101Y-69962658D01*
X73034104Y-69962667D01*
X73101981Y-70126540D01*
X73101988Y-70126553D01*
X73200533Y-70274034D01*
X73200536Y-70274038D01*
X73325959Y-70399461D01*
X73325963Y-70399464D01*
X73473444Y-70498009D01*
X73473457Y-70498016D01*
X73596361Y-70548923D01*
X73637332Y-70565894D01*
X73637334Y-70565894D01*
X73637339Y-70565896D01*
X73811302Y-70600499D01*
X73811305Y-70600500D01*
X73811307Y-70600500D01*
X73988691Y-70600500D01*
X73988692Y-70600499D01*
X74046680Y-70588964D01*
X74162656Y-70565896D01*
X74162659Y-70565894D01*
X74162664Y-70565894D01*
X74326545Y-70498013D01*
X74474033Y-70399464D01*
X74599462Y-70274035D01*
X74698011Y-70126547D01*
X74765892Y-69962666D01*
X74800498Y-69788691D01*
X74800498Y-69611309D01*
X74800498Y-69611306D01*
X74800497Y-69611304D01*
X74765894Y-69437341D01*
X74765891Y-69437332D01*
X74698014Y-69273459D01*
X74698007Y-69273446D01*
X74599462Y-69125965D01*
X74599459Y-69125961D01*
X74474036Y-69000538D01*
X74474032Y-69000535D01*
X74326551Y-68901990D01*
X74326538Y-68901983D01*
X74162665Y-68834106D01*
X74162656Y-68834103D01*
X73988692Y-68799500D01*
X73988689Y-68799500D01*
X73811307Y-68799500D01*
X73811304Y-68799500D01*
X73637339Y-68834103D01*
X73637330Y-68834106D01*
X73473457Y-68901983D01*
X73473444Y-68901990D01*
X73325963Y-69000535D01*
X73325959Y-69000538D01*
X73200536Y-69125961D01*
X73200533Y-69125965D01*
X73101988Y-69273446D01*
X73101981Y-69273459D01*
X73034104Y-69437332D01*
X73034101Y-69437341D01*
X72999498Y-69611304D01*
X62955500Y-69611304D01*
X62955500Y-58681259D01*
X79184000Y-58681259D01*
X79184000Y-58868738D01*
X79213325Y-59053888D01*
X79213326Y-59053892D01*
X79271257Y-59232184D01*
X79356365Y-59399219D01*
X79466556Y-59550884D01*
X79466558Y-59550886D01*
X79602560Y-59686888D01*
X79600988Y-59688459D01*
X79634123Y-59739270D01*
X79634590Y-59809138D01*
X79601244Y-59861794D01*
X79602560Y-59863110D01*
X79466558Y-59999111D01*
X79466558Y-59999112D01*
X79466556Y-59999114D01*
X79419233Y-60064248D01*
X79356365Y-60150778D01*
X79271258Y-60317811D01*
X79213325Y-60496109D01*
X79184000Y-60681259D01*
X79184000Y-60868738D01*
X79213325Y-61053888D01*
X79213326Y-61053892D01*
X79271257Y-61232184D01*
X79356365Y-61399219D01*
X79466556Y-61550884D01*
X79466558Y-61550886D01*
X79602560Y-61686888D01*
X79600988Y-61688459D01*
X79634123Y-61739270D01*
X79634590Y-61809138D01*
X79601244Y-61861794D01*
X79602560Y-61863110D01*
X79466558Y-61999111D01*
X79466558Y-61999112D01*
X79466556Y-61999114D01*
X79434306Y-62043502D01*
X79356365Y-62150778D01*
X79271258Y-62317811D01*
X79213325Y-62496109D01*
X79184000Y-62681259D01*
X79184000Y-62868738D01*
X79213325Y-63053886D01*
X79213326Y-63053892D01*
X79271257Y-63232184D01*
X79356365Y-63399219D01*
X79466556Y-63550884D01*
X79466558Y-63550886D01*
X79602560Y-63686888D01*
X79600988Y-63688459D01*
X79634123Y-63739270D01*
X79634590Y-63809138D01*
X79601244Y-63861794D01*
X79602560Y-63863110D01*
X79466558Y-63999111D01*
X79466558Y-63999112D01*
X79466556Y-63999114D01*
X79424739Y-64056670D01*
X79356365Y-64150778D01*
X79271258Y-64317811D01*
X79213325Y-64496109D01*
X79184000Y-64681259D01*
X79184000Y-64868738D01*
X79213325Y-65053888D01*
X79213326Y-65053892D01*
X79271257Y-65232184D01*
X79356365Y-65399219D01*
X79466556Y-65550884D01*
X79466558Y-65550886D01*
X79602560Y-65686888D01*
X79600988Y-65688459D01*
X79634123Y-65739270D01*
X79634590Y-65809138D01*
X79601244Y-65861794D01*
X79602560Y-65863110D01*
X79466558Y-65999111D01*
X79466558Y-65999112D01*
X79466556Y-65999114D01*
X79419233Y-66064248D01*
X79356365Y-66150778D01*
X79271258Y-66317811D01*
X79213325Y-66496109D01*
X79184000Y-66681259D01*
X79184000Y-66868738D01*
X79213325Y-67053888D01*
X79213326Y-67053892D01*
X79271257Y-67232184D01*
X79356365Y-67399219D01*
X79466556Y-67550884D01*
X79466558Y-67550886D01*
X79602560Y-67686888D01*
X79600988Y-67688459D01*
X79634123Y-67739270D01*
X79634590Y-67809138D01*
X79601244Y-67861794D01*
X79602560Y-67863110D01*
X79466558Y-67999111D01*
X79466558Y-67999112D01*
X79466556Y-67999114D01*
X79419233Y-68064248D01*
X79356365Y-68150778D01*
X79271258Y-68317811D01*
X79213325Y-68496109D01*
X79184000Y-68681259D01*
X79184000Y-68868738D01*
X79213325Y-69053888D01*
X79213326Y-69053892D01*
X79271257Y-69232184D01*
X79356365Y-69399219D01*
X79466556Y-69550884D01*
X79466558Y-69550886D01*
X79602560Y-69686888D01*
X79600988Y-69688459D01*
X79634123Y-69739270D01*
X79634590Y-69809138D01*
X79601244Y-69861794D01*
X79602560Y-69863110D01*
X79466558Y-69999111D01*
X79466558Y-69999112D01*
X79466556Y-69999114D01*
X79419233Y-70064248D01*
X79356365Y-70150778D01*
X79271258Y-70317811D01*
X79213325Y-70496109D01*
X79184000Y-70681259D01*
X79184000Y-70868738D01*
X79213325Y-71053888D01*
X79213326Y-71053892D01*
X79271257Y-71232184D01*
X79356365Y-71399219D01*
X79466556Y-71550884D01*
X79466558Y-71550886D01*
X79602560Y-71686888D01*
X79600988Y-71688459D01*
X79634123Y-71739270D01*
X79634590Y-71809138D01*
X79601244Y-71861794D01*
X79602560Y-71863110D01*
X79466558Y-71999111D01*
X79466558Y-71999112D01*
X79466556Y-71999114D01*
X79419233Y-72064248D01*
X79356365Y-72150778D01*
X79271258Y-72317811D01*
X79213325Y-72496109D01*
X79184000Y-72681259D01*
X79184000Y-72868738D01*
X79213325Y-73053888D01*
X79213326Y-73053892D01*
X79271257Y-73232184D01*
X79356365Y-73399219D01*
X79466556Y-73550884D01*
X79599115Y-73683443D01*
X79750780Y-73793634D01*
X79917815Y-73878742D01*
X80096107Y-73936673D01*
X80165541Y-73947670D01*
X80281261Y-73965999D01*
X80281266Y-73965999D01*
X80468739Y-73965999D01*
X80571600Y-73949706D01*
X80653893Y-73936673D01*
X80832185Y-73878742D01*
X80999220Y-73793634D01*
X81150885Y-73683443D01*
X81283444Y-73550884D01*
X81283444Y-73550883D01*
X81286889Y-73547439D01*
X81288478Y-73549028D01*
X81339154Y-73515910D01*
X81409022Y-73515375D01*
X81461816Y-73548733D01*
X81463111Y-73547439D01*
X81466556Y-73550884D01*
X81599115Y-73683443D01*
X81750780Y-73793634D01*
X81917815Y-73878742D01*
X82096107Y-73936673D01*
X82165541Y-73947670D01*
X82281261Y-73965999D01*
X82281266Y-73965999D01*
X82468739Y-73965999D01*
X82571600Y-73949706D01*
X82653893Y-73936673D01*
X82832185Y-73878742D01*
X82999220Y-73793634D01*
X83150885Y-73683443D01*
X83283444Y-73550884D01*
X83393635Y-73399219D01*
X83478743Y-73232184D01*
X83536674Y-73053892D01*
X83549707Y-72971599D01*
X83566000Y-72868738D01*
X83566000Y-72681259D01*
X83536674Y-72496109D01*
X83536674Y-72496106D01*
X83478743Y-72317814D01*
X83393635Y-72150779D01*
X83283444Y-71999114D01*
X83150885Y-71866555D01*
X83147440Y-71863110D01*
X83149029Y-71861520D01*
X83115911Y-71810845D01*
X83115376Y-71740977D01*
X83148734Y-71688182D01*
X83147440Y-71686888D01*
X83188853Y-71645475D01*
X83283444Y-71550884D01*
X83393635Y-71399219D01*
X83478743Y-71232184D01*
X83536674Y-71053892D01*
X83549707Y-70971599D01*
X83566000Y-70868738D01*
X83566000Y-70681259D01*
X83546449Y-70557825D01*
X83536674Y-70496106D01*
X83478743Y-70317814D01*
X83393635Y-70150779D01*
X83283444Y-69999114D01*
X83150885Y-69866555D01*
X83147440Y-69863110D01*
X83149029Y-69861520D01*
X83115911Y-69810845D01*
X83115376Y-69740977D01*
X83148734Y-69688182D01*
X83147440Y-69686888D01*
X83211728Y-69622600D01*
X83283444Y-69550884D01*
X83393635Y-69399219D01*
X83478743Y-69232184D01*
X83536674Y-69053892D01*
X83560733Y-68901990D01*
X83566000Y-68868738D01*
X83566000Y-68681259D01*
X83536674Y-68496109D01*
X83536674Y-68496106D01*
X83478743Y-68317814D01*
X83393635Y-68150779D01*
X83283444Y-67999114D01*
X83150885Y-67866555D01*
X83147440Y-67863110D01*
X83149029Y-67861520D01*
X83115911Y-67810845D01*
X83115376Y-67740977D01*
X83148734Y-67688182D01*
X83147440Y-67686888D01*
X83150885Y-67683443D01*
X83283444Y-67550884D01*
X83393635Y-67399219D01*
X83478743Y-67232184D01*
X83536674Y-67053892D01*
X83549707Y-66971599D01*
X83566000Y-66868738D01*
X83566000Y-66681259D01*
X83536674Y-66496109D01*
X83536674Y-66496106D01*
X83478743Y-66317814D01*
X83393635Y-66150779D01*
X83283444Y-65999114D01*
X83150885Y-65866555D01*
X83147440Y-65863110D01*
X83149029Y-65861520D01*
X83115911Y-65810845D01*
X83115376Y-65740977D01*
X83148734Y-65688182D01*
X83147440Y-65686888D01*
X83212592Y-65621736D01*
X83283444Y-65550884D01*
X83393635Y-65399219D01*
X83478743Y-65232184D01*
X83536674Y-65053892D01*
X83549707Y-64971599D01*
X83566000Y-64868738D01*
X83566000Y-64681259D01*
X83536674Y-64496109D01*
X83536674Y-64496106D01*
X83478743Y-64317814D01*
X83393635Y-64150779D01*
X83283444Y-63999114D01*
X83150885Y-63866555D01*
X83147440Y-63863110D01*
X83149029Y-63861520D01*
X83115911Y-63810845D01*
X83115376Y-63740977D01*
X83148734Y-63688182D01*
X83147440Y-63686888D01*
X83150885Y-63683443D01*
X83283444Y-63550884D01*
X83393635Y-63399219D01*
X83478743Y-63232184D01*
X83487643Y-63204792D01*
X89479497Y-63204792D01*
X89479497Y-63403211D01*
X89510533Y-63599164D01*
X89510534Y-63599170D01*
X89540818Y-63692372D01*
X89571847Y-63787870D01*
X89633018Y-63907924D01*
X89661920Y-63964648D01*
X89778541Y-64125163D01*
X89918836Y-64265458D01*
X90079351Y-64382079D01*
X90192797Y-64439882D01*
X90256128Y-64472151D01*
X90256130Y-64472151D01*
X90256133Y-64472153D01*
X90444829Y-64533465D01*
X90542811Y-64548983D01*
X90640788Y-64564502D01*
X90640793Y-64564502D01*
X90839206Y-64564502D01*
X90928275Y-64550394D01*
X91035165Y-64533465D01*
X91223861Y-64472153D01*
X91400643Y-64382079D01*
X91561158Y-64265458D01*
X91701453Y-64125163D01*
X91818074Y-63964648D01*
X91908148Y-63787866D01*
X91969460Y-63599170D01*
X91986389Y-63492280D01*
X92000497Y-63403211D01*
X92000497Y-63204792D01*
X91976596Y-63053892D01*
X91969460Y-63008834D01*
X91908148Y-62820138D01*
X91908146Y-62820135D01*
X91908146Y-62820133D01*
X91875877Y-62756802D01*
X91818074Y-62643356D01*
X91701453Y-62482841D01*
X91561158Y-62342546D01*
X91400643Y-62225925D01*
X91343919Y-62197023D01*
X91223865Y-62135852D01*
X91178593Y-62121142D01*
X91035165Y-62074539D01*
X91035159Y-62074538D01*
X90839206Y-62043502D01*
X90839201Y-62043502D01*
X90640793Y-62043502D01*
X90640788Y-62043502D01*
X90444834Y-62074538D01*
X90444832Y-62074538D01*
X90444829Y-62074539D01*
X90350481Y-62105195D01*
X90256128Y-62135852D01*
X90079349Y-62225926D01*
X90079346Y-62225928D01*
X90003627Y-62280942D01*
X89918836Y-62342546D01*
X89918834Y-62342548D01*
X89918833Y-62342548D01*
X89778543Y-62482838D01*
X89778543Y-62482839D01*
X89778541Y-62482841D01*
X89724474Y-62557257D01*
X89661923Y-62643351D01*
X89661921Y-62643354D01*
X89571847Y-62820133D01*
X89551556Y-62882583D01*
X89510534Y-63008834D01*
X89510533Y-63008837D01*
X89510533Y-63008839D01*
X89479497Y-63204792D01*
X83487643Y-63204792D01*
X83536674Y-63053892D01*
X83553444Y-62948009D01*
X83566000Y-62868738D01*
X83566000Y-62681259D01*
X83536674Y-62496109D01*
X83536674Y-62496106D01*
X83478743Y-62317814D01*
X83393635Y-62150779D01*
X83283444Y-61999114D01*
X83150885Y-61866555D01*
X83147440Y-61863110D01*
X83149029Y-61861520D01*
X83115911Y-61810845D01*
X83115376Y-61740977D01*
X83148734Y-61688182D01*
X83147440Y-61686888D01*
X83150885Y-61683443D01*
X83283444Y-61550884D01*
X83393635Y-61399219D01*
X83478743Y-61232184D01*
X83536674Y-61053892D01*
X83549707Y-60971599D01*
X83566000Y-60868738D01*
X83566000Y-60681259D01*
X83536674Y-60496109D01*
X83536674Y-60496106D01*
X83478743Y-60317814D01*
X83393635Y-60150779D01*
X83283444Y-59999114D01*
X83150885Y-59866555D01*
X83147440Y-59863110D01*
X83149029Y-59861520D01*
X83146492Y-59857638D01*
X83135313Y-59849261D01*
X83127756Y-59828969D01*
X83115911Y-59810845D01*
X83115804Y-59796874D01*
X83110929Y-59783784D01*
X83115541Y-59762628D01*
X83115376Y-59740977D01*
X83123139Y-59727784D01*
X83125814Y-59715519D01*
X83134531Y-59704791D01*
X89479497Y-59704791D01*
X89479497Y-59903210D01*
X89500616Y-60036547D01*
X89510534Y-60099169D01*
X89557137Y-60242597D01*
X89571847Y-60287869D01*
X89633018Y-60407923D01*
X89661920Y-60464647D01*
X89778541Y-60625162D01*
X89918836Y-60765457D01*
X90079351Y-60882078D01*
X90192797Y-60939881D01*
X90256128Y-60972150D01*
X90256130Y-60972150D01*
X90256133Y-60972152D01*
X90444829Y-61033464D01*
X90542811Y-61048982D01*
X90640788Y-61064501D01*
X90640793Y-61064501D01*
X90839206Y-61064501D01*
X90928275Y-61050393D01*
X91035165Y-61033464D01*
X91223861Y-60972152D01*
X91400643Y-60882078D01*
X91561158Y-60765457D01*
X91701453Y-60625162D01*
X91818074Y-60464647D01*
X91908148Y-60287865D01*
X91969460Y-60099169D01*
X91986389Y-59992279D01*
X92000497Y-59903210D01*
X92000497Y-59704791D01*
X91975574Y-59547439D01*
X91969460Y-59508833D01*
X91908148Y-59320137D01*
X91908146Y-59320134D01*
X91908146Y-59320132D01*
X91863334Y-59232184D01*
X91818074Y-59143355D01*
X91701453Y-58982840D01*
X91561158Y-58842545D01*
X91400643Y-58725924D01*
X91312994Y-58681265D01*
X91223865Y-58635851D01*
X91178593Y-58621141D01*
X91035165Y-58574538D01*
X91035159Y-58574537D01*
X90839206Y-58543501D01*
X90839201Y-58543501D01*
X90640793Y-58543501D01*
X90640788Y-58543501D01*
X90444834Y-58574537D01*
X90444832Y-58574537D01*
X90444829Y-58574538D01*
X90350481Y-58605194D01*
X90256128Y-58635851D01*
X90079349Y-58725925D01*
X90079346Y-58725927D01*
X89993252Y-58788478D01*
X89918836Y-58842545D01*
X89918834Y-58842547D01*
X89918833Y-58842547D01*
X89778543Y-58982837D01*
X89778543Y-58982838D01*
X89778541Y-58982840D01*
X89726922Y-59053888D01*
X89661923Y-59143350D01*
X89661921Y-59143353D01*
X89571847Y-59320132D01*
X89546150Y-59399219D01*
X89510534Y-59508833D01*
X89510533Y-59508836D01*
X89510533Y-59508838D01*
X89479497Y-59704791D01*
X83134531Y-59704791D01*
X83142289Y-59695243D01*
X83146979Y-59687275D01*
X83150627Y-59683630D01*
X83150885Y-59683443D01*
X83283444Y-59550884D01*
X83393635Y-59399219D01*
X83478743Y-59232184D01*
X83536674Y-59053892D01*
X83549707Y-58971599D01*
X83566000Y-58868738D01*
X83566000Y-58681259D01*
X83546449Y-58557825D01*
X83536674Y-58496106D01*
X83478743Y-58317814D01*
X83393635Y-58150779D01*
X83283444Y-57999114D01*
X83150885Y-57866555D01*
X82999220Y-57756364D01*
X82832185Y-57671256D01*
X82653893Y-57613325D01*
X82653891Y-57613324D01*
X82653889Y-57613324D01*
X82468739Y-57583999D01*
X82468734Y-57583999D01*
X82281266Y-57583999D01*
X82281261Y-57583999D01*
X82096110Y-57613324D01*
X81917812Y-57671257D01*
X81750779Y-57756364D01*
X81664249Y-57819232D01*
X81599115Y-57866555D01*
X81599113Y-57866557D01*
X81599112Y-57866557D01*
X81463111Y-58002559D01*
X81461539Y-58000987D01*
X81410729Y-58034122D01*
X81340861Y-58034589D01*
X81288204Y-58001243D01*
X81286889Y-58002559D01*
X81150887Y-57866557D01*
X81150885Y-57866555D01*
X80999220Y-57756364D01*
X80832185Y-57671256D01*
X80653893Y-57613325D01*
X80653891Y-57613324D01*
X80653889Y-57613324D01*
X80468739Y-57583999D01*
X80468734Y-57583999D01*
X80281266Y-57583999D01*
X80281261Y-57583999D01*
X80096110Y-57613324D01*
X79917812Y-57671257D01*
X79750779Y-57756364D01*
X79664249Y-57819232D01*
X79599115Y-57866555D01*
X79599113Y-57866557D01*
X79599112Y-57866557D01*
X79466558Y-57999111D01*
X79466558Y-57999112D01*
X79466556Y-57999114D01*
X79441121Y-58034122D01*
X79356365Y-58150778D01*
X79271258Y-58317811D01*
X79213325Y-58496109D01*
X79184000Y-58681259D01*
X62955500Y-58681259D01*
X62955500Y-57481378D01*
X76374500Y-57481378D01*
X76374500Y-57668619D01*
X76411025Y-57852242D01*
X76411027Y-57852250D01*
X76482676Y-58025227D01*
X76482681Y-58025236D01*
X76586697Y-58180906D01*
X76586700Y-58180910D01*
X76719088Y-58313298D01*
X76719092Y-58313301D01*
X76874762Y-58417317D01*
X76874768Y-58417320D01*
X76874769Y-58417321D01*
X77047749Y-58488972D01*
X77231379Y-58525498D01*
X77231383Y-58525499D01*
X77231384Y-58525499D01*
X77418617Y-58525499D01*
X77418618Y-58525498D01*
X77602251Y-58488972D01*
X77775231Y-58417321D01*
X77930908Y-58313301D01*
X78063302Y-58180907D01*
X78167322Y-58025230D01*
X78238973Y-57852250D01*
X78275500Y-57668615D01*
X78275500Y-57481383D01*
X78238973Y-57297748D01*
X78180489Y-57156556D01*
X78167323Y-57124770D01*
X78167318Y-57124761D01*
X78063302Y-56969091D01*
X78063299Y-56969087D01*
X77930911Y-56836699D01*
X77930907Y-56836696D01*
X77775237Y-56732680D01*
X77775228Y-56732675D01*
X77602251Y-56661026D01*
X77602243Y-56661024D01*
X77418620Y-56624499D01*
X77418616Y-56624499D01*
X77231384Y-56624499D01*
X77231379Y-56624499D01*
X77047756Y-56661024D01*
X77047748Y-56661026D01*
X76874771Y-56732675D01*
X76874762Y-56732680D01*
X76719092Y-56836696D01*
X76719088Y-56836699D01*
X76586700Y-56969087D01*
X76586697Y-56969091D01*
X76482681Y-57124761D01*
X76482676Y-57124770D01*
X76411027Y-57297747D01*
X76411025Y-57297755D01*
X76374500Y-57481378D01*
X62955500Y-57481378D01*
X62955500Y-56204791D01*
X89479497Y-56204791D01*
X89479497Y-56403210D01*
X89510533Y-56599163D01*
X89510534Y-56599169D01*
X89542596Y-56697844D01*
X89571847Y-56787869D01*
X89624949Y-56892086D01*
X89661920Y-56964647D01*
X89778541Y-57125162D01*
X89918836Y-57265457D01*
X90079351Y-57382078D01*
X90192797Y-57439881D01*
X90256128Y-57472150D01*
X90256130Y-57472150D01*
X90256133Y-57472152D01*
X90444829Y-57533464D01*
X90542811Y-57548982D01*
X90640788Y-57564501D01*
X90640793Y-57564501D01*
X90839206Y-57564501D01*
X90928275Y-57550393D01*
X91035165Y-57533464D01*
X91223861Y-57472152D01*
X91400643Y-57382078D01*
X91561158Y-57265457D01*
X91701453Y-57125162D01*
X91818074Y-56964647D01*
X91908148Y-56787865D01*
X91969460Y-56599169D01*
X91986389Y-56492279D01*
X92000497Y-56403210D01*
X92000497Y-56204791D01*
X91978634Y-56066758D01*
X91969460Y-56008833D01*
X91908148Y-55820137D01*
X91908146Y-55820134D01*
X91908146Y-55820132D01*
X91851221Y-55708411D01*
X91818074Y-55643355D01*
X91701453Y-55482840D01*
X91561158Y-55342545D01*
X91400643Y-55225924D01*
X91343919Y-55197022D01*
X91223865Y-55135851D01*
X91178593Y-55121141D01*
X91035165Y-55074538D01*
X91035159Y-55074537D01*
X90839206Y-55043501D01*
X90839201Y-55043501D01*
X90640793Y-55043501D01*
X90640788Y-55043501D01*
X90444834Y-55074537D01*
X90444832Y-55074537D01*
X90444829Y-55074538D01*
X90350481Y-55105194D01*
X90256128Y-55135851D01*
X90079349Y-55225925D01*
X90079346Y-55225927D01*
X89993252Y-55288478D01*
X89918836Y-55342545D01*
X89918834Y-55342547D01*
X89918833Y-55342547D01*
X89778543Y-55482837D01*
X89778543Y-55482838D01*
X89778541Y-55482840D01*
X89768376Y-55496831D01*
X89661923Y-55643350D01*
X89661921Y-55643353D01*
X89571847Y-55820132D01*
X89544394Y-55904623D01*
X89510534Y-56008833D01*
X89510533Y-56008836D01*
X89510533Y-56008838D01*
X89479497Y-56204791D01*
X62955500Y-56204791D01*
X62955500Y-54450526D01*
X87459499Y-54450526D01*
X87459499Y-54657465D01*
X87499867Y-54860408D01*
X87499869Y-54860416D01*
X87579057Y-55051592D01*
X87694023Y-55223653D01*
X87840341Y-55369971D01*
X87840344Y-55369973D01*
X88012401Y-55484937D01*
X88203579Y-55564126D01*
X88406529Y-55604495D01*
X88406533Y-55604496D01*
X88406534Y-55604496D01*
X88613465Y-55604496D01*
X88613466Y-55604495D01*
X88816419Y-55564126D01*
X89007597Y-55484937D01*
X89179654Y-55369973D01*
X89325976Y-55223651D01*
X89440940Y-55051594D01*
X89520129Y-54860416D01*
X89560499Y-54657461D01*
X89560499Y-54450531D01*
X89520129Y-54247576D01*
X89440940Y-54056398D01*
X89325976Y-53884341D01*
X89325974Y-53884338D01*
X89179656Y-53738020D01*
X89093625Y-53680537D01*
X89007597Y-53623055D01*
X88816419Y-53543866D01*
X88816411Y-53543864D01*
X88613468Y-53503496D01*
X88613464Y-53503496D01*
X88406534Y-53503496D01*
X88406529Y-53503496D01*
X88203586Y-53543864D01*
X88203578Y-53543866D01*
X88012402Y-53623054D01*
X87840341Y-53738020D01*
X87694023Y-53884338D01*
X87579057Y-54056399D01*
X87499869Y-54247575D01*
X87499867Y-54247583D01*
X87459499Y-54450526D01*
X62955500Y-54450526D01*
X62955500Y-52737000D01*
X62964958Y-52704790D01*
X89479497Y-52704790D01*
X89479497Y-52903209D01*
X89507684Y-53081175D01*
X89510534Y-53099168D01*
X89547229Y-53212102D01*
X89571847Y-53287868D01*
X89633018Y-53407922D01*
X89661920Y-53464646D01*
X89778541Y-53625161D01*
X89918836Y-53765456D01*
X90079351Y-53882077D01*
X90155046Y-53920645D01*
X90256128Y-53972149D01*
X90256130Y-53972149D01*
X90256133Y-53972151D01*
X90444829Y-54033463D01*
X90542811Y-54048981D01*
X90640788Y-54064500D01*
X90640793Y-54064500D01*
X90839206Y-54064500D01*
X90928275Y-54050392D01*
X91035165Y-54033463D01*
X91223861Y-53972151D01*
X91400643Y-53882077D01*
X91561158Y-53765456D01*
X91701453Y-53625161D01*
X91818074Y-53464646D01*
X91908148Y-53287864D01*
X91969460Y-53099168D01*
X91986389Y-52992278D01*
X92000497Y-52903209D01*
X92000497Y-52704790D01*
X91983567Y-52597906D01*
X91969460Y-52508832D01*
X91908148Y-52320136D01*
X91908146Y-52320133D01*
X91908146Y-52320131D01*
X91872667Y-52250500D01*
X91818074Y-52143354D01*
X91701453Y-51982839D01*
X91561158Y-51842544D01*
X91400643Y-51725923D01*
X91343919Y-51697021D01*
X91223865Y-51635850D01*
X91167131Y-51617416D01*
X91035165Y-51574537D01*
X91035159Y-51574536D01*
X90839206Y-51543500D01*
X90839201Y-51543500D01*
X90640793Y-51543500D01*
X90640788Y-51543500D01*
X90444834Y-51574536D01*
X90444832Y-51574536D01*
X90444829Y-51574537D01*
X90350481Y-51605193D01*
X90256128Y-51635850D01*
X90079349Y-51725924D01*
X90079346Y-51725926D01*
X90018359Y-51770236D01*
X89918836Y-51842544D01*
X89918834Y-51842546D01*
X89918833Y-51842546D01*
X89778543Y-51982836D01*
X89778543Y-51982837D01*
X89778541Y-51982839D01*
X89730472Y-52049000D01*
X89661923Y-52143349D01*
X89661921Y-52143352D01*
X89571847Y-52320131D01*
X89560062Y-52356403D01*
X89510534Y-52508832D01*
X89510533Y-52508835D01*
X89510533Y-52508837D01*
X89479497Y-52704790D01*
X62964958Y-52704790D01*
X62975185Y-52669961D01*
X63027989Y-52624206D01*
X63079500Y-52613000D01*
X63188693Y-52613000D01*
X63188694Y-52612999D01*
X63274535Y-52595924D01*
X63362657Y-52578396D01*
X63362659Y-52578395D01*
X63362666Y-52578394D01*
X63526547Y-52510513D01*
X63674035Y-52411964D01*
X63799464Y-52286535D01*
X63898013Y-52139047D01*
X63965894Y-51975166D01*
X63967289Y-51968156D01*
X64000499Y-51801195D01*
X64000500Y-51801193D01*
X64000500Y-51623806D01*
X64000499Y-51623804D01*
X63965896Y-51449841D01*
X63965893Y-51449832D01*
X63898016Y-51285959D01*
X63898009Y-51285946D01*
X63799464Y-51138465D01*
X63799461Y-51138461D01*
X63674038Y-51013038D01*
X63674034Y-51013035D01*
X63526553Y-50914490D01*
X63526540Y-50914483D01*
X63362667Y-50846606D01*
X63362658Y-50846603D01*
X63188694Y-50812000D01*
X63188691Y-50812000D01*
X63079500Y-50812000D01*
X63012461Y-50792315D01*
X62966706Y-50739511D01*
X62955500Y-50688000D01*
X62955500Y-46511304D01*
X68999500Y-46511304D01*
X68999500Y-46688695D01*
X69034103Y-46862658D01*
X69034106Y-46862667D01*
X69101983Y-47026540D01*
X69101990Y-47026553D01*
X69200535Y-47174034D01*
X69200538Y-47174038D01*
X69325961Y-47299461D01*
X69325965Y-47299464D01*
X69473446Y-47398009D01*
X69473459Y-47398016D01*
X69596363Y-47448923D01*
X69637334Y-47465894D01*
X69637336Y-47465894D01*
X69637341Y-47465896D01*
X69811304Y-47500499D01*
X69811307Y-47500500D01*
X69811309Y-47500500D01*
X69988693Y-47500500D01*
X69988694Y-47500499D01*
X70046682Y-47488964D01*
X70162658Y-47465896D01*
X70162661Y-47465894D01*
X70162666Y-47465894D01*
X70326547Y-47398013D01*
X70326552Y-47398009D01*
X70326555Y-47398008D01*
X70408216Y-47343443D01*
X70410716Y-47341772D01*
X70477392Y-47320894D01*
X70544772Y-47339378D01*
X70591463Y-47391356D01*
X70602640Y-47460326D01*
X70594169Y-47492325D01*
X70534105Y-47637337D01*
X70534103Y-47637341D01*
X70499500Y-47811304D01*
X70499500Y-47988695D01*
X70534103Y-48162658D01*
X70534106Y-48162667D01*
X70601983Y-48326540D01*
X70601990Y-48326553D01*
X70700535Y-48474034D01*
X70700538Y-48474038D01*
X70825961Y-48599461D01*
X70825965Y-48599464D01*
X70973446Y-48698009D01*
X70973459Y-48698016D01*
X71096363Y-48748923D01*
X71137334Y-48765894D01*
X71137336Y-48765894D01*
X71137341Y-48765896D01*
X71311304Y-48800499D01*
X71311307Y-48800500D01*
X71311309Y-48800500D01*
X71488693Y-48800500D01*
X71488694Y-48800499D01*
X71546682Y-48788964D01*
X71662658Y-48765896D01*
X71662661Y-48765894D01*
X71662666Y-48765894D01*
X71826547Y-48698013D01*
X71974035Y-48599464D01*
X72099464Y-48474035D01*
X72198013Y-48326547D01*
X72265894Y-48162666D01*
X72279456Y-48094489D01*
X72300499Y-47988695D01*
X72300500Y-47988693D01*
X72300500Y-47811306D01*
X72300499Y-47811304D01*
X72265896Y-47637341D01*
X72265893Y-47637332D01*
X72198016Y-47473459D01*
X72198009Y-47473446D01*
X72099464Y-47325965D01*
X72099461Y-47325961D01*
X71974038Y-47200538D01*
X71974034Y-47200535D01*
X71826553Y-47101990D01*
X71826540Y-47101983D01*
X71662667Y-47034106D01*
X71662658Y-47034103D01*
X71488694Y-46999500D01*
X71488691Y-46999500D01*
X71311309Y-46999500D01*
X71311306Y-46999500D01*
X71137341Y-47034103D01*
X71137332Y-47034106D01*
X70973459Y-47101983D01*
X70973446Y-47101990D01*
X70889283Y-47158227D01*
X70822605Y-47179105D01*
X70755225Y-47160620D01*
X70708535Y-47108642D01*
X70697359Y-47039672D01*
X70705831Y-47007673D01*
X70722100Y-46968395D01*
X70765894Y-46862666D01*
X70800500Y-46688691D01*
X70800500Y-46511309D01*
X70800500Y-46511306D01*
X70800499Y-46511304D01*
X70765896Y-46337341D01*
X70765893Y-46337332D01*
X70698016Y-46173459D01*
X70698009Y-46173446D01*
X70599464Y-46025965D01*
X70599461Y-46025961D01*
X70474038Y-45900538D01*
X70474034Y-45900535D01*
X70326553Y-45801990D01*
X70326540Y-45801983D01*
X70162667Y-45734106D01*
X70162658Y-45734103D01*
X69988694Y-45699500D01*
X69988691Y-45699500D01*
X69811309Y-45699500D01*
X69811306Y-45699500D01*
X69637341Y-45734103D01*
X69637332Y-45734106D01*
X69473459Y-45801983D01*
X69473446Y-45801990D01*
X69325965Y-45900535D01*
X69325961Y-45900538D01*
X69200538Y-46025961D01*
X69200535Y-46025965D01*
X69101990Y-46173446D01*
X69101983Y-46173459D01*
X69034106Y-46337332D01*
X69034103Y-46337341D01*
X68999500Y-46511304D01*
X62955500Y-46511304D01*
X62955500Y-46074010D01*
X62955500Y-46074000D01*
X62943947Y-45966544D01*
X62932741Y-45915033D01*
X62927916Y-45900535D01*
X62898616Y-45812502D01*
X62898613Y-45812496D01*
X62820828Y-45691462D01*
X62820825Y-45691457D01*
X62820820Y-45691451D01*
X62775076Y-45638659D01*
X62775072Y-45638656D01*
X62775070Y-45638653D01*
X62666336Y-45544433D01*
X62666333Y-45544431D01*
X62666331Y-45544430D01*
X62535465Y-45484664D01*
X62535460Y-45484662D01*
X62535459Y-45484662D01*
X62468420Y-45464977D01*
X62468422Y-45464977D01*
X62468417Y-45464976D01*
X62406347Y-45456052D01*
X62326000Y-45444500D01*
X56374000Y-45444500D01*
X56373991Y-45444500D01*
X56373990Y-45444501D01*
X56266549Y-45456052D01*
X56266537Y-45456054D01*
X56215027Y-45467260D01*
X56112502Y-45501383D01*
X56112496Y-45501386D01*
X55991462Y-45579171D01*
X55991451Y-45579179D01*
X55938659Y-45624923D01*
X55844433Y-45733664D01*
X55844430Y-45733668D01*
X55784664Y-45864534D01*
X55764976Y-45931582D01*
X55759949Y-45966549D01*
X55744502Y-46073990D01*
X55744500Y-46074001D01*
X55744500Y-47389430D01*
X55760202Y-47514440D01*
X55760203Y-47514446D01*
X55771333Y-47558053D01*
X55775370Y-47573868D01*
X55800343Y-47637337D01*
X55821505Y-47691122D01*
X55907721Y-47806291D01*
X55907725Y-47806296D01*
X55907729Y-47806301D01*
X55957135Y-47855706D01*
X55957136Y-47855707D01*
X55957139Y-47855709D01*
X56072319Y-47941930D01*
X56207113Y-47992204D01*
X56207120Y-47992206D01*
X56207128Y-47992209D01*
X56207135Y-47992210D01*
X56210415Y-47993173D01*
X56269200Y-48030938D01*
X56298235Y-48094489D01*
X56299500Y-48112156D01*
X56299500Y-48878261D01*
X56279815Y-48945300D01*
X56227011Y-48991055D01*
X56157853Y-49000999D01*
X56094297Y-48971974D01*
X56058459Y-48919216D01*
X56016918Y-48800500D01*
X56013801Y-48791592D01*
X55891945Y-48538555D01*
X55742523Y-48300752D01*
X55567416Y-48081175D01*
X55368825Y-47882584D01*
X55149248Y-47707477D01*
X54911445Y-47558055D01*
X54911442Y-47558053D01*
X54658411Y-47436200D01*
X54393329Y-47343443D01*
X54393317Y-47343439D01*
X54119512Y-47280945D01*
X54119494Y-47280942D01*
X53840431Y-47249500D01*
X53840425Y-47249500D01*
X53559575Y-47249500D01*
X53559568Y-47249500D01*
X53280505Y-47280942D01*
X53280487Y-47280945D01*
X53006682Y-47343439D01*
X53006670Y-47343443D01*
X52741588Y-47436200D01*
X52488557Y-47558053D01*
X52250753Y-47707476D01*
X52031175Y-47882583D01*
X51832583Y-48081175D01*
X51657476Y-48300753D01*
X51508053Y-48538557D01*
X51386200Y-48791588D01*
X51293443Y-49056670D01*
X51293439Y-49056682D01*
X51230945Y-49330487D01*
X51230942Y-49330505D01*
X51199500Y-49609568D01*
X48334153Y-49609568D01*
X48332298Y-42411304D01*
X59349500Y-42411304D01*
X59349500Y-42588695D01*
X59384103Y-42762658D01*
X59384106Y-42762667D01*
X59451983Y-42926540D01*
X59451990Y-42926553D01*
X59550535Y-43074034D01*
X59550538Y-43074038D01*
X59675961Y-43199461D01*
X59675965Y-43199464D01*
X59823446Y-43298009D01*
X59823459Y-43298016D01*
X59900106Y-43329763D01*
X59987334Y-43365894D01*
X60028493Y-43374081D01*
X60090403Y-43406465D01*
X60124977Y-43467181D01*
X60125918Y-43471506D01*
X60134104Y-43512660D01*
X60134107Y-43512670D01*
X60201983Y-43676540D01*
X60201990Y-43676553D01*
X60300535Y-43824034D01*
X60300538Y-43824038D01*
X60425961Y-43949461D01*
X60425965Y-43949464D01*
X60573446Y-44048009D01*
X60573459Y-44048016D01*
X60696363Y-44098923D01*
X60737334Y-44115894D01*
X60737336Y-44115894D01*
X60737341Y-44115896D01*
X60911304Y-44150499D01*
X60911307Y-44150500D01*
X60911309Y-44150500D01*
X61088693Y-44150500D01*
X61088694Y-44150499D01*
X61146682Y-44138964D01*
X61262658Y-44115896D01*
X61262661Y-44115894D01*
X61262666Y-44115894D01*
X61413414Y-44053453D01*
X61426540Y-44048016D01*
X61426540Y-44048015D01*
X61426547Y-44048013D01*
X61574035Y-43949464D01*
X61699464Y-43824035D01*
X61798013Y-43676547D01*
X61865894Y-43512666D01*
X61874082Y-43471506D01*
X61895583Y-43363408D01*
X61900500Y-43338691D01*
X61900500Y-43161309D01*
X61900500Y-43161306D01*
X61900499Y-43161304D01*
X61865896Y-42987341D01*
X61865893Y-42987332D01*
X61798016Y-42823459D01*
X61798009Y-42823446D01*
X61699464Y-42675965D01*
X61699461Y-42675961D01*
X61611181Y-42587681D01*
X61577696Y-42526358D01*
X61582680Y-42456666D01*
X61611181Y-42412319D01*
X61699461Y-42324038D01*
X61699464Y-42324035D01*
X61798013Y-42176547D01*
X61865894Y-42012666D01*
X61868414Y-42000000D01*
X61900499Y-41838695D01*
X61900500Y-41838693D01*
X61900500Y-41661306D01*
X61900499Y-41661304D01*
X61865896Y-41487341D01*
X61865893Y-41487332D01*
X61798016Y-41323459D01*
X61798009Y-41323446D01*
X61731633Y-41224108D01*
X61699464Y-41175965D01*
X61699461Y-41175961D01*
X61684804Y-41161304D01*
X63599500Y-41161304D01*
X63599500Y-41338695D01*
X63634103Y-41512658D01*
X63634106Y-41512667D01*
X63701983Y-41676540D01*
X63701990Y-41676553D01*
X63800535Y-41824034D01*
X63800538Y-41824038D01*
X63888819Y-41912319D01*
X63922304Y-41973642D01*
X63917320Y-42043334D01*
X63888819Y-42087681D01*
X63800538Y-42175961D01*
X63800535Y-42175965D01*
X63701990Y-42323446D01*
X63701983Y-42323459D01*
X63634106Y-42487332D01*
X63634103Y-42487341D01*
X63599500Y-42661304D01*
X63599500Y-42838695D01*
X63634103Y-43012658D01*
X63634106Y-43012667D01*
X63701983Y-43176540D01*
X63701990Y-43176553D01*
X63800535Y-43324034D01*
X63800538Y-43324038D01*
X63925961Y-43449461D01*
X63925965Y-43449464D01*
X64069402Y-43545307D01*
X64114207Y-43598920D01*
X64122914Y-43668245D01*
X64092759Y-43731272D01*
X64069403Y-43751510D01*
X64025967Y-43780533D01*
X64025961Y-43780538D01*
X63900538Y-43905961D01*
X63900535Y-43905965D01*
X63801990Y-44053446D01*
X63801983Y-44053459D01*
X63734106Y-44217332D01*
X63734103Y-44217341D01*
X63699500Y-44391304D01*
X63699500Y-44568695D01*
X63734103Y-44742658D01*
X63734106Y-44742667D01*
X63801983Y-44906540D01*
X63801990Y-44906553D01*
X63900535Y-45054034D01*
X63900538Y-45054038D01*
X64025961Y-45179461D01*
X64025965Y-45179464D01*
X64173446Y-45278009D01*
X64173459Y-45278016D01*
X64296363Y-45328923D01*
X64337334Y-45345894D01*
X64337336Y-45345894D01*
X64337341Y-45345896D01*
X64511304Y-45380499D01*
X64511307Y-45380500D01*
X64511309Y-45380500D01*
X64688693Y-45380500D01*
X64688694Y-45380499D01*
X64746682Y-45368964D01*
X64862658Y-45345896D01*
X64862661Y-45345894D01*
X64862666Y-45345894D01*
X65026547Y-45278013D01*
X65174035Y-45179464D01*
X65299464Y-45054035D01*
X65398013Y-44906547D01*
X65465894Y-44742666D01*
X65500500Y-44568691D01*
X65500500Y-44519806D01*
X65520185Y-44452767D01*
X65572989Y-44407012D01*
X65600309Y-44398189D01*
X65762658Y-44365896D01*
X65762661Y-44365894D01*
X65762666Y-44365894D01*
X65926547Y-44298013D01*
X66074035Y-44199464D01*
X66199464Y-44074035D01*
X66298013Y-43926547D01*
X66365894Y-43762666D01*
X66400500Y-43588691D01*
X66400500Y-43411309D01*
X66400500Y-43411306D01*
X66390972Y-43363409D01*
X66390972Y-43363408D01*
X66387371Y-43345304D01*
X76061500Y-43345304D01*
X76061500Y-43522695D01*
X76096103Y-43696658D01*
X76096106Y-43696667D01*
X76163983Y-43860540D01*
X76163990Y-43860553D01*
X76262535Y-44008034D01*
X76262538Y-44008038D01*
X76387961Y-44133461D01*
X76387965Y-44133464D01*
X76535446Y-44232009D01*
X76535459Y-44232016D01*
X76658363Y-44282923D01*
X76699334Y-44299894D01*
X76699336Y-44299894D01*
X76699341Y-44299896D01*
X76873304Y-44334499D01*
X76873307Y-44334500D01*
X76873309Y-44334500D01*
X77050693Y-44334500D01*
X77050694Y-44334499D01*
X77108682Y-44322964D01*
X77224658Y-44299896D01*
X77224661Y-44299894D01*
X77224666Y-44299894D01*
X77388547Y-44232013D01*
X77536035Y-44133464D01*
X77661464Y-44008035D01*
X77760013Y-43860547D01*
X77827894Y-43696666D01*
X77831898Y-43676540D01*
X77862499Y-43522695D01*
X77862500Y-43522693D01*
X77862500Y-43411304D01*
X78855500Y-43411304D01*
X78855500Y-43588695D01*
X78890103Y-43762658D01*
X78890106Y-43762667D01*
X78957983Y-43926540D01*
X78957990Y-43926553D01*
X79056535Y-44074034D01*
X79056538Y-44074038D01*
X79181961Y-44199461D01*
X79181965Y-44199464D01*
X79329446Y-44298009D01*
X79329459Y-44298016D01*
X79417539Y-44334499D01*
X79493334Y-44365894D01*
X79493336Y-44365894D01*
X79493341Y-44365896D01*
X79667304Y-44400499D01*
X79667307Y-44400500D01*
X79667309Y-44400500D01*
X79844693Y-44400500D01*
X79844694Y-44400499D01*
X79902682Y-44388964D01*
X80018658Y-44365896D01*
X80018661Y-44365894D01*
X80018666Y-44365894D01*
X80182547Y-44298013D01*
X80330035Y-44199464D01*
X80455464Y-44074035D01*
X80554013Y-43926547D01*
X80621894Y-43762666D01*
X80656500Y-43588691D01*
X80656500Y-43411309D01*
X80656500Y-43411306D01*
X80656499Y-43411304D01*
X80621896Y-43237341D01*
X80621893Y-43237332D01*
X80554016Y-43073459D01*
X80554009Y-43073446D01*
X80455464Y-42925965D01*
X80455461Y-42925961D01*
X80330038Y-42800538D01*
X80330034Y-42800535D01*
X80182553Y-42701990D01*
X80182540Y-42701983D01*
X80018667Y-42634106D01*
X80018658Y-42634103D01*
X79844694Y-42599500D01*
X79844691Y-42599500D01*
X79667309Y-42599500D01*
X79667306Y-42599500D01*
X79493341Y-42634103D01*
X79493332Y-42634106D01*
X79329459Y-42701983D01*
X79329446Y-42701990D01*
X79181965Y-42800535D01*
X79181961Y-42800538D01*
X79056538Y-42925961D01*
X79056535Y-42925965D01*
X78957990Y-43073446D01*
X78957983Y-43073459D01*
X78890106Y-43237332D01*
X78890103Y-43237341D01*
X78855500Y-43411304D01*
X77862500Y-43411304D01*
X77862500Y-43345306D01*
X77862499Y-43345304D01*
X77827896Y-43171341D01*
X77827893Y-43171332D01*
X77823741Y-43161309D01*
X77787592Y-43074035D01*
X77760016Y-43007459D01*
X77760009Y-43007446D01*
X77661464Y-42859965D01*
X77661461Y-42859961D01*
X77536038Y-42734538D01*
X77536034Y-42734535D01*
X77388553Y-42635990D01*
X77388540Y-42635983D01*
X77224667Y-42568106D01*
X77224658Y-42568103D01*
X77050694Y-42533500D01*
X77050691Y-42533500D01*
X76873309Y-42533500D01*
X76873306Y-42533500D01*
X76699341Y-42568103D01*
X76699332Y-42568106D01*
X76535459Y-42635983D01*
X76535446Y-42635990D01*
X76387965Y-42734535D01*
X76387961Y-42734538D01*
X76262538Y-42859961D01*
X76262535Y-42859965D01*
X76163990Y-43007446D01*
X76163983Y-43007459D01*
X76096106Y-43171332D01*
X76096103Y-43171341D01*
X76061500Y-43345304D01*
X66387371Y-43345304D01*
X66365896Y-43237341D01*
X66365893Y-43237332D01*
X66298016Y-43073459D01*
X66298009Y-43073446D01*
X66199464Y-42925965D01*
X66199461Y-42925961D01*
X66111181Y-42837681D01*
X66077696Y-42776358D01*
X66082680Y-42706666D01*
X66111181Y-42662319D01*
X66199461Y-42574038D01*
X66199464Y-42574035D01*
X66298013Y-42426547D01*
X66365894Y-42262666D01*
X66370932Y-42237341D01*
X66400499Y-42088695D01*
X66400500Y-42088693D01*
X66400500Y-41911306D01*
X66400499Y-41911304D01*
X66365896Y-41737341D01*
X66365893Y-41737332D01*
X66298016Y-41573459D01*
X66298009Y-41573446D01*
X66199464Y-41425965D01*
X66199461Y-41425961D01*
X66074038Y-41300538D01*
X66074034Y-41300535D01*
X65926553Y-41201990D01*
X65926540Y-41201983D01*
X65762667Y-41134106D01*
X65762658Y-41134103D01*
X65588694Y-41099500D01*
X65588691Y-41099500D01*
X65489969Y-41099500D01*
X65422930Y-41079815D01*
X65377175Y-41027011D01*
X65368352Y-40999695D01*
X65365894Y-40987334D01*
X65308802Y-40849500D01*
X65298016Y-40823459D01*
X65298009Y-40823446D01*
X65199464Y-40675965D01*
X65199461Y-40675961D01*
X65074038Y-40550538D01*
X65074034Y-40550535D01*
X64926553Y-40451990D01*
X64926540Y-40451983D01*
X64762667Y-40384106D01*
X64762658Y-40384103D01*
X64588694Y-40349500D01*
X64588691Y-40349500D01*
X64411309Y-40349500D01*
X64411306Y-40349500D01*
X64237341Y-40384103D01*
X64237332Y-40384106D01*
X64073459Y-40451983D01*
X64073446Y-40451990D01*
X63925965Y-40550535D01*
X63925961Y-40550538D01*
X63800538Y-40675961D01*
X63800535Y-40675965D01*
X63701990Y-40823446D01*
X63701983Y-40823459D01*
X63634106Y-40987332D01*
X63634103Y-40987341D01*
X63599500Y-41161304D01*
X61684804Y-41161304D01*
X61574038Y-41050538D01*
X61574034Y-41050535D01*
X61426553Y-40951990D01*
X61426540Y-40951983D01*
X61262667Y-40884106D01*
X61262658Y-40884103D01*
X61088694Y-40849500D01*
X61088691Y-40849500D01*
X60911309Y-40849500D01*
X60911306Y-40849500D01*
X60737341Y-40884103D01*
X60737332Y-40884106D01*
X60573459Y-40951983D01*
X60573446Y-40951990D01*
X60425965Y-41050535D01*
X60425961Y-41050538D01*
X60300538Y-41175961D01*
X60300535Y-41175965D01*
X60201990Y-41323446D01*
X60201983Y-41323459D01*
X60134106Y-41487331D01*
X60134104Y-41487339D01*
X60125918Y-41528493D01*
X60093532Y-41590404D01*
X60032816Y-41624978D01*
X60028493Y-41625918D01*
X59987339Y-41634104D01*
X59987331Y-41634106D01*
X59823459Y-41701983D01*
X59823446Y-41701990D01*
X59675965Y-41800535D01*
X59675961Y-41800538D01*
X59550538Y-41925961D01*
X59550535Y-41925965D01*
X59451990Y-42073446D01*
X59451983Y-42073459D01*
X59384106Y-42237332D01*
X59384103Y-42237341D01*
X59349500Y-42411304D01*
X48332298Y-42411304D01*
X48331410Y-38967716D01*
X51091353Y-38967716D01*
X51091353Y-39248579D01*
X51122795Y-39527642D01*
X51122798Y-39527660D01*
X51185292Y-39801465D01*
X51185296Y-39801477D01*
X51278053Y-40066559D01*
X51399906Y-40319590D01*
X51399908Y-40319593D01*
X51549330Y-40557396D01*
X51578611Y-40594113D01*
X51698257Y-40744145D01*
X51724437Y-40776973D01*
X51923028Y-40975564D01*
X52142605Y-41150671D01*
X52380408Y-41300093D01*
X52633445Y-41421949D01*
X52820296Y-41487331D01*
X52898523Y-41514704D01*
X52898535Y-41514708D01*
X53172344Y-41577203D01*
X53172350Y-41577203D01*
X53172358Y-41577205D01*
X53358400Y-41598166D01*
X53451422Y-41608647D01*
X53451425Y-41608648D01*
X53451428Y-41608648D01*
X53732281Y-41608648D01*
X53732282Y-41608647D01*
X53894199Y-41590404D01*
X54011347Y-41577205D01*
X54011352Y-41577204D01*
X54011362Y-41577203D01*
X54285171Y-41514708D01*
X54550261Y-41421949D01*
X54803298Y-41300093D01*
X55041101Y-41150671D01*
X55260678Y-40975564D01*
X55459269Y-40776973D01*
X55634376Y-40557396D01*
X55783798Y-40319593D01*
X55905654Y-40066556D01*
X55998413Y-39801466D01*
X56060908Y-39527657D01*
X56092353Y-39248573D01*
X56092353Y-38967723D01*
X56069485Y-38764760D01*
X56060910Y-38688653D01*
X56060907Y-38688635D01*
X56059979Y-38684571D01*
X55998413Y-38414830D01*
X55905654Y-38149740D01*
X55846332Y-38026556D01*
X55834980Y-37957614D01*
X55862702Y-37893480D01*
X55920697Y-37854514D01*
X55990553Y-37853089D01*
X56045733Y-37885073D01*
X56807654Y-38646994D01*
X56854285Y-38684571D01*
X56854292Y-38684576D01*
X56985065Y-38744298D01*
X56985073Y-38744300D01*
X57127387Y-38764760D01*
X57269700Y-38744300D01*
X57269708Y-38744298D01*
X57400481Y-38684576D01*
X57400488Y-38684571D01*
X57447119Y-38646994D01*
X58294113Y-37800000D01*
X58294113Y-37799999D01*
X57391693Y-36897579D01*
X57443513Y-36889372D01*
X57645607Y-36823708D01*
X57834941Y-36727237D01*
X58006853Y-36602336D01*
X58157109Y-36452080D01*
X58282010Y-36280168D01*
X58378481Y-36090834D01*
X58444145Y-35888740D01*
X58452352Y-35836919D01*
X59354773Y-36739340D01*
X60201767Y-35892346D01*
X60239344Y-35845715D01*
X60239349Y-35845708D01*
X60299071Y-35714935D01*
X60299073Y-35714927D01*
X60319533Y-35572614D01*
X60299073Y-35430300D01*
X60299071Y-35430292D01*
X60239349Y-35299519D01*
X60239344Y-35299512D01*
X60201767Y-35252881D01*
X59354773Y-34405887D01*
X59354772Y-34405887D01*
X58452352Y-35308307D01*
X58444145Y-35256488D01*
X58378481Y-35054394D01*
X58282010Y-34865060D01*
X58157109Y-34693148D01*
X58006853Y-34542892D01*
X57834941Y-34417991D01*
X57645607Y-34321520D01*
X57443513Y-34255856D01*
X57391693Y-34247648D01*
X58294113Y-33345227D01*
X58294113Y-33345226D01*
X57447123Y-32498237D01*
X57447119Y-32498233D01*
X57400488Y-32460656D01*
X57400481Y-32460651D01*
X57269708Y-32400929D01*
X57269700Y-32400927D01*
X57127387Y-32380467D01*
X56985073Y-32400927D01*
X56985065Y-32400929D01*
X56854292Y-32460651D01*
X56854285Y-32460656D01*
X56807649Y-32498237D01*
X55960660Y-33345226D01*
X55960660Y-33345227D01*
X56863081Y-34247648D01*
X56811261Y-34255856D01*
X56609167Y-34321520D01*
X56419833Y-34417991D01*
X56247921Y-34542892D01*
X56097665Y-34693148D01*
X55972764Y-34865060D01*
X55876293Y-35054394D01*
X55810629Y-35256488D01*
X55802421Y-35308308D01*
X54900000Y-34405887D01*
X54899999Y-34405887D01*
X54053010Y-35252876D01*
X54015429Y-35299512D01*
X54015424Y-35299519D01*
X53955702Y-35430292D01*
X53955700Y-35430300D01*
X53935240Y-35572614D01*
X53955700Y-35714927D01*
X53955702Y-35714935D01*
X54015424Y-35845708D01*
X54015429Y-35845715D01*
X54053006Y-35892346D01*
X54814927Y-36654267D01*
X54848412Y-36715590D01*
X54843428Y-36785282D01*
X54801556Y-36841215D01*
X54736092Y-36865632D01*
X54673445Y-36853668D01*
X54550272Y-36794351D01*
X54550264Y-36794348D01*
X54285182Y-36701591D01*
X54285170Y-36701587D01*
X54011365Y-36639093D01*
X54011347Y-36639090D01*
X53732284Y-36607648D01*
X53732278Y-36607648D01*
X53451428Y-36607648D01*
X53451421Y-36607648D01*
X53172358Y-36639090D01*
X53172340Y-36639093D01*
X52898535Y-36701587D01*
X52898523Y-36701591D01*
X52633441Y-36794348D01*
X52380410Y-36916201D01*
X52142606Y-37065624D01*
X51923028Y-37240731D01*
X51724436Y-37439323D01*
X51549329Y-37658901D01*
X51399906Y-37896705D01*
X51278053Y-38149736D01*
X51185296Y-38414818D01*
X51185292Y-38414830D01*
X51122798Y-38688635D01*
X51122795Y-38688653D01*
X51091353Y-38967716D01*
X48331410Y-38967716D01*
X48328927Y-29331279D01*
X48329058Y-29325586D01*
X48331225Y-29278711D01*
X50496500Y-29278711D01*
X50496500Y-29521288D01*
X50528161Y-29761785D01*
X50590947Y-29996104D01*
X50683773Y-30220205D01*
X50683777Y-30220214D01*
X50705683Y-30258156D01*
X50805064Y-30430289D01*
X50805066Y-30430292D01*
X50805067Y-30430293D01*
X50952733Y-30622736D01*
X50952739Y-30622743D01*
X51124256Y-30794260D01*
X51124262Y-30794265D01*
X51316711Y-30941936D01*
X51526788Y-31063224D01*
X51750900Y-31156054D01*
X51985211Y-31218838D01*
X52165586Y-31242584D01*
X52225711Y-31250500D01*
X52225712Y-31250500D01*
X52468289Y-31250500D01*
X52516388Y-31244167D01*
X52708789Y-31218838D01*
X52943100Y-31156054D01*
X53167212Y-31063224D01*
X53377289Y-30941936D01*
X53569738Y-30794265D01*
X53741265Y-30622738D01*
X53888936Y-30430289D01*
X54010224Y-30220212D01*
X54103054Y-29996100D01*
X54139638Y-29859568D01*
X71999500Y-29859568D01*
X71999500Y-30140431D01*
X72030942Y-30419494D01*
X72030945Y-30419512D01*
X72093439Y-30693317D01*
X72093443Y-30693329D01*
X72186200Y-30958411D01*
X72308053Y-31211442D01*
X72308055Y-31211445D01*
X72457477Y-31449248D01*
X72632584Y-31668825D01*
X72831175Y-31867416D01*
X73050752Y-32042523D01*
X73088972Y-32066538D01*
X73288557Y-32191946D01*
X73372900Y-32232563D01*
X73541592Y-32313801D01*
X73740680Y-32383465D01*
X73806670Y-32406556D01*
X73806682Y-32406560D01*
X74080491Y-32469055D01*
X74080497Y-32469055D01*
X74080505Y-32469057D01*
X74266547Y-32490018D01*
X74359569Y-32500499D01*
X74359572Y-32500500D01*
X74359575Y-32500500D01*
X74640428Y-32500500D01*
X74640429Y-32500499D01*
X74783055Y-32484429D01*
X74919494Y-32469057D01*
X74919499Y-32469056D01*
X74919509Y-32469055D01*
X75193318Y-32406560D01*
X75458408Y-32313801D01*
X75711445Y-32191945D01*
X75949248Y-32042523D01*
X76043187Y-31967608D01*
X76107874Y-31941200D01*
X76176569Y-31953957D01*
X76227463Y-32001827D01*
X76244500Y-32064556D01*
X76244500Y-32526761D01*
X76255724Y-32632691D01*
X76255726Y-32632700D01*
X76266618Y-32683519D01*
X76299793Y-32784746D01*
X76344144Y-32854695D01*
X76376839Y-32906261D01*
X76422269Y-32959344D01*
X76530420Y-33054227D01*
X76660929Y-33114800D01*
X76727846Y-33134896D01*
X76727850Y-33134897D01*
X76870138Y-33156246D01*
X92421264Y-33251650D01*
X92488178Y-33271746D01*
X92533608Y-33324829D01*
X92544500Y-33375648D01*
X92544500Y-69180562D01*
X92557227Y-69293277D01*
X92557228Y-69293282D01*
X92569556Y-69347179D01*
X92569558Y-69347184D01*
X92569559Y-69347189D01*
X92587806Y-69399219D01*
X92601172Y-69437332D01*
X92607096Y-69454222D01*
X92687448Y-69573575D01*
X92687453Y-69573582D01*
X92731794Y-69622600D01*
X92733200Y-69624252D01*
X92734317Y-69625389D01*
X92734319Y-69625391D01*
X92734323Y-69625396D01*
X92845047Y-69717275D01*
X101713856Y-75152996D01*
X101713863Y-75153000D01*
X101713870Y-75153004D01*
X101730281Y-75161814D01*
X101764733Y-75180310D01*
X101764744Y-75180315D01*
X101790353Y-75192233D01*
X101790358Y-75192235D01*
X101790371Y-75192241D01*
X101844011Y-75213568D01*
X101985605Y-75239115D01*
X102055430Y-75241609D01*
X102198485Y-75226230D01*
X102318550Y-75176497D01*
X102388017Y-75169029D01*
X102450497Y-75200304D01*
X102486149Y-75260393D01*
X102489973Y-75288409D01*
X102491069Y-75339707D01*
X102502487Y-75408637D01*
X102519181Y-75461306D01*
X102545956Y-75545782D01*
X102626306Y-75665132D01*
X102626313Y-75665140D01*
X102668822Y-75712134D01*
X102668829Y-75712141D01*
X102673179Y-75716950D01*
X102673183Y-75716955D01*
X102675402Y-75718797D01*
X102679715Y-75723163D01*
X102693472Y-75748733D01*
X102709692Y-75772820D01*
X102709827Y-75779132D01*
X102712819Y-75784693D01*
X102710567Y-75813641D01*
X102711190Y-75842674D01*
X102707890Y-75848058D01*
X102707401Y-75854353D01*
X102689854Y-75877490D01*
X102674684Y-75902248D01*
X102667757Y-75906630D01*
X102665183Y-75910025D01*
X102658561Y-75912447D01*
X102638944Y-75924859D01*
X102573456Y-75951985D01*
X102573446Y-75951990D01*
X102425965Y-76050535D01*
X102425961Y-76050538D01*
X102300538Y-76175961D01*
X102300535Y-76175965D01*
X102201990Y-76323446D01*
X102201983Y-76323459D01*
X102134106Y-76487332D01*
X102134103Y-76487341D01*
X102099500Y-76661304D01*
X102099500Y-76838695D01*
X102134103Y-77012658D01*
X102134106Y-77012667D01*
X102201983Y-77176540D01*
X102201990Y-77176553D01*
X102300535Y-77324034D01*
X102300538Y-77324038D01*
X102425961Y-77449461D01*
X102425965Y-77449464D01*
X102534368Y-77521898D01*
X102579173Y-77575511D01*
X102587880Y-77644836D01*
X102557725Y-77707863D01*
X102534368Y-77728102D01*
X102425965Y-77800535D01*
X102425961Y-77800538D01*
X102300538Y-77925961D01*
X102300535Y-77925965D01*
X102201990Y-78073446D01*
X102201983Y-78073459D01*
X102134106Y-78237332D01*
X102134103Y-78237341D01*
X102099500Y-78411304D01*
X102099500Y-78588695D01*
X102134103Y-78762658D01*
X102134106Y-78762667D01*
X102201983Y-78926540D01*
X102201990Y-78926553D01*
X102300535Y-79074034D01*
X102300538Y-79074038D01*
X102425961Y-79199461D01*
X102425965Y-79199464D01*
X102573446Y-79298009D01*
X102573459Y-79298016D01*
X102631276Y-79321964D01*
X102737334Y-79365894D01*
X102737336Y-79365894D01*
X102737341Y-79365896D01*
X102911304Y-79400499D01*
X102911307Y-79400500D01*
X102911309Y-79400500D01*
X103088693Y-79400500D01*
X103088694Y-79400499D01*
X103146682Y-79388964D01*
X103262658Y-79365896D01*
X103262661Y-79365894D01*
X103262666Y-79365894D01*
X103426547Y-79298013D01*
X103574035Y-79199464D01*
X103699464Y-79074035D01*
X103798013Y-78926547D01*
X103865894Y-78762666D01*
X103866603Y-78759106D01*
X103900499Y-78588695D01*
X103900500Y-78588693D01*
X103900500Y-78411306D01*
X103900499Y-78411304D01*
X103865896Y-78237341D01*
X103865893Y-78237332D01*
X103798016Y-78073459D01*
X103798009Y-78073446D01*
X103699464Y-77925965D01*
X103699461Y-77925961D01*
X103574038Y-77800538D01*
X103574034Y-77800535D01*
X103465631Y-77728102D01*
X103420826Y-77674490D01*
X103412119Y-77605165D01*
X103442274Y-77542137D01*
X103465631Y-77521898D01*
X103496925Y-77500987D01*
X103574035Y-77449464D01*
X103699464Y-77324035D01*
X103798013Y-77176547D01*
X103865894Y-77012666D01*
X103900500Y-76838691D01*
X103900500Y-76714634D01*
X103920185Y-76647595D01*
X103972989Y-76601840D01*
X104042147Y-76591896D01*
X104089293Y-76608909D01*
X106706025Y-78212713D01*
X106832952Y-78268240D01*
X106877491Y-78280802D01*
X106897742Y-78286515D01*
X106897744Y-78286515D01*
X106897750Y-78286517D01*
X107034978Y-78305500D01*
X107034984Y-78305500D01*
X124725990Y-78305500D01*
X124726000Y-78305500D01*
X124833456Y-78293947D01*
X124884967Y-78282741D01*
X124928535Y-78268240D01*
X124987497Y-78248616D01*
X124987501Y-78248613D01*
X124987504Y-78248613D01*
X125108543Y-78170825D01*
X125161347Y-78125070D01*
X125255567Y-78016336D01*
X125315338Y-77885459D01*
X125335023Y-77818420D01*
X125335024Y-77818416D01*
X125355500Y-77676000D01*
X125355500Y-71896864D01*
X125353364Y-71850448D01*
X125351273Y-71827772D01*
X125344884Y-71781744D01*
X125324320Y-71721057D01*
X125298711Y-71645480D01*
X125298710Y-71645478D01*
X125298709Y-71645475D01*
X125267096Y-71583165D01*
X125184399Y-71465424D01*
X125071881Y-71375751D01*
X125043434Y-71359080D01*
X125011599Y-71340423D01*
X124878383Y-71286087D01*
X124878382Y-71286086D01*
X101399484Y-65428565D01*
X101339204Y-65393239D01*
X101307591Y-65330929D01*
X101305500Y-65308253D01*
X101305500Y-64609568D01*
X114499500Y-64609568D01*
X114499500Y-64890431D01*
X114530942Y-65169494D01*
X114530945Y-65169512D01*
X114593439Y-65443317D01*
X114593443Y-65443329D01*
X114686200Y-65708411D01*
X114808053Y-65961442D01*
X114808055Y-65961445D01*
X114957477Y-66199248D01*
X115132584Y-66418825D01*
X115331175Y-66617416D01*
X115550752Y-66792523D01*
X115788555Y-66941945D01*
X116041592Y-67063801D01*
X116240680Y-67133465D01*
X116306670Y-67156556D01*
X116306682Y-67156560D01*
X116580491Y-67219055D01*
X116580497Y-67219055D01*
X116580505Y-67219057D01*
X116766547Y-67240018D01*
X116859569Y-67250499D01*
X116859572Y-67250500D01*
X116859575Y-67250500D01*
X117140428Y-67250500D01*
X117140429Y-67250499D01*
X117283055Y-67234429D01*
X117419494Y-67219057D01*
X117419499Y-67219056D01*
X117419509Y-67219055D01*
X117693318Y-67156560D01*
X117958408Y-67063801D01*
X118211445Y-66941945D01*
X118449248Y-66792523D01*
X118668825Y-66617416D01*
X118867416Y-66418825D01*
X119042523Y-66199248D01*
X119191945Y-65961445D01*
X119313801Y-65708408D01*
X119358460Y-65580778D01*
X119399180Y-65524006D01*
X119464132Y-65498258D01*
X119532694Y-65511714D01*
X119583097Y-65560101D01*
X119599500Y-65621736D01*
X119599500Y-66697870D01*
X119599501Y-66697876D01*
X119605908Y-66757483D01*
X119656202Y-66892328D01*
X119656206Y-66892335D01*
X119742452Y-67007544D01*
X119742455Y-67007547D01*
X119857664Y-67093793D01*
X119857671Y-67093797D01*
X119992517Y-67144091D01*
X119992516Y-67144091D01*
X119999444Y-67144835D01*
X120052127Y-67150500D01*
X123947872Y-67150499D01*
X124007483Y-67144091D01*
X124142331Y-67093796D01*
X124257546Y-67007546D01*
X124343796Y-66892331D01*
X124394091Y-66757483D01*
X124400500Y-66697873D01*
X124400499Y-62802128D01*
X124394091Y-62742517D01*
X124387197Y-62724034D01*
X124343797Y-62607671D01*
X124343793Y-62607664D01*
X124257547Y-62492455D01*
X124257544Y-62492452D01*
X124142335Y-62406206D01*
X124142328Y-62406202D01*
X124007482Y-62355908D01*
X124007483Y-62355908D01*
X123947883Y-62349501D01*
X123947881Y-62349500D01*
X123947873Y-62349500D01*
X123947864Y-62349500D01*
X120052129Y-62349500D01*
X120052123Y-62349501D01*
X119992516Y-62355908D01*
X119857671Y-62406202D01*
X119857664Y-62406206D01*
X119742455Y-62492452D01*
X119742452Y-62492455D01*
X119656206Y-62607664D01*
X119656202Y-62607671D01*
X119605908Y-62742517D01*
X119599501Y-62802116D01*
X119599501Y-62802123D01*
X119599500Y-62802135D01*
X119599500Y-63878262D01*
X119579815Y-63945301D01*
X119527011Y-63991056D01*
X119457853Y-64001000D01*
X119394297Y-63971975D01*
X119358459Y-63919217D01*
X119344128Y-63878262D01*
X119313801Y-63791592D01*
X119191945Y-63538555D01*
X119042523Y-63300752D01*
X118867416Y-63081175D01*
X118668825Y-62882584D01*
X118651456Y-62868733D01*
X118567921Y-62802116D01*
X118449248Y-62707477D01*
X118211445Y-62558055D01*
X118211442Y-62558053D01*
X117958411Y-62436200D01*
X117693329Y-62343443D01*
X117693317Y-62343439D01*
X117419512Y-62280945D01*
X117419494Y-62280942D01*
X117140431Y-62249500D01*
X117140425Y-62249500D01*
X116859575Y-62249500D01*
X116859568Y-62249500D01*
X116580505Y-62280942D01*
X116580487Y-62280945D01*
X116306682Y-62343439D01*
X116306670Y-62343443D01*
X116041588Y-62436200D01*
X115788557Y-62558053D01*
X115550753Y-62707476D01*
X115331175Y-62882583D01*
X115132583Y-63081175D01*
X114957476Y-63300753D01*
X114808053Y-63538557D01*
X114686200Y-63791588D01*
X114593443Y-64056670D01*
X114593439Y-64056682D01*
X114530945Y-64330487D01*
X114530942Y-64330505D01*
X114499500Y-64609568D01*
X101305500Y-64609568D01*
X101305500Y-62061304D01*
X105749500Y-62061304D01*
X105749500Y-62238695D01*
X105784103Y-62412658D01*
X105784106Y-62412667D01*
X105851983Y-62576540D01*
X105851990Y-62576553D01*
X105950535Y-62724034D01*
X105950538Y-62724038D01*
X106075961Y-62849461D01*
X106075965Y-62849464D01*
X106223446Y-62948009D01*
X106223459Y-62948016D01*
X106346363Y-62998923D01*
X106387334Y-63015894D01*
X106387336Y-63015894D01*
X106387341Y-63015896D01*
X106561304Y-63050499D01*
X106561307Y-63050500D01*
X106561309Y-63050500D01*
X106738693Y-63050500D01*
X106738694Y-63050499D01*
X106796682Y-63038964D01*
X106912658Y-63015896D01*
X106912661Y-63015894D01*
X106912666Y-63015894D01*
X107076547Y-62948013D01*
X107224035Y-62849464D01*
X107349464Y-62724035D01*
X107448013Y-62576547D01*
X107515894Y-62412666D01*
X107517180Y-62406204D01*
X107550499Y-62238695D01*
X107550500Y-62238693D01*
X107550500Y-62061306D01*
X107550499Y-62061304D01*
X107515896Y-61887341D01*
X107515893Y-61887332D01*
X107448016Y-61723459D01*
X107448009Y-61723446D01*
X107349464Y-61575965D01*
X107349461Y-61575961D01*
X107224038Y-61450538D01*
X107224034Y-61450535D01*
X107076553Y-61351990D01*
X107076540Y-61351983D01*
X106912667Y-61284106D01*
X106912658Y-61284103D01*
X106738694Y-61249500D01*
X106738691Y-61249500D01*
X106561309Y-61249500D01*
X106561306Y-61249500D01*
X106387341Y-61284103D01*
X106387332Y-61284106D01*
X106223459Y-61351983D01*
X106223446Y-61351990D01*
X106075965Y-61450535D01*
X106075961Y-61450538D01*
X105950538Y-61575961D01*
X105950535Y-61575965D01*
X105851990Y-61723446D01*
X105851983Y-61723459D01*
X105784106Y-61887332D01*
X105784103Y-61887341D01*
X105749500Y-62061304D01*
X101305500Y-62061304D01*
X101305500Y-54609568D01*
X114499500Y-54609568D01*
X114499500Y-54890431D01*
X114530942Y-55169494D01*
X114530945Y-55169512D01*
X114593439Y-55443317D01*
X114593443Y-55443329D01*
X114686200Y-55708411D01*
X114808053Y-55961442D01*
X114808055Y-55961445D01*
X114957477Y-56199248D01*
X115132584Y-56418825D01*
X115331175Y-56617416D01*
X115550752Y-56792523D01*
X115788555Y-56941945D01*
X116041592Y-57063801D01*
X116240680Y-57133465D01*
X116306670Y-57156556D01*
X116306682Y-57156560D01*
X116580491Y-57219055D01*
X116580497Y-57219055D01*
X116580505Y-57219057D01*
X116766547Y-57240018D01*
X116859569Y-57250499D01*
X116859572Y-57250500D01*
X116859575Y-57250500D01*
X117140428Y-57250500D01*
X117140429Y-57250499D01*
X117283055Y-57234429D01*
X117419494Y-57219057D01*
X117419499Y-57219056D01*
X117419509Y-57219055D01*
X117693318Y-57156560D01*
X117958408Y-57063801D01*
X118211445Y-56941945D01*
X118449248Y-56792523D01*
X118668825Y-56617416D01*
X118867416Y-56418825D01*
X119042523Y-56199248D01*
X119191945Y-55961445D01*
X119313801Y-55708408D01*
X119358959Y-55579354D01*
X119399680Y-55522578D01*
X119464633Y-55496831D01*
X119533195Y-55510287D01*
X119583597Y-55558675D01*
X119600000Y-55620309D01*
X119600000Y-56697844D01*
X119606401Y-56757372D01*
X119606403Y-56757379D01*
X119656645Y-56892086D01*
X119656649Y-56892093D01*
X119742809Y-57007187D01*
X119742812Y-57007190D01*
X119857906Y-57093350D01*
X119857913Y-57093354D01*
X119992620Y-57143596D01*
X119992627Y-57143598D01*
X120052155Y-57149999D01*
X120052172Y-57150000D01*
X121250000Y-57150000D01*
X121250000Y-55873784D01*
X121292446Y-55904623D01*
X121481780Y-56001094D01*
X121683874Y-56066758D01*
X121893753Y-56100000D01*
X122106247Y-56100000D01*
X122316126Y-56066758D01*
X122518220Y-56001094D01*
X122707554Y-55904623D01*
X122750000Y-55873784D01*
X122750000Y-57150000D01*
X123947828Y-57150000D01*
X123947844Y-57149999D01*
X124007372Y-57143598D01*
X124007379Y-57143596D01*
X124142086Y-57093354D01*
X124142093Y-57093350D01*
X124257187Y-57007190D01*
X124257190Y-57007187D01*
X124343350Y-56892093D01*
X124343354Y-56892086D01*
X124393596Y-56757379D01*
X124393598Y-56757372D01*
X124399999Y-56697844D01*
X124400000Y-56697827D01*
X124400000Y-55500000D01*
X123123784Y-55500000D01*
X123154623Y-55457554D01*
X123251094Y-55268220D01*
X123316758Y-55066126D01*
X123350000Y-54856247D01*
X123350000Y-54643753D01*
X123316758Y-54433874D01*
X123251094Y-54231780D01*
X123154623Y-54042446D01*
X123123784Y-54000000D01*
X124400000Y-54000000D01*
X124400000Y-52802172D01*
X124399999Y-52802155D01*
X124393598Y-52742627D01*
X124393596Y-52742620D01*
X124343354Y-52607913D01*
X124343350Y-52607906D01*
X124257190Y-52492812D01*
X124257187Y-52492809D01*
X124142093Y-52406649D01*
X124142086Y-52406645D01*
X124007379Y-52356403D01*
X124007372Y-52356401D01*
X123947844Y-52350000D01*
X122750000Y-52350000D01*
X122750000Y-53626215D01*
X122707554Y-53595377D01*
X122518220Y-53498906D01*
X122316126Y-53433242D01*
X122106247Y-53400000D01*
X121893753Y-53400000D01*
X121683874Y-53433242D01*
X121481780Y-53498906D01*
X121292446Y-53595377D01*
X121250000Y-53626215D01*
X121250000Y-52350000D01*
X120052155Y-52350000D01*
X119992627Y-52356401D01*
X119992620Y-52356403D01*
X119857913Y-52406645D01*
X119857906Y-52406649D01*
X119742812Y-52492809D01*
X119742809Y-52492812D01*
X119656649Y-52607906D01*
X119656645Y-52607913D01*
X119606403Y-52742620D01*
X119606401Y-52742627D01*
X119600000Y-52802155D01*
X119600000Y-53879690D01*
X119580315Y-53946729D01*
X119527511Y-53992484D01*
X119458353Y-54002428D01*
X119394797Y-53973403D01*
X119358959Y-53920645D01*
X119340803Y-53868761D01*
X119313801Y-53791592D01*
X119191945Y-53538555D01*
X119042523Y-53300752D01*
X118867416Y-53081175D01*
X118668825Y-52882584D01*
X118654478Y-52871143D01*
X118613060Y-52838113D01*
X118449248Y-52707477D01*
X118281221Y-52601898D01*
X118211442Y-52558053D01*
X117958411Y-52436200D01*
X117693329Y-52343443D01*
X117693317Y-52343439D01*
X117419512Y-52280945D01*
X117419494Y-52280942D01*
X117140431Y-52249500D01*
X117140425Y-52249500D01*
X116859575Y-52249500D01*
X116859568Y-52249500D01*
X116580505Y-52280942D01*
X116580487Y-52280945D01*
X116306682Y-52343439D01*
X116306670Y-52343443D01*
X116041588Y-52436200D01*
X115788557Y-52558053D01*
X115550753Y-52707476D01*
X115331175Y-52882583D01*
X115132583Y-53081175D01*
X114957476Y-53300753D01*
X114808053Y-53538557D01*
X114686200Y-53791588D01*
X114593443Y-54056670D01*
X114593439Y-54056682D01*
X114530945Y-54330487D01*
X114530942Y-54330505D01*
X114499500Y-54609568D01*
X101305500Y-54609568D01*
X101305500Y-35751421D01*
X117191353Y-35751421D01*
X117191353Y-36032284D01*
X117222795Y-36311347D01*
X117222798Y-36311365D01*
X117285292Y-36585170D01*
X117285296Y-36585182D01*
X117378053Y-36850264D01*
X117499906Y-37103295D01*
X117499908Y-37103298D01*
X117649330Y-37341101D01*
X117824437Y-37560678D01*
X118023028Y-37759269D01*
X118242605Y-37934376D01*
X118480408Y-38083798D01*
X118733445Y-38205654D01*
X118890643Y-38260660D01*
X118998523Y-38298409D01*
X118998535Y-38298413D01*
X119272344Y-38360908D01*
X119272350Y-38360908D01*
X119272358Y-38360910D01*
X119458400Y-38381871D01*
X119551422Y-38392352D01*
X119551425Y-38392353D01*
X119551428Y-38392353D01*
X119832281Y-38392353D01*
X119832282Y-38392352D01*
X119974908Y-38376282D01*
X120111347Y-38360910D01*
X120111352Y-38360909D01*
X120111362Y-38360908D01*
X120385171Y-38298413D01*
X120650261Y-38205654D01*
X120773444Y-38146331D01*
X120842385Y-38134980D01*
X120906520Y-38162702D01*
X120945486Y-38220697D01*
X120946911Y-38290552D01*
X120914927Y-38345733D01*
X120153006Y-39107654D01*
X120115429Y-39154285D01*
X120115424Y-39154292D01*
X120055702Y-39285065D01*
X120055700Y-39285073D01*
X120035240Y-39427387D01*
X120055700Y-39569700D01*
X120055702Y-39569708D01*
X120115424Y-39700481D01*
X120115429Y-39700488D01*
X120153006Y-39747119D01*
X121000000Y-40594113D01*
X121902421Y-39691692D01*
X121910629Y-39743513D01*
X121976293Y-39945607D01*
X122072764Y-40134941D01*
X122197665Y-40306853D01*
X122347921Y-40457109D01*
X122519833Y-40582010D01*
X122709167Y-40678481D01*
X122911261Y-40744145D01*
X122963081Y-40752352D01*
X122060660Y-41654773D01*
X122907654Y-42501767D01*
X122954285Y-42539344D01*
X122954292Y-42539349D01*
X123085065Y-42599071D01*
X123085073Y-42599073D01*
X123227387Y-42619533D01*
X123369700Y-42599073D01*
X123369708Y-42599071D01*
X123500481Y-42539349D01*
X123500488Y-42539344D01*
X123547119Y-42501767D01*
X124394113Y-41654773D01*
X124394113Y-41654772D01*
X123491692Y-40752352D01*
X123543513Y-40744145D01*
X123745607Y-40678481D01*
X123934941Y-40582010D01*
X124106853Y-40457109D01*
X124257109Y-40306853D01*
X124382010Y-40134941D01*
X124478481Y-39945607D01*
X124544145Y-39743513D01*
X124552352Y-39691692D01*
X125454773Y-40594113D01*
X126301767Y-39747119D01*
X126339344Y-39700488D01*
X126339349Y-39700481D01*
X126399071Y-39569708D01*
X126399073Y-39569700D01*
X126419533Y-39427387D01*
X126399073Y-39285073D01*
X126399071Y-39285065D01*
X126339349Y-39154292D01*
X126339344Y-39154285D01*
X126301767Y-39107654D01*
X125454773Y-38260660D01*
X125454772Y-38260660D01*
X124552352Y-39163080D01*
X124544145Y-39111261D01*
X124478481Y-38909167D01*
X124382010Y-38719833D01*
X124257109Y-38547921D01*
X124106853Y-38397665D01*
X123934941Y-38272764D01*
X123745607Y-38176293D01*
X123543513Y-38110629D01*
X123491692Y-38102421D01*
X124394113Y-37200001D01*
X124394113Y-37199999D01*
X123547123Y-36353010D01*
X123547119Y-36353006D01*
X123500488Y-36315429D01*
X123500481Y-36315424D01*
X123369708Y-36255702D01*
X123369700Y-36255700D01*
X123227387Y-36235240D01*
X123085073Y-36255700D01*
X123085065Y-36255702D01*
X122954292Y-36315424D01*
X122954285Y-36315429D01*
X122907654Y-36353006D01*
X122145733Y-37114927D01*
X122084410Y-37148412D01*
X122014718Y-37143428D01*
X121958785Y-37101556D01*
X121934368Y-37036092D01*
X121946332Y-36973444D01*
X122005654Y-36850261D01*
X122098413Y-36585171D01*
X122160908Y-36311362D01*
X122167180Y-36255702D01*
X122192352Y-36032284D01*
X122192353Y-36032280D01*
X122192353Y-35751425D01*
X122192352Y-35751421D01*
X122160910Y-35472358D01*
X122160907Y-35472340D01*
X122098413Y-35198535D01*
X122098409Y-35198523D01*
X122047976Y-35054394D01*
X122005654Y-34933445D01*
X121924416Y-34764753D01*
X121883799Y-34680410D01*
X121883798Y-34680408D01*
X121734376Y-34442605D01*
X121559269Y-34223028D01*
X121360678Y-34024437D01*
X121141101Y-33849330D01*
X120976857Y-33746128D01*
X120903295Y-33699906D01*
X120650264Y-33578053D01*
X120385182Y-33485296D01*
X120385170Y-33485292D01*
X120111365Y-33422798D01*
X120111347Y-33422795D01*
X119832284Y-33391353D01*
X119832278Y-33391353D01*
X119551428Y-33391353D01*
X119551421Y-33391353D01*
X119272358Y-33422795D01*
X119272340Y-33422798D01*
X118998535Y-33485292D01*
X118998523Y-33485296D01*
X118733441Y-33578053D01*
X118480410Y-33699906D01*
X118242606Y-33849329D01*
X118023028Y-34024436D01*
X117824436Y-34223028D01*
X117649329Y-34442606D01*
X117499906Y-34680410D01*
X117378053Y-34933441D01*
X117285296Y-35198523D01*
X117285292Y-35198535D01*
X117222798Y-35472340D01*
X117222795Y-35472358D01*
X117191353Y-35751421D01*
X101305500Y-35751421D01*
X101305500Y-34201304D01*
X108065500Y-34201304D01*
X108065500Y-34378695D01*
X108100103Y-34552658D01*
X108100106Y-34552667D01*
X108167983Y-34716540D01*
X108167990Y-34716553D01*
X108266535Y-34864034D01*
X108266538Y-34864038D01*
X108391961Y-34989461D01*
X108391965Y-34989464D01*
X108539446Y-35088009D01*
X108539459Y-35088016D01*
X108662363Y-35138923D01*
X108703334Y-35155894D01*
X108703336Y-35155894D01*
X108703341Y-35155896D01*
X108877304Y-35190499D01*
X108877307Y-35190500D01*
X108877309Y-35190500D01*
X109054693Y-35190500D01*
X109054694Y-35190499D01*
X109112682Y-35178964D01*
X109228658Y-35155896D01*
X109228661Y-35155894D01*
X109228666Y-35155894D01*
X109392547Y-35088013D01*
X109540035Y-34989464D01*
X109665464Y-34864035D01*
X109764013Y-34716547D01*
X109831894Y-34552666D01*
X109833839Y-34542892D01*
X109866499Y-34378695D01*
X109866500Y-34378693D01*
X109866500Y-34201306D01*
X109866499Y-34201304D01*
X109831896Y-34027341D01*
X109831893Y-34027332D01*
X109830693Y-34024436D01*
X109814923Y-33986363D01*
X109764016Y-33863459D01*
X109764009Y-33863446D01*
X109665464Y-33715965D01*
X109665461Y-33715961D01*
X109540038Y-33590538D01*
X109540034Y-33590535D01*
X109392553Y-33491990D01*
X109392540Y-33491983D01*
X109228667Y-33424106D01*
X109228658Y-33424103D01*
X109054694Y-33389500D01*
X109054691Y-33389500D01*
X108877309Y-33389500D01*
X108877306Y-33389500D01*
X108703341Y-33424103D01*
X108703332Y-33424106D01*
X108539459Y-33491983D01*
X108539446Y-33491990D01*
X108391965Y-33590535D01*
X108391961Y-33590538D01*
X108266538Y-33715961D01*
X108266535Y-33715965D01*
X108167990Y-33863446D01*
X108167983Y-33863459D01*
X108100106Y-34027332D01*
X108100103Y-34027341D01*
X108065500Y-34201304D01*
X101305500Y-34201304D01*
X101305500Y-32677304D01*
X105525500Y-32677304D01*
X105525500Y-32854695D01*
X105560103Y-33028658D01*
X105560106Y-33028667D01*
X105627983Y-33192540D01*
X105627990Y-33192553D01*
X105726535Y-33340034D01*
X105726538Y-33340038D01*
X105851961Y-33465461D01*
X105851965Y-33465464D01*
X105999446Y-33564009D01*
X105999459Y-33564016D01*
X106122363Y-33614923D01*
X106163334Y-33631894D01*
X106163336Y-33631894D01*
X106163341Y-33631896D01*
X106337304Y-33666499D01*
X106337307Y-33666500D01*
X106337309Y-33666500D01*
X106514693Y-33666500D01*
X106514694Y-33666499D01*
X106572682Y-33654964D01*
X106688658Y-33631896D01*
X106688661Y-33631894D01*
X106688666Y-33631894D01*
X106852547Y-33564013D01*
X107000035Y-33465464D01*
X107125464Y-33340035D01*
X107224013Y-33192547D01*
X107291894Y-33028666D01*
X107326500Y-32854691D01*
X107326500Y-32677309D01*
X107326500Y-32677306D01*
X107326499Y-32677304D01*
X107291896Y-32503341D01*
X107291893Y-32503332D01*
X107224016Y-32339459D01*
X107224009Y-32339446D01*
X107125464Y-32191965D01*
X107125461Y-32191961D01*
X107000038Y-32066538D01*
X107000034Y-32066535D01*
X106852553Y-31967990D01*
X106852540Y-31967983D01*
X106688667Y-31900106D01*
X106688658Y-31900103D01*
X106514694Y-31865500D01*
X106514691Y-31865500D01*
X106337309Y-31865500D01*
X106337306Y-31865500D01*
X106163341Y-31900103D01*
X106163332Y-31900106D01*
X105999459Y-31967983D01*
X105999446Y-31967990D01*
X105851965Y-32066535D01*
X105851961Y-32066538D01*
X105726538Y-32191961D01*
X105726535Y-32191965D01*
X105627990Y-32339446D01*
X105627983Y-32339459D01*
X105560106Y-32503332D01*
X105560103Y-32503341D01*
X105525500Y-32677304D01*
X101305500Y-32677304D01*
X101305500Y-29278711D01*
X122496500Y-29278711D01*
X122496500Y-29521288D01*
X122528161Y-29761785D01*
X122590947Y-29996104D01*
X122683773Y-30220205D01*
X122683777Y-30220214D01*
X122705683Y-30258156D01*
X122805064Y-30430289D01*
X122805066Y-30430292D01*
X122805067Y-30430293D01*
X122952733Y-30622736D01*
X122952739Y-30622743D01*
X123124256Y-30794260D01*
X123124262Y-30794265D01*
X123316711Y-30941936D01*
X123526788Y-31063224D01*
X123750900Y-31156054D01*
X123985211Y-31218838D01*
X124165586Y-31242584D01*
X124225711Y-31250500D01*
X124225712Y-31250500D01*
X124468289Y-31250500D01*
X124516388Y-31244167D01*
X124708789Y-31218838D01*
X124943100Y-31156054D01*
X125167212Y-31063224D01*
X125377289Y-30941936D01*
X125569738Y-30794265D01*
X125741265Y-30622738D01*
X125888936Y-30430289D01*
X126010224Y-30220212D01*
X126103054Y-29996100D01*
X126165838Y-29761789D01*
X126197500Y-29521288D01*
X126197500Y-29278712D01*
X126165838Y-29038211D01*
X126103054Y-28803900D01*
X126010224Y-28579788D01*
X125888936Y-28369711D01*
X125741265Y-28177262D01*
X125741260Y-28177256D01*
X125569743Y-28005739D01*
X125569736Y-28005733D01*
X125377293Y-27858067D01*
X125377292Y-27858066D01*
X125377289Y-27858064D01*
X125167212Y-27736776D01*
X125104539Y-27710816D01*
X124943104Y-27643947D01*
X124708785Y-27581161D01*
X124468289Y-27549500D01*
X124468288Y-27549500D01*
X124225712Y-27549500D01*
X124225711Y-27549500D01*
X123985214Y-27581161D01*
X123750895Y-27643947D01*
X123526794Y-27736773D01*
X123526785Y-27736777D01*
X123316706Y-27858067D01*
X123124263Y-28005733D01*
X123124256Y-28005739D01*
X122952739Y-28177256D01*
X122952733Y-28177263D01*
X122805067Y-28369706D01*
X122683777Y-28579785D01*
X122683773Y-28579794D01*
X122590947Y-28803895D01*
X122528161Y-29038214D01*
X122496500Y-29278711D01*
X101305500Y-29278711D01*
X101305500Y-27424010D01*
X101305500Y-27424000D01*
X101293947Y-27316544D01*
X101282741Y-27265033D01*
X101282637Y-27264722D01*
X101248616Y-27162502D01*
X101248613Y-27162496D01*
X101170828Y-27041462D01*
X101170825Y-27041457D01*
X101149575Y-27016933D01*
X101125076Y-26988659D01*
X101125072Y-26988656D01*
X101125070Y-26988653D01*
X101016336Y-26894433D01*
X101016333Y-26894431D01*
X101016331Y-26894430D01*
X100885465Y-26834664D01*
X100885460Y-26834662D01*
X100885459Y-26834662D01*
X100818420Y-26814977D01*
X100818422Y-26814977D01*
X100818417Y-26814976D01*
X100756347Y-26806052D01*
X100676000Y-26794500D01*
X93508203Y-26794500D01*
X93492747Y-26794736D01*
X93492714Y-26794736D01*
X93492714Y-26794737D01*
X93485188Y-26794967D01*
X93485172Y-26794967D01*
X93485163Y-26794968D01*
X93482812Y-26795075D01*
X93469705Y-26795677D01*
X93436152Y-26802618D01*
X93328805Y-26824827D01*
X93328801Y-26824828D01*
X93328798Y-26824829D01*
X93328794Y-26824830D01*
X93263097Y-26848574D01*
X93263095Y-26848574D01*
X93263095Y-26848575D01*
X93257820Y-26851386D01*
X93136118Y-26916237D01*
X93136117Y-26916238D01*
X93086882Y-26964477D01*
X93025222Y-26997334D01*
X92955585Y-26991638D01*
X92918900Y-26969618D01*
X92832133Y-26894433D01*
X92832130Y-26894431D01*
X92832128Y-26894430D01*
X92701262Y-26834664D01*
X92701257Y-26834662D01*
X92701256Y-26834662D01*
X92634217Y-26814977D01*
X92634219Y-26814977D01*
X92634214Y-26814976D01*
X92572144Y-26806052D01*
X92491797Y-26794500D01*
X76874000Y-26794500D01*
X76873991Y-26794500D01*
X76873990Y-26794501D01*
X76766549Y-26806052D01*
X76766537Y-26806054D01*
X76715027Y-26817260D01*
X76612502Y-26851383D01*
X76612496Y-26851386D01*
X76491462Y-26929171D01*
X76491451Y-26929179D01*
X76438659Y-26974923D01*
X76344433Y-27083664D01*
X76344430Y-27083668D01*
X76284664Y-27214534D01*
X76264976Y-27281582D01*
X76259949Y-27316549D01*
X76244502Y-27423990D01*
X76244500Y-27424001D01*
X76244500Y-27935443D01*
X76224815Y-28002482D01*
X76172011Y-28048237D01*
X76102853Y-28058181D01*
X76043188Y-28032391D01*
X75949245Y-27957475D01*
X75711442Y-27808053D01*
X75458411Y-27686200D01*
X75193329Y-27593443D01*
X75193317Y-27593439D01*
X74919512Y-27530945D01*
X74919494Y-27530942D01*
X74640431Y-27499500D01*
X74640425Y-27499500D01*
X74359575Y-27499500D01*
X74359568Y-27499500D01*
X74080505Y-27530942D01*
X74080487Y-27530945D01*
X73806682Y-27593439D01*
X73806670Y-27593443D01*
X73541588Y-27686200D01*
X73288557Y-27808053D01*
X73050753Y-27957476D01*
X72831175Y-28132583D01*
X72632583Y-28331175D01*
X72457476Y-28550753D01*
X72308053Y-28788557D01*
X72186200Y-29041588D01*
X72093443Y-29306670D01*
X72093439Y-29306682D01*
X72030945Y-29580487D01*
X72030942Y-29580505D01*
X71999500Y-29859568D01*
X54139638Y-29859568D01*
X54165838Y-29761789D01*
X54197500Y-29521288D01*
X54197500Y-29278712D01*
X54165838Y-29038211D01*
X54103054Y-28803900D01*
X54010224Y-28579788D01*
X53888936Y-28369711D01*
X53741265Y-28177262D01*
X53741260Y-28177256D01*
X53569743Y-28005739D01*
X53569736Y-28005733D01*
X53377293Y-27858067D01*
X53377292Y-27858066D01*
X53377289Y-27858064D01*
X53167212Y-27736776D01*
X53104539Y-27710816D01*
X52943104Y-27643947D01*
X52708785Y-27581161D01*
X52468289Y-27549500D01*
X52468288Y-27549500D01*
X52225712Y-27549500D01*
X52225711Y-27549500D01*
X51985214Y-27581161D01*
X51750895Y-27643947D01*
X51526794Y-27736773D01*
X51526785Y-27736777D01*
X51316706Y-27858067D01*
X51124263Y-28005733D01*
X51124256Y-28005739D01*
X50952739Y-28177256D01*
X50952733Y-28177263D01*
X50805067Y-28369706D01*
X50683777Y-28579785D01*
X50683773Y-28579794D01*
X50590947Y-28803895D01*
X50528161Y-29038214D01*
X50496500Y-29278711D01*
X48331225Y-29278711D01*
X48344273Y-28996490D01*
X48344733Y-28990123D01*
X48351771Y-28918663D01*
X48352355Y-28913754D01*
X48392806Y-28623779D01*
X48393983Y-28616816D01*
X48406926Y-28551748D01*
X48407810Y-28547672D01*
X48476296Y-28256487D01*
X48478311Y-28248990D01*
X48494604Y-28195280D01*
X48495626Y-28192079D01*
X48594181Y-27898031D01*
X48597157Y-27890079D01*
X48611744Y-27854863D01*
X48612772Y-27852460D01*
X48745512Y-27551833D01*
X48749573Y-27543496D01*
X48752094Y-27538780D01*
X48753067Y-27536997D01*
X48925195Y-27227968D01*
X48931221Y-27218236D01*
X49133531Y-26922901D01*
X49140413Y-26913788D01*
X49369110Y-26638379D01*
X49376804Y-26629939D01*
X49629939Y-26376804D01*
X49638379Y-26369110D01*
X49913788Y-26140413D01*
X49922901Y-26133531D01*
X50218242Y-25931217D01*
X50227968Y-25925195D01*
X50536997Y-25753067D01*
X50538780Y-25752094D01*
X50543496Y-25749573D01*
X50551833Y-25745512D01*
X50852460Y-25612772D01*
X50854863Y-25611744D01*
X50890079Y-25597157D01*
X50898031Y-25594181D01*
X51192079Y-25495626D01*
X51195280Y-25494604D01*
X51248990Y-25478311D01*
X51256487Y-25476296D01*
X51547672Y-25407810D01*
X51551748Y-25406926D01*
X51616816Y-25393983D01*
X51623779Y-25392806D01*
X51913754Y-25352355D01*
X51918663Y-25351771D01*
X51990123Y-25344733D01*
X51996490Y-25344273D01*
X52325543Y-25329060D01*
X52331314Y-25328929D01*
X124295737Y-25400448D01*
G37*
%TD.AperFunction*%
%TA.AperFunction,Conductor*%
G36*
X92558836Y-27319685D02*
G01*
X92604591Y-27372489D01*
X92614535Y-27441647D01*
X92585510Y-27505203D01*
X92526732Y-27542977D01*
X92519389Y-27544891D01*
X92306682Y-27593439D01*
X92306670Y-27593443D01*
X92041588Y-27686200D01*
X91788557Y-27808053D01*
X91550753Y-27957476D01*
X91331175Y-28132583D01*
X91132583Y-28331175D01*
X90957476Y-28550753D01*
X90808053Y-28788557D01*
X90686200Y-29041588D01*
X90593443Y-29306670D01*
X90593439Y-29306682D01*
X90530945Y-29580487D01*
X90530942Y-29580505D01*
X90499500Y-29859568D01*
X90499500Y-30140431D01*
X90530942Y-30419494D01*
X90530945Y-30419512D01*
X90593439Y-30693317D01*
X90593443Y-30693329D01*
X90686200Y-30958411D01*
X90808053Y-31211442D01*
X90808055Y-31211445D01*
X90957477Y-31449248D01*
X91132584Y-31668825D01*
X91331175Y-31867416D01*
X91550752Y-32042523D01*
X91788555Y-32191945D01*
X91788557Y-32191946D01*
X91872900Y-32232563D01*
X92041592Y-32313801D01*
X92240680Y-32383465D01*
X92306670Y-32406556D01*
X92306682Y-32406560D01*
X92580491Y-32469055D01*
X92580497Y-32469055D01*
X92580505Y-32469057D01*
X92766547Y-32490018D01*
X92859569Y-32500499D01*
X92859572Y-32500500D01*
X92859575Y-32500500D01*
X93140428Y-32500500D01*
X93140429Y-32500499D01*
X93283055Y-32484429D01*
X93419494Y-32469057D01*
X93419499Y-32469056D01*
X93419509Y-32469055D01*
X93693318Y-32406560D01*
X93958408Y-32313801D01*
X94211445Y-32191945D01*
X94449248Y-32042523D01*
X94668825Y-31867416D01*
X94867416Y-31668825D01*
X95042523Y-31449248D01*
X95191945Y-31211445D01*
X95313801Y-30958408D01*
X95358959Y-30829354D01*
X95399680Y-30772578D01*
X95464633Y-30746831D01*
X95533195Y-30760287D01*
X95583597Y-30808675D01*
X95600000Y-30870309D01*
X95600000Y-31947844D01*
X95606401Y-32007372D01*
X95606403Y-32007379D01*
X95656645Y-32142086D01*
X95656649Y-32142093D01*
X95742809Y-32257187D01*
X95742812Y-32257190D01*
X95857906Y-32343350D01*
X95857913Y-32343354D01*
X95992620Y-32393596D01*
X95992627Y-32393598D01*
X96052155Y-32399999D01*
X96052172Y-32400000D01*
X97750000Y-32400000D01*
X97750000Y-31327231D01*
X97893753Y-31350000D01*
X98106247Y-31350000D01*
X98250000Y-31327231D01*
X98250000Y-32400000D01*
X99947828Y-32400000D01*
X99947844Y-32399999D01*
X100007372Y-32393598D01*
X100007379Y-32393596D01*
X100142086Y-32343354D01*
X100142093Y-32343350D01*
X100257187Y-32257190D01*
X100257190Y-32257187D01*
X100343350Y-32142093D01*
X100343354Y-32142086D01*
X100393596Y-32007379D01*
X100393598Y-32007372D01*
X100399999Y-31947844D01*
X100400000Y-31947827D01*
X100400000Y-30250000D01*
X99327231Y-30250000D01*
X99350000Y-30106247D01*
X99350000Y-29893753D01*
X99327231Y-29750000D01*
X100400000Y-29750000D01*
X100400000Y-28052172D01*
X100399999Y-28052155D01*
X100393598Y-27992627D01*
X100393596Y-27992620D01*
X100343354Y-27857913D01*
X100343350Y-27857906D01*
X100257190Y-27742812D01*
X100257187Y-27742809D01*
X100142093Y-27656649D01*
X100142086Y-27656645D01*
X100007379Y-27606403D01*
X100007372Y-27606401D01*
X99947844Y-27600000D01*
X98250000Y-27600000D01*
X98250000Y-28672768D01*
X98106247Y-28650000D01*
X97893753Y-28650000D01*
X97750000Y-28672768D01*
X97750000Y-27600000D01*
X96052155Y-27600000D01*
X95992627Y-27606401D01*
X95992620Y-27606403D01*
X95857913Y-27656645D01*
X95857906Y-27656649D01*
X95742812Y-27742809D01*
X95742809Y-27742812D01*
X95656649Y-27857906D01*
X95656645Y-27857913D01*
X95606403Y-27992620D01*
X95606401Y-27992627D01*
X95600000Y-28052155D01*
X95600000Y-29129690D01*
X95580315Y-29196729D01*
X95527511Y-29242484D01*
X95458353Y-29252428D01*
X95394797Y-29223403D01*
X95358959Y-29170645D01*
X95340803Y-29118761D01*
X95313801Y-29041592D01*
X95191945Y-28788555D01*
X95042523Y-28550752D01*
X94867416Y-28331175D01*
X94668825Y-28132584D01*
X94449248Y-27957477D01*
X94211445Y-27808055D01*
X94211442Y-27808053D01*
X93958411Y-27686200D01*
X93693329Y-27593443D01*
X93693317Y-27593439D01*
X93480611Y-27544891D01*
X93419632Y-27510782D01*
X93386774Y-27449121D01*
X93392469Y-27379484D01*
X93434909Y-27323980D01*
X93500619Y-27300232D01*
X93508203Y-27300000D01*
X100676000Y-27300000D01*
X100743039Y-27319685D01*
X100788794Y-27372489D01*
X100800000Y-27424000D01*
X100800000Y-65800000D01*
X124756018Y-71776553D01*
X124816296Y-71811878D01*
X124847909Y-71874188D01*
X124850000Y-71896864D01*
X124850000Y-77676000D01*
X124830315Y-77743039D01*
X124777511Y-77788794D01*
X124726000Y-77800000D01*
X107034978Y-77800000D01*
X106970180Y-77781723D01*
X103048062Y-75377844D01*
X103001191Y-75326028D01*
X102989773Y-75257098D01*
X103017435Y-75192937D01*
X103075394Y-75153917D01*
X103088669Y-75150504D01*
X103088689Y-75150500D01*
X103088691Y-75150500D01*
X103172050Y-75133918D01*
X103262658Y-75115896D01*
X103262661Y-75115894D01*
X103262666Y-75115894D01*
X103426547Y-75048013D01*
X103574035Y-74949464D01*
X103699464Y-74824035D01*
X103798013Y-74676547D01*
X103825756Y-74609568D01*
X114499500Y-74609568D01*
X114499500Y-74890431D01*
X114530942Y-75169494D01*
X114530945Y-75169512D01*
X114593439Y-75443317D01*
X114593443Y-75443329D01*
X114686200Y-75708411D01*
X114808053Y-75961442D01*
X114808055Y-75961445D01*
X114957477Y-76199248D01*
X115132584Y-76418825D01*
X115331175Y-76617416D01*
X115550752Y-76792523D01*
X115788555Y-76941945D01*
X116041592Y-77063801D01*
X116240680Y-77133465D01*
X116306670Y-77156556D01*
X116306682Y-77156560D01*
X116580491Y-77219055D01*
X116580497Y-77219055D01*
X116580505Y-77219057D01*
X116766547Y-77240018D01*
X116859569Y-77250499D01*
X116859572Y-77250500D01*
X116859575Y-77250500D01*
X117140428Y-77250500D01*
X117140429Y-77250499D01*
X117283055Y-77234429D01*
X117419494Y-77219057D01*
X117419499Y-77219056D01*
X117419509Y-77219055D01*
X117693318Y-77156560D01*
X117958408Y-77063801D01*
X118211445Y-76941945D01*
X118449248Y-76792523D01*
X118668825Y-76617416D01*
X118867416Y-76418825D01*
X119042523Y-76199248D01*
X119191945Y-75961445D01*
X119313801Y-75708408D01*
X119358959Y-75579354D01*
X119399680Y-75522578D01*
X119464633Y-75496831D01*
X119533195Y-75510287D01*
X119583597Y-75558675D01*
X119600000Y-75620309D01*
X119600000Y-76697844D01*
X119606401Y-76757372D01*
X119606403Y-76757379D01*
X119656645Y-76892086D01*
X119656649Y-76892093D01*
X119742809Y-77007187D01*
X119742812Y-77007190D01*
X119857906Y-77093350D01*
X119857913Y-77093354D01*
X119992620Y-77143596D01*
X119992627Y-77143598D01*
X120052155Y-77149999D01*
X120052172Y-77150000D01*
X121750000Y-77150000D01*
X121750000Y-76077231D01*
X121893753Y-76100000D01*
X122106247Y-76100000D01*
X122250000Y-76077231D01*
X122250000Y-77150000D01*
X123947828Y-77150000D01*
X123947844Y-77149999D01*
X124007372Y-77143598D01*
X124007379Y-77143596D01*
X124142086Y-77093354D01*
X124142093Y-77093350D01*
X124257187Y-77007190D01*
X124257190Y-77007187D01*
X124343350Y-76892093D01*
X124343354Y-76892086D01*
X124393596Y-76757379D01*
X124393598Y-76757372D01*
X124399999Y-76697844D01*
X124400000Y-76697827D01*
X124400000Y-75000000D01*
X123327231Y-75000000D01*
X123350000Y-74856247D01*
X123350000Y-74643753D01*
X123327231Y-74500000D01*
X124400000Y-74500000D01*
X124400000Y-72802172D01*
X124399999Y-72802155D01*
X124393598Y-72742627D01*
X124393596Y-72742620D01*
X124343354Y-72607913D01*
X124343350Y-72607906D01*
X124257190Y-72492812D01*
X124257187Y-72492809D01*
X124142093Y-72406649D01*
X124142086Y-72406645D01*
X124007379Y-72356403D01*
X124007372Y-72356401D01*
X123947844Y-72350000D01*
X122250000Y-72350000D01*
X122250000Y-73422768D01*
X122106247Y-73400000D01*
X121893753Y-73400000D01*
X121750000Y-73422768D01*
X121750000Y-72350000D01*
X120052155Y-72350000D01*
X119992627Y-72356401D01*
X119992620Y-72356403D01*
X119857913Y-72406645D01*
X119857906Y-72406649D01*
X119742812Y-72492809D01*
X119742809Y-72492812D01*
X119656649Y-72607906D01*
X119656645Y-72607913D01*
X119606403Y-72742620D01*
X119606401Y-72742627D01*
X119600000Y-72802155D01*
X119600000Y-73879690D01*
X119580315Y-73946729D01*
X119527511Y-73992484D01*
X119458353Y-74002428D01*
X119394797Y-73973403D01*
X119358959Y-73920645D01*
X119340803Y-73868761D01*
X119313801Y-73791592D01*
X119191945Y-73538555D01*
X119042523Y-73300752D01*
X118867416Y-73081175D01*
X118668825Y-72882584D01*
X118651456Y-72868733D01*
X118613060Y-72838113D01*
X118449248Y-72707477D01*
X118211445Y-72558055D01*
X118211442Y-72558053D01*
X117958411Y-72436200D01*
X117693329Y-72343443D01*
X117693317Y-72343439D01*
X117419512Y-72280945D01*
X117419494Y-72280942D01*
X117140431Y-72249500D01*
X117140425Y-72249500D01*
X116859575Y-72249500D01*
X116859568Y-72249500D01*
X116580505Y-72280942D01*
X116580487Y-72280945D01*
X116306682Y-72343439D01*
X116306670Y-72343443D01*
X116041588Y-72436200D01*
X115788557Y-72558053D01*
X115550753Y-72707476D01*
X115331175Y-72882583D01*
X115132583Y-73081175D01*
X114957476Y-73300753D01*
X114808053Y-73538557D01*
X114686200Y-73791588D01*
X114593443Y-74056670D01*
X114593439Y-74056682D01*
X114530945Y-74330487D01*
X114530942Y-74330505D01*
X114499500Y-74609568D01*
X103825756Y-74609568D01*
X103865894Y-74512666D01*
X103868414Y-74500000D01*
X103900499Y-74338695D01*
X103900500Y-74338693D01*
X103900500Y-74161306D01*
X103900499Y-74161304D01*
X103865896Y-73987341D01*
X103865893Y-73987332D01*
X103798016Y-73823459D01*
X103798009Y-73823446D01*
X103699464Y-73675965D01*
X103699461Y-73675961D01*
X103574038Y-73550538D01*
X103574034Y-73550535D01*
X103426553Y-73451990D01*
X103426540Y-73451983D01*
X103262667Y-73384106D01*
X103262658Y-73384103D01*
X103088694Y-73349500D01*
X103088691Y-73349500D01*
X102911309Y-73349500D01*
X102911306Y-73349500D01*
X102737341Y-73384103D01*
X102737332Y-73384106D01*
X102573459Y-73451983D01*
X102573446Y-73451990D01*
X102425965Y-73550535D01*
X102425961Y-73550538D01*
X102300538Y-73675961D01*
X102300535Y-73675965D01*
X102201990Y-73823446D01*
X102201983Y-73823459D01*
X102134106Y-73987332D01*
X102134103Y-73987341D01*
X102099500Y-74161304D01*
X102099500Y-74338695D01*
X102134103Y-74512658D01*
X102134106Y-74512667D01*
X102157370Y-74568831D01*
X102164839Y-74638300D01*
X102133563Y-74700779D01*
X102073474Y-74736431D01*
X102003649Y-74733937D01*
X101978011Y-74722006D01*
X93109202Y-69286285D01*
X93062331Y-69234469D01*
X93050000Y-69180562D01*
X93050000Y-65161304D01*
X96599500Y-65161304D01*
X96599500Y-65338695D01*
X96634103Y-65512658D01*
X96634106Y-65512667D01*
X96701983Y-65676540D01*
X96701990Y-65676553D01*
X96800535Y-65824034D01*
X96800538Y-65824038D01*
X96925961Y-65949461D01*
X96925965Y-65949464D01*
X97073446Y-66048009D01*
X97073459Y-66048016D01*
X97196363Y-66098923D01*
X97237334Y-66115894D01*
X97237336Y-66115894D01*
X97237341Y-66115896D01*
X97411304Y-66150499D01*
X97411307Y-66150500D01*
X97411309Y-66150500D01*
X97499903Y-66150500D01*
X97566942Y-66170185D01*
X97587584Y-66186819D01*
X97813181Y-66412416D01*
X97846666Y-66473739D01*
X97849500Y-66500097D01*
X97849500Y-66588695D01*
X97884103Y-66762658D01*
X97884106Y-66762667D01*
X97951983Y-66926540D01*
X97951990Y-66926553D01*
X98050535Y-67074034D01*
X98050538Y-67074038D01*
X98175961Y-67199461D01*
X98175965Y-67199464D01*
X98323446Y-67298009D01*
X98323459Y-67298016D01*
X98446363Y-67348923D01*
X98487334Y-67365894D01*
X98487336Y-67365894D01*
X98487341Y-67365896D01*
X98661304Y-67400499D01*
X98661307Y-67400500D01*
X98661309Y-67400500D01*
X98838693Y-67400500D01*
X98838694Y-67400499D01*
X98896682Y-67388964D01*
X99012658Y-67365896D01*
X99012661Y-67365894D01*
X99012666Y-67365894D01*
X99176547Y-67298013D01*
X99324035Y-67199464D01*
X99449464Y-67074035D01*
X99548013Y-66926547D01*
X99615894Y-66762666D01*
X99628783Y-66697872D01*
X99650499Y-66588695D01*
X99650500Y-66588693D01*
X99650500Y-66411306D01*
X99650499Y-66411304D01*
X99615896Y-66237341D01*
X99615893Y-66237332D01*
X99548016Y-66073459D01*
X99548009Y-66073446D01*
X99449464Y-65925965D01*
X99449461Y-65925961D01*
X99324038Y-65800538D01*
X99324034Y-65800535D01*
X99176553Y-65701990D01*
X99176540Y-65701983D01*
X99012667Y-65634106D01*
X99012658Y-65634103D01*
X98838694Y-65599500D01*
X98838691Y-65599500D01*
X98750097Y-65599500D01*
X98683058Y-65579815D01*
X98662416Y-65563181D01*
X98436819Y-65337584D01*
X98403334Y-65276261D01*
X98400500Y-65249903D01*
X98400500Y-65161306D01*
X98400499Y-65161304D01*
X98365896Y-64987341D01*
X98365893Y-64987332D01*
X98298016Y-64823459D01*
X98298009Y-64823446D01*
X98199464Y-64675965D01*
X98199461Y-64675961D01*
X98074038Y-64550538D01*
X98074034Y-64550535D01*
X97926553Y-64451990D01*
X97926540Y-64451983D01*
X97762667Y-64384106D01*
X97762658Y-64384103D01*
X97588694Y-64349500D01*
X97588691Y-64349500D01*
X97411309Y-64349500D01*
X97411306Y-64349500D01*
X97237341Y-64384103D01*
X97237332Y-64384106D01*
X97073459Y-64451983D01*
X97073446Y-64451990D01*
X96925965Y-64550535D01*
X96925961Y-64550538D01*
X96800538Y-64675961D01*
X96800535Y-64675965D01*
X96701990Y-64823446D01*
X96701983Y-64823459D01*
X96634106Y-64987332D01*
X96634103Y-64987341D01*
X96599500Y-65161304D01*
X93050000Y-65161304D01*
X93050000Y-63204792D01*
X94079498Y-63204792D01*
X94079498Y-63403211D01*
X94102887Y-63550884D01*
X94110535Y-63599170D01*
X94157138Y-63742598D01*
X94171848Y-63787870D01*
X94233019Y-63907924D01*
X94261921Y-63964648D01*
X94378542Y-64125163D01*
X94518837Y-64265458D01*
X94679352Y-64382079D01*
X94792798Y-64439882D01*
X94856129Y-64472151D01*
X94856131Y-64472151D01*
X94856134Y-64472153D01*
X95044830Y-64533465D01*
X95142812Y-64548983D01*
X95240789Y-64564502D01*
X95240794Y-64564502D01*
X95439207Y-64564502D01*
X95528276Y-64550394D01*
X95635166Y-64533465D01*
X95823862Y-64472153D01*
X96000644Y-64382079D01*
X96161159Y-64265458D01*
X96301454Y-64125163D01*
X96418075Y-63964648D01*
X96508149Y-63787866D01*
X96569461Y-63599170D01*
X96586390Y-63492280D01*
X96600498Y-63403211D01*
X96600498Y-63204792D01*
X96576060Y-63050500D01*
X96569461Y-63008834D01*
X96508149Y-62820138D01*
X96508147Y-62820135D01*
X96508147Y-62820133D01*
X96475878Y-62756802D01*
X96418075Y-62643356D01*
X96301454Y-62482841D01*
X96161159Y-62342546D01*
X96000644Y-62225925D01*
X95943920Y-62197023D01*
X95823866Y-62135852D01*
X95778594Y-62121142D01*
X95635166Y-62074539D01*
X95635160Y-62074538D01*
X95439207Y-62043502D01*
X95439202Y-62043502D01*
X95240794Y-62043502D01*
X95240789Y-62043502D01*
X95044835Y-62074538D01*
X95044833Y-62074538D01*
X95044830Y-62074539D01*
X94950482Y-62105195D01*
X94856129Y-62135852D01*
X94679350Y-62225926D01*
X94679347Y-62225928D01*
X94603623Y-62280945D01*
X94518837Y-62342546D01*
X94518835Y-62342548D01*
X94518834Y-62342548D01*
X94378544Y-62482838D01*
X94378544Y-62482839D01*
X94378542Y-62482841D01*
X94324475Y-62557257D01*
X94261924Y-62643351D01*
X94261922Y-62643354D01*
X94171848Y-62820133D01*
X94162318Y-62849464D01*
X94110535Y-63008834D01*
X94110534Y-63008837D01*
X94110534Y-63008839D01*
X94079498Y-63204792D01*
X93050000Y-63204792D01*
X93050000Y-59704837D01*
X94079998Y-59704837D01*
X94079998Y-59903164D01*
X94111024Y-60099053D01*
X94172308Y-60287670D01*
X94172309Y-60287673D01*
X94262348Y-60464381D01*
X94289159Y-60501284D01*
X94850502Y-59939941D01*
X94866617Y-60000082D01*
X94933496Y-60115921D01*
X95028078Y-60210503D01*
X95143917Y-60277382D01*
X95204055Y-60293495D01*
X94642712Y-60854838D01*
X94642713Y-60854839D01*
X94679610Y-60881646D01*
X94856325Y-60971689D01*
X94856328Y-60971690D01*
X95044945Y-61032974D01*
X95240835Y-61064001D01*
X95439161Y-61064001D01*
X95635050Y-61032974D01*
X95823667Y-60971690D01*
X95823670Y-60971689D01*
X96000380Y-60881649D01*
X96037281Y-60854838D01*
X96037282Y-60854837D01*
X95475940Y-60293495D01*
X95536079Y-60277382D01*
X95651918Y-60210503D01*
X95746500Y-60115921D01*
X95813379Y-60000082D01*
X95829493Y-59939943D01*
X96390834Y-60501285D01*
X96390835Y-60501284D01*
X96417646Y-60464383D01*
X96507686Y-60287673D01*
X96507687Y-60287670D01*
X96568971Y-60099053D01*
X96599998Y-59903164D01*
X96599998Y-59704837D01*
X96568971Y-59508948D01*
X96507687Y-59320331D01*
X96507686Y-59320328D01*
X96417643Y-59143613D01*
X96390836Y-59106716D01*
X96390835Y-59106715D01*
X95829492Y-59668058D01*
X95813379Y-59607920D01*
X95746500Y-59492081D01*
X95651918Y-59397499D01*
X95536079Y-59330620D01*
X95475939Y-59314505D01*
X96037281Y-58753162D01*
X96000378Y-58726351D01*
X95823670Y-58636312D01*
X95823667Y-58636311D01*
X95635050Y-58575027D01*
X95439161Y-58544001D01*
X95240835Y-58544001D01*
X95044945Y-58575027D01*
X94856328Y-58636311D01*
X94856320Y-58636314D01*
X94679613Y-58726353D01*
X94642713Y-58753161D01*
X94642713Y-58753162D01*
X95204056Y-59314505D01*
X95143917Y-59330620D01*
X95028078Y-59397499D01*
X94933496Y-59492081D01*
X94866617Y-59607920D01*
X94850502Y-59668059D01*
X94289159Y-59106716D01*
X94289158Y-59106716D01*
X94262350Y-59143616D01*
X94172311Y-59320323D01*
X94172308Y-59320331D01*
X94111024Y-59508948D01*
X94079998Y-59704837D01*
X93050000Y-59704837D01*
X93050000Y-56204791D01*
X94079498Y-56204791D01*
X94079498Y-56403210D01*
X94110534Y-56599163D01*
X94110535Y-56599169D01*
X94153915Y-56732677D01*
X94171848Y-56787869D01*
X94233019Y-56907923D01*
X94261921Y-56964647D01*
X94378542Y-57125162D01*
X94518837Y-57265457D01*
X94679352Y-57382078D01*
X94792798Y-57439881D01*
X94856129Y-57472150D01*
X94856131Y-57472150D01*
X94856134Y-57472152D01*
X95044830Y-57533464D01*
X95142812Y-57548982D01*
X95240789Y-57564501D01*
X95240794Y-57564501D01*
X95439207Y-57564501D01*
X95528276Y-57550393D01*
X95635166Y-57533464D01*
X95823862Y-57472152D01*
X96000644Y-57382078D01*
X96161159Y-57265457D01*
X96301454Y-57125162D01*
X96418075Y-56964647D01*
X96508149Y-56787865D01*
X96569461Y-56599169D01*
X96586390Y-56492279D01*
X96600498Y-56403210D01*
X96600498Y-56204791D01*
X96583568Y-56097907D01*
X96569461Y-56008833D01*
X96508149Y-55820137D01*
X96508147Y-55820134D01*
X96508147Y-55820132D01*
X96475878Y-55756801D01*
X96418075Y-55643355D01*
X96301454Y-55482840D01*
X96161159Y-55342545D01*
X96000644Y-55225924D01*
X95943920Y-55197022D01*
X95823866Y-55135851D01*
X95778594Y-55121141D01*
X95635166Y-55074538D01*
X95635160Y-55074537D01*
X95439207Y-55043501D01*
X95439202Y-55043501D01*
X95240794Y-55043501D01*
X95240789Y-55043501D01*
X95044835Y-55074537D01*
X95044833Y-55074537D01*
X95044830Y-55074538D01*
X94950482Y-55105194D01*
X94856129Y-55135851D01*
X94679350Y-55225925D01*
X94679347Y-55225927D01*
X94593253Y-55288478D01*
X94518837Y-55342545D01*
X94518835Y-55342547D01*
X94518834Y-55342547D01*
X94378544Y-55482837D01*
X94378544Y-55482838D01*
X94378542Y-55482840D01*
X94324475Y-55557256D01*
X94261924Y-55643350D01*
X94261922Y-55643353D01*
X94171848Y-55820132D01*
X94141191Y-55914485D01*
X94110535Y-56008833D01*
X94110534Y-56008836D01*
X94110534Y-56008838D01*
X94079498Y-56204791D01*
X93050000Y-56204791D01*
X93050000Y-51996135D01*
X94079498Y-51996135D01*
X94079498Y-53611870D01*
X94079499Y-53611876D01*
X94085906Y-53671483D01*
X94136200Y-53806328D01*
X94136204Y-53806335D01*
X94222450Y-53921544D01*
X94222453Y-53921547D01*
X94337662Y-54007793D01*
X94337669Y-54007797D01*
X94472515Y-54058091D01*
X94472514Y-54058091D01*
X94479442Y-54058835D01*
X94532125Y-54064500D01*
X96147870Y-54064499D01*
X96207481Y-54058091D01*
X96342329Y-54007796D01*
X96457544Y-53921546D01*
X96543794Y-53806331D01*
X96594089Y-53671483D01*
X96600498Y-53611873D01*
X96600497Y-51996128D01*
X96594089Y-51936517D01*
X96559039Y-51842544D01*
X96543795Y-51801671D01*
X96543791Y-51801664D01*
X96457545Y-51686455D01*
X96457542Y-51686452D01*
X96342333Y-51600206D01*
X96342326Y-51600202D01*
X96207480Y-51549908D01*
X96207481Y-51549908D01*
X96147881Y-51543501D01*
X96147879Y-51543500D01*
X96147871Y-51543500D01*
X96147862Y-51543500D01*
X94532127Y-51543500D01*
X94532121Y-51543501D01*
X94472514Y-51549908D01*
X94337669Y-51600202D01*
X94337662Y-51600206D01*
X94222453Y-51686452D01*
X94222450Y-51686455D01*
X94136204Y-51801664D01*
X94136200Y-51801671D01*
X94085906Y-51936517D01*
X94079499Y-51996116D01*
X94079499Y-51996123D01*
X94079498Y-51996135D01*
X93050000Y-51996135D01*
X93050000Y-32750000D01*
X76873239Y-32650756D01*
X76806322Y-32630660D01*
X76760892Y-32577577D01*
X76750000Y-32526758D01*
X76750000Y-31119194D01*
X76762280Y-31065392D01*
X76779458Y-31029722D01*
X76813801Y-30958408D01*
X76858959Y-30829354D01*
X76899680Y-30772578D01*
X76964633Y-30746831D01*
X77033195Y-30760287D01*
X77083597Y-30808675D01*
X77100000Y-30870309D01*
X77100000Y-31947844D01*
X77106401Y-32007372D01*
X77106403Y-32007379D01*
X77156645Y-32142086D01*
X77156649Y-32142093D01*
X77242809Y-32257187D01*
X77242812Y-32257190D01*
X77357906Y-32343350D01*
X77357913Y-32343354D01*
X77492620Y-32393596D01*
X77492627Y-32393598D01*
X77552155Y-32399999D01*
X77552172Y-32400000D01*
X79250000Y-32400000D01*
X79250000Y-31327231D01*
X79393753Y-31350000D01*
X79606247Y-31350000D01*
X79750000Y-31327231D01*
X79750000Y-32400000D01*
X81447828Y-32400000D01*
X81447844Y-32399999D01*
X81507372Y-32393598D01*
X81507379Y-32393596D01*
X81642086Y-32343354D01*
X81642093Y-32343350D01*
X81757187Y-32257190D01*
X81757190Y-32257187D01*
X81843350Y-32142093D01*
X81843354Y-32142086D01*
X81893596Y-32007379D01*
X81893598Y-32007372D01*
X81899999Y-31947844D01*
X81900000Y-31947827D01*
X81900000Y-30250000D01*
X80827231Y-30250000D01*
X80850000Y-30106247D01*
X80850000Y-29893753D01*
X80827231Y-29750000D01*
X81900000Y-29750000D01*
X81900000Y-28052172D01*
X81899999Y-28052155D01*
X81893598Y-27992627D01*
X81893596Y-27992620D01*
X81843354Y-27857913D01*
X81843350Y-27857906D01*
X81757190Y-27742812D01*
X81757187Y-27742809D01*
X81642093Y-27656649D01*
X81642086Y-27656645D01*
X81507379Y-27606403D01*
X81507372Y-27606401D01*
X81447844Y-27600000D01*
X79750000Y-27600000D01*
X79750000Y-28672768D01*
X79606247Y-28650000D01*
X79393753Y-28650000D01*
X79250000Y-28672768D01*
X79250000Y-27600000D01*
X77552155Y-27600000D01*
X77492627Y-27606401D01*
X77492620Y-27606403D01*
X77357913Y-27656645D01*
X77357906Y-27656649D01*
X77242812Y-27742809D01*
X77242809Y-27742812D01*
X77156649Y-27857906D01*
X77156645Y-27857913D01*
X77106403Y-27992620D01*
X77106401Y-27992627D01*
X77100000Y-28052155D01*
X77100000Y-29129690D01*
X77080315Y-29196729D01*
X77027511Y-29242484D01*
X76958353Y-29252428D01*
X76894797Y-29223403D01*
X76858959Y-29170645D01*
X76840803Y-29118761D01*
X76813801Y-29041592D01*
X76762280Y-28934607D01*
X76750000Y-28880805D01*
X76750000Y-27424000D01*
X76769685Y-27356961D01*
X76822489Y-27311206D01*
X76874000Y-27300000D01*
X92491797Y-27300000D01*
X92558836Y-27319685D01*
G37*
%TD.AperFunction*%
%TA.AperFunction,Conductor*%
G36*
X62393039Y-45969685D02*
G01*
X62438794Y-46022489D01*
X62450000Y-46074000D01*
X62450000Y-51037638D01*
X62430315Y-51104677D01*
X62413681Y-51125319D01*
X62400538Y-51138461D01*
X62400535Y-51138465D01*
X62301990Y-51285946D01*
X62301983Y-51285959D01*
X62234106Y-51449832D01*
X62234103Y-51449841D01*
X62199500Y-51623804D01*
X62199500Y-51801195D01*
X62234103Y-51975158D01*
X62234106Y-51975167D01*
X62301983Y-52139040D01*
X62301990Y-52139053D01*
X62400534Y-52286533D01*
X62400535Y-52286534D01*
X62400536Y-52286535D01*
X62413680Y-52299679D01*
X62447165Y-52360999D01*
X62450000Y-52387361D01*
X62450000Y-74000000D01*
X64352635Y-76263831D01*
X64380699Y-76327817D01*
X64369714Y-76396818D01*
X64353564Y-76422275D01*
X64350534Y-76425966D01*
X64251990Y-76573446D01*
X64251983Y-76573459D01*
X64184106Y-76737332D01*
X64184103Y-76737341D01*
X64149500Y-76911304D01*
X64149500Y-77088695D01*
X64184103Y-77262658D01*
X64184106Y-77262667D01*
X64251983Y-77426540D01*
X64251990Y-77426553D01*
X64350535Y-77574034D01*
X64350538Y-77574038D01*
X64475961Y-77699461D01*
X64475965Y-77699464D01*
X64623446Y-77798009D01*
X64623459Y-77798016D01*
X64746363Y-77848923D01*
X64787334Y-77865894D01*
X64787336Y-77865894D01*
X64787341Y-77865896D01*
X64961304Y-77900499D01*
X64961307Y-77900500D01*
X64961309Y-77900500D01*
X65138693Y-77900500D01*
X65138694Y-77900499D01*
X65196682Y-77888964D01*
X65312658Y-77865896D01*
X65312661Y-77865894D01*
X65312666Y-77865894D01*
X65476547Y-77798013D01*
X65490167Y-77788911D01*
X65556844Y-77768032D01*
X65624225Y-77786515D01*
X65653987Y-77812231D01*
X65699090Y-77865896D01*
X81120926Y-96215407D01*
X81148990Y-96279392D01*
X81150000Y-96295187D01*
X81150000Y-102226000D01*
X81130315Y-102293039D01*
X81077511Y-102338794D01*
X81026000Y-102350000D01*
X74874000Y-102350000D01*
X74806961Y-102330315D01*
X74761206Y-102277511D01*
X74750000Y-102226000D01*
X74750000Y-100805391D01*
X74769685Y-100738352D01*
X74822489Y-100692597D01*
X74891647Y-100682653D01*
X74955203Y-100711678D01*
X74973267Y-100731081D01*
X74992811Y-100757189D01*
X74992812Y-100757190D01*
X75107906Y-100843350D01*
X75107913Y-100843354D01*
X75242620Y-100893596D01*
X75242627Y-100893598D01*
X75302155Y-100899999D01*
X75302172Y-100900000D01*
X76500000Y-100900000D01*
X76500000Y-99623784D01*
X76542446Y-99654623D01*
X76731780Y-99751094D01*
X76933874Y-99816758D01*
X77143753Y-99850000D01*
X77356247Y-99850000D01*
X77566126Y-99816758D01*
X77768220Y-99751094D01*
X77957554Y-99654623D01*
X78000000Y-99623784D01*
X78000000Y-100900000D01*
X79197828Y-100900000D01*
X79197844Y-100899999D01*
X79257372Y-100893598D01*
X79257379Y-100893596D01*
X79392086Y-100843354D01*
X79392093Y-100843350D01*
X79507187Y-100757190D01*
X79507190Y-100757187D01*
X79593350Y-100642093D01*
X79593354Y-100642086D01*
X79643596Y-100507379D01*
X79643598Y-100507372D01*
X79649999Y-100447844D01*
X79650000Y-100447827D01*
X79650000Y-99250000D01*
X78373784Y-99250000D01*
X78404623Y-99207554D01*
X78501094Y-99018220D01*
X78566758Y-98816126D01*
X78600000Y-98606247D01*
X78600000Y-98393753D01*
X78566758Y-98183874D01*
X78501094Y-97981780D01*
X78404623Y-97792446D01*
X78373784Y-97750000D01*
X79650000Y-97750000D01*
X79650000Y-96552172D01*
X79649999Y-96552155D01*
X79643598Y-96492627D01*
X79643596Y-96492620D01*
X79593354Y-96357913D01*
X79593350Y-96357906D01*
X79507190Y-96242812D01*
X79507187Y-96242809D01*
X79392093Y-96156649D01*
X79392086Y-96156645D01*
X79257379Y-96106403D01*
X79257372Y-96106401D01*
X79197844Y-96100000D01*
X78000000Y-96100000D01*
X78000000Y-97376215D01*
X77957554Y-97345377D01*
X77768220Y-97248906D01*
X77566126Y-97183242D01*
X77356247Y-97150000D01*
X77143753Y-97150000D01*
X76933874Y-97183242D01*
X76731780Y-97248906D01*
X76542446Y-97345377D01*
X76500000Y-97376215D01*
X76500000Y-96100000D01*
X75302155Y-96100000D01*
X75242627Y-96106401D01*
X75242620Y-96106403D01*
X75107913Y-96156645D01*
X75107906Y-96156649D01*
X74992812Y-96242809D01*
X74965054Y-96279889D01*
X74909119Y-96321760D01*
X74839428Y-96326743D01*
X74778105Y-96293257D01*
X74752200Y-96252616D01*
X56279095Y-74284599D01*
X56251014Y-74220621D01*
X56250000Y-74204793D01*
X56250000Y-52110572D01*
X56269685Y-52043533D01*
X56322489Y-51997778D01*
X56391647Y-51987834D01*
X56448312Y-52011306D01*
X56557910Y-52093352D01*
X56557913Y-52093354D01*
X56692620Y-52143596D01*
X56692627Y-52143598D01*
X56752155Y-52149999D01*
X56752172Y-52150000D01*
X57950000Y-52150000D01*
X57950000Y-50873784D01*
X57992446Y-50904623D01*
X58181780Y-51001094D01*
X58383874Y-51066758D01*
X58593753Y-51100000D01*
X58806247Y-51100000D01*
X59016126Y-51066758D01*
X59218220Y-51001094D01*
X59407554Y-50904623D01*
X59450000Y-50873784D01*
X59450000Y-52150000D01*
X60647828Y-52150000D01*
X60647844Y-52149999D01*
X60707372Y-52143598D01*
X60707379Y-52143596D01*
X60842086Y-52093354D01*
X60842093Y-52093350D01*
X60957187Y-52007190D01*
X60957190Y-52007187D01*
X61043350Y-51892093D01*
X61043354Y-51892086D01*
X61093596Y-51757379D01*
X61093598Y-51757372D01*
X61099999Y-51697844D01*
X61100000Y-51697827D01*
X61100000Y-50500000D01*
X59823784Y-50500000D01*
X59854623Y-50457554D01*
X59951094Y-50268220D01*
X60016758Y-50066126D01*
X60050000Y-49856247D01*
X60050000Y-49643753D01*
X60016758Y-49433874D01*
X59951094Y-49231780D01*
X59854623Y-49042446D01*
X59823784Y-49000000D01*
X61100000Y-49000000D01*
X61100000Y-47802172D01*
X61099999Y-47802155D01*
X61093598Y-47742627D01*
X61093596Y-47742620D01*
X61043354Y-47607913D01*
X61043350Y-47607906D01*
X60957190Y-47492812D01*
X60957187Y-47492809D01*
X60842093Y-47406649D01*
X60842086Y-47406645D01*
X60707379Y-47356403D01*
X60707372Y-47356401D01*
X60647844Y-47350000D01*
X59450000Y-47350000D01*
X59450000Y-48626215D01*
X59407554Y-48595377D01*
X59218220Y-48498906D01*
X59016126Y-48433242D01*
X58806247Y-48400000D01*
X58593753Y-48400000D01*
X58383874Y-48433242D01*
X58181780Y-48498906D01*
X57992446Y-48595377D01*
X57950000Y-48626215D01*
X57950000Y-47350000D01*
X56752155Y-47350000D01*
X56692627Y-47356401D01*
X56692620Y-47356403D01*
X56557913Y-47406645D01*
X56557911Y-47406646D01*
X56448311Y-47488694D01*
X56382847Y-47513111D01*
X56314574Y-47498260D01*
X56265168Y-47448855D01*
X56250000Y-47389427D01*
X56250000Y-46074000D01*
X56269685Y-46006961D01*
X56322489Y-45961206D01*
X56374000Y-45950000D01*
X62326000Y-45950000D01*
X62393039Y-45969685D01*
G37*
%TD.AperFunction*%
M02*
