%TF.GenerationSoftware,KiCad,Pcbnew,9.0.0*%
%TF.CreationDate,2025-03-25T13:38:31-05:00*%
%TF.ProjectId,Chassis,43686173-7369-4732-9e6b-696361645f70,rev?*%
%TF.SameCoordinates,Original*%
%TF.FileFunction,Copper,L4,Bot*%
%TF.FilePolarity,Positive*%
%FSLAX46Y46*%
G04 Gerber Fmt 4.6, Leading zero omitted, Abs format (unit mm)*
G04 Created by KiCad (PCBNEW 9.0.0) date 2025-03-25 13:38:31*
%MOMM*%
%LPD*%
G01*
G04 APERTURE LIST*
G04 Aperture macros list*
%AMRotRect*
0 Rectangle, with rotation*
0 The origin of the aperture is its center*
0 $1 length*
0 $2 width*
0 $3 Rotation angle, in degrees counterclockwise*
0 Add horizontal line*
21,1,$1,$2,0,0,$3*%
G04 Aperture macros list end*
%TA.AperFunction,ComponentPad*%
%ADD10R,3.800000X3.800000*%
%TD*%
%TA.AperFunction,ComponentPad*%
%ADD11C,4.000000*%
%TD*%
%TA.AperFunction,ComponentPad*%
%ADD12RotRect,3.800000X3.800000X315.000000*%
%TD*%
%TA.AperFunction,ComponentPad*%
%ADD13RotRect,3.800000X3.800000X135.000000*%
%TD*%
%TA.AperFunction,ComponentPad*%
%ADD14R,1.520000X1.520000*%
%TD*%
%TA.AperFunction,ComponentPad*%
%ADD15C,1.520000*%
%TD*%
%TA.AperFunction,ComponentPad*%
%ADD16C,1.381000*%
%TD*%
%TA.AperFunction,ComponentPad*%
%ADD17RotRect,3.800000X3.800000X225.000000*%
%TD*%
%TA.AperFunction,ComponentPad*%
%ADD18RotRect,3.800000X3.800000X45.000000*%
%TD*%
%TA.AperFunction,ViaPad*%
%ADD19C,0.800000*%
%TD*%
%TA.AperFunction,Conductor*%
%ADD20C,0.250000*%
%TD*%
%TA.AperFunction,Conductor*%
%ADD21C,0.200000*%
%TD*%
G04 APERTURE END LIST*
D10*
X58700000Y-49750000D03*
D11*
X53700000Y-49750000D03*
D12*
X53372614Y-91372614D03*
D11*
X56908148Y-94908148D03*
D13*
X123227387Y-39427387D03*
D11*
X119691853Y-35891853D03*
D14*
X95339998Y-52804000D03*
D15*
X95339998Y-56304001D03*
X95339998Y-59804001D03*
X95339998Y-63304002D03*
X90739997Y-52804000D03*
X90739997Y-56304001D03*
X90739997Y-59804001D03*
X90739997Y-63304002D03*
D16*
X82375000Y-58774999D03*
X80375000Y-58774999D03*
X82375000Y-60774999D03*
X80375000Y-60774999D03*
X82375000Y-62774999D03*
X80375000Y-62774999D03*
X82375000Y-64774999D03*
X80375000Y-64774999D03*
X82375000Y-66774999D03*
X80375000Y-66774999D03*
X82375000Y-68774999D03*
X80375000Y-68774999D03*
X82375000Y-70774999D03*
X80375000Y-70774999D03*
X82375000Y-72774999D03*
X80375000Y-72774999D03*
D17*
X57127387Y-35572614D03*
D11*
X53591853Y-39108148D03*
D10*
X122000000Y-74750000D03*
D11*
X117000000Y-74750000D03*
D10*
X122000000Y-64750000D03*
D11*
X117000000Y-64750000D03*
D18*
X119272613Y-94827387D03*
D11*
X122808147Y-91291853D03*
D10*
X77250000Y-98500000D03*
D11*
X72250000Y-98500000D03*
D10*
X122000000Y-54750000D03*
D11*
X117000000Y-54750000D03*
D10*
X101000000Y-93000000D03*
D11*
X101000000Y-98000000D03*
D10*
X98000000Y-30000000D03*
D11*
X93000000Y-30000000D03*
D10*
X79500000Y-30000000D03*
D11*
X74500000Y-30000000D03*
D19*
X62750000Y-92500000D03*
X108966000Y-34290000D03*
X62800000Y-95800000D03*
X79756000Y-43500000D03*
X97375000Y-79875000D03*
X66450000Y-77000000D03*
X65050000Y-75550000D03*
X66450000Y-75550000D03*
X65750000Y-76300000D03*
X65050000Y-77000000D03*
X70845000Y-77356000D03*
X78325000Y-86098999D03*
X69750000Y-78500000D03*
X78075000Y-87598999D03*
X68050999Y-79895999D03*
X77423600Y-79921399D03*
X70750000Y-79250000D03*
X64600000Y-44480000D03*
X79325000Y-86848999D03*
X106950000Y-74700000D03*
X106750000Y-54550000D03*
X106650000Y-62150000D03*
X73899998Y-69700000D03*
X103000000Y-80750000D03*
X103000000Y-76750000D03*
X103000000Y-78500000D03*
X64500000Y-42750000D03*
X82000000Y-82000000D03*
X63100000Y-51712500D03*
X80500000Y-82000000D03*
X65500000Y-43500000D03*
X61000000Y-41750000D03*
X65500000Y-42000000D03*
X61000000Y-43250000D03*
X60250000Y-42500000D03*
X81250000Y-81250000D03*
X64500000Y-41250000D03*
X82750000Y-81250000D03*
X103000000Y-74250000D03*
X71400000Y-47900000D03*
X69900000Y-46600000D03*
X76962000Y-43434000D03*
X98625000Y-79625000D03*
X110800000Y-102400000D03*
X106426000Y-32766000D03*
X97500000Y-65250000D03*
X107000000Y-102400000D03*
X98750000Y-66500000D03*
D20*
X103876000Y-39624000D02*
X108966000Y-34534000D01*
X79756000Y-43434000D02*
X83566000Y-39624000D01*
X87760450Y-40184451D02*
X87800000Y-40184451D01*
D21*
X62800000Y-95800000D02*
X62750000Y-95750000D01*
X97375000Y-79875000D02*
X86274999Y-68774999D01*
D20*
X88080225Y-39904226D02*
X88080225Y-39904225D01*
X87480225Y-39904225D02*
X87480225Y-39904226D01*
X79756000Y-43500000D02*
X79756000Y-43434000D01*
X88400000Y-39624000D02*
X103876000Y-39624000D01*
D21*
X86274999Y-68774999D02*
X82375000Y-68774999D01*
D20*
X88360450Y-39624000D02*
X88400000Y-39624000D01*
X83566000Y-39624000D02*
X87200000Y-39624000D01*
D21*
X62750000Y-95750000D02*
X62750000Y-92500000D01*
D20*
X108966000Y-34534000D02*
X108966000Y-34290000D01*
X87480225Y-39904226D02*
G75*
G03*
X87760450Y-40184375I280175J26D01*
G01*
X87800000Y-40184451D02*
G75*
G03*
X88080251Y-39904226I0J280251D01*
G01*
X87200000Y-39624000D02*
G75*
G02*
X87480200Y-39904225I0J-280200D01*
G01*
X88080225Y-39904225D02*
G75*
G02*
X88360450Y-39624025I280175J25D01*
G01*
X82375000Y-72774999D02*
X80849999Y-74300000D01*
X80849999Y-74300000D02*
X78499998Y-74300000D01*
X78499998Y-74300000D02*
X73899998Y-69700000D01*
X89300000Y-69200000D02*
X91450000Y-69200000D01*
X84874999Y-64774999D02*
X89300000Y-69200000D01*
X82375001Y-64774999D02*
X84874999Y-64774999D01*
X91450000Y-69200000D02*
X103000000Y-80750000D01*
D21*
X82375000Y-60774998D02*
X84274998Y-60774998D01*
X90425000Y-66925000D02*
X93125000Y-66925000D01*
X84274998Y-60774998D02*
X90425000Y-66925000D01*
X93125000Y-66925000D02*
X102950000Y-76750000D01*
X102950000Y-76750000D02*
X103000000Y-76750000D01*
X89800000Y-68000000D02*
X84574999Y-62774999D01*
X92500000Y-68000000D02*
X89800000Y-68000000D01*
X84574999Y-62774999D02*
X82375000Y-62774999D01*
X103000000Y-78500000D02*
X92500000Y-68000000D01*
D20*
X83874999Y-58774999D02*
X90700000Y-65600000D01*
X90700000Y-65600000D02*
X94350000Y-65600000D01*
X82375000Y-58774999D02*
X83874999Y-58774999D01*
X94350000Y-65600000D02*
X103000000Y-74250000D01*
D21*
X71400000Y-47900000D02*
X71400000Y-57799999D01*
X71400000Y-57799999D02*
X80375000Y-66774999D01*
X69900000Y-58299999D02*
X69900000Y-46600000D01*
X80375000Y-68774999D02*
X69900000Y-58299999D01*
X85774999Y-66774999D02*
X98625000Y-79625000D01*
D20*
X101600000Y-37592000D02*
X82804000Y-37592000D01*
X106426000Y-32766000D02*
X101600000Y-37592000D01*
X82804000Y-37592000D02*
X76962000Y-43434000D01*
D21*
X107000000Y-102400000D02*
X110800000Y-102400000D01*
X82375000Y-66774999D02*
X85774999Y-66774999D01*
%TA.AperFunction,Conductor*%
G36*
X124295737Y-25400448D02*
G01*
X124344259Y-25400500D01*
X124344270Y-25400503D01*
X124349855Y-25400632D01*
X124677403Y-25415775D01*
X124683794Y-25416237D01*
X124758695Y-25423614D01*
X124763651Y-25424204D01*
X125050199Y-25464176D01*
X125057207Y-25465360D01*
X125126026Y-25479049D01*
X125130093Y-25479932D01*
X125417629Y-25547560D01*
X125425174Y-25549589D01*
X125482880Y-25567094D01*
X125486134Y-25568132D01*
X125776215Y-25665358D01*
X125784189Y-25668342D01*
X125823884Y-25684784D01*
X125826425Y-25685871D01*
X126122511Y-25816606D01*
X126130870Y-25820678D01*
X126140995Y-25826089D01*
X126142757Y-25827049D01*
X126447458Y-25996768D01*
X126457190Y-26002794D01*
X126652754Y-26136758D01*
X126752512Y-26205093D01*
X126761649Y-26211994D01*
X126890502Y-26318992D01*
X127037035Y-26440671D01*
X127045499Y-26448387D01*
X127298612Y-26701500D01*
X127306328Y-26709964D01*
X127535003Y-26985347D01*
X127541906Y-26994487D01*
X127744205Y-27289809D01*
X127750234Y-27299546D01*
X127919907Y-27604165D01*
X127920909Y-27606003D01*
X127926320Y-27616128D01*
X127930392Y-27624487D01*
X128061111Y-27920537D01*
X128062237Y-27923168D01*
X128078641Y-27962769D01*
X128081653Y-27970818D01*
X128178840Y-28260785D01*
X128179929Y-28264196D01*
X128197401Y-28321794D01*
X128199446Y-28329399D01*
X128267051Y-28616838D01*
X128267963Y-28621038D01*
X128281633Y-28689764D01*
X128282826Y-28696823D01*
X128322793Y-28983341D01*
X128323385Y-28988318D01*
X128330759Y-29063186D01*
X128331224Y-29069613D01*
X128346368Y-29397145D01*
X128346500Y-29402872D01*
X128346500Y-101397127D01*
X128346368Y-101402854D01*
X128331224Y-101730385D01*
X128330759Y-101736812D01*
X128323385Y-101811680D01*
X128322793Y-101816657D01*
X128282826Y-102103175D01*
X128281633Y-102110234D01*
X128267963Y-102178960D01*
X128267051Y-102183160D01*
X128199446Y-102470599D01*
X128197401Y-102478204D01*
X128179929Y-102535802D01*
X128178840Y-102539213D01*
X128081653Y-102829180D01*
X128078641Y-102837229D01*
X128062237Y-102876830D01*
X128061111Y-102879461D01*
X127930392Y-103175511D01*
X127926320Y-103183870D01*
X127920909Y-103193995D01*
X127919876Y-103195889D01*
X127750234Y-103500452D01*
X127744205Y-103510190D01*
X127541906Y-103805512D01*
X127535003Y-103814652D01*
X127306328Y-104090035D01*
X127298612Y-104098499D01*
X127045499Y-104351612D01*
X127037035Y-104359328D01*
X126761652Y-104588003D01*
X126752512Y-104594906D01*
X126457190Y-104797205D01*
X126447452Y-104803234D01*
X126142889Y-104972876D01*
X126140995Y-104973909D01*
X126130870Y-104979320D01*
X126122511Y-104983392D01*
X125826461Y-105114111D01*
X125823830Y-105115237D01*
X125784229Y-105131641D01*
X125776180Y-105134653D01*
X125486213Y-105231840D01*
X125482802Y-105232929D01*
X125425204Y-105250401D01*
X125417599Y-105252446D01*
X125130160Y-105320051D01*
X125125960Y-105320963D01*
X125057234Y-105334633D01*
X125050175Y-105335826D01*
X124763657Y-105375793D01*
X124758680Y-105376385D01*
X124683812Y-105383759D01*
X124677385Y-105384224D01*
X124349855Y-105399368D01*
X124344128Y-105399500D01*
X52349872Y-105399500D01*
X52344145Y-105399368D01*
X52016613Y-105384224D01*
X52010186Y-105383759D01*
X51935318Y-105376385D01*
X51930341Y-105375793D01*
X51643823Y-105335826D01*
X51636764Y-105334633D01*
X51568038Y-105320963D01*
X51563838Y-105320051D01*
X51276399Y-105252446D01*
X51268794Y-105250401D01*
X51211196Y-105232929D01*
X51207785Y-105231840D01*
X50917818Y-105134653D01*
X50909779Y-105131644D01*
X50890269Y-105123563D01*
X50870168Y-105115237D01*
X50867537Y-105114111D01*
X50571487Y-104983392D01*
X50563128Y-104979320D01*
X50553003Y-104973909D01*
X50551165Y-104972907D01*
X50246546Y-104803234D01*
X50236809Y-104797205D01*
X49941487Y-104594906D01*
X49932347Y-104588003D01*
X49656964Y-104359328D01*
X49648500Y-104351612D01*
X49395387Y-104098499D01*
X49387671Y-104090035D01*
X49158996Y-103814652D01*
X49152093Y-103805512D01*
X48949794Y-103510190D01*
X48943765Y-103500453D01*
X48774049Y-103195757D01*
X48773089Y-103193995D01*
X48767678Y-103183870D01*
X48763606Y-103175511D01*
X48755014Y-103156052D01*
X48632871Y-102879425D01*
X48631784Y-102876884D01*
X48615342Y-102837189D01*
X48612358Y-102829215D01*
X48515132Y-102539134D01*
X48514094Y-102535880D01*
X48496589Y-102478174D01*
X48494560Y-102470629D01*
X48426932Y-102183093D01*
X48426049Y-102179026D01*
X48412360Y-102110207D01*
X48411176Y-102103199D01*
X48371204Y-101816651D01*
X48370613Y-101811680D01*
X48363237Y-101736794D01*
X48362774Y-101730385D01*
X48361394Y-101700538D01*
X48347630Y-101402825D01*
X48347499Y-101397146D01*
X48347499Y-101397127D01*
X48347468Y-101278711D01*
X50496500Y-101278711D01*
X50496500Y-101521288D01*
X50524873Y-101736812D01*
X50528162Y-101761789D01*
X50532992Y-101779815D01*
X50590947Y-101996104D01*
X50683773Y-102220205D01*
X50683776Y-102220212D01*
X50805064Y-102430289D01*
X50805066Y-102430292D01*
X50805067Y-102430293D01*
X50952733Y-102622736D01*
X50952739Y-102622743D01*
X51124256Y-102794260D01*
X51124263Y-102794266D01*
X51169764Y-102829180D01*
X51316711Y-102941936D01*
X51526788Y-103063224D01*
X51750900Y-103156054D01*
X51985211Y-103218838D01*
X52165586Y-103242584D01*
X52225711Y-103250500D01*
X52225712Y-103250500D01*
X52468289Y-103250500D01*
X52516388Y-103244167D01*
X52708789Y-103218838D01*
X52943100Y-103156054D01*
X53167212Y-103063224D01*
X53377289Y-102941936D01*
X53569738Y-102794265D01*
X53741265Y-102622738D01*
X53888936Y-102430289D01*
X53957632Y-102311304D01*
X106099500Y-102311304D01*
X106099500Y-102488695D01*
X106134103Y-102662658D01*
X106134106Y-102662667D01*
X106201983Y-102826540D01*
X106201990Y-102826553D01*
X106300535Y-102974034D01*
X106300538Y-102974038D01*
X106425961Y-103099461D01*
X106425965Y-103099464D01*
X106573446Y-103198009D01*
X106573459Y-103198016D01*
X106696363Y-103248923D01*
X106737334Y-103265894D01*
X106737336Y-103265894D01*
X106737341Y-103265896D01*
X106911304Y-103300499D01*
X106911307Y-103300500D01*
X106911309Y-103300500D01*
X107088693Y-103300500D01*
X107088694Y-103300499D01*
X107146682Y-103288964D01*
X107262658Y-103265896D01*
X107262661Y-103265894D01*
X107262666Y-103265894D01*
X107426547Y-103198013D01*
X107574035Y-103099464D01*
X107636681Y-103036817D01*
X107698002Y-103003334D01*
X107724361Y-103000500D01*
X110075639Y-103000500D01*
X110142678Y-103020185D01*
X110163315Y-103036814D01*
X110225962Y-103099461D01*
X110225966Y-103099465D01*
X110373446Y-103198009D01*
X110373459Y-103198016D01*
X110496363Y-103248923D01*
X110537334Y-103265894D01*
X110537336Y-103265894D01*
X110537341Y-103265896D01*
X110711304Y-103300499D01*
X110711307Y-103300500D01*
X110711309Y-103300500D01*
X110888693Y-103300500D01*
X110888694Y-103300499D01*
X110946682Y-103288964D01*
X111062658Y-103265896D01*
X111062661Y-103265894D01*
X111062666Y-103265894D01*
X111226547Y-103198013D01*
X111374035Y-103099464D01*
X111499464Y-102974035D01*
X111598013Y-102826547D01*
X111665894Y-102662666D01*
X111700500Y-102488691D01*
X111700500Y-102311309D01*
X111700500Y-102311306D01*
X111700499Y-102311304D01*
X111665896Y-102137341D01*
X111665893Y-102137332D01*
X111598016Y-101973459D01*
X111598009Y-101973446D01*
X111499464Y-101825965D01*
X111499461Y-101825961D01*
X111374038Y-101700538D01*
X111374034Y-101700535D01*
X111226553Y-101601990D01*
X111226540Y-101601983D01*
X111062667Y-101534106D01*
X111062658Y-101534103D01*
X110888694Y-101499500D01*
X110888691Y-101499500D01*
X110711309Y-101499500D01*
X110711306Y-101499500D01*
X110537341Y-101534103D01*
X110537332Y-101534106D01*
X110373459Y-101601983D01*
X110373446Y-101601990D01*
X110225966Y-101700534D01*
X110196116Y-101730385D01*
X110163318Y-101763182D01*
X110101998Y-101796666D01*
X110075639Y-101799500D01*
X107724361Y-101799500D01*
X107657322Y-101779815D01*
X107636684Y-101763185D01*
X107574035Y-101700536D01*
X107574034Y-101700535D01*
X107574033Y-101700534D01*
X107426553Y-101601990D01*
X107426540Y-101601983D01*
X107262667Y-101534106D01*
X107262658Y-101534103D01*
X107088694Y-101499500D01*
X107088691Y-101499500D01*
X106911309Y-101499500D01*
X106911306Y-101499500D01*
X106737341Y-101534103D01*
X106737332Y-101534106D01*
X106573459Y-101601983D01*
X106573446Y-101601990D01*
X106425965Y-101700535D01*
X106425961Y-101700538D01*
X106300538Y-101825961D01*
X106300535Y-101825965D01*
X106201990Y-101973446D01*
X106201983Y-101973459D01*
X106134106Y-102137332D01*
X106134103Y-102137341D01*
X106099500Y-102311304D01*
X53957632Y-102311304D01*
X54010224Y-102220212D01*
X54103054Y-101996100D01*
X54165838Y-101761789D01*
X54197500Y-101521288D01*
X54197500Y-101278712D01*
X54197500Y-101278711D01*
X122496500Y-101278711D01*
X122496500Y-101521288D01*
X122524873Y-101736812D01*
X122528162Y-101761789D01*
X122532992Y-101779815D01*
X122590947Y-101996104D01*
X122683773Y-102220205D01*
X122683776Y-102220212D01*
X122805064Y-102430289D01*
X122805066Y-102430292D01*
X122805067Y-102430293D01*
X122952733Y-102622736D01*
X122952739Y-102622743D01*
X123124256Y-102794260D01*
X123124263Y-102794266D01*
X123169764Y-102829180D01*
X123316711Y-102941936D01*
X123526788Y-103063224D01*
X123750900Y-103156054D01*
X123985211Y-103218838D01*
X124165586Y-103242584D01*
X124225711Y-103250500D01*
X124225712Y-103250500D01*
X124468289Y-103250500D01*
X124516388Y-103244167D01*
X124708789Y-103218838D01*
X124943100Y-103156054D01*
X125167212Y-103063224D01*
X125377289Y-102941936D01*
X125569738Y-102794265D01*
X125741265Y-102622738D01*
X125888936Y-102430289D01*
X126010224Y-102220212D01*
X126103054Y-101996100D01*
X126165838Y-101761789D01*
X126197500Y-101521288D01*
X126197500Y-101278712D01*
X126165838Y-101038211D01*
X126103054Y-100803900D01*
X126010224Y-100579788D01*
X125888936Y-100369711D01*
X125828018Y-100290321D01*
X125741266Y-100177263D01*
X125741260Y-100177256D01*
X125569743Y-100005739D01*
X125569736Y-100005733D01*
X125377293Y-99858067D01*
X125377292Y-99858066D01*
X125377289Y-99858064D01*
X125167212Y-99736776D01*
X125167205Y-99736773D01*
X124943104Y-99643947D01*
X124708785Y-99581161D01*
X124468289Y-99549500D01*
X124468288Y-99549500D01*
X124225712Y-99549500D01*
X124225711Y-99549500D01*
X123985214Y-99581161D01*
X123750895Y-99643947D01*
X123526794Y-99736773D01*
X123526785Y-99736777D01*
X123316706Y-99858067D01*
X123124263Y-100005733D01*
X123124256Y-100005739D01*
X122952739Y-100177256D01*
X122952733Y-100177263D01*
X122805067Y-100369706D01*
X122683777Y-100579785D01*
X122683773Y-100579794D01*
X122590947Y-100803895D01*
X122528161Y-101038214D01*
X122496500Y-101278711D01*
X54197500Y-101278711D01*
X54165838Y-101038211D01*
X54103054Y-100803900D01*
X54010224Y-100579788D01*
X53888936Y-100369711D01*
X53828018Y-100290321D01*
X53741266Y-100177263D01*
X53741260Y-100177256D01*
X53569743Y-100005739D01*
X53569736Y-100005733D01*
X53377293Y-99858067D01*
X53377292Y-99858066D01*
X53377289Y-99858064D01*
X53167212Y-99736776D01*
X53167205Y-99736773D01*
X52943104Y-99643947D01*
X52708785Y-99581161D01*
X52468289Y-99549500D01*
X52468288Y-99549500D01*
X52225712Y-99549500D01*
X52225711Y-99549500D01*
X51985214Y-99581161D01*
X51750895Y-99643947D01*
X51526794Y-99736773D01*
X51526785Y-99736777D01*
X51316706Y-99858067D01*
X51124263Y-100005733D01*
X51124256Y-100005739D01*
X50952739Y-100177256D01*
X50952733Y-100177263D01*
X50805067Y-100369706D01*
X50683777Y-100579785D01*
X50683773Y-100579794D01*
X50590947Y-100803895D01*
X50528161Y-101038214D01*
X50496500Y-101278711D01*
X48347468Y-101278711D01*
X48346716Y-98359568D01*
X69749500Y-98359568D01*
X69749500Y-98640431D01*
X69780942Y-98919494D01*
X69780945Y-98919512D01*
X69843439Y-99193317D01*
X69843443Y-99193329D01*
X69936200Y-99458411D01*
X70058053Y-99711442D01*
X70073972Y-99736777D01*
X70207477Y-99949248D01*
X70382584Y-100168825D01*
X70581175Y-100367416D01*
X70800752Y-100542523D01*
X71038555Y-100691945D01*
X71291592Y-100813801D01*
X71490680Y-100883465D01*
X71556670Y-100906556D01*
X71556682Y-100906560D01*
X71830491Y-100969055D01*
X71830497Y-100969055D01*
X71830505Y-100969057D01*
X72016547Y-100990018D01*
X72109569Y-101000499D01*
X72109572Y-101000500D01*
X72109575Y-101000500D01*
X72390428Y-101000500D01*
X72390429Y-101000499D01*
X72533055Y-100984429D01*
X72669494Y-100969057D01*
X72669499Y-100969056D01*
X72669509Y-100969055D01*
X72943318Y-100906560D01*
X73208408Y-100813801D01*
X73461445Y-100691945D01*
X73699248Y-100542523D01*
X73918825Y-100367416D01*
X74117416Y-100168825D01*
X74292523Y-99949248D01*
X74441945Y-99711445D01*
X74563801Y-99458408D01*
X74608959Y-99329354D01*
X74649680Y-99272578D01*
X74714633Y-99246831D01*
X74783195Y-99260287D01*
X74833597Y-99308675D01*
X74850000Y-99370309D01*
X74850000Y-100447844D01*
X74856401Y-100507372D01*
X74856403Y-100507379D01*
X74906645Y-100642086D01*
X74906649Y-100642093D01*
X74992809Y-100757187D01*
X74992812Y-100757190D01*
X75107906Y-100843350D01*
X75107913Y-100843354D01*
X75242620Y-100893596D01*
X75242627Y-100893598D01*
X75302155Y-100899999D01*
X75302172Y-100900000D01*
X76500000Y-100900000D01*
X76500000Y-99623784D01*
X76542446Y-99654623D01*
X76731780Y-99751094D01*
X76933874Y-99816758D01*
X77143753Y-99850000D01*
X77356247Y-99850000D01*
X77566126Y-99816758D01*
X77768220Y-99751094D01*
X77957554Y-99654623D01*
X78000000Y-99623784D01*
X78000000Y-100900000D01*
X79197828Y-100900000D01*
X79197844Y-100899999D01*
X79257372Y-100893598D01*
X79257379Y-100893596D01*
X79392086Y-100843354D01*
X79392093Y-100843350D01*
X79507187Y-100757190D01*
X79507190Y-100757187D01*
X79593350Y-100642093D01*
X79593354Y-100642086D01*
X79643596Y-100507379D01*
X79643598Y-100507372D01*
X79649999Y-100447844D01*
X79650000Y-100447827D01*
X79650000Y-99250000D01*
X78373784Y-99250000D01*
X78404623Y-99207554D01*
X78501094Y-99018220D01*
X78566758Y-98816126D01*
X78600000Y-98606247D01*
X78600000Y-98393753D01*
X78566758Y-98183874D01*
X78501094Y-97981780D01*
X78438824Y-97859568D01*
X98499500Y-97859568D01*
X98499500Y-98140431D01*
X98530942Y-98419494D01*
X98530945Y-98419512D01*
X98593439Y-98693317D01*
X98593443Y-98693329D01*
X98686200Y-98958411D01*
X98808053Y-99211442D01*
X98808055Y-99211445D01*
X98957477Y-99449248D01*
X99132584Y-99668825D01*
X99331175Y-99867416D01*
X99550752Y-100042523D01*
X99788555Y-100191945D01*
X100041592Y-100313801D01*
X100201374Y-100369711D01*
X100306670Y-100406556D01*
X100306682Y-100406560D01*
X100580491Y-100469055D01*
X100580497Y-100469055D01*
X100580505Y-100469057D01*
X100766547Y-100490018D01*
X100859569Y-100500499D01*
X100859572Y-100500500D01*
X100859575Y-100500500D01*
X101140428Y-100500500D01*
X101140429Y-100500499D01*
X101283055Y-100484429D01*
X101419494Y-100469057D01*
X101419499Y-100469056D01*
X101419509Y-100469055D01*
X101693318Y-100406560D01*
X101958408Y-100313801D01*
X102211445Y-100191945D01*
X102449248Y-100042523D01*
X102668825Y-99867416D01*
X102867416Y-99668825D01*
X103042523Y-99449248D01*
X103191945Y-99211445D01*
X103313801Y-98958408D01*
X103406560Y-98693318D01*
X103469055Y-98419509D01*
X103500500Y-98140425D01*
X103500500Y-97859575D01*
X103479213Y-97670645D01*
X103469057Y-97580505D01*
X103469054Y-97580487D01*
X103460176Y-97541592D01*
X103406560Y-97306682D01*
X103313801Y-97041592D01*
X103191945Y-96788555D01*
X103042523Y-96550752D01*
X102867416Y-96331175D01*
X102668825Y-96132584D01*
X102449248Y-95957477D01*
X102211445Y-95808055D01*
X102211442Y-95808053D01*
X101958411Y-95686200D01*
X101830781Y-95641540D01*
X101774005Y-95600818D01*
X101748258Y-95535866D01*
X101761714Y-95467304D01*
X101810102Y-95416901D01*
X101871734Y-95400499D01*
X102947872Y-95400499D01*
X103007483Y-95394091D01*
X103142331Y-95343796D01*
X103257546Y-95257546D01*
X103343796Y-95142331D01*
X103394091Y-95007483D01*
X103400500Y-94947873D01*
X103400500Y-94827387D01*
X116079961Y-94827387D01*
X116100441Y-94969842D01*
X116100442Y-94969846D01*
X116160228Y-95100757D01*
X116160229Y-95100758D01*
X116160230Y-95100760D01*
X116197849Y-95147443D01*
X116197852Y-95147446D01*
X116197857Y-95147452D01*
X118272354Y-97221947D01*
X118952557Y-97902150D01*
X118999240Y-97939770D01*
X118999241Y-97939770D01*
X118999243Y-97939772D01*
X119130153Y-97999557D01*
X119130154Y-97999557D01*
X119130156Y-97999558D01*
X119272613Y-98020039D01*
X119415070Y-97999558D01*
X119545986Y-97939770D01*
X119592669Y-97902151D01*
X122347376Y-95147443D01*
X122384996Y-95100760D01*
X122444784Y-94969844D01*
X122465265Y-94827387D01*
X122444784Y-94684930D01*
X122384996Y-94554014D01*
X122347377Y-94507331D01*
X122347372Y-94507326D01*
X122347368Y-94507321D01*
X121586436Y-93746390D01*
X121552951Y-93685067D01*
X121557935Y-93615376D01*
X121599807Y-93559442D01*
X121665271Y-93535025D01*
X121727918Y-93546989D01*
X121849727Y-93605649D01*
X121849734Y-93605651D01*
X121849739Y-93605654D01*
X122048827Y-93675318D01*
X122114817Y-93698409D01*
X122114829Y-93698413D01*
X122388638Y-93760908D01*
X122388644Y-93760908D01*
X122388652Y-93760910D01*
X122574694Y-93781871D01*
X122667716Y-93792352D01*
X122667719Y-93792353D01*
X122667722Y-93792353D01*
X122948575Y-93792353D01*
X122948576Y-93792352D01*
X123091202Y-93776282D01*
X123227641Y-93760910D01*
X123227646Y-93760909D01*
X123227656Y-93760908D01*
X123501465Y-93698413D01*
X123766555Y-93605654D01*
X124019592Y-93483798D01*
X124257395Y-93334376D01*
X124476972Y-93159269D01*
X124675563Y-92960678D01*
X124850670Y-92741101D01*
X125000092Y-92503298D01*
X125121948Y-92250261D01*
X125214707Y-91985171D01*
X125277202Y-91711362D01*
X125278259Y-91701987D01*
X125299318Y-91515073D01*
X125308647Y-91432278D01*
X125308647Y-91151428D01*
X125277202Y-90872344D01*
X125214707Y-90598535D01*
X125121948Y-90333445D01*
X125000092Y-90080408D01*
X124850670Y-89842605D01*
X124675563Y-89623028D01*
X124476972Y-89424437D01*
X124257395Y-89249330D01*
X124019592Y-89099908D01*
X124019589Y-89099906D01*
X123766558Y-88978053D01*
X123501476Y-88885296D01*
X123501464Y-88885292D01*
X123227659Y-88822798D01*
X123227641Y-88822795D01*
X122948578Y-88791353D01*
X122948572Y-88791353D01*
X122667722Y-88791353D01*
X122667715Y-88791353D01*
X122388652Y-88822795D01*
X122388634Y-88822798D01*
X122114829Y-88885292D01*
X122114817Y-88885296D01*
X121849735Y-88978053D01*
X121596704Y-89099906D01*
X121358900Y-89249329D01*
X121139322Y-89424436D01*
X120940730Y-89623028D01*
X120765623Y-89842606D01*
X120616200Y-90080410D01*
X120494347Y-90333441D01*
X120401590Y-90598523D01*
X120401586Y-90598535D01*
X120339092Y-90872340D01*
X120339089Y-90872358D01*
X120307647Y-91151421D01*
X120307647Y-91432284D01*
X120339089Y-91711347D01*
X120339092Y-91711365D01*
X120401586Y-91985170D01*
X120401590Y-91985182D01*
X120494347Y-92250264D01*
X120494350Y-92250272D01*
X120553011Y-92372082D01*
X120564363Y-92441023D01*
X120536641Y-92505157D01*
X120478645Y-92544123D01*
X120408790Y-92545548D01*
X120353610Y-92513564D01*
X119592676Y-91752631D01*
X119592669Y-91752624D01*
X119545986Y-91715004D01*
X119545984Y-91715003D01*
X119545982Y-91715001D01*
X119415072Y-91655216D01*
X119415068Y-91655215D01*
X119272613Y-91634735D01*
X119130157Y-91655215D01*
X119130153Y-91655216D01*
X118999242Y-91715002D01*
X118952547Y-91752631D01*
X116197857Y-94507323D01*
X116197851Y-94507330D01*
X116160229Y-94554015D01*
X116160227Y-94554017D01*
X116100442Y-94684927D01*
X116100441Y-94684931D01*
X116079961Y-94827387D01*
X103400500Y-94827387D01*
X103400499Y-92960678D01*
X103400499Y-91052129D01*
X103400498Y-91052123D01*
X103400497Y-91052116D01*
X103394091Y-90992517D01*
X103349269Y-90872344D01*
X103343797Y-90857671D01*
X103343793Y-90857664D01*
X103257547Y-90742455D01*
X103257544Y-90742452D01*
X103142335Y-90656206D01*
X103142328Y-90656202D01*
X103007482Y-90605908D01*
X103007483Y-90605908D01*
X102947883Y-90599501D01*
X102947881Y-90599500D01*
X102947873Y-90599500D01*
X102947864Y-90599500D01*
X99052129Y-90599500D01*
X99052123Y-90599501D01*
X98992516Y-90605908D01*
X98857671Y-90656202D01*
X98857664Y-90656206D01*
X98742455Y-90742452D01*
X98742452Y-90742455D01*
X98656206Y-90857664D01*
X98656202Y-90857671D01*
X98605908Y-90992517D01*
X98599501Y-91052116D01*
X98599501Y-91052123D01*
X98599500Y-91052135D01*
X98599500Y-94947870D01*
X98599501Y-94947876D01*
X98605908Y-95007483D01*
X98656202Y-95142328D01*
X98656206Y-95142335D01*
X98742452Y-95257544D01*
X98742455Y-95257547D01*
X98857664Y-95343793D01*
X98857671Y-95343797D01*
X98992517Y-95394091D01*
X98992516Y-95394091D01*
X98999444Y-95394835D01*
X99052127Y-95400500D01*
X100128264Y-95400499D01*
X100195301Y-95420183D01*
X100241056Y-95472987D01*
X100251000Y-95542146D01*
X100221975Y-95605702D01*
X100169218Y-95641540D01*
X100041585Y-95686201D01*
X99788557Y-95808053D01*
X99550753Y-95957476D01*
X99331175Y-96132583D01*
X99132583Y-96331175D01*
X98957476Y-96550753D01*
X98808053Y-96788557D01*
X98686200Y-97041588D01*
X98593443Y-97306670D01*
X98593439Y-97306682D01*
X98530945Y-97580487D01*
X98530942Y-97580505D01*
X98499500Y-97859568D01*
X78438824Y-97859568D01*
X78404623Y-97792446D01*
X78373784Y-97750000D01*
X79650000Y-97750000D01*
X79650000Y-96552172D01*
X79649999Y-96552155D01*
X79643598Y-96492627D01*
X79643596Y-96492620D01*
X79593354Y-96357913D01*
X79593350Y-96357906D01*
X79507190Y-96242812D01*
X79507187Y-96242809D01*
X79392093Y-96156649D01*
X79392086Y-96156645D01*
X79257379Y-96106403D01*
X79257372Y-96106401D01*
X79197844Y-96100000D01*
X78000000Y-96100000D01*
X78000000Y-97376215D01*
X77957554Y-97345377D01*
X77768220Y-97248906D01*
X77566126Y-97183242D01*
X77356247Y-97150000D01*
X77143753Y-97150000D01*
X76933874Y-97183242D01*
X76731780Y-97248906D01*
X76542446Y-97345377D01*
X76500000Y-97376215D01*
X76500000Y-96100000D01*
X75302155Y-96100000D01*
X75242627Y-96106401D01*
X75242620Y-96106403D01*
X75107913Y-96156645D01*
X75107906Y-96156649D01*
X74992812Y-96242809D01*
X74992809Y-96242812D01*
X74906649Y-96357906D01*
X74906645Y-96357913D01*
X74856403Y-96492620D01*
X74856401Y-96492627D01*
X74850000Y-96552155D01*
X74850000Y-97629690D01*
X74830315Y-97696729D01*
X74777511Y-97742484D01*
X74708353Y-97752428D01*
X74644797Y-97723403D01*
X74608959Y-97670645D01*
X74577411Y-97580487D01*
X74563801Y-97541592D01*
X74454538Y-97314704D01*
X74441946Y-97288557D01*
X74441945Y-97288555D01*
X74292523Y-97050752D01*
X74117416Y-96831175D01*
X73918825Y-96632584D01*
X73699248Y-96457477D01*
X73461445Y-96308055D01*
X73461442Y-96308053D01*
X73208411Y-96186200D01*
X72943329Y-96093443D01*
X72943317Y-96093439D01*
X72669512Y-96030945D01*
X72669494Y-96030942D01*
X72390431Y-95999500D01*
X72390425Y-95999500D01*
X72109575Y-95999500D01*
X72109568Y-95999500D01*
X71830505Y-96030942D01*
X71830487Y-96030945D01*
X71556682Y-96093439D01*
X71556670Y-96093443D01*
X71291588Y-96186200D01*
X71038557Y-96308053D01*
X70800753Y-96457476D01*
X70581175Y-96632583D01*
X70382583Y-96831175D01*
X70207476Y-97050753D01*
X70058053Y-97288557D01*
X69936200Y-97541588D01*
X69843443Y-97806670D01*
X69843439Y-97806682D01*
X69780945Y-98080487D01*
X69780942Y-98080505D01*
X69749500Y-98359568D01*
X48346716Y-98359568D01*
X48344916Y-91372614D01*
X50179962Y-91372614D01*
X50200442Y-91515069D01*
X50200443Y-91515073D01*
X50260229Y-91645984D01*
X50260230Y-91645985D01*
X50260231Y-91645987D01*
X50297850Y-91692670D01*
X50297853Y-91692673D01*
X50297858Y-91692679D01*
X52366088Y-93760907D01*
X53052558Y-94447377D01*
X53099241Y-94484997D01*
X53099242Y-94484997D01*
X53099244Y-94484999D01*
X53230154Y-94544784D01*
X53230155Y-94544784D01*
X53230157Y-94544785D01*
X53372614Y-94565266D01*
X53515071Y-94544785D01*
X53645987Y-94484997D01*
X53692670Y-94447378D01*
X54453611Y-93686436D01*
X54514933Y-93652952D01*
X54584624Y-93657936D01*
X54640558Y-93699807D01*
X54664975Y-93765272D01*
X54653012Y-93827919D01*
X54594347Y-93949740D01*
X54501591Y-94214818D01*
X54501587Y-94214830D01*
X54439093Y-94488635D01*
X54439090Y-94488653D01*
X54407648Y-94767716D01*
X54407648Y-95048579D01*
X54439090Y-95327642D01*
X54439093Y-95327660D01*
X54501587Y-95601465D01*
X54501591Y-95601477D01*
X54594348Y-95866559D01*
X54716201Y-96119590D01*
X54716203Y-96119593D01*
X54865625Y-96357396D01*
X55040732Y-96576973D01*
X55239323Y-96775564D01*
X55458900Y-96950671D01*
X55696703Y-97100093D01*
X55949740Y-97221949D01*
X56140089Y-97288555D01*
X56214818Y-97314704D01*
X56214830Y-97314708D01*
X56488639Y-97377203D01*
X56488645Y-97377203D01*
X56488653Y-97377205D01*
X56674695Y-97398166D01*
X56767717Y-97408647D01*
X56767720Y-97408648D01*
X56767723Y-97408648D01*
X57048576Y-97408648D01*
X57048577Y-97408647D01*
X57191203Y-97392577D01*
X57327642Y-97377205D01*
X57327647Y-97377204D01*
X57327657Y-97377203D01*
X57601466Y-97314708D01*
X57866556Y-97221949D01*
X58119593Y-97100093D01*
X58357396Y-96950671D01*
X58576973Y-96775564D01*
X58775564Y-96576973D01*
X58950671Y-96357396D01*
X59100093Y-96119593D01*
X59221949Y-95866556D01*
X59314708Y-95601466D01*
X59377203Y-95327657D01*
X59385103Y-95257547D01*
X59408647Y-95048579D01*
X59408648Y-95048575D01*
X59408648Y-94767720D01*
X59408647Y-94767716D01*
X59377205Y-94488653D01*
X59377202Y-94488635D01*
X59314708Y-94214830D01*
X59314704Y-94214818D01*
X59291613Y-94148828D01*
X59221949Y-93949740D01*
X59101588Y-93699807D01*
X59100094Y-93696705D01*
X59093642Y-93686437D01*
X58950671Y-93458900D01*
X58775564Y-93239323D01*
X58576973Y-93040732D01*
X58357396Y-92865625D01*
X58119593Y-92716203D01*
X58119590Y-92716201D01*
X57866559Y-92594348D01*
X57660539Y-92522258D01*
X57601477Y-92501591D01*
X57601465Y-92501587D01*
X57327660Y-92439093D01*
X57327642Y-92439090D01*
X57081028Y-92411304D01*
X61849500Y-92411304D01*
X61849500Y-92588695D01*
X61884103Y-92762658D01*
X61884106Y-92762667D01*
X61951983Y-92926540D01*
X61951990Y-92926553D01*
X62050534Y-93074033D01*
X62050535Y-93074034D01*
X62050536Y-93074035D01*
X62113182Y-93136681D01*
X62146666Y-93198002D01*
X62149500Y-93224361D01*
X62149500Y-95125638D01*
X62129815Y-95192677D01*
X62113181Y-95213319D01*
X62100538Y-95225961D01*
X62100535Y-95225965D01*
X62001990Y-95373446D01*
X62001983Y-95373459D01*
X61934106Y-95537332D01*
X61934103Y-95537341D01*
X61899500Y-95711304D01*
X61899500Y-95888695D01*
X61934103Y-96062658D01*
X61934106Y-96062667D01*
X62001983Y-96226540D01*
X62001990Y-96226553D01*
X62100535Y-96374034D01*
X62100538Y-96374038D01*
X62225961Y-96499461D01*
X62225965Y-96499464D01*
X62373446Y-96598009D01*
X62373459Y-96598016D01*
X62496363Y-96648923D01*
X62537334Y-96665894D01*
X62537336Y-96665894D01*
X62537341Y-96665896D01*
X62711304Y-96700499D01*
X62711307Y-96700500D01*
X62711309Y-96700500D01*
X62888693Y-96700500D01*
X62888694Y-96700499D01*
X62946682Y-96688964D01*
X63062658Y-96665896D01*
X63062661Y-96665894D01*
X63062666Y-96665894D01*
X63226547Y-96598013D01*
X63374035Y-96499464D01*
X63499464Y-96374035D01*
X63598013Y-96226547D01*
X63665894Y-96062666D01*
X63672205Y-96030942D01*
X63700499Y-95888695D01*
X63700500Y-95888693D01*
X63700500Y-95711306D01*
X63700499Y-95711304D01*
X63665896Y-95537341D01*
X63665893Y-95537332D01*
X63663247Y-95530945D01*
X63616010Y-95416901D01*
X63598016Y-95373459D01*
X63598009Y-95373446D01*
X63499464Y-95225965D01*
X63499461Y-95225961D01*
X63386819Y-95113319D01*
X63353334Y-95051996D01*
X63350500Y-95025638D01*
X63350500Y-93224361D01*
X63370185Y-93157322D01*
X63386814Y-93136684D01*
X63449464Y-93074035D01*
X63548013Y-92926547D01*
X63615894Y-92762666D01*
X63650500Y-92588691D01*
X63650500Y-92411309D01*
X63650500Y-92411306D01*
X63650499Y-92411304D01*
X63615896Y-92237341D01*
X63615893Y-92237332D01*
X63548016Y-92073459D01*
X63548009Y-92073446D01*
X63449464Y-91925965D01*
X63449461Y-91925961D01*
X63324038Y-91800538D01*
X63324034Y-91800535D01*
X63176553Y-91701990D01*
X63176540Y-91701983D01*
X63012667Y-91634106D01*
X63012658Y-91634103D01*
X62838694Y-91599500D01*
X62838691Y-91599500D01*
X62661309Y-91599500D01*
X62661306Y-91599500D01*
X62487341Y-91634103D01*
X62487332Y-91634106D01*
X62323459Y-91701983D01*
X62323446Y-91701990D01*
X62175965Y-91800535D01*
X62175961Y-91800538D01*
X62050538Y-91925961D01*
X62050535Y-91925965D01*
X61951990Y-92073446D01*
X61951983Y-92073459D01*
X61884106Y-92237332D01*
X61884103Y-92237341D01*
X61849500Y-92411304D01*
X57081028Y-92411304D01*
X57048579Y-92407648D01*
X57048573Y-92407648D01*
X56767723Y-92407648D01*
X56767716Y-92407648D01*
X56488653Y-92439090D01*
X56488635Y-92439093D01*
X56214830Y-92501587D01*
X56214818Y-92501591D01*
X55949736Y-92594348D01*
X55949728Y-92594351D01*
X55827918Y-92653012D01*
X55758977Y-92664364D01*
X55694842Y-92636642D01*
X55655877Y-92578646D01*
X55654452Y-92508791D01*
X55686436Y-92453611D01*
X56066601Y-92073446D01*
X56447377Y-91692670D01*
X56484997Y-91645987D01*
X56544785Y-91515071D01*
X56565266Y-91372614D01*
X56544785Y-91230157D01*
X56484997Y-91099241D01*
X56447378Y-91052558D01*
X56447373Y-91052553D01*
X56447369Y-91052548D01*
X53692677Y-88297858D01*
X53692670Y-88297851D01*
X53645987Y-88260231D01*
X53645985Y-88260230D01*
X53645983Y-88260228D01*
X53515073Y-88200443D01*
X53515069Y-88200442D01*
X53372614Y-88179962D01*
X53230158Y-88200442D01*
X53230154Y-88200443D01*
X53099243Y-88260229D01*
X53052548Y-88297858D01*
X50297858Y-91052550D01*
X50297852Y-91052557D01*
X50260230Y-91099242D01*
X50260228Y-91099244D01*
X50200443Y-91230154D01*
X50200442Y-91230158D01*
X50179962Y-91372614D01*
X48344916Y-91372614D01*
X48342477Y-81911304D01*
X79599500Y-81911304D01*
X79599500Y-82088695D01*
X79634103Y-82262658D01*
X79634106Y-82262667D01*
X79701983Y-82426540D01*
X79701990Y-82426553D01*
X79800535Y-82574034D01*
X79800538Y-82574038D01*
X79925961Y-82699461D01*
X79925965Y-82699464D01*
X80073446Y-82798009D01*
X80073459Y-82798016D01*
X80196363Y-82848923D01*
X80237334Y-82865894D01*
X80237336Y-82865894D01*
X80237341Y-82865896D01*
X80411304Y-82900499D01*
X80411307Y-82900500D01*
X80411309Y-82900500D01*
X80588693Y-82900500D01*
X80588694Y-82900499D01*
X80646682Y-82888964D01*
X80762658Y-82865896D01*
X80762661Y-82865894D01*
X80762666Y-82865894D01*
X80926547Y-82798013D01*
X81074035Y-82699464D01*
X81074038Y-82699461D01*
X81162319Y-82611181D01*
X81223642Y-82577696D01*
X81293334Y-82582680D01*
X81337681Y-82611181D01*
X81425961Y-82699461D01*
X81425965Y-82699464D01*
X81573446Y-82798009D01*
X81573459Y-82798016D01*
X81696363Y-82848923D01*
X81737334Y-82865894D01*
X81737336Y-82865894D01*
X81737341Y-82865896D01*
X81911304Y-82900499D01*
X81911307Y-82900500D01*
X81911309Y-82900500D01*
X82088693Y-82900500D01*
X82088694Y-82900499D01*
X82146682Y-82888964D01*
X82262658Y-82865896D01*
X82262661Y-82865894D01*
X82262666Y-82865894D01*
X82426547Y-82798013D01*
X82574035Y-82699464D01*
X82699464Y-82574035D01*
X82798013Y-82426547D01*
X82865894Y-82262666D01*
X82874081Y-82221505D01*
X82906465Y-82159597D01*
X82967180Y-82125022D01*
X82971464Y-82124089D01*
X83012666Y-82115894D01*
X83176547Y-82048013D01*
X83324035Y-81949464D01*
X83449464Y-81824035D01*
X83548013Y-81676547D01*
X83615894Y-81512666D01*
X83628467Y-81449461D01*
X83650499Y-81338695D01*
X83650500Y-81338693D01*
X83650500Y-81161306D01*
X83650499Y-81161304D01*
X83615896Y-80987341D01*
X83615893Y-80987332D01*
X83548016Y-80823459D01*
X83548009Y-80823446D01*
X83449464Y-80675965D01*
X83449461Y-80675961D01*
X83324038Y-80550538D01*
X83324034Y-80550535D01*
X83176553Y-80451990D01*
X83176540Y-80451983D01*
X83012667Y-80384106D01*
X83012658Y-80384103D01*
X82838694Y-80349500D01*
X82838691Y-80349500D01*
X82661309Y-80349500D01*
X82661306Y-80349500D01*
X82487341Y-80384103D01*
X82487332Y-80384106D01*
X82323459Y-80451983D01*
X82323446Y-80451990D01*
X82175965Y-80550535D01*
X82175961Y-80550538D01*
X82087681Y-80638819D01*
X82026358Y-80672304D01*
X81956666Y-80667320D01*
X81912319Y-80638819D01*
X81824038Y-80550538D01*
X81824034Y-80550535D01*
X81676553Y-80451990D01*
X81676540Y-80451983D01*
X81512667Y-80384106D01*
X81512658Y-80384103D01*
X81338694Y-80349500D01*
X81338691Y-80349500D01*
X81161309Y-80349500D01*
X81161306Y-80349500D01*
X80987341Y-80384103D01*
X80987332Y-80384106D01*
X80823459Y-80451983D01*
X80823446Y-80451990D01*
X80675965Y-80550535D01*
X80675961Y-80550538D01*
X80550538Y-80675961D01*
X80550535Y-80675965D01*
X80451990Y-80823446D01*
X80451983Y-80823459D01*
X80384106Y-80987331D01*
X80384104Y-80987339D01*
X80375918Y-81028493D01*
X80343532Y-81090404D01*
X80282816Y-81124978D01*
X80278493Y-81125918D01*
X80237339Y-81134104D01*
X80237331Y-81134106D01*
X80073459Y-81201983D01*
X80073446Y-81201990D01*
X79925965Y-81300535D01*
X79925961Y-81300538D01*
X79800538Y-81425961D01*
X79800535Y-81425965D01*
X79701990Y-81573446D01*
X79701983Y-81573459D01*
X79634106Y-81737332D01*
X79634103Y-81737341D01*
X79599500Y-81911304D01*
X48342477Y-81911304D01*
X48340815Y-75461304D01*
X64149500Y-75461304D01*
X64149500Y-75638695D01*
X64184103Y-75812658D01*
X64184106Y-75812667D01*
X64251983Y-75976540D01*
X64251990Y-75976553D01*
X64350535Y-76124034D01*
X64350538Y-76124038D01*
X64413819Y-76187319D01*
X64447304Y-76248642D01*
X64442320Y-76318334D01*
X64413819Y-76362681D01*
X64350538Y-76425961D01*
X64350535Y-76425965D01*
X64251990Y-76573446D01*
X64251983Y-76573459D01*
X64184106Y-76737332D01*
X64184103Y-76737341D01*
X64149500Y-76911304D01*
X64149500Y-77088695D01*
X64184103Y-77262658D01*
X64184106Y-77262667D01*
X64251983Y-77426540D01*
X64251990Y-77426553D01*
X64350535Y-77574034D01*
X64350538Y-77574038D01*
X64475961Y-77699461D01*
X64475965Y-77699464D01*
X64623446Y-77798009D01*
X64623459Y-77798016D01*
X64746363Y-77848923D01*
X64787334Y-77865894D01*
X64787336Y-77865894D01*
X64787341Y-77865896D01*
X64961304Y-77900499D01*
X64961307Y-77900500D01*
X64961309Y-77900500D01*
X65138693Y-77900500D01*
X65138694Y-77900499D01*
X65196682Y-77888964D01*
X65312658Y-77865896D01*
X65312661Y-77865894D01*
X65312666Y-77865894D01*
X65476547Y-77798013D01*
X65624035Y-77699464D01*
X65662318Y-77661181D01*
X65723640Y-77627695D01*
X65793332Y-77632679D01*
X65837682Y-77661181D01*
X65875961Y-77699461D01*
X65875965Y-77699464D01*
X66023446Y-77798009D01*
X66023459Y-77798016D01*
X66146363Y-77848923D01*
X66187334Y-77865894D01*
X66187336Y-77865894D01*
X66187341Y-77865896D01*
X66361304Y-77900499D01*
X66361307Y-77900500D01*
X66361309Y-77900500D01*
X66538693Y-77900500D01*
X66538694Y-77900499D01*
X66596682Y-77888964D01*
X66712658Y-77865896D01*
X66712661Y-77865894D01*
X66712666Y-77865894D01*
X66876547Y-77798013D01*
X67024035Y-77699464D01*
X67149464Y-77574035D01*
X67248013Y-77426547D01*
X67315894Y-77262666D01*
X67318315Y-77250499D01*
X67349484Y-77093797D01*
X67350500Y-77088691D01*
X67350500Y-76911309D01*
X67350500Y-76911306D01*
X67350499Y-76911304D01*
X67315896Y-76737341D01*
X67315893Y-76737332D01*
X67248016Y-76573459D01*
X67248009Y-76573446D01*
X67149464Y-76425965D01*
X67149461Y-76425961D01*
X67086181Y-76362681D01*
X67052696Y-76301358D01*
X67057680Y-76231666D01*
X67086181Y-76187319D01*
X67149461Y-76124038D01*
X67149464Y-76124035D01*
X67248013Y-75976547D01*
X67315894Y-75812666D01*
X67350500Y-75638691D01*
X67350500Y-75461309D01*
X67350500Y-75461306D01*
X67350499Y-75461304D01*
X67315896Y-75287341D01*
X67315893Y-75287332D01*
X67248016Y-75123459D01*
X67248009Y-75123446D01*
X67149464Y-74975965D01*
X67149461Y-74975961D01*
X67024038Y-74850538D01*
X67024034Y-74850535D01*
X66876553Y-74751990D01*
X66876540Y-74751983D01*
X66712667Y-74684106D01*
X66712658Y-74684103D01*
X66538694Y-74649500D01*
X66538691Y-74649500D01*
X66361309Y-74649500D01*
X66361306Y-74649500D01*
X66187341Y-74684103D01*
X66187332Y-74684106D01*
X66023459Y-74751983D01*
X66023446Y-74751990D01*
X65875965Y-74850535D01*
X65875961Y-74850538D01*
X65837681Y-74888819D01*
X65776358Y-74922304D01*
X65706666Y-74917320D01*
X65662319Y-74888819D01*
X65624038Y-74850538D01*
X65624034Y-74850535D01*
X65476553Y-74751990D01*
X65476540Y-74751983D01*
X65312667Y-74684106D01*
X65312658Y-74684103D01*
X65138694Y-74649500D01*
X65138691Y-74649500D01*
X64961309Y-74649500D01*
X64961306Y-74649500D01*
X64787341Y-74684103D01*
X64787332Y-74684106D01*
X64623459Y-74751983D01*
X64623446Y-74751990D01*
X64475965Y-74850535D01*
X64475961Y-74850538D01*
X64350538Y-74975961D01*
X64350535Y-74975965D01*
X64251990Y-75123446D01*
X64251983Y-75123459D01*
X64184106Y-75287332D01*
X64184103Y-75287341D01*
X64149500Y-75461304D01*
X48340815Y-75461304D01*
X48334153Y-49609568D01*
X51199500Y-49609568D01*
X51199500Y-49890431D01*
X51230942Y-50169494D01*
X51230945Y-50169512D01*
X51293439Y-50443317D01*
X51293443Y-50443329D01*
X51386200Y-50708411D01*
X51508053Y-50961442D01*
X51508055Y-50961445D01*
X51657477Y-51199248D01*
X51832584Y-51418825D01*
X52031175Y-51617416D01*
X52250752Y-51792523D01*
X52488555Y-51941945D01*
X52741592Y-52063801D01*
X52940680Y-52133465D01*
X53006670Y-52156556D01*
X53006682Y-52156560D01*
X53280491Y-52219055D01*
X53280497Y-52219055D01*
X53280505Y-52219057D01*
X53466547Y-52240018D01*
X53559569Y-52250499D01*
X53559572Y-52250500D01*
X53559575Y-52250500D01*
X53840428Y-52250500D01*
X53840429Y-52250499D01*
X53983055Y-52234429D01*
X54119494Y-52219057D01*
X54119499Y-52219056D01*
X54119509Y-52219055D01*
X54393318Y-52156560D01*
X54658408Y-52063801D01*
X54911445Y-51941945D01*
X55149248Y-51792523D01*
X55368825Y-51617416D01*
X55567416Y-51418825D01*
X55742523Y-51199248D01*
X55891945Y-50961445D01*
X56013801Y-50708408D01*
X56058959Y-50579354D01*
X56099680Y-50522578D01*
X56164633Y-50496831D01*
X56233195Y-50510287D01*
X56283597Y-50558675D01*
X56300000Y-50620309D01*
X56300000Y-51697844D01*
X56306401Y-51757372D01*
X56306403Y-51757379D01*
X56356645Y-51892086D01*
X56356649Y-51892093D01*
X56442809Y-52007187D01*
X56442812Y-52007190D01*
X56557906Y-52093350D01*
X56557913Y-52093354D01*
X56692620Y-52143596D01*
X56692627Y-52143598D01*
X56752155Y-52149999D01*
X56752172Y-52150000D01*
X57950000Y-52150000D01*
X57950000Y-50873784D01*
X57992446Y-50904623D01*
X58181780Y-51001094D01*
X58383874Y-51066758D01*
X58593753Y-51100000D01*
X58806247Y-51100000D01*
X59016126Y-51066758D01*
X59218220Y-51001094D01*
X59407554Y-50904623D01*
X59450000Y-50873784D01*
X59450000Y-52150000D01*
X60647828Y-52150000D01*
X60647844Y-52149999D01*
X60707372Y-52143598D01*
X60707379Y-52143596D01*
X60842086Y-52093354D01*
X60842093Y-52093350D01*
X60957187Y-52007190D01*
X60957190Y-52007187D01*
X61043350Y-51892093D01*
X61043354Y-51892086D01*
X61093596Y-51757379D01*
X61093598Y-51757372D01*
X61099999Y-51697844D01*
X61100000Y-51697827D01*
X61100000Y-51623804D01*
X62199500Y-51623804D01*
X62199500Y-51801195D01*
X62234103Y-51975158D01*
X62234106Y-51975167D01*
X62301983Y-52139040D01*
X62301990Y-52139053D01*
X62400535Y-52286534D01*
X62400538Y-52286538D01*
X62525961Y-52411961D01*
X62525965Y-52411964D01*
X62673446Y-52510509D01*
X62673459Y-52510516D01*
X62796363Y-52561423D01*
X62837334Y-52578394D01*
X62837336Y-52578394D01*
X62837341Y-52578396D01*
X63011304Y-52612999D01*
X63011307Y-52613000D01*
X63011309Y-52613000D01*
X63188693Y-52613000D01*
X63188694Y-52612999D01*
X63246682Y-52601464D01*
X63362658Y-52578396D01*
X63362661Y-52578394D01*
X63362666Y-52578394D01*
X63526547Y-52510513D01*
X63674035Y-52411964D01*
X63799464Y-52286535D01*
X63898013Y-52139047D01*
X63965894Y-51975166D01*
X64000500Y-51801191D01*
X64000500Y-51623809D01*
X64000500Y-51623806D01*
X64000499Y-51623804D01*
X63965896Y-51449841D01*
X63965893Y-51449832D01*
X63898016Y-51285959D01*
X63898009Y-51285946D01*
X63799464Y-51138465D01*
X63799461Y-51138461D01*
X63674038Y-51013038D01*
X63674034Y-51013035D01*
X63526553Y-50914490D01*
X63526540Y-50914483D01*
X63362667Y-50846606D01*
X63362658Y-50846603D01*
X63188694Y-50812000D01*
X63188691Y-50812000D01*
X63011309Y-50812000D01*
X63011306Y-50812000D01*
X62837341Y-50846603D01*
X62837332Y-50846606D01*
X62673459Y-50914483D01*
X62673446Y-50914490D01*
X62525965Y-51013035D01*
X62525961Y-51013038D01*
X62400538Y-51138461D01*
X62400535Y-51138465D01*
X62301990Y-51285946D01*
X62301983Y-51285959D01*
X62234106Y-51449832D01*
X62234103Y-51449841D01*
X62199500Y-51623804D01*
X61100000Y-51623804D01*
X61100000Y-50500000D01*
X59823784Y-50500000D01*
X59854623Y-50457554D01*
X59951094Y-50268220D01*
X60016758Y-50066126D01*
X60050000Y-49856247D01*
X60050000Y-49643753D01*
X60016758Y-49433874D01*
X59951094Y-49231780D01*
X59854623Y-49042446D01*
X59823784Y-49000000D01*
X61100000Y-49000000D01*
X61100000Y-47802172D01*
X61099999Y-47802155D01*
X61093598Y-47742627D01*
X61093596Y-47742620D01*
X61043354Y-47607913D01*
X61043350Y-47607906D01*
X60957190Y-47492812D01*
X60957187Y-47492809D01*
X60842093Y-47406649D01*
X60842086Y-47406645D01*
X60707379Y-47356403D01*
X60707372Y-47356401D01*
X60647844Y-47350000D01*
X59450000Y-47350000D01*
X59450000Y-48626215D01*
X59407554Y-48595377D01*
X59218220Y-48498906D01*
X59016126Y-48433242D01*
X58806247Y-48400000D01*
X58593753Y-48400000D01*
X58383874Y-48433242D01*
X58181780Y-48498906D01*
X57992446Y-48595377D01*
X57950000Y-48626215D01*
X57950000Y-47350000D01*
X56752155Y-47350000D01*
X56692627Y-47356401D01*
X56692620Y-47356403D01*
X56557913Y-47406645D01*
X56557906Y-47406649D01*
X56442812Y-47492809D01*
X56442809Y-47492812D01*
X56356649Y-47607906D01*
X56356645Y-47607913D01*
X56306403Y-47742620D01*
X56306401Y-47742627D01*
X56300000Y-47802155D01*
X56300000Y-48879690D01*
X56280315Y-48946729D01*
X56227511Y-48992484D01*
X56158353Y-49002428D01*
X56094797Y-48973403D01*
X56058959Y-48920645D01*
X56040803Y-48868761D01*
X56013801Y-48791592D01*
X55891945Y-48538555D01*
X55742523Y-48300752D01*
X55567416Y-48081175D01*
X55368825Y-47882584D01*
X55149248Y-47707477D01*
X54911445Y-47558055D01*
X54911442Y-47558053D01*
X54658411Y-47436200D01*
X54393329Y-47343443D01*
X54393317Y-47343439D01*
X54119512Y-47280945D01*
X54119494Y-47280942D01*
X53840431Y-47249500D01*
X53840425Y-47249500D01*
X53559575Y-47249500D01*
X53559568Y-47249500D01*
X53280505Y-47280942D01*
X53280487Y-47280945D01*
X53006682Y-47343439D01*
X53006670Y-47343443D01*
X52741588Y-47436200D01*
X52488557Y-47558053D01*
X52250753Y-47707476D01*
X52031175Y-47882583D01*
X51832583Y-48081175D01*
X51657476Y-48300753D01*
X51508053Y-48538557D01*
X51386200Y-48791588D01*
X51293443Y-49056670D01*
X51293439Y-49056682D01*
X51230945Y-49330487D01*
X51230942Y-49330505D01*
X51199500Y-49609568D01*
X48334153Y-49609568D01*
X48333355Y-46511304D01*
X68999500Y-46511304D01*
X68999500Y-46688695D01*
X69034103Y-46862658D01*
X69034106Y-46862667D01*
X69101983Y-47026540D01*
X69101990Y-47026553D01*
X69200534Y-47174033D01*
X69200535Y-47174034D01*
X69200536Y-47174035D01*
X69263182Y-47236681D01*
X69296666Y-47298002D01*
X69299500Y-47324361D01*
X69299500Y-58213329D01*
X69299499Y-58213347D01*
X69299499Y-58379053D01*
X69299498Y-58379053D01*
X69319961Y-58455420D01*
X69336015Y-58515335D01*
X69340424Y-58531787D01*
X69342297Y-58535031D01*
X69342299Y-58535033D01*
X69419477Y-58668711D01*
X69419481Y-58668716D01*
X69538349Y-58787584D01*
X69538355Y-58787589D01*
X79173236Y-68422470D01*
X79206721Y-68483793D01*
X79208028Y-68529548D01*
X79184000Y-68681258D01*
X79184000Y-68868738D01*
X79213325Y-69053888D01*
X79213326Y-69053892D01*
X79271257Y-69232184D01*
X79356365Y-69399219D01*
X79466556Y-69550884D01*
X79466558Y-69550886D01*
X79602560Y-69686888D01*
X79600988Y-69688459D01*
X79634123Y-69739270D01*
X79634590Y-69809138D01*
X79601244Y-69861794D01*
X79602560Y-69863110D01*
X79466558Y-69999111D01*
X79466558Y-69999112D01*
X79466556Y-69999114D01*
X79438899Y-70037181D01*
X79356365Y-70150778D01*
X79271258Y-70317811D01*
X79213325Y-70496109D01*
X79184000Y-70681259D01*
X79184000Y-70868738D01*
X79213325Y-71053888D01*
X79213326Y-71053892D01*
X79271257Y-71232184D01*
X79356365Y-71399219D01*
X79466556Y-71550884D01*
X79466558Y-71550886D01*
X79602560Y-71686888D01*
X79600988Y-71688459D01*
X79634123Y-71739270D01*
X79634590Y-71809138D01*
X79601244Y-71861794D01*
X79602560Y-71863110D01*
X79466558Y-71999111D01*
X79466558Y-71999112D01*
X79466556Y-71999114D01*
X79419233Y-72064248D01*
X79356365Y-72150778D01*
X79271258Y-72317811D01*
X79213325Y-72496109D01*
X79184000Y-72681259D01*
X79184000Y-72868738D01*
X79213325Y-73053888D01*
X79213326Y-73053892D01*
X79271257Y-73232184D01*
X79356365Y-73399219D01*
X79413323Y-73477615D01*
X79436803Y-73543420D01*
X79420978Y-73611474D01*
X79370872Y-73660169D01*
X79313005Y-73674500D01*
X78810451Y-73674500D01*
X78743412Y-73654815D01*
X78722770Y-73638181D01*
X74836817Y-69752228D01*
X74803332Y-69690905D01*
X74800498Y-69664547D01*
X74800498Y-69611306D01*
X74800497Y-69611304D01*
X74765894Y-69437341D01*
X74765891Y-69437332D01*
X74698014Y-69273459D01*
X74698007Y-69273446D01*
X74599462Y-69125965D01*
X74599459Y-69125961D01*
X74474036Y-69000538D01*
X74474032Y-69000535D01*
X74326551Y-68901990D01*
X74326538Y-68901983D01*
X74162665Y-68834106D01*
X74162656Y-68834103D01*
X73988692Y-68799500D01*
X73988689Y-68799500D01*
X73811307Y-68799500D01*
X73811304Y-68799500D01*
X73637339Y-68834103D01*
X73637330Y-68834106D01*
X73473457Y-68901983D01*
X73473444Y-68901990D01*
X73325963Y-69000535D01*
X73325959Y-69000538D01*
X73200536Y-69125961D01*
X73200533Y-69125965D01*
X73101988Y-69273446D01*
X73101981Y-69273459D01*
X73034104Y-69437332D01*
X73034101Y-69437341D01*
X72999498Y-69611304D01*
X72999498Y-69788695D01*
X73034101Y-69962658D01*
X73034104Y-69962667D01*
X73101981Y-70126540D01*
X73101988Y-70126553D01*
X73200533Y-70274034D01*
X73200536Y-70274038D01*
X73325959Y-70399461D01*
X73325963Y-70399464D01*
X73473444Y-70498009D01*
X73473457Y-70498016D01*
X73596361Y-70548923D01*
X73637332Y-70565894D01*
X73637334Y-70565894D01*
X73637339Y-70565896D01*
X73811302Y-70600499D01*
X73811305Y-70600500D01*
X73811307Y-70600500D01*
X73864546Y-70600500D01*
X73931585Y-70620185D01*
X73952227Y-70636819D01*
X78101260Y-74785854D01*
X78101263Y-74785857D01*
X78169409Y-74831390D01*
X78203712Y-74854311D01*
X78317546Y-74901463D01*
X78438386Y-74925499D01*
X78438390Y-74925500D01*
X78438391Y-74925500D01*
X80911606Y-74925500D01*
X80972028Y-74913481D01*
X81032451Y-74901463D01*
X81092910Y-74876420D01*
X81146285Y-74854312D01*
X81197508Y-74820084D01*
X81248732Y-74785858D01*
X81335857Y-74698733D01*
X81335858Y-74698731D01*
X81342924Y-74691665D01*
X81342927Y-74691661D01*
X82052994Y-73981593D01*
X82114315Y-73948110D01*
X82160067Y-73946803D01*
X82227704Y-73957515D01*
X82281262Y-73965999D01*
X82281266Y-73965999D01*
X82468739Y-73965999D01*
X82571600Y-73949706D01*
X82653893Y-73936673D01*
X82832185Y-73878742D01*
X82999220Y-73793634D01*
X83150885Y-73683443D01*
X83283444Y-73550884D01*
X83393635Y-73399219D01*
X83478743Y-73232184D01*
X83536674Y-73053892D01*
X83549707Y-72971599D01*
X83566000Y-72868738D01*
X83566000Y-72681259D01*
X83536674Y-72496109D01*
X83536674Y-72496106D01*
X83478743Y-72317814D01*
X83393635Y-72150779D01*
X83283444Y-71999114D01*
X83150885Y-71866555D01*
X83147440Y-71863110D01*
X83149029Y-71861520D01*
X83115911Y-71810845D01*
X83115376Y-71740977D01*
X83148734Y-71688182D01*
X83147440Y-71686888D01*
X83150885Y-71683443D01*
X83283444Y-71550884D01*
X83393635Y-71399219D01*
X83478743Y-71232184D01*
X83536674Y-71053892D01*
X83549707Y-70971599D01*
X83566000Y-70868738D01*
X83566000Y-70681259D01*
X83546449Y-70557825D01*
X83536674Y-70496106D01*
X83478743Y-70317814D01*
X83393635Y-70150779D01*
X83283444Y-69999114D01*
X83150885Y-69866555D01*
X83147440Y-69863110D01*
X83149029Y-69861520D01*
X83115911Y-69810845D01*
X83115376Y-69740977D01*
X83148734Y-69688182D01*
X83147440Y-69686888D01*
X83169781Y-69664547D01*
X83283444Y-69550884D01*
X83373732Y-69426612D01*
X83429062Y-69383948D01*
X83474050Y-69375499D01*
X85974902Y-69375499D01*
X86041941Y-69395184D01*
X86062583Y-69411818D01*
X96438181Y-79787416D01*
X96471666Y-79848739D01*
X96474500Y-79875097D01*
X96474500Y-79963695D01*
X96509103Y-80137658D01*
X96509106Y-80137667D01*
X96576983Y-80301540D01*
X96576990Y-80301553D01*
X96675535Y-80449034D01*
X96675538Y-80449038D01*
X96800961Y-80574461D01*
X96800965Y-80574464D01*
X96948446Y-80673009D01*
X96948459Y-80673016D01*
X97071363Y-80723923D01*
X97112334Y-80740894D01*
X97112336Y-80740894D01*
X97112341Y-80740896D01*
X97286304Y-80775499D01*
X97286307Y-80775500D01*
X97286309Y-80775500D01*
X97463693Y-80775500D01*
X97463694Y-80775499D01*
X97546169Y-80759094D01*
X97637658Y-80740896D01*
X97637661Y-80740894D01*
X97637666Y-80740894D01*
X97801547Y-80673013D01*
X97949035Y-80574464D01*
X98070594Y-80452904D01*
X98131915Y-80419421D01*
X98201607Y-80424405D01*
X98205726Y-80426026D01*
X98319603Y-80473194D01*
X98362334Y-80490894D01*
X98362336Y-80490894D01*
X98362341Y-80490896D01*
X98536304Y-80525499D01*
X98536307Y-80525500D01*
X98536309Y-80525500D01*
X98713693Y-80525500D01*
X98713694Y-80525499D01*
X98771682Y-80513964D01*
X98887658Y-80490896D01*
X98887661Y-80490894D01*
X98887666Y-80490894D01*
X99044273Y-80426026D01*
X99051540Y-80423016D01*
X99051540Y-80423015D01*
X99051547Y-80423013D01*
X99199035Y-80324464D01*
X99324464Y-80199035D01*
X99423013Y-80051547D01*
X99490894Y-79887666D01*
X99491603Y-79884106D01*
X99525499Y-79713695D01*
X99525500Y-79713693D01*
X99525500Y-79536306D01*
X99525499Y-79536304D01*
X99490896Y-79362341D01*
X99490893Y-79362332D01*
X99423016Y-79198459D01*
X99423009Y-79198446D01*
X99324464Y-79050965D01*
X99324461Y-79050961D01*
X99199038Y-78925538D01*
X99199034Y-78925535D01*
X99051553Y-78826990D01*
X99051540Y-78826983D01*
X98887667Y-78759106D01*
X98887658Y-78759103D01*
X98713694Y-78724500D01*
X98713691Y-78724500D01*
X98625098Y-78724500D01*
X98558059Y-78704815D01*
X98537417Y-78688181D01*
X94286568Y-74437332D01*
X89886415Y-70037180D01*
X89852931Y-69975858D01*
X89857915Y-69906166D01*
X89899787Y-69850233D01*
X89965251Y-69825816D01*
X89974097Y-69825500D01*
X91139548Y-69825500D01*
X91206587Y-69845185D01*
X91227229Y-69861819D01*
X102063181Y-80697771D01*
X102096666Y-80759094D01*
X102099500Y-80785452D01*
X102099500Y-80838695D01*
X102134103Y-81012658D01*
X102134106Y-81012667D01*
X102201983Y-81176540D01*
X102201990Y-81176553D01*
X102300535Y-81324034D01*
X102300538Y-81324038D01*
X102425961Y-81449461D01*
X102425965Y-81449464D01*
X102573446Y-81548009D01*
X102573459Y-81548016D01*
X102696363Y-81598923D01*
X102737334Y-81615894D01*
X102737336Y-81615894D01*
X102737341Y-81615896D01*
X102911304Y-81650499D01*
X102911307Y-81650500D01*
X102911309Y-81650500D01*
X103088693Y-81650500D01*
X103088694Y-81650499D01*
X103146682Y-81638964D01*
X103262658Y-81615896D01*
X103262661Y-81615894D01*
X103262666Y-81615894D01*
X103426547Y-81548013D01*
X103574035Y-81449464D01*
X103699464Y-81324035D01*
X103798013Y-81176547D01*
X103865894Y-81012666D01*
X103870932Y-80987341D01*
X103900499Y-80838695D01*
X103900500Y-80838693D01*
X103900500Y-80661306D01*
X103900499Y-80661304D01*
X103865896Y-80487341D01*
X103865893Y-80487332D01*
X103798016Y-80323459D01*
X103798009Y-80323446D01*
X103699464Y-80175965D01*
X103699461Y-80175961D01*
X103574038Y-80050538D01*
X103574034Y-80050535D01*
X103426553Y-79951990D01*
X103426540Y-79951983D01*
X103262667Y-79884106D01*
X103262658Y-79884103D01*
X103088694Y-79849500D01*
X103088691Y-79849500D01*
X103035453Y-79849500D01*
X102968414Y-79829815D01*
X102947772Y-79813181D01*
X102730721Y-79596130D01*
X102697236Y-79534807D01*
X102702220Y-79465115D01*
X102744092Y-79409182D01*
X102809556Y-79384765D01*
X102842594Y-79386832D01*
X102911306Y-79400500D01*
X102911309Y-79400500D01*
X103088693Y-79400500D01*
X103088694Y-79400499D01*
X103167796Y-79384765D01*
X103262658Y-79365896D01*
X103262661Y-79365894D01*
X103262666Y-79365894D01*
X103426547Y-79298013D01*
X103574035Y-79199464D01*
X103699464Y-79074035D01*
X103798013Y-78926547D01*
X103865894Y-78762666D01*
X103866490Y-78759673D01*
X103900499Y-78588695D01*
X103900500Y-78588693D01*
X103900500Y-78411306D01*
X103900499Y-78411304D01*
X103865896Y-78237341D01*
X103865893Y-78237332D01*
X103798016Y-78073459D01*
X103798009Y-78073446D01*
X103699464Y-77925965D01*
X103699461Y-77925961D01*
X103574038Y-77800538D01*
X103574034Y-77800535D01*
X103465631Y-77728102D01*
X103420826Y-77674490D01*
X103412119Y-77605165D01*
X103442274Y-77542137D01*
X103465631Y-77521898D01*
X103496925Y-77500987D01*
X103574035Y-77449464D01*
X103699464Y-77324035D01*
X103798013Y-77176547D01*
X103865894Y-77012666D01*
X103866913Y-77007547D01*
X103900499Y-76838695D01*
X103900500Y-76838693D01*
X103900500Y-76661306D01*
X103900499Y-76661304D01*
X103865896Y-76487341D01*
X103865893Y-76487332D01*
X103798016Y-76323459D01*
X103798009Y-76323446D01*
X103699464Y-76175965D01*
X103699461Y-76175961D01*
X103574038Y-76050538D01*
X103574034Y-76050535D01*
X103426553Y-75951990D01*
X103426540Y-75951983D01*
X103262667Y-75884106D01*
X103262658Y-75884103D01*
X103088694Y-75849500D01*
X103088691Y-75849500D01*
X102950097Y-75849500D01*
X102883058Y-75829815D01*
X102862416Y-75813181D01*
X93612753Y-66563518D01*
X93605521Y-66556286D01*
X93605520Y-66556284D01*
X93493716Y-66444480D01*
X93492661Y-66443871D01*
X93486110Y-66437344D01*
X93473003Y-66413446D01*
X93456933Y-66391431D01*
X93456447Y-66383260D01*
X93452511Y-66376083D01*
X93454404Y-66348892D01*
X93452788Y-66321684D01*
X93456797Y-66314547D01*
X93457366Y-66306382D01*
X93473658Y-66284534D01*
X93487009Y-66260769D01*
X93494241Y-66256932D01*
X93499134Y-66250371D01*
X93524649Y-66240800D01*
X93548731Y-66228025D01*
X93562406Y-66226638D01*
X93564553Y-66225833D01*
X93566405Y-66226232D01*
X93573628Y-66225500D01*
X94039548Y-66225500D01*
X94106587Y-66245185D01*
X94127229Y-66261819D01*
X102063181Y-74197771D01*
X102096666Y-74259094D01*
X102099500Y-74285452D01*
X102099500Y-74338695D01*
X102134103Y-74512658D01*
X102134106Y-74512667D01*
X102201983Y-74676540D01*
X102201990Y-74676553D01*
X102300535Y-74824034D01*
X102300538Y-74824038D01*
X102425961Y-74949461D01*
X102425965Y-74949464D01*
X102573446Y-75048009D01*
X102573459Y-75048016D01*
X102696363Y-75098923D01*
X102737334Y-75115894D01*
X102737336Y-75115894D01*
X102737341Y-75115896D01*
X102911304Y-75150499D01*
X102911307Y-75150500D01*
X102911309Y-75150500D01*
X103088693Y-75150500D01*
X103088694Y-75150499D01*
X103146682Y-75138964D01*
X103262658Y-75115896D01*
X103262661Y-75115894D01*
X103262666Y-75115894D01*
X103426547Y-75048013D01*
X103574035Y-74949464D01*
X103699464Y-74824035D01*
X103798013Y-74676547D01*
X103825037Y-74611304D01*
X106049500Y-74611304D01*
X106049500Y-74788695D01*
X106084103Y-74962658D01*
X106084106Y-74962667D01*
X106151983Y-75126540D01*
X106151990Y-75126553D01*
X106250535Y-75274034D01*
X106250538Y-75274038D01*
X106375961Y-75399461D01*
X106375965Y-75399464D01*
X106523446Y-75498009D01*
X106523459Y-75498016D01*
X106556530Y-75511714D01*
X106687334Y-75565894D01*
X106687336Y-75565894D01*
X106687341Y-75565896D01*
X106861304Y-75600499D01*
X106861307Y-75600500D01*
X106861309Y-75600500D01*
X107038693Y-75600500D01*
X107038694Y-75600499D01*
X107096682Y-75588964D01*
X107212658Y-75565896D01*
X107212661Y-75565894D01*
X107212666Y-75565894D01*
X107376547Y-75498013D01*
X107524035Y-75399464D01*
X107649464Y-75274035D01*
X107748013Y-75126547D01*
X107749298Y-75123446D01*
X107810387Y-74975961D01*
X107815894Y-74962666D01*
X107825436Y-74914699D01*
X107844255Y-74820085D01*
X107850500Y-74788691D01*
X107850500Y-74611309D01*
X107850500Y-74611306D01*
X107850499Y-74611304D01*
X107850154Y-74609568D01*
X114499500Y-74609568D01*
X114499500Y-74890431D01*
X114530942Y-75169494D01*
X114530945Y-75169512D01*
X114593439Y-75443317D01*
X114593443Y-75443329D01*
X114686200Y-75708411D01*
X114808053Y-75961442D01*
X114808055Y-75961445D01*
X114957477Y-76199248D01*
X115132584Y-76418825D01*
X115331175Y-76617416D01*
X115550752Y-76792523D01*
X115788555Y-76941945D01*
X116041592Y-77063801D01*
X116240680Y-77133465D01*
X116306670Y-77156556D01*
X116306682Y-77156560D01*
X116580491Y-77219055D01*
X116580497Y-77219055D01*
X116580505Y-77219057D01*
X116766547Y-77240018D01*
X116859569Y-77250499D01*
X116859572Y-77250500D01*
X116859575Y-77250500D01*
X117140428Y-77250500D01*
X117140429Y-77250499D01*
X117283055Y-77234429D01*
X117419494Y-77219057D01*
X117419499Y-77219056D01*
X117419509Y-77219055D01*
X117693318Y-77156560D01*
X117958408Y-77063801D01*
X118211445Y-76941945D01*
X118449248Y-76792523D01*
X118668825Y-76617416D01*
X118867416Y-76418825D01*
X119042523Y-76199248D01*
X119191945Y-75961445D01*
X119313801Y-75708408D01*
X119358460Y-75580778D01*
X119399180Y-75524006D01*
X119464132Y-75498258D01*
X119532694Y-75511714D01*
X119583097Y-75560101D01*
X119599500Y-75621736D01*
X119599500Y-76697870D01*
X119599501Y-76697876D01*
X119605908Y-76757483D01*
X119656202Y-76892328D01*
X119656206Y-76892335D01*
X119742452Y-77007544D01*
X119742455Y-77007547D01*
X119857664Y-77093793D01*
X119857671Y-77093797D01*
X119992517Y-77144091D01*
X119992516Y-77144091D01*
X119999444Y-77144835D01*
X120052127Y-77150500D01*
X123947872Y-77150499D01*
X124007483Y-77144091D01*
X124142331Y-77093796D01*
X124257546Y-77007546D01*
X124343796Y-76892331D01*
X124394091Y-76757483D01*
X124400500Y-76697873D01*
X124400499Y-72802128D01*
X124394091Y-72742517D01*
X124371243Y-72681259D01*
X124343797Y-72607671D01*
X124343793Y-72607664D01*
X124257547Y-72492455D01*
X124257544Y-72492452D01*
X124142335Y-72406206D01*
X124142328Y-72406202D01*
X124007482Y-72355908D01*
X124007483Y-72355908D01*
X123947883Y-72349501D01*
X123947881Y-72349500D01*
X123947873Y-72349500D01*
X123947864Y-72349500D01*
X120052129Y-72349500D01*
X120052123Y-72349501D01*
X119992516Y-72355908D01*
X119857671Y-72406202D01*
X119857664Y-72406206D01*
X119742455Y-72492452D01*
X119742452Y-72492455D01*
X119656206Y-72607664D01*
X119656202Y-72607671D01*
X119605908Y-72742517D01*
X119599501Y-72802116D01*
X119599501Y-72802123D01*
X119599500Y-72802135D01*
X119599500Y-73878262D01*
X119579815Y-73945301D01*
X119527011Y-73991056D01*
X119457853Y-74001000D01*
X119394297Y-73971975D01*
X119358459Y-73919217D01*
X119328676Y-73834103D01*
X119313801Y-73791592D01*
X119191945Y-73538555D01*
X119042523Y-73300752D01*
X118867416Y-73081175D01*
X118668825Y-72882584D01*
X118651456Y-72868733D01*
X118567921Y-72802116D01*
X118449248Y-72707477D01*
X118211445Y-72558055D01*
X118211442Y-72558053D01*
X117958411Y-72436200D01*
X117693329Y-72343443D01*
X117693317Y-72343439D01*
X117419512Y-72280945D01*
X117419494Y-72280942D01*
X117140431Y-72249500D01*
X117140425Y-72249500D01*
X116859575Y-72249500D01*
X116859568Y-72249500D01*
X116580505Y-72280942D01*
X116580487Y-72280945D01*
X116306682Y-72343439D01*
X116306670Y-72343443D01*
X116041588Y-72436200D01*
X115788557Y-72558053D01*
X115550753Y-72707476D01*
X115331175Y-72882583D01*
X115132583Y-73081175D01*
X114957476Y-73300753D01*
X114808053Y-73538557D01*
X114686200Y-73791588D01*
X114593443Y-74056670D01*
X114593439Y-74056682D01*
X114530945Y-74330487D01*
X114530942Y-74330505D01*
X114499500Y-74609568D01*
X107850154Y-74609568D01*
X107815896Y-74437341D01*
X107815893Y-74437332D01*
X107748016Y-74273459D01*
X107748009Y-74273446D01*
X107649464Y-74125965D01*
X107649461Y-74125961D01*
X107524038Y-74000538D01*
X107524034Y-74000535D01*
X107376553Y-73901990D01*
X107376540Y-73901983D01*
X107212667Y-73834106D01*
X107212658Y-73834103D01*
X107038694Y-73799500D01*
X107038691Y-73799500D01*
X106861309Y-73799500D01*
X106861306Y-73799500D01*
X106687341Y-73834103D01*
X106687332Y-73834106D01*
X106523459Y-73901983D01*
X106523446Y-73901990D01*
X106375965Y-74000535D01*
X106375961Y-74000538D01*
X106250538Y-74125961D01*
X106250535Y-74125965D01*
X106151990Y-74273446D01*
X106151983Y-74273459D01*
X106084106Y-74437332D01*
X106084103Y-74437341D01*
X106049500Y-74611304D01*
X103825037Y-74611304D01*
X103865894Y-74512666D01*
X103900500Y-74338691D01*
X103900500Y-74161309D01*
X103900500Y-74161306D01*
X103900499Y-74161304D01*
X103865896Y-73987341D01*
X103865893Y-73987332D01*
X103798016Y-73823459D01*
X103798009Y-73823446D01*
X103699464Y-73675965D01*
X103699461Y-73675961D01*
X103574038Y-73550538D01*
X103574034Y-73550535D01*
X103426553Y-73451990D01*
X103426540Y-73451983D01*
X103262667Y-73384106D01*
X103262658Y-73384103D01*
X103088694Y-73349500D01*
X103088691Y-73349500D01*
X103035452Y-73349500D01*
X102968413Y-73329815D01*
X102947771Y-73313181D01*
X94840198Y-65205608D01*
X94840178Y-65205586D01*
X94795896Y-65161304D01*
X96599500Y-65161304D01*
X96599500Y-65338695D01*
X96634103Y-65512658D01*
X96634106Y-65512667D01*
X96701983Y-65676540D01*
X96701990Y-65676553D01*
X96800535Y-65824034D01*
X96800538Y-65824038D01*
X96925961Y-65949461D01*
X96925965Y-65949464D01*
X97073446Y-66048009D01*
X97073459Y-66048016D01*
X97184073Y-66093833D01*
X97237334Y-66115894D01*
X97237336Y-66115894D01*
X97237341Y-66115896D01*
X97411304Y-66150499D01*
X97411307Y-66150500D01*
X97411309Y-66150500D01*
X97588693Y-66150500D01*
X97700941Y-66128172D01*
X97732245Y-66121945D01*
X97801837Y-66128172D01*
X97857014Y-66171035D01*
X97880259Y-66236924D01*
X97878054Y-66267753D01*
X97849500Y-66411304D01*
X97849500Y-66588695D01*
X97884103Y-66762658D01*
X97884106Y-66762667D01*
X97951983Y-66926540D01*
X97951990Y-66926553D01*
X98050535Y-67074034D01*
X98050538Y-67074038D01*
X98175961Y-67199461D01*
X98175965Y-67199464D01*
X98323446Y-67298009D01*
X98323459Y-67298016D01*
X98446363Y-67348923D01*
X98487334Y-67365894D01*
X98487336Y-67365894D01*
X98487341Y-67365896D01*
X98661304Y-67400499D01*
X98661307Y-67400500D01*
X98661309Y-67400500D01*
X98838693Y-67400500D01*
X98838694Y-67400499D01*
X98921903Y-67383948D01*
X99012658Y-67365896D01*
X99012661Y-67365894D01*
X99012666Y-67365894D01*
X99176547Y-67298013D01*
X99324035Y-67199464D01*
X99449464Y-67074035D01*
X99548013Y-66926547D01*
X99615894Y-66762666D01*
X99650500Y-66588691D01*
X99650500Y-66411309D01*
X99650500Y-66411306D01*
X99650499Y-66411304D01*
X99615896Y-66237341D01*
X99615893Y-66237332D01*
X99611463Y-66226638D01*
X99588432Y-66171035D01*
X99548016Y-66073459D01*
X99548009Y-66073446D01*
X99449464Y-65925965D01*
X99449461Y-65925961D01*
X99324038Y-65800538D01*
X99324034Y-65800535D01*
X99176553Y-65701990D01*
X99176540Y-65701983D01*
X99012667Y-65634106D01*
X99012658Y-65634103D01*
X98838694Y-65599500D01*
X98838691Y-65599500D01*
X98661309Y-65599500D01*
X98661304Y-65599500D01*
X98517753Y-65628054D01*
X98448161Y-65621827D01*
X98392984Y-65578964D01*
X98369740Y-65513074D01*
X98371945Y-65482245D01*
X98400500Y-65338693D01*
X98400500Y-65161306D01*
X98400499Y-65161304D01*
X98365896Y-64987341D01*
X98365893Y-64987332D01*
X98298016Y-64823459D01*
X98298009Y-64823446D01*
X98199464Y-64675965D01*
X98199461Y-64675961D01*
X98074038Y-64550538D01*
X98074034Y-64550535D01*
X97926553Y-64451990D01*
X97926540Y-64451983D01*
X97762667Y-64384106D01*
X97762658Y-64384103D01*
X97588694Y-64349500D01*
X97588691Y-64349500D01*
X97411309Y-64349500D01*
X97411306Y-64349500D01*
X97237341Y-64384103D01*
X97237332Y-64384106D01*
X97073459Y-64451983D01*
X97073446Y-64451990D01*
X96925965Y-64550535D01*
X96925961Y-64550538D01*
X96800538Y-64675961D01*
X96800535Y-64675965D01*
X96701990Y-64823446D01*
X96701983Y-64823459D01*
X96634106Y-64987332D01*
X96634103Y-64987341D01*
X96599500Y-65161304D01*
X94795896Y-65161304D01*
X94748733Y-65114141D01*
X94703325Y-65083801D01*
X94703324Y-65083800D01*
X94697509Y-65079915D01*
X94646286Y-65045688D01*
X94565792Y-65012347D01*
X94550457Y-65005995D01*
X94532453Y-64998537D01*
X94522427Y-64996543D01*
X94472029Y-64986518D01*
X94411610Y-64974500D01*
X94411607Y-64974500D01*
X94411606Y-64974500D01*
X91010452Y-64974500D01*
X90981011Y-64965855D01*
X90951025Y-64959332D01*
X90946009Y-64955577D01*
X90943413Y-64954815D01*
X90922771Y-64938181D01*
X90760453Y-64775863D01*
X90726968Y-64714540D01*
X90731952Y-64644848D01*
X90773824Y-64588915D01*
X90834511Y-64566038D01*
X90834389Y-64565265D01*
X90838137Y-64564671D01*
X90838425Y-64564563D01*
X90839198Y-64564502D01*
X90839201Y-64564502D01*
X90839203Y-64564501D01*
X90839211Y-64564501D01*
X90913780Y-64552690D01*
X90928851Y-64550303D01*
X95154355Y-64550303D01*
X95240835Y-64564002D01*
X95439161Y-64564002D01*
X95525640Y-64550303D01*
X95339999Y-64364662D01*
X95154355Y-64550303D01*
X90928851Y-64550303D01*
X91035165Y-64533465D01*
X91223861Y-64472153D01*
X91400643Y-64382079D01*
X91561158Y-64265458D01*
X91701453Y-64125163D01*
X91818074Y-63964648D01*
X91908148Y-63787866D01*
X91969460Y-63599170D01*
X91996790Y-63426613D01*
X92000497Y-63403211D01*
X92000497Y-63204838D01*
X94079998Y-63204838D01*
X94079998Y-63403165D01*
X94093694Y-63489643D01*
X94093695Y-63489644D01*
X94279337Y-63304002D01*
X94279337Y-63304001D01*
X94212458Y-63237122D01*
X94831998Y-63237122D01*
X94831998Y-63370882D01*
X94866617Y-63500083D01*
X94933496Y-63615922D01*
X95028078Y-63710504D01*
X95143917Y-63777383D01*
X95273118Y-63812002D01*
X95406878Y-63812002D01*
X95536079Y-63777383D01*
X95651918Y-63710504D01*
X95746500Y-63615922D01*
X95813379Y-63500083D01*
X95847998Y-63370882D01*
X95847998Y-63304002D01*
X96400658Y-63304002D01*
X96400658Y-63304003D01*
X96586299Y-63489644D01*
X96599998Y-63403164D01*
X96599998Y-63204839D01*
X96586299Y-63118359D01*
X96400658Y-63304002D01*
X95847998Y-63304002D01*
X95847998Y-63237122D01*
X95813379Y-63107921D01*
X95746500Y-62992082D01*
X95651918Y-62897500D01*
X95536079Y-62830621D01*
X95406878Y-62796002D01*
X95273118Y-62796002D01*
X95143917Y-62830621D01*
X95028078Y-62897500D01*
X94933496Y-62992082D01*
X94866617Y-63107921D01*
X94831998Y-63237122D01*
X94212458Y-63237122D01*
X94093694Y-63118359D01*
X94079998Y-63204838D01*
X92000497Y-63204838D01*
X92000497Y-63204792D01*
X91976596Y-63053892D01*
X91969460Y-63008834D01*
X91908148Y-62820138D01*
X91908146Y-62820135D01*
X91908146Y-62820133D01*
X91837386Y-62681259D01*
X91818074Y-62643356D01*
X91701453Y-62482841D01*
X91561158Y-62342546D01*
X91400643Y-62225925D01*
X91289851Y-62169474D01*
X91223865Y-62135852D01*
X91178593Y-62121142D01*
X91035165Y-62074539D01*
X91035159Y-62074538D01*
X90928836Y-62057698D01*
X95154355Y-62057698D01*
X95339998Y-62243341D01*
X95339999Y-62243341D01*
X95525640Y-62057699D01*
X95525639Y-62057698D01*
X95439161Y-62044002D01*
X95240835Y-62044002D01*
X95154355Y-62057698D01*
X90928836Y-62057698D01*
X90839206Y-62043502D01*
X90839201Y-62043502D01*
X90640793Y-62043502D01*
X90640788Y-62043502D01*
X90444834Y-62074538D01*
X90444832Y-62074538D01*
X90444829Y-62074539D01*
X90350481Y-62105195D01*
X90256128Y-62135852D01*
X90079349Y-62225926D01*
X90079346Y-62225928D01*
X89993252Y-62288479D01*
X89918836Y-62342546D01*
X89918834Y-62342548D01*
X89918833Y-62342548D01*
X89778543Y-62482838D01*
X89778543Y-62482839D01*
X89778541Y-62482841D01*
X89724474Y-62557257D01*
X89661923Y-62643351D01*
X89661921Y-62643354D01*
X89571847Y-62820133D01*
X89546709Y-62897500D01*
X89510534Y-63008834D01*
X89510533Y-63008837D01*
X89510533Y-63008839D01*
X89479495Y-63204801D01*
X89479433Y-63205597D01*
X89479324Y-63205881D01*
X89478734Y-63209610D01*
X89477950Y-63209485D01*
X89454548Y-63270884D01*
X89398315Y-63312354D01*
X89328590Y-63316838D01*
X89268135Y-63283545D01*
X85689381Y-59704791D01*
X89479497Y-59704791D01*
X89479497Y-59903210D01*
X89500616Y-60036547D01*
X89510534Y-60099169D01*
X89539274Y-60187620D01*
X89571847Y-60287869D01*
X89633018Y-60407923D01*
X89661920Y-60464647D01*
X89778541Y-60625162D01*
X89918836Y-60765457D01*
X90079351Y-60882078D01*
X90192797Y-60939881D01*
X90256128Y-60972150D01*
X90256130Y-60972150D01*
X90256133Y-60972152D01*
X90444829Y-61033464D01*
X90542811Y-61048982D01*
X90640788Y-61064501D01*
X90640793Y-61064501D01*
X90839206Y-61064501D01*
X90928275Y-61050393D01*
X91035165Y-61033464D01*
X91223861Y-60972152D01*
X91400643Y-60882078D01*
X91561158Y-60765457D01*
X91701453Y-60625162D01*
X91818074Y-60464647D01*
X91908148Y-60287865D01*
X91969460Y-60099169D01*
X91991056Y-59962817D01*
X92000497Y-59903210D01*
X92000497Y-59704791D01*
X91975574Y-59547439D01*
X91969460Y-59508833D01*
X91908148Y-59320137D01*
X91908146Y-59320134D01*
X91908146Y-59320132D01*
X91861031Y-59227664D01*
X91818074Y-59143355D01*
X91701453Y-58982840D01*
X91561158Y-58842545D01*
X91400643Y-58725924D01*
X91312994Y-58681265D01*
X91223865Y-58635851D01*
X91178593Y-58621141D01*
X91035165Y-58574538D01*
X91035159Y-58574537D01*
X90839206Y-58543501D01*
X90839201Y-58543501D01*
X90640793Y-58543501D01*
X90640788Y-58543501D01*
X90444834Y-58574537D01*
X90444832Y-58574537D01*
X90444829Y-58574538D01*
X90350481Y-58605194D01*
X90256128Y-58635851D01*
X90079349Y-58725925D01*
X90079346Y-58725927D01*
X90005172Y-58779818D01*
X89918836Y-58842545D01*
X89918834Y-58842547D01*
X89918833Y-58842547D01*
X89778543Y-58982837D01*
X89778543Y-58982838D01*
X89778541Y-58982840D01*
X89747859Y-59025070D01*
X89661923Y-59143350D01*
X89661921Y-59143353D01*
X89571847Y-59320132D01*
X89546150Y-59399219D01*
X89510534Y-59508833D01*
X89510533Y-59508836D01*
X89510533Y-59508838D01*
X89479497Y-59704791D01*
X85689381Y-59704791D01*
X84368149Y-58383559D01*
X84360859Y-58376269D01*
X84360857Y-58376266D01*
X84273732Y-58289141D01*
X84222508Y-58254914D01*
X84171285Y-58220687D01*
X84075246Y-58180907D01*
X84057451Y-58173536D01*
X83997028Y-58161517D01*
X83993465Y-58160808D01*
X83993460Y-58160807D01*
X83936609Y-58149499D01*
X83936606Y-58149499D01*
X83936605Y-58149499D01*
X83455886Y-58149499D01*
X83388847Y-58129814D01*
X83355568Y-58098384D01*
X83308395Y-58033456D01*
X83283444Y-57999114D01*
X83150885Y-57866555D01*
X82999220Y-57756364D01*
X82832185Y-57671256D01*
X82653893Y-57613325D01*
X82653891Y-57613324D01*
X82653889Y-57613324D01*
X82468739Y-57583999D01*
X82468734Y-57583999D01*
X82281266Y-57583999D01*
X82281261Y-57583999D01*
X82096110Y-57613324D01*
X81917812Y-57671257D01*
X81750779Y-57756364D01*
X81664249Y-57819232D01*
X81599115Y-57866555D01*
X81599113Y-57866557D01*
X81599112Y-57866557D01*
X81463111Y-58002559D01*
X81461539Y-58000987D01*
X81410729Y-58034122D01*
X81340861Y-58034589D01*
X81288204Y-58001243D01*
X81286889Y-58002559D01*
X81150887Y-57866557D01*
X81150885Y-57866555D01*
X80999220Y-57756364D01*
X80832185Y-57671256D01*
X80653893Y-57613325D01*
X80653891Y-57613324D01*
X80653889Y-57613324D01*
X80468739Y-57583999D01*
X80468734Y-57583999D01*
X80281266Y-57583999D01*
X80281261Y-57583999D01*
X80096110Y-57613324D01*
X79917812Y-57671257D01*
X79750779Y-57756364D01*
X79664249Y-57819232D01*
X79599115Y-57866555D01*
X79599113Y-57866557D01*
X79599112Y-57866557D01*
X79466558Y-57999111D01*
X79466558Y-57999112D01*
X79466556Y-57999114D01*
X79441605Y-58033456D01*
X79356365Y-58150778D01*
X79271258Y-58317811D01*
X79213325Y-58496109D01*
X79184000Y-58681259D01*
X79184000Y-58868738D01*
X79208761Y-59025070D01*
X79213326Y-59053892D01*
X79271257Y-59232184D01*
X79356365Y-59399219D01*
X79466556Y-59550884D01*
X79466558Y-59550886D01*
X79602560Y-59686888D01*
X79600988Y-59688459D01*
X79634123Y-59739270D01*
X79634590Y-59809138D01*
X79601244Y-59861794D01*
X79602560Y-59863110D01*
X79466558Y-59999111D01*
X79466558Y-59999112D01*
X79466556Y-59999114D01*
X79419233Y-60064248D01*
X79356365Y-60150778D01*
X79271258Y-60317811D01*
X79213325Y-60496109D01*
X79184000Y-60681259D01*
X79184000Y-60868738D01*
X79213325Y-61053888D01*
X79213326Y-61053892D01*
X79256369Y-61186365D01*
X79271258Y-61232186D01*
X79340088Y-61367273D01*
X79356365Y-61399219D01*
X79466556Y-61550884D01*
X79466558Y-61550886D01*
X79602560Y-61686888D01*
X79600988Y-61688459D01*
X79634123Y-61739270D01*
X79634590Y-61809138D01*
X79601244Y-61861794D01*
X79602560Y-61863110D01*
X79466558Y-61999111D01*
X79466558Y-61999112D01*
X79466556Y-61999114D01*
X79434306Y-62043502D01*
X79356365Y-62150778D01*
X79271258Y-62317811D01*
X79213325Y-62496109D01*
X79184000Y-62681259D01*
X79184000Y-62868738D01*
X79206190Y-63008839D01*
X79213326Y-63053892D01*
X79271257Y-63232184D01*
X79356365Y-63399219D01*
X79466556Y-63550884D01*
X79466558Y-63550886D01*
X79602560Y-63686888D01*
X79600988Y-63688459D01*
X79634123Y-63739270D01*
X79634590Y-63809138D01*
X79601244Y-63861794D01*
X79602560Y-63863110D01*
X79466558Y-63999111D01*
X79466558Y-63999112D01*
X79466556Y-63999114D01*
X79419233Y-64064248D01*
X79356365Y-64150778D01*
X79271258Y-64317811D01*
X79213322Y-64496116D01*
X79213127Y-64496932D01*
X79212968Y-64497208D01*
X79211821Y-64500739D01*
X79211078Y-64500497D01*
X79178324Y-64557517D01*
X79116291Y-64589668D01*
X79046723Y-64583178D01*
X79004878Y-64555641D01*
X72036819Y-57587582D01*
X72022115Y-57560654D01*
X72005523Y-57534836D01*
X72004631Y-57528635D01*
X72003334Y-57526259D01*
X72000500Y-57499901D01*
X72000500Y-57481378D01*
X76374500Y-57481378D01*
X76374500Y-57668619D01*
X76411025Y-57852242D01*
X76411027Y-57852250D01*
X76482676Y-58025227D01*
X76482681Y-58025236D01*
X76586697Y-58180906D01*
X76586700Y-58180910D01*
X76719088Y-58313298D01*
X76719092Y-58313301D01*
X76874762Y-58417317D01*
X76874768Y-58417320D01*
X76874769Y-58417321D01*
X77047749Y-58488972D01*
X77180286Y-58515335D01*
X77231379Y-58525498D01*
X77231383Y-58525499D01*
X77231384Y-58525499D01*
X77418617Y-58525499D01*
X77418618Y-58525498D01*
X77602251Y-58488972D01*
X77775231Y-58417321D01*
X77930908Y-58313301D01*
X78063302Y-58180907D01*
X78167322Y-58025230D01*
X78238973Y-57852250D01*
X78275500Y-57668615D01*
X78275500Y-57481383D01*
X78238973Y-57297748D01*
X78167322Y-57124768D01*
X78167321Y-57124767D01*
X78167318Y-57124761D01*
X78063302Y-56969091D01*
X78063299Y-56969087D01*
X77930911Y-56836699D01*
X77930907Y-56836696D01*
X77775237Y-56732680D01*
X77775228Y-56732675D01*
X77602251Y-56661026D01*
X77602243Y-56661024D01*
X77418620Y-56624499D01*
X77418616Y-56624499D01*
X77231384Y-56624499D01*
X77231379Y-56624499D01*
X77047756Y-56661024D01*
X77047748Y-56661026D01*
X76874771Y-56732675D01*
X76874762Y-56732680D01*
X76719092Y-56836696D01*
X76719088Y-56836699D01*
X76586700Y-56969087D01*
X76586697Y-56969091D01*
X76482681Y-57124761D01*
X76482676Y-57124770D01*
X76411027Y-57297747D01*
X76411025Y-57297755D01*
X76374500Y-57481378D01*
X72000500Y-57481378D01*
X72000500Y-56204791D01*
X89479497Y-56204791D01*
X89479497Y-56403210D01*
X89510533Y-56599163D01*
X89510534Y-56599169D01*
X89530633Y-56661026D01*
X89571847Y-56787869D01*
X89633018Y-56907923D01*
X89661920Y-56964647D01*
X89778541Y-57125162D01*
X89918836Y-57265457D01*
X90079351Y-57382078D01*
X90192797Y-57439881D01*
X90256128Y-57472150D01*
X90256130Y-57472150D01*
X90256133Y-57472152D01*
X90444829Y-57533464D01*
X90542811Y-57548982D01*
X90640788Y-57564501D01*
X90640793Y-57564501D01*
X90839206Y-57564501D01*
X90928275Y-57550393D01*
X91035165Y-57533464D01*
X91223861Y-57472152D01*
X91400643Y-57382078D01*
X91561158Y-57265457D01*
X91701453Y-57125162D01*
X91818074Y-56964647D01*
X91908148Y-56787865D01*
X91969460Y-56599169D01*
X91986389Y-56492279D01*
X92000497Y-56403210D01*
X92000497Y-56204791D01*
X91983567Y-56097907D01*
X91969460Y-56008833D01*
X91908148Y-55820137D01*
X91908146Y-55820134D01*
X91908146Y-55820132D01*
X91875877Y-55756801D01*
X91818074Y-55643355D01*
X91701453Y-55482840D01*
X91561158Y-55342545D01*
X91400643Y-55225924D01*
X91343919Y-55197022D01*
X91223865Y-55135851D01*
X91178593Y-55121141D01*
X91035165Y-55074538D01*
X91035159Y-55074537D01*
X90839206Y-55043501D01*
X90839201Y-55043501D01*
X90640793Y-55043501D01*
X90640788Y-55043501D01*
X90444834Y-55074537D01*
X90444832Y-55074537D01*
X90444829Y-55074538D01*
X90350481Y-55105194D01*
X90256128Y-55135851D01*
X90079349Y-55225925D01*
X90079346Y-55225927D01*
X89993252Y-55288478D01*
X89918836Y-55342545D01*
X89918834Y-55342547D01*
X89918833Y-55342547D01*
X89778543Y-55482837D01*
X89778543Y-55482838D01*
X89778541Y-55482840D01*
X89724474Y-55557256D01*
X89661923Y-55643350D01*
X89661921Y-55643353D01*
X89571847Y-55820132D01*
X89541190Y-55914485D01*
X89510534Y-56008833D01*
X89510533Y-56008836D01*
X89510533Y-56008838D01*
X89479497Y-56204791D01*
X72000500Y-56204791D01*
X72000500Y-54450526D01*
X87459499Y-54450526D01*
X87459499Y-54657465D01*
X87499867Y-54860408D01*
X87499869Y-54860416D01*
X87579058Y-55051594D01*
X87635356Y-55135850D01*
X87694023Y-55223653D01*
X87840341Y-55369971D01*
X87840344Y-55369973D01*
X88012401Y-55484937D01*
X88203579Y-55564126D01*
X88406529Y-55604495D01*
X88406533Y-55604496D01*
X88406534Y-55604496D01*
X88613465Y-55604496D01*
X88613466Y-55604495D01*
X88816419Y-55564126D01*
X89007597Y-55484937D01*
X89179654Y-55369973D01*
X89325976Y-55223651D01*
X89440940Y-55051594D01*
X89520129Y-54860416D01*
X89560499Y-54657461D01*
X89560499Y-54450531D01*
X89520129Y-54247576D01*
X89440940Y-54056398D01*
X89325976Y-53884341D01*
X89325974Y-53884338D01*
X89179656Y-53738020D01*
X89093625Y-53680537D01*
X89007597Y-53623055D01*
X88816419Y-53543866D01*
X88816411Y-53543864D01*
X88613468Y-53503496D01*
X88613464Y-53503496D01*
X88406534Y-53503496D01*
X88406529Y-53503496D01*
X88203586Y-53543864D01*
X88203578Y-53543866D01*
X88012402Y-53623054D01*
X87840341Y-53738020D01*
X87694023Y-53884338D01*
X87579057Y-54056399D01*
X87499869Y-54247575D01*
X87499867Y-54247583D01*
X87459499Y-54450526D01*
X72000500Y-54450526D01*
X72000500Y-52704790D01*
X89479497Y-52704790D01*
X89479497Y-52903209D01*
X89510533Y-53099162D01*
X89510534Y-53099168D01*
X89557137Y-53242596D01*
X89571847Y-53287868D01*
X89633018Y-53407922D01*
X89661920Y-53464646D01*
X89778541Y-53625161D01*
X89918836Y-53765456D01*
X90079351Y-53882077D01*
X90192797Y-53939880D01*
X90256128Y-53972149D01*
X90256130Y-53972149D01*
X90256133Y-53972151D01*
X90444829Y-54033463D01*
X90542811Y-54048981D01*
X90640788Y-54064500D01*
X90640793Y-54064500D01*
X90839206Y-54064500D01*
X90928275Y-54050392D01*
X91035165Y-54033463D01*
X91223861Y-53972151D01*
X91400643Y-53882077D01*
X91561158Y-53765456D01*
X91701453Y-53625161D01*
X91818074Y-53464646D01*
X91908148Y-53287864D01*
X91969460Y-53099168D01*
X91986389Y-52992278D01*
X92000497Y-52903209D01*
X92000497Y-52704790D01*
X91983567Y-52597906D01*
X91969460Y-52508832D01*
X91908148Y-52320136D01*
X91908146Y-52320133D01*
X91908146Y-52320131D01*
X91872667Y-52250500D01*
X91818074Y-52143354D01*
X91701453Y-51982839D01*
X91561158Y-51842544D01*
X91400643Y-51725923D01*
X91343919Y-51697021D01*
X91223865Y-51635850D01*
X91167131Y-51617416D01*
X91035165Y-51574537D01*
X91035159Y-51574536D01*
X90839206Y-51543500D01*
X90839201Y-51543500D01*
X90640793Y-51543500D01*
X90640788Y-51543500D01*
X90444834Y-51574536D01*
X90444832Y-51574536D01*
X90444829Y-51574537D01*
X90350481Y-51605193D01*
X90256128Y-51635850D01*
X90079349Y-51725924D01*
X90079346Y-51725926D01*
X89993252Y-51788477D01*
X89918836Y-51842544D01*
X89918834Y-51842546D01*
X89918833Y-51842546D01*
X89778543Y-51982836D01*
X89778543Y-51982837D01*
X89778541Y-51982839D01*
X89760849Y-52007190D01*
X89661923Y-52143349D01*
X89661921Y-52143352D01*
X89571847Y-52320131D01*
X89542010Y-52411961D01*
X89510534Y-52508832D01*
X89510533Y-52508835D01*
X89510533Y-52508837D01*
X89479497Y-52704790D01*
X72000500Y-52704790D01*
X72000500Y-50724000D01*
X92494500Y-50724000D01*
X92494500Y-52803405D01*
X92494500Y-54476000D01*
X92506053Y-54583456D01*
X92517259Y-54634967D01*
X92518255Y-54637958D01*
X92551387Y-54737504D01*
X92585767Y-54791000D01*
X92589722Y-54800040D01*
X92592942Y-54825303D01*
X92600118Y-54849740D01*
X92597558Y-54861506D01*
X92598558Y-54869349D01*
X92593576Y-54879810D01*
X92588912Y-54901252D01*
X92534664Y-55020034D01*
X92514976Y-55087082D01*
X92507964Y-55135851D01*
X92494500Y-55229500D01*
X92494500Y-56303962D01*
X92494500Y-57926000D01*
X92494501Y-57926009D01*
X92506052Y-58033450D01*
X92506054Y-58033462D01*
X92517260Y-58084972D01*
X92551383Y-58187497D01*
X92551386Y-58187503D01*
X92629171Y-58308537D01*
X92629179Y-58308548D01*
X92674923Y-58361340D01*
X92674926Y-58361343D01*
X92674930Y-58361347D01*
X92783664Y-58455567D01*
X92783667Y-58455568D01*
X92783668Y-58455569D01*
X92872429Y-58496106D01*
X92914541Y-58515338D01*
X92981580Y-58535023D01*
X92981584Y-58535024D01*
X93124000Y-58555500D01*
X94532288Y-58555500D01*
X94599327Y-58575185D01*
X94645082Y-58627989D01*
X94655026Y-58697147D01*
X94626001Y-58760703D01*
X94605176Y-58779815D01*
X94541119Y-58826355D01*
X94518834Y-58842547D01*
X94378544Y-58982837D01*
X94378544Y-58982838D01*
X94378542Y-58982840D01*
X94347860Y-59025070D01*
X94261924Y-59143350D01*
X94261922Y-59143353D01*
X94171848Y-59320132D01*
X94146151Y-59399219D01*
X94110535Y-59508833D01*
X94110534Y-59508836D01*
X94110534Y-59508838D01*
X94079498Y-59704791D01*
X94079498Y-59903210D01*
X94100617Y-60036547D01*
X94110535Y-60099169D01*
X94139275Y-60187620D01*
X94171848Y-60287869D01*
X94233019Y-60407923D01*
X94261921Y-60464647D01*
X94378542Y-60625162D01*
X94518837Y-60765457D01*
X94679352Y-60882078D01*
X94792798Y-60939881D01*
X94856129Y-60972150D01*
X94856131Y-60972150D01*
X94856134Y-60972152D01*
X95044830Y-61033464D01*
X95142812Y-61048982D01*
X95240789Y-61064501D01*
X95240794Y-61064501D01*
X95439207Y-61064501D01*
X95528276Y-61050393D01*
X95635166Y-61033464D01*
X95823862Y-60972152D01*
X96000644Y-60882078D01*
X96161159Y-60765457D01*
X96301454Y-60625162D01*
X96418075Y-60464647D01*
X96508149Y-60287865D01*
X96569461Y-60099169D01*
X96591057Y-59962817D01*
X96600498Y-59903210D01*
X96600498Y-59704791D01*
X96575575Y-59547439D01*
X96569461Y-59508833D01*
X96508149Y-59320137D01*
X96508147Y-59320134D01*
X96508147Y-59320132D01*
X96461032Y-59227664D01*
X96418075Y-59143355D01*
X96301454Y-58982840D01*
X96161159Y-58842545D01*
X96074821Y-58779816D01*
X96032157Y-58724488D01*
X96026178Y-58654875D01*
X96058784Y-58593080D01*
X96119623Y-58558722D01*
X96147708Y-58555500D01*
X97376699Y-58555500D01*
X97440163Y-58572971D01*
X107620679Y-64637958D01*
X108273831Y-65027070D01*
X108273832Y-65027071D01*
X108301986Y-65043843D01*
X108301986Y-65043844D01*
X113712206Y-68266954D01*
X113835686Y-68319752D01*
X113835689Y-68319753D01*
X113835692Y-68319754D01*
X113877632Y-68331398D01*
X113898606Y-68337222D01*
X114006148Y-68352114D01*
X114031626Y-68355643D01*
X125273239Y-68404948D01*
X125381830Y-68393634D01*
X125433885Y-68382429D01*
X125537504Y-68348067D01*
X125658543Y-68270279D01*
X125711347Y-68224524D01*
X125805567Y-68115790D01*
X125865338Y-67984913D01*
X125885023Y-67917874D01*
X125885024Y-67917870D01*
X125905500Y-67775454D01*
X125905500Y-61796354D01*
X125903483Y-61751237D01*
X125902411Y-61739270D01*
X125901509Y-61729201D01*
X125900410Y-61721057D01*
X125895466Y-61684405D01*
X125849989Y-61547901D01*
X125818696Y-61485431D01*
X125736609Y-61367274D01*
X125624553Y-61277025D01*
X125564454Y-61241389D01*
X125564452Y-61241388D01*
X125564423Y-61241375D01*
X125431513Y-61186365D01*
X125431506Y-61186363D01*
X118619215Y-59449657D01*
X118559116Y-59414021D01*
X118527823Y-59351551D01*
X118535273Y-59282079D01*
X118579099Y-59227664D01*
X118645387Y-59205580D01*
X118649847Y-59205500D01*
X125275990Y-59205500D01*
X125276000Y-59205500D01*
X125383456Y-59193947D01*
X125434967Y-59182741D01*
X125469197Y-59171347D01*
X125537497Y-59148616D01*
X125537501Y-59148613D01*
X125537504Y-59148613D01*
X125658543Y-59070825D01*
X125711347Y-59025070D01*
X125805567Y-58916336D01*
X125865338Y-58785459D01*
X125885023Y-58718420D01*
X125885024Y-58718416D01*
X125905500Y-58576000D01*
X125905500Y-50724000D01*
X125893947Y-50616544D01*
X125882741Y-50565033D01*
X125880625Y-50558675D01*
X125848616Y-50462502D01*
X125848613Y-50462496D01*
X125770828Y-50341462D01*
X125770825Y-50341457D01*
X125770820Y-50341451D01*
X125725076Y-50288659D01*
X125725072Y-50288656D01*
X125725070Y-50288653D01*
X125616336Y-50194433D01*
X125616333Y-50194431D01*
X125616331Y-50194430D01*
X125485465Y-50134664D01*
X125485460Y-50134662D01*
X125485459Y-50134662D01*
X125418420Y-50114977D01*
X125418422Y-50114977D01*
X125418417Y-50114976D01*
X125356347Y-50106052D01*
X125276000Y-50094500D01*
X93124000Y-50094500D01*
X93123991Y-50094500D01*
X93123990Y-50094501D01*
X93016549Y-50106052D01*
X93016537Y-50106054D01*
X92965027Y-50117260D01*
X92862502Y-50151383D01*
X92862496Y-50151386D01*
X92741462Y-50229171D01*
X92741451Y-50229179D01*
X92688659Y-50274923D01*
X92594433Y-50383664D01*
X92594430Y-50383668D01*
X92534664Y-50514534D01*
X92514976Y-50581582D01*
X92509949Y-50616549D01*
X92494500Y-50724000D01*
X72000500Y-50724000D01*
X72000500Y-48624361D01*
X72020185Y-48557322D01*
X72036814Y-48536684D01*
X72099464Y-48474035D01*
X72198013Y-48326547D01*
X72265894Y-48162666D01*
X72300500Y-47988691D01*
X72300500Y-47811309D01*
X72300500Y-47811306D01*
X72300499Y-47811304D01*
X72265896Y-47637341D01*
X72265893Y-47637332D01*
X72198016Y-47473459D01*
X72198009Y-47473446D01*
X72099464Y-47325965D01*
X72099461Y-47325961D01*
X71974038Y-47200538D01*
X71974034Y-47200535D01*
X71826553Y-47101990D01*
X71826540Y-47101983D01*
X71662667Y-47034106D01*
X71662658Y-47034103D01*
X71488694Y-46999500D01*
X71488691Y-46999500D01*
X71311309Y-46999500D01*
X71311306Y-46999500D01*
X71137341Y-47034103D01*
X71137332Y-47034106D01*
X70973459Y-47101983D01*
X70973446Y-47101990D01*
X70889283Y-47158227D01*
X70822605Y-47179105D01*
X70755225Y-47160620D01*
X70708535Y-47108642D01*
X70697359Y-47039672D01*
X70705831Y-47007673D01*
X70722100Y-46968395D01*
X70765894Y-46862666D01*
X70800500Y-46688691D01*
X70800500Y-46511309D01*
X70800500Y-46511306D01*
X70800499Y-46511304D01*
X70765896Y-46337341D01*
X70765893Y-46337332D01*
X70698016Y-46173459D01*
X70698009Y-46173446D01*
X70599464Y-46025965D01*
X70599461Y-46025961D01*
X70474038Y-45900538D01*
X70474034Y-45900535D01*
X70326553Y-45801990D01*
X70326540Y-45801983D01*
X70162667Y-45734106D01*
X70162658Y-45734103D01*
X69988694Y-45699500D01*
X69988691Y-45699500D01*
X69811309Y-45699500D01*
X69811306Y-45699500D01*
X69637341Y-45734103D01*
X69637332Y-45734106D01*
X69473459Y-45801983D01*
X69473446Y-45801990D01*
X69325965Y-45900535D01*
X69325961Y-45900538D01*
X69200538Y-46025961D01*
X69200535Y-46025965D01*
X69101990Y-46173446D01*
X69101983Y-46173459D01*
X69034106Y-46337332D01*
X69034103Y-46337341D01*
X68999500Y-46511304D01*
X48333355Y-46511304D01*
X48332298Y-42411304D01*
X59349500Y-42411304D01*
X59349500Y-42588695D01*
X59384103Y-42762658D01*
X59384106Y-42762667D01*
X59451983Y-42926540D01*
X59451990Y-42926553D01*
X59550535Y-43074034D01*
X59550538Y-43074038D01*
X59675961Y-43199461D01*
X59675965Y-43199464D01*
X59823446Y-43298009D01*
X59823459Y-43298016D01*
X59900106Y-43329763D01*
X59987334Y-43365894D01*
X60028493Y-43374081D01*
X60090403Y-43406465D01*
X60124977Y-43467181D01*
X60125918Y-43471506D01*
X60134104Y-43512660D01*
X60134107Y-43512670D01*
X60201983Y-43676540D01*
X60201990Y-43676553D01*
X60300535Y-43824034D01*
X60300538Y-43824038D01*
X60425961Y-43949461D01*
X60425965Y-43949464D01*
X60573446Y-44048009D01*
X60573459Y-44048016D01*
X60696363Y-44098923D01*
X60737334Y-44115894D01*
X60737336Y-44115894D01*
X60737341Y-44115896D01*
X60911304Y-44150499D01*
X60911307Y-44150500D01*
X60911309Y-44150500D01*
X61088693Y-44150500D01*
X61088694Y-44150499D01*
X61146682Y-44138964D01*
X61262658Y-44115896D01*
X61262661Y-44115894D01*
X61262666Y-44115894D01*
X61426547Y-44048013D01*
X61574035Y-43949464D01*
X61699464Y-43824035D01*
X61798013Y-43676547D01*
X61865894Y-43512666D01*
X61874082Y-43471506D01*
X61895583Y-43363408D01*
X61900500Y-43338691D01*
X61900500Y-43161309D01*
X61900500Y-43161306D01*
X61900499Y-43161304D01*
X61865896Y-42987341D01*
X61865893Y-42987332D01*
X61798016Y-42823459D01*
X61798009Y-42823446D01*
X61699464Y-42675965D01*
X61699461Y-42675961D01*
X61611181Y-42587681D01*
X61577696Y-42526358D01*
X61582680Y-42456666D01*
X61611181Y-42412319D01*
X61699461Y-42324038D01*
X61699464Y-42324035D01*
X61798013Y-42176547D01*
X61865894Y-42012666D01*
X61868414Y-42000000D01*
X61900499Y-41838695D01*
X61900500Y-41838693D01*
X61900500Y-41661306D01*
X61900499Y-41661304D01*
X61865896Y-41487341D01*
X61865893Y-41487332D01*
X61798016Y-41323459D01*
X61798009Y-41323446D01*
X61731633Y-41224108D01*
X61699464Y-41175965D01*
X61699461Y-41175961D01*
X61684804Y-41161304D01*
X63599500Y-41161304D01*
X63599500Y-41338695D01*
X63634103Y-41512658D01*
X63634106Y-41512667D01*
X63701983Y-41676540D01*
X63701990Y-41676553D01*
X63800535Y-41824034D01*
X63800538Y-41824038D01*
X63888819Y-41912319D01*
X63922304Y-41973642D01*
X63917320Y-42043334D01*
X63888819Y-42087681D01*
X63800538Y-42175961D01*
X63800535Y-42175965D01*
X63701990Y-42323446D01*
X63701983Y-42323459D01*
X63634106Y-42487332D01*
X63634103Y-42487341D01*
X63599500Y-42661304D01*
X63599500Y-42838695D01*
X63634103Y-43012658D01*
X63634106Y-43012667D01*
X63701983Y-43176540D01*
X63701990Y-43176553D01*
X63800535Y-43324034D01*
X63800538Y-43324038D01*
X63925961Y-43449461D01*
X63925965Y-43449464D01*
X64073446Y-43548009D01*
X64073459Y-43548016D01*
X64171659Y-43588691D01*
X64237334Y-43615894D01*
X64237336Y-43615894D01*
X64237341Y-43615896D01*
X64411304Y-43650499D01*
X64411307Y-43650500D01*
X64510031Y-43650500D01*
X64577070Y-43670185D01*
X64622825Y-43722989D01*
X64631649Y-43750312D01*
X64634105Y-43762663D01*
X64634106Y-43762667D01*
X64701983Y-43926540D01*
X64701990Y-43926553D01*
X64800535Y-44074034D01*
X64800538Y-44074038D01*
X64925961Y-44199461D01*
X64925965Y-44199464D01*
X65073446Y-44298009D01*
X65073459Y-44298016D01*
X65161539Y-44334499D01*
X65237334Y-44365894D01*
X65237336Y-44365894D01*
X65237341Y-44365896D01*
X65411304Y-44400499D01*
X65411307Y-44400500D01*
X65411309Y-44400500D01*
X65588693Y-44400500D01*
X65588694Y-44400499D01*
X65646682Y-44388964D01*
X65762658Y-44365896D01*
X65762661Y-44365894D01*
X65762666Y-44365894D01*
X65926547Y-44298013D01*
X66074035Y-44199464D01*
X66199464Y-44074035D01*
X66298013Y-43926547D01*
X66365894Y-43762666D01*
X66368352Y-43750312D01*
X66389085Y-43646079D01*
X66400500Y-43588691D01*
X66400500Y-43411309D01*
X66400500Y-43411306D01*
X66390972Y-43363409D01*
X66390972Y-43363408D01*
X66387371Y-43345304D01*
X76061500Y-43345304D01*
X76061500Y-43522695D01*
X76096103Y-43696658D01*
X76096106Y-43696667D01*
X76163983Y-43860540D01*
X76163990Y-43860553D01*
X76262535Y-44008034D01*
X76262538Y-44008038D01*
X76387961Y-44133461D01*
X76387965Y-44133464D01*
X76535446Y-44232009D01*
X76535459Y-44232016D01*
X76658363Y-44282923D01*
X76699334Y-44299894D01*
X76699336Y-44299894D01*
X76699341Y-44299896D01*
X76873304Y-44334499D01*
X76873307Y-44334500D01*
X76873309Y-44334500D01*
X77050693Y-44334500D01*
X77050694Y-44334499D01*
X77108682Y-44322964D01*
X77224658Y-44299896D01*
X77224661Y-44299894D01*
X77224666Y-44299894D01*
X77388547Y-44232013D01*
X77536035Y-44133464D01*
X77661464Y-44008035D01*
X77760013Y-43860547D01*
X77827894Y-43696666D01*
X77831898Y-43676540D01*
X77850964Y-43580682D01*
X77862500Y-43522691D01*
X77862500Y-43469452D01*
X77871144Y-43440011D01*
X77877390Y-43411304D01*
X78855500Y-43411304D01*
X78855500Y-43588695D01*
X78890103Y-43762658D01*
X78890106Y-43762667D01*
X78957983Y-43926540D01*
X78957990Y-43926553D01*
X79056535Y-44074034D01*
X79056538Y-44074038D01*
X79181961Y-44199461D01*
X79181965Y-44199464D01*
X79329446Y-44298009D01*
X79329459Y-44298016D01*
X79417539Y-44334499D01*
X79493334Y-44365894D01*
X79493336Y-44365894D01*
X79493341Y-44365896D01*
X79667304Y-44400499D01*
X79667307Y-44400500D01*
X79667309Y-44400500D01*
X79844693Y-44400500D01*
X79844694Y-44400499D01*
X79902682Y-44388964D01*
X80018658Y-44365896D01*
X80018661Y-44365894D01*
X80018666Y-44365894D01*
X80182547Y-44298013D01*
X80330035Y-44199464D01*
X80455464Y-44074035D01*
X80554013Y-43926547D01*
X80621894Y-43762666D01*
X80624352Y-43750312D01*
X80645085Y-43646079D01*
X80656500Y-43588691D01*
X80656500Y-43469452D01*
X80676185Y-43402413D01*
X80692819Y-43381771D01*
X83788772Y-40285819D01*
X83850095Y-40252334D01*
X83876453Y-40249500D01*
X86840206Y-40249500D01*
X86907245Y-40269185D01*
X86953000Y-40321989D01*
X86954762Y-40326034D01*
X86957784Y-40333329D01*
X87056930Y-40481673D01*
X87056931Y-40481674D01*
X87056932Y-40481675D01*
X87183116Y-40607824D01*
X87331488Y-40706932D01*
X87496343Y-40775187D01*
X87496346Y-40775187D01*
X87496347Y-40775188D01*
X87555284Y-40786900D01*
X87671348Y-40809967D01*
X87760562Y-40809951D01*
X87800000Y-40809951D01*
X87861606Y-40809951D01*
X87861729Y-40809926D01*
X87867920Y-40809925D01*
X87867924Y-40809926D01*
X87867950Y-40809925D01*
X87889199Y-40809925D01*
X87889201Y-40809925D01*
X88064175Y-40775123D01*
X88228998Y-40706855D01*
X88377337Y-40607746D01*
X88503492Y-40481602D01*
X88602615Y-40333273D01*
X88605613Y-40326037D01*
X88649459Y-40271637D01*
X88715756Y-40249579D01*
X88720170Y-40249500D01*
X103937607Y-40249500D01*
X103998029Y-40237481D01*
X104058452Y-40225463D01*
X104118689Y-40200512D01*
X104172286Y-40178312D01*
X104225700Y-40142621D01*
X104274733Y-40109858D01*
X104361858Y-40022733D01*
X104361859Y-40022731D01*
X104368925Y-40015665D01*
X104368928Y-40015661D01*
X108633167Y-35751421D01*
X117191353Y-35751421D01*
X117191353Y-36032284D01*
X117222795Y-36311347D01*
X117222798Y-36311365D01*
X117285292Y-36585170D01*
X117285296Y-36585182D01*
X117378053Y-36850264D01*
X117499906Y-37103295D01*
X117499908Y-37103298D01*
X117649330Y-37341101D01*
X117824437Y-37560678D01*
X118023028Y-37759269D01*
X118242605Y-37934376D01*
X118480408Y-38083798D01*
X118733445Y-38205654D01*
X118871093Y-38253819D01*
X118998523Y-38298409D01*
X118998535Y-38298413D01*
X119272344Y-38360908D01*
X119272350Y-38360908D01*
X119272358Y-38360910D01*
X119458400Y-38381871D01*
X119551422Y-38392352D01*
X119551425Y-38392353D01*
X119551428Y-38392353D01*
X119832281Y-38392353D01*
X119832282Y-38392352D01*
X119974908Y-38376282D01*
X120111347Y-38360910D01*
X120111352Y-38360909D01*
X120111362Y-38360908D01*
X120385171Y-38298413D01*
X120650261Y-38205654D01*
X120772083Y-38146987D01*
X120841022Y-38135636D01*
X120905157Y-38163358D01*
X120944123Y-38221353D01*
X120945548Y-38291208D01*
X120913564Y-38346389D01*
X120152631Y-39107323D01*
X120152625Y-39107330D01*
X120115003Y-39154015D01*
X120115001Y-39154017D01*
X120055216Y-39284927D01*
X120055215Y-39284931D01*
X120034735Y-39427387D01*
X120055215Y-39569842D01*
X120055216Y-39569846D01*
X120115002Y-39700757D01*
X120115003Y-39700758D01*
X120115004Y-39700760D01*
X120152623Y-39747443D01*
X120152626Y-39747446D01*
X120152631Y-39747452D01*
X122229215Y-41824034D01*
X122907331Y-42502150D01*
X122954014Y-42539770D01*
X122954015Y-42539770D01*
X122954017Y-42539772D01*
X123084927Y-42599557D01*
X123084928Y-42599557D01*
X123084930Y-42599558D01*
X123227387Y-42620039D01*
X123369844Y-42599558D01*
X123500760Y-42539770D01*
X123547443Y-42502151D01*
X126302150Y-39747443D01*
X126339770Y-39700760D01*
X126399558Y-39569844D01*
X126420039Y-39427387D01*
X126399558Y-39284930D01*
X126361082Y-39200681D01*
X126339771Y-39154016D01*
X126339770Y-39154015D01*
X126339770Y-39154014D01*
X126302151Y-39107331D01*
X126302146Y-39107326D01*
X126302142Y-39107321D01*
X123547450Y-36352631D01*
X123547443Y-36352624D01*
X123500760Y-36315004D01*
X123500758Y-36315003D01*
X123500756Y-36315001D01*
X123369846Y-36255216D01*
X123369842Y-36255215D01*
X123227387Y-36234735D01*
X123084931Y-36255215D01*
X123084927Y-36255216D01*
X122954016Y-36315002D01*
X122907321Y-36352631D01*
X122146390Y-37113563D01*
X122085067Y-37147048D01*
X122015375Y-37142064D01*
X121959442Y-37100192D01*
X121935025Y-37034728D01*
X121946989Y-36972080D01*
X121951041Y-36963666D01*
X122005654Y-36850261D01*
X122098413Y-36585171D01*
X122160908Y-36311362D01*
X122192353Y-36032278D01*
X122192353Y-35751428D01*
X122160908Y-35472344D01*
X122098413Y-35198535D01*
X122089587Y-35173313D01*
X122059740Y-35088013D01*
X122005654Y-34933445D01*
X121924416Y-34764753D01*
X121883799Y-34680410D01*
X121813398Y-34568368D01*
X121734376Y-34442605D01*
X121559269Y-34223028D01*
X121360678Y-34024437D01*
X121141101Y-33849330D01*
X120976857Y-33746128D01*
X120903295Y-33699906D01*
X120650264Y-33578053D01*
X120385182Y-33485296D01*
X120385170Y-33485292D01*
X120111365Y-33422798D01*
X120111347Y-33422795D01*
X119832284Y-33391353D01*
X119832278Y-33391353D01*
X119551428Y-33391353D01*
X119551421Y-33391353D01*
X119272358Y-33422795D01*
X119272340Y-33422798D01*
X118998535Y-33485292D01*
X118998523Y-33485296D01*
X118733441Y-33578053D01*
X118480410Y-33699906D01*
X118242606Y-33849329D01*
X118023028Y-34024436D01*
X117824436Y-34223028D01*
X117649329Y-34442606D01*
X117499906Y-34680410D01*
X117378053Y-34933441D01*
X117285296Y-35198523D01*
X117285292Y-35198535D01*
X117222798Y-35472340D01*
X117222795Y-35472358D01*
X117191353Y-35751421D01*
X108633167Y-35751421D01*
X109211278Y-35173310D01*
X109251500Y-35146434D01*
X109392547Y-35088013D01*
X109540035Y-34989464D01*
X109665464Y-34864035D01*
X109764013Y-34716547D01*
X109831894Y-34552666D01*
X109866500Y-34378691D01*
X109866500Y-34201309D01*
X109866500Y-34201306D01*
X109866499Y-34201304D01*
X109831896Y-34027341D01*
X109831893Y-34027332D01*
X109830693Y-34024436D01*
X109814923Y-33986363D01*
X109764016Y-33863459D01*
X109764009Y-33863446D01*
X109665464Y-33715965D01*
X109665461Y-33715961D01*
X109540038Y-33590538D01*
X109540034Y-33590535D01*
X109392553Y-33491990D01*
X109392540Y-33491983D01*
X109228667Y-33424106D01*
X109228658Y-33424103D01*
X109054694Y-33389500D01*
X109054691Y-33389500D01*
X108877309Y-33389500D01*
X108877306Y-33389500D01*
X108703341Y-33424103D01*
X108703332Y-33424106D01*
X108539459Y-33491983D01*
X108539446Y-33491990D01*
X108391965Y-33590535D01*
X108391961Y-33590538D01*
X108266538Y-33715961D01*
X108266535Y-33715965D01*
X108167990Y-33863446D01*
X108167983Y-33863459D01*
X108100106Y-34027332D01*
X108100103Y-34027341D01*
X108065500Y-34201304D01*
X108065500Y-34201309D01*
X108065500Y-34378691D01*
X108065500Y-34378693D01*
X108065499Y-34378693D01*
X108080976Y-34456495D01*
X108074749Y-34526087D01*
X108047040Y-34568368D01*
X103653229Y-38962181D01*
X103591906Y-38995666D01*
X103565548Y-38998500D01*
X88293005Y-38998500D01*
X88292710Y-38998514D01*
X88271347Y-38998510D01*
X88096334Y-39033296D01*
X87931479Y-39101560D01*
X87849104Y-39156592D01*
X87782425Y-39177464D01*
X87715046Y-39158974D01*
X87711327Y-39156583D01*
X87629032Y-39101590D01*
X87629031Y-39101589D01*
X87464202Y-39033311D01*
X87464192Y-39033308D01*
X87318110Y-39004250D01*
X87289209Y-38998501D01*
X87289207Y-38998500D01*
X87289206Y-38998500D01*
X87261609Y-38998500D01*
X87261606Y-38998500D01*
X83633741Y-38998500D01*
X83633721Y-38998499D01*
X83627607Y-38998499D01*
X83504394Y-38998499D01*
X83403597Y-39018548D01*
X83403592Y-39018548D01*
X83383553Y-39022535D01*
X83383550Y-39022536D01*
X83353718Y-39034893D01*
X83269711Y-39069689D01*
X83167267Y-39138141D01*
X83167263Y-39138144D01*
X79741500Y-42563909D01*
X79680177Y-42597394D01*
X79669195Y-42599124D01*
X79493341Y-42634103D01*
X79493332Y-42634106D01*
X79329459Y-42701983D01*
X79329446Y-42701990D01*
X79181965Y-42800535D01*
X79181961Y-42800538D01*
X79056538Y-42925961D01*
X79056535Y-42925965D01*
X78957990Y-43073446D01*
X78957983Y-43073459D01*
X78890106Y-43237332D01*
X78890103Y-43237341D01*
X78855500Y-43411304D01*
X77877390Y-43411304D01*
X77877668Y-43410025D01*
X77881422Y-43405009D01*
X77882185Y-43402413D01*
X77898819Y-43381771D01*
X77963054Y-43317536D01*
X80470624Y-40809967D01*
X83026772Y-38253819D01*
X83088095Y-38220334D01*
X83114453Y-38217500D01*
X101661608Y-38217500D01*
X101661608Y-38217499D01*
X101726214Y-38204649D01*
X101782452Y-38193463D01*
X101815792Y-38179652D01*
X101896286Y-38146312D01*
X101947509Y-38112084D01*
X101998733Y-38077858D01*
X102085858Y-37990733D01*
X102085858Y-37990731D01*
X102096066Y-37980524D01*
X102096067Y-37980521D01*
X106373772Y-33702819D01*
X106435095Y-33669334D01*
X106461453Y-33666500D01*
X106514693Y-33666500D01*
X106514694Y-33666499D01*
X106572682Y-33654964D01*
X106688658Y-33631896D01*
X106688661Y-33631894D01*
X106688666Y-33631894D01*
X106852547Y-33564013D01*
X107000035Y-33465464D01*
X107125464Y-33340035D01*
X107224013Y-33192547D01*
X107291894Y-33028666D01*
X107326500Y-32854691D01*
X107326500Y-32677309D01*
X107326500Y-32677306D01*
X107326499Y-32677304D01*
X107291896Y-32503341D01*
X107291893Y-32503332D01*
X107224016Y-32339459D01*
X107224009Y-32339446D01*
X107125464Y-32191965D01*
X107125461Y-32191961D01*
X107000038Y-32066538D01*
X107000034Y-32066535D01*
X106852553Y-31967990D01*
X106852540Y-31967983D01*
X106688667Y-31900106D01*
X106688658Y-31900103D01*
X106514694Y-31865500D01*
X106514691Y-31865500D01*
X106337309Y-31865500D01*
X106337306Y-31865500D01*
X106163341Y-31900103D01*
X106163332Y-31900106D01*
X105999459Y-31967983D01*
X105999446Y-31967990D01*
X105851965Y-32066535D01*
X105851961Y-32066538D01*
X105726538Y-32191961D01*
X105726535Y-32191965D01*
X105627990Y-32339446D01*
X105627983Y-32339459D01*
X105560106Y-32503332D01*
X105560103Y-32503341D01*
X105525500Y-32677304D01*
X105525500Y-32730547D01*
X105505815Y-32797586D01*
X105489181Y-32818228D01*
X101377229Y-36930181D01*
X101315906Y-36963666D01*
X101289548Y-36966500D01*
X82871741Y-36966500D01*
X82871721Y-36966499D01*
X82865607Y-36966499D01*
X82742394Y-36966499D01*
X82641597Y-36986548D01*
X82641592Y-36986548D01*
X82621549Y-36990536D01*
X82621547Y-36990536D01*
X82574397Y-37010067D01*
X82507719Y-37037685D01*
X82507717Y-37037686D01*
X82405266Y-37106141D01*
X82405263Y-37106144D01*
X77014229Y-42497181D01*
X76952906Y-42530666D01*
X76926548Y-42533500D01*
X76873306Y-42533500D01*
X76699341Y-42568103D01*
X76699332Y-42568106D01*
X76535459Y-42635983D01*
X76535446Y-42635990D01*
X76387965Y-42734535D01*
X76387961Y-42734538D01*
X76262538Y-42859961D01*
X76262535Y-42859965D01*
X76163990Y-43007446D01*
X76163983Y-43007459D01*
X76096106Y-43171332D01*
X76096103Y-43171341D01*
X76061500Y-43345304D01*
X66387371Y-43345304D01*
X66365896Y-43237341D01*
X66365893Y-43237332D01*
X66298016Y-43073459D01*
X66298009Y-43073446D01*
X66199464Y-42925965D01*
X66199461Y-42925961D01*
X66111181Y-42837681D01*
X66077696Y-42776358D01*
X66082680Y-42706666D01*
X66111181Y-42662319D01*
X66199461Y-42574038D01*
X66199464Y-42574035D01*
X66298013Y-42426547D01*
X66365894Y-42262666D01*
X66370932Y-42237341D01*
X66400499Y-42088695D01*
X66400500Y-42088693D01*
X66400500Y-41911306D01*
X66400499Y-41911304D01*
X66365896Y-41737341D01*
X66365893Y-41737332D01*
X66298016Y-41573459D01*
X66298009Y-41573446D01*
X66199464Y-41425965D01*
X66199461Y-41425961D01*
X66074038Y-41300538D01*
X66074034Y-41300535D01*
X65926553Y-41201990D01*
X65926540Y-41201983D01*
X65762667Y-41134106D01*
X65762658Y-41134103D01*
X65588694Y-41099500D01*
X65588691Y-41099500D01*
X65489969Y-41099500D01*
X65422930Y-41079815D01*
X65377175Y-41027011D01*
X65368352Y-40999695D01*
X65365894Y-40987334D01*
X65308802Y-40849500D01*
X65298016Y-40823459D01*
X65298009Y-40823446D01*
X65199464Y-40675965D01*
X65199461Y-40675961D01*
X65074038Y-40550538D01*
X65074034Y-40550535D01*
X64926553Y-40451990D01*
X64926540Y-40451983D01*
X64762667Y-40384106D01*
X64762658Y-40384103D01*
X64588694Y-40349500D01*
X64588691Y-40349500D01*
X64411309Y-40349500D01*
X64411306Y-40349500D01*
X64237341Y-40384103D01*
X64237332Y-40384106D01*
X64073459Y-40451983D01*
X64073446Y-40451990D01*
X63925965Y-40550535D01*
X63925961Y-40550538D01*
X63800538Y-40675961D01*
X63800535Y-40675965D01*
X63701990Y-40823446D01*
X63701983Y-40823459D01*
X63634106Y-40987332D01*
X63634103Y-40987341D01*
X63599500Y-41161304D01*
X61684804Y-41161304D01*
X61574038Y-41050538D01*
X61574034Y-41050535D01*
X61426553Y-40951990D01*
X61426540Y-40951983D01*
X61262667Y-40884106D01*
X61262658Y-40884103D01*
X61088694Y-40849500D01*
X61088691Y-40849500D01*
X60911309Y-40849500D01*
X60911306Y-40849500D01*
X60737341Y-40884103D01*
X60737332Y-40884106D01*
X60573459Y-40951983D01*
X60573446Y-40951990D01*
X60425965Y-41050535D01*
X60425961Y-41050538D01*
X60300538Y-41175961D01*
X60300535Y-41175965D01*
X60201990Y-41323446D01*
X60201983Y-41323459D01*
X60134106Y-41487331D01*
X60134104Y-41487339D01*
X60125918Y-41528493D01*
X60093532Y-41590404D01*
X60032816Y-41624978D01*
X60028493Y-41625918D01*
X59987339Y-41634104D01*
X59987331Y-41634106D01*
X59823459Y-41701983D01*
X59823446Y-41701990D01*
X59675965Y-41800535D01*
X59675961Y-41800538D01*
X59550538Y-41925961D01*
X59550535Y-41925965D01*
X59451990Y-42073446D01*
X59451983Y-42073459D01*
X59384106Y-42237332D01*
X59384103Y-42237341D01*
X59349500Y-42411304D01*
X48332298Y-42411304D01*
X48331410Y-38967716D01*
X51091353Y-38967716D01*
X51091353Y-39248579D01*
X51122795Y-39527642D01*
X51122798Y-39527660D01*
X51185292Y-39801465D01*
X51185296Y-39801477D01*
X51278053Y-40066559D01*
X51399906Y-40319590D01*
X51418700Y-40349500D01*
X51549330Y-40557396D01*
X51589483Y-40607746D01*
X51723013Y-40775188D01*
X51724437Y-40776973D01*
X51923028Y-40975564D01*
X52142605Y-41150671D01*
X52380408Y-41300093D01*
X52633445Y-41421949D01*
X52820296Y-41487331D01*
X52898523Y-41514704D01*
X52898535Y-41514708D01*
X53172344Y-41577203D01*
X53172350Y-41577203D01*
X53172358Y-41577205D01*
X53358400Y-41598166D01*
X53451422Y-41608647D01*
X53451425Y-41608648D01*
X53451428Y-41608648D01*
X53732281Y-41608648D01*
X53732282Y-41608647D01*
X53894199Y-41590404D01*
X54011347Y-41577205D01*
X54011352Y-41577204D01*
X54011362Y-41577203D01*
X54285171Y-41514708D01*
X54550261Y-41421949D01*
X54803298Y-41300093D01*
X55041101Y-41150671D01*
X55260678Y-40975564D01*
X55459269Y-40776973D01*
X55634376Y-40557396D01*
X55783798Y-40319593D01*
X55905654Y-40066556D01*
X55998413Y-39801466D01*
X56060908Y-39527657D01*
X56092353Y-39248573D01*
X56092353Y-38967723D01*
X56060908Y-38688639D01*
X55998413Y-38414830D01*
X55905654Y-38149740D01*
X55846987Y-38027918D01*
X55835636Y-37958978D01*
X55863358Y-37894843D01*
X55921353Y-37855877D01*
X55991208Y-37854452D01*
X56046389Y-37886436D01*
X56451162Y-38291208D01*
X56807331Y-38647377D01*
X56854014Y-38684997D01*
X56854015Y-38684997D01*
X56854017Y-38684999D01*
X56984927Y-38744784D01*
X56984928Y-38744784D01*
X56984930Y-38744785D01*
X57127387Y-38765266D01*
X57269844Y-38744785D01*
X57400760Y-38684997D01*
X57447443Y-38647378D01*
X60202150Y-35892670D01*
X60239770Y-35845987D01*
X60299558Y-35715071D01*
X60320039Y-35572614D01*
X60299558Y-35430157D01*
X60239770Y-35299241D01*
X60202151Y-35252558D01*
X60202146Y-35252553D01*
X60202142Y-35252548D01*
X57447450Y-32497858D01*
X57447443Y-32497851D01*
X57400760Y-32460231D01*
X57400758Y-32460230D01*
X57400756Y-32460228D01*
X57269846Y-32400443D01*
X57269842Y-32400442D01*
X57127387Y-32379962D01*
X56984931Y-32400442D01*
X56984927Y-32400443D01*
X56854016Y-32460229D01*
X56807321Y-32497858D01*
X54052631Y-35252550D01*
X54052625Y-35252557D01*
X54015003Y-35299242D01*
X54015001Y-35299244D01*
X53955216Y-35430154D01*
X53955215Y-35430158D01*
X53934735Y-35572614D01*
X53955215Y-35715069D01*
X53955216Y-35715073D01*
X54015002Y-35845984D01*
X54015003Y-35845985D01*
X54015004Y-35845987D01*
X54052623Y-35892670D01*
X54052626Y-35892673D01*
X54052631Y-35892679D01*
X54813563Y-36653610D01*
X54847048Y-36714933D01*
X54842064Y-36784624D01*
X54800192Y-36840558D01*
X54734728Y-36864975D01*
X54672081Y-36853011D01*
X54550272Y-36794351D01*
X54550264Y-36794348D01*
X54285182Y-36701591D01*
X54285170Y-36701587D01*
X54011365Y-36639093D01*
X54011347Y-36639090D01*
X53732284Y-36607648D01*
X53732278Y-36607648D01*
X53451428Y-36607648D01*
X53451421Y-36607648D01*
X53172358Y-36639090D01*
X53172340Y-36639093D01*
X52898535Y-36701587D01*
X52898523Y-36701591D01*
X52633441Y-36794348D01*
X52380410Y-36916201D01*
X52142606Y-37065624D01*
X51923028Y-37240731D01*
X51724436Y-37439323D01*
X51549329Y-37658901D01*
X51399906Y-37896705D01*
X51278053Y-38149736D01*
X51185296Y-38414818D01*
X51185292Y-38414830D01*
X51122798Y-38688635D01*
X51122795Y-38688653D01*
X51091353Y-38967716D01*
X48331410Y-38967716D01*
X48328927Y-29331279D01*
X48329058Y-29325586D01*
X48331225Y-29278711D01*
X50496500Y-29278711D01*
X50496500Y-29521288D01*
X50528161Y-29761785D01*
X50590947Y-29996104D01*
X50683773Y-30220205D01*
X50683776Y-30220212D01*
X50805064Y-30430289D01*
X50805066Y-30430292D01*
X50805067Y-30430293D01*
X50952733Y-30622736D01*
X50952739Y-30622743D01*
X51124256Y-30794260D01*
X51124262Y-30794265D01*
X51316711Y-30941936D01*
X51526788Y-31063224D01*
X51750900Y-31156054D01*
X51985211Y-31218838D01*
X52165586Y-31242584D01*
X52225711Y-31250500D01*
X52225712Y-31250500D01*
X52468289Y-31250500D01*
X52516388Y-31244167D01*
X52708789Y-31218838D01*
X52943100Y-31156054D01*
X53167212Y-31063224D01*
X53377289Y-30941936D01*
X53569738Y-30794265D01*
X53741265Y-30622738D01*
X53888936Y-30430289D01*
X54010224Y-30220212D01*
X54103054Y-29996100D01*
X54139638Y-29859568D01*
X71999500Y-29859568D01*
X71999500Y-30140431D01*
X72030942Y-30419494D01*
X72030945Y-30419512D01*
X72093439Y-30693317D01*
X72093443Y-30693329D01*
X72186200Y-30958411D01*
X72308053Y-31211442D01*
X72308055Y-31211445D01*
X72457477Y-31449248D01*
X72632584Y-31668825D01*
X72831175Y-31867416D01*
X73050752Y-32042523D01*
X73288555Y-32191945D01*
X73288557Y-32191946D01*
X73372900Y-32232563D01*
X73541592Y-32313801D01*
X73730669Y-32379962D01*
X73806670Y-32406556D01*
X73806682Y-32406560D01*
X74080491Y-32469055D01*
X74080497Y-32469055D01*
X74080505Y-32469057D01*
X74266547Y-32490018D01*
X74359569Y-32500499D01*
X74359572Y-32500500D01*
X74359575Y-32500500D01*
X74640428Y-32500500D01*
X74640429Y-32500499D01*
X74783055Y-32484429D01*
X74919494Y-32469057D01*
X74919499Y-32469056D01*
X74919509Y-32469055D01*
X75193318Y-32406560D01*
X75458408Y-32313801D01*
X75711445Y-32191945D01*
X75949248Y-32042523D01*
X76168825Y-31867416D01*
X76367416Y-31668825D01*
X76542523Y-31449248D01*
X76691945Y-31211445D01*
X76813801Y-30958408D01*
X76858460Y-30830778D01*
X76899180Y-30774006D01*
X76964132Y-30748258D01*
X77032694Y-30761714D01*
X77083097Y-30810101D01*
X77099500Y-30871736D01*
X77099500Y-31947870D01*
X77099501Y-31947876D01*
X77105908Y-32007483D01*
X77156202Y-32142328D01*
X77156206Y-32142335D01*
X77242452Y-32257544D01*
X77242455Y-32257547D01*
X77357664Y-32343793D01*
X77357671Y-32343797D01*
X77492517Y-32394091D01*
X77492516Y-32394091D01*
X77499444Y-32394835D01*
X77552127Y-32400500D01*
X81447872Y-32400499D01*
X81507483Y-32394091D01*
X81642331Y-32343796D01*
X81757546Y-32257546D01*
X81843796Y-32142331D01*
X81894091Y-32007483D01*
X81900500Y-31947873D01*
X81900499Y-29859568D01*
X90499500Y-29859568D01*
X90499500Y-30140431D01*
X90530942Y-30419494D01*
X90530945Y-30419512D01*
X90593439Y-30693317D01*
X90593443Y-30693329D01*
X90686200Y-30958411D01*
X90808053Y-31211442D01*
X90808055Y-31211445D01*
X90957477Y-31449248D01*
X91132584Y-31668825D01*
X91331175Y-31867416D01*
X91550752Y-32042523D01*
X91788555Y-32191945D01*
X91788557Y-32191946D01*
X91872900Y-32232563D01*
X92041592Y-32313801D01*
X92230669Y-32379962D01*
X92306670Y-32406556D01*
X92306682Y-32406560D01*
X92580491Y-32469055D01*
X92580497Y-32469055D01*
X92580505Y-32469057D01*
X92766547Y-32490018D01*
X92859569Y-32500499D01*
X92859572Y-32500500D01*
X92859575Y-32500500D01*
X93140428Y-32500500D01*
X93140429Y-32500499D01*
X93283055Y-32484429D01*
X93419494Y-32469057D01*
X93419499Y-32469056D01*
X93419509Y-32469055D01*
X93693318Y-32406560D01*
X93958408Y-32313801D01*
X94211445Y-32191945D01*
X94449248Y-32042523D01*
X94668825Y-31867416D01*
X94867416Y-31668825D01*
X95042523Y-31449248D01*
X95191945Y-31211445D01*
X95313801Y-30958408D01*
X95358460Y-30830778D01*
X95399180Y-30774006D01*
X95464132Y-30748258D01*
X95532694Y-30761714D01*
X95583097Y-30810101D01*
X95599500Y-30871736D01*
X95599500Y-31947870D01*
X95599501Y-31947876D01*
X95605908Y-32007483D01*
X95656202Y-32142328D01*
X95656206Y-32142335D01*
X95742452Y-32257544D01*
X95742455Y-32257547D01*
X95857664Y-32343793D01*
X95857671Y-32343797D01*
X95992517Y-32394091D01*
X95992516Y-32394091D01*
X95999444Y-32394835D01*
X96052127Y-32400500D01*
X99947872Y-32400499D01*
X100007483Y-32394091D01*
X100142331Y-32343796D01*
X100257546Y-32257546D01*
X100343796Y-32142331D01*
X100394091Y-32007483D01*
X100400500Y-31947873D01*
X100400499Y-29278711D01*
X122496500Y-29278711D01*
X122496500Y-29521288D01*
X122528161Y-29761785D01*
X122590947Y-29996104D01*
X122683773Y-30220205D01*
X122683776Y-30220212D01*
X122805064Y-30430289D01*
X122805066Y-30430292D01*
X122805067Y-30430293D01*
X122952733Y-30622736D01*
X122952739Y-30622743D01*
X123124256Y-30794260D01*
X123124262Y-30794265D01*
X123316711Y-30941936D01*
X123526788Y-31063224D01*
X123750900Y-31156054D01*
X123985211Y-31218838D01*
X124165586Y-31242584D01*
X124225711Y-31250500D01*
X124225712Y-31250500D01*
X124468289Y-31250500D01*
X124516388Y-31244167D01*
X124708789Y-31218838D01*
X124943100Y-31156054D01*
X125167212Y-31063224D01*
X125377289Y-30941936D01*
X125569738Y-30794265D01*
X125741265Y-30622738D01*
X125888936Y-30430289D01*
X126010224Y-30220212D01*
X126103054Y-29996100D01*
X126165838Y-29761789D01*
X126197500Y-29521288D01*
X126197500Y-29278712D01*
X126165838Y-29038211D01*
X126103054Y-28803900D01*
X126010224Y-28579788D01*
X125888936Y-28369711D01*
X125741265Y-28177262D01*
X125741260Y-28177256D01*
X125569743Y-28005739D01*
X125569736Y-28005733D01*
X125377293Y-27858067D01*
X125377292Y-27858066D01*
X125377289Y-27858064D01*
X125205661Y-27758974D01*
X125167214Y-27736777D01*
X125167205Y-27736773D01*
X124943104Y-27643947D01*
X124801145Y-27605909D01*
X124708789Y-27581162D01*
X124708788Y-27581161D01*
X124708785Y-27581161D01*
X124468289Y-27549500D01*
X124468288Y-27549500D01*
X124225712Y-27549500D01*
X124225711Y-27549500D01*
X123985214Y-27581161D01*
X123750895Y-27643947D01*
X123526794Y-27736773D01*
X123526785Y-27736777D01*
X123316706Y-27858067D01*
X123124263Y-28005733D01*
X123124256Y-28005739D01*
X122952739Y-28177256D01*
X122952733Y-28177263D01*
X122805067Y-28369706D01*
X122683777Y-28579785D01*
X122683773Y-28579794D01*
X122590947Y-28803895D01*
X122528161Y-29038214D01*
X122496500Y-29278711D01*
X100400499Y-29278711D01*
X100400499Y-28052128D01*
X100394091Y-27992517D01*
X100367244Y-27920537D01*
X100343797Y-27857671D01*
X100343793Y-27857664D01*
X100257547Y-27742455D01*
X100257544Y-27742452D01*
X100142335Y-27656206D01*
X100142328Y-27656202D01*
X100007482Y-27605908D01*
X100007483Y-27605908D01*
X99947883Y-27599501D01*
X99947881Y-27599500D01*
X99947873Y-27599500D01*
X99947864Y-27599500D01*
X96052129Y-27599500D01*
X96052123Y-27599501D01*
X95992516Y-27605908D01*
X95857671Y-27656202D01*
X95857664Y-27656206D01*
X95742455Y-27742452D01*
X95742452Y-27742455D01*
X95656206Y-27857664D01*
X95656202Y-27857671D01*
X95605908Y-27992517D01*
X95604487Y-28005739D01*
X95599501Y-28052123D01*
X95599500Y-28052135D01*
X95599500Y-29128262D01*
X95579815Y-29195301D01*
X95527011Y-29241056D01*
X95457853Y-29251000D01*
X95394297Y-29221975D01*
X95358459Y-29169217D01*
X95321357Y-29063186D01*
X95313801Y-29041592D01*
X95191945Y-28788555D01*
X95042523Y-28550752D01*
X94867416Y-28331175D01*
X94668825Y-28132584D01*
X94449248Y-27957477D01*
X94211445Y-27808055D01*
X94211442Y-27808053D01*
X93958411Y-27686200D01*
X93693329Y-27593443D01*
X93693317Y-27593439D01*
X93419512Y-27530945D01*
X93419494Y-27530942D01*
X93140431Y-27499500D01*
X93140425Y-27499500D01*
X92859575Y-27499500D01*
X92859568Y-27499500D01*
X92580505Y-27530942D01*
X92580487Y-27530945D01*
X92306682Y-27593439D01*
X92306670Y-27593443D01*
X92041588Y-27686200D01*
X91788557Y-27808053D01*
X91550753Y-27957476D01*
X91331175Y-28132583D01*
X91132583Y-28331175D01*
X90957476Y-28550753D01*
X90808053Y-28788557D01*
X90686200Y-29041588D01*
X90593443Y-29306670D01*
X90593439Y-29306682D01*
X90530945Y-29580487D01*
X90530942Y-29580505D01*
X90499500Y-29859568D01*
X81900499Y-29859568D01*
X81900499Y-28052128D01*
X81894091Y-27992517D01*
X81867244Y-27920537D01*
X81843797Y-27857671D01*
X81843793Y-27857664D01*
X81757547Y-27742455D01*
X81757544Y-27742452D01*
X81642335Y-27656206D01*
X81642328Y-27656202D01*
X81507482Y-27605908D01*
X81507483Y-27605908D01*
X81447883Y-27599501D01*
X81447881Y-27599500D01*
X81447873Y-27599500D01*
X81447864Y-27599500D01*
X77552129Y-27599500D01*
X77552123Y-27599501D01*
X77492516Y-27605908D01*
X77357671Y-27656202D01*
X77357664Y-27656206D01*
X77242455Y-27742452D01*
X77242452Y-27742455D01*
X77156206Y-27857664D01*
X77156202Y-27857671D01*
X77105908Y-27992517D01*
X77104487Y-28005739D01*
X77099501Y-28052123D01*
X77099500Y-28052135D01*
X77099500Y-29128262D01*
X77079815Y-29195301D01*
X77027011Y-29241056D01*
X76957853Y-29251000D01*
X76894297Y-29221975D01*
X76858459Y-29169217D01*
X76821357Y-29063186D01*
X76813801Y-29041592D01*
X76691945Y-28788555D01*
X76542523Y-28550752D01*
X76367416Y-28331175D01*
X76168825Y-28132584D01*
X75949248Y-27957477D01*
X75711445Y-27808055D01*
X75711442Y-27808053D01*
X75458411Y-27686200D01*
X75193329Y-27593443D01*
X75193317Y-27593439D01*
X74919512Y-27530945D01*
X74919494Y-27530942D01*
X74640431Y-27499500D01*
X74640425Y-27499500D01*
X74359575Y-27499500D01*
X74359568Y-27499500D01*
X74080505Y-27530942D01*
X74080487Y-27530945D01*
X73806682Y-27593439D01*
X73806670Y-27593443D01*
X73541588Y-27686200D01*
X73288557Y-27808053D01*
X73050753Y-27957476D01*
X72831175Y-28132583D01*
X72632583Y-28331175D01*
X72457476Y-28550753D01*
X72308053Y-28788557D01*
X72186200Y-29041588D01*
X72093443Y-29306670D01*
X72093439Y-29306682D01*
X72030945Y-29580487D01*
X72030942Y-29580505D01*
X71999500Y-29859568D01*
X54139638Y-29859568D01*
X54165838Y-29761789D01*
X54197500Y-29521288D01*
X54197500Y-29278712D01*
X54165838Y-29038211D01*
X54103054Y-28803900D01*
X54010224Y-28579788D01*
X53888936Y-28369711D01*
X53741265Y-28177262D01*
X53741260Y-28177256D01*
X53569743Y-28005739D01*
X53569736Y-28005733D01*
X53377293Y-27858067D01*
X53377292Y-27858066D01*
X53377289Y-27858064D01*
X53205661Y-27758974D01*
X53167214Y-27736777D01*
X53167205Y-27736773D01*
X52943104Y-27643947D01*
X52801145Y-27605909D01*
X52708789Y-27581162D01*
X52708788Y-27581161D01*
X52708785Y-27581161D01*
X52468289Y-27549500D01*
X52468288Y-27549500D01*
X52225712Y-27549500D01*
X52225711Y-27549500D01*
X51985214Y-27581161D01*
X51750895Y-27643947D01*
X51526794Y-27736773D01*
X51526785Y-27736777D01*
X51316706Y-27858067D01*
X51124263Y-28005733D01*
X51124256Y-28005739D01*
X50952739Y-28177256D01*
X50952733Y-28177263D01*
X50805067Y-28369706D01*
X50683777Y-28579785D01*
X50683773Y-28579794D01*
X50590947Y-28803895D01*
X50528161Y-29038214D01*
X50496500Y-29278711D01*
X48331225Y-29278711D01*
X48344273Y-28996490D01*
X48344733Y-28990123D01*
X48351771Y-28918663D01*
X48352355Y-28913754D01*
X48392806Y-28623779D01*
X48393983Y-28616816D01*
X48406926Y-28551748D01*
X48407810Y-28547672D01*
X48476296Y-28256487D01*
X48478311Y-28248990D01*
X48494604Y-28195280D01*
X48495626Y-28192079D01*
X48594181Y-27898031D01*
X48597157Y-27890079D01*
X48611744Y-27854863D01*
X48612772Y-27852460D01*
X48745512Y-27551833D01*
X48749573Y-27543496D01*
X48752094Y-27538780D01*
X48753067Y-27536997D01*
X48925195Y-27227968D01*
X48931221Y-27218236D01*
X49036064Y-27065185D01*
X49133531Y-26922901D01*
X49140413Y-26913788D01*
X49369110Y-26638379D01*
X49376804Y-26629939D01*
X49629939Y-26376804D01*
X49638379Y-26369110D01*
X49913788Y-26140413D01*
X49922901Y-26133531D01*
X50218242Y-25931217D01*
X50227968Y-25925195D01*
X50536997Y-25753067D01*
X50538780Y-25752094D01*
X50543496Y-25749573D01*
X50551833Y-25745512D01*
X50852460Y-25612772D01*
X50854863Y-25611744D01*
X50890079Y-25597157D01*
X50898031Y-25594181D01*
X51192079Y-25495626D01*
X51195280Y-25494604D01*
X51248990Y-25478311D01*
X51256487Y-25476296D01*
X51547672Y-25407810D01*
X51551748Y-25406926D01*
X51616816Y-25393983D01*
X51623779Y-25392806D01*
X51913754Y-25352355D01*
X51918663Y-25351771D01*
X51990123Y-25344733D01*
X51996490Y-25344273D01*
X52325543Y-25329060D01*
X52331314Y-25328929D01*
X124295737Y-25400448D01*
G37*
%TD.AperFunction*%
%TA.AperFunction,Conductor*%
G36*
X94587231Y-55125185D02*
G01*
X94632986Y-55177989D01*
X94643810Y-55239230D01*
X94642713Y-55253162D01*
X95204056Y-55814505D01*
X95143917Y-55830620D01*
X95028078Y-55897499D01*
X94933496Y-55992081D01*
X94866617Y-56107920D01*
X94850502Y-56168059D01*
X94289159Y-55606716D01*
X94289158Y-55606716D01*
X94262350Y-55643616D01*
X94172311Y-55820323D01*
X94172308Y-55820331D01*
X94111024Y-56008948D01*
X94079998Y-56204837D01*
X94079998Y-56403164D01*
X94111024Y-56599053D01*
X94172308Y-56787670D01*
X94172309Y-56787673D01*
X94262348Y-56964381D01*
X94289159Y-57001284D01*
X94850502Y-56439941D01*
X94866617Y-56500082D01*
X94933496Y-56615921D01*
X95028078Y-56710503D01*
X95143917Y-56777382D01*
X95204055Y-56793495D01*
X94642712Y-57354838D01*
X94642713Y-57354839D01*
X94679610Y-57381646D01*
X94856325Y-57471689D01*
X94856328Y-57471690D01*
X95044945Y-57532974D01*
X95240835Y-57564001D01*
X95439161Y-57564001D01*
X95635050Y-57532974D01*
X95823667Y-57471690D01*
X95823670Y-57471689D01*
X96000380Y-57381649D01*
X96037281Y-57354838D01*
X96037282Y-57354837D01*
X95475940Y-56793495D01*
X95536079Y-56777382D01*
X95651918Y-56710503D01*
X95746500Y-56615921D01*
X95813379Y-56500082D01*
X95829493Y-56439943D01*
X96390834Y-57001285D01*
X96390835Y-57001284D01*
X96417646Y-56964383D01*
X96507686Y-56787673D01*
X96507687Y-56787670D01*
X96568971Y-56599053D01*
X96599998Y-56403164D01*
X96599998Y-56204837D01*
X96568971Y-56008948D01*
X96507687Y-55820331D01*
X96507686Y-55820328D01*
X96417643Y-55643613D01*
X96390836Y-55606716D01*
X96390835Y-55606715D01*
X95829492Y-56168058D01*
X95813379Y-56107920D01*
X95746500Y-55992081D01*
X95651918Y-55897499D01*
X95536079Y-55830620D01*
X95475939Y-55814505D01*
X96037281Y-55253162D01*
X96036185Y-55239230D01*
X96050549Y-55170852D01*
X96099600Y-55121095D01*
X96159803Y-55105500D01*
X97470869Y-55105500D01*
X97501558Y-55109357D01*
X97742285Y-55170852D01*
X113459767Y-59185910D01*
X113459772Y-59185910D01*
X113459784Y-59185914D01*
X113521847Y-59197695D01*
X113552537Y-59201553D01*
X113615587Y-59205500D01*
X113615598Y-59205500D01*
X115599678Y-59205500D01*
X115630310Y-59209343D01*
X125306632Y-61676197D01*
X125366731Y-61711833D01*
X125398024Y-61774303D01*
X125400000Y-61796354D01*
X125400000Y-67775454D01*
X125380315Y-67842493D01*
X125327511Y-67888248D01*
X125275456Y-67899453D01*
X114033844Y-67850148D01*
X113970924Y-67832678D01*
X108733692Y-64712625D01*
X108560704Y-64609568D01*
X114499500Y-64609568D01*
X114499500Y-64890431D01*
X114530942Y-65169494D01*
X114530945Y-65169512D01*
X114593439Y-65443317D01*
X114593443Y-65443329D01*
X114686200Y-65708411D01*
X114808053Y-65961442D01*
X114808055Y-65961445D01*
X114957477Y-66199248D01*
X115132584Y-66418825D01*
X115331175Y-66617416D01*
X115550752Y-66792523D01*
X115788555Y-66941945D01*
X116041592Y-67063801D01*
X116240680Y-67133465D01*
X116306670Y-67156556D01*
X116306682Y-67156560D01*
X116580491Y-67219055D01*
X116580497Y-67219055D01*
X116580505Y-67219057D01*
X116766547Y-67240018D01*
X116859569Y-67250499D01*
X116859572Y-67250500D01*
X116859575Y-67250500D01*
X117140428Y-67250500D01*
X117140429Y-67250499D01*
X117283055Y-67234429D01*
X117419494Y-67219057D01*
X117419499Y-67219056D01*
X117419509Y-67219055D01*
X117693318Y-67156560D01*
X117958408Y-67063801D01*
X118211445Y-66941945D01*
X118449248Y-66792523D01*
X118668825Y-66617416D01*
X118867416Y-66418825D01*
X119042523Y-66199248D01*
X119191945Y-65961445D01*
X119313801Y-65708408D01*
X119358959Y-65579354D01*
X119399680Y-65522578D01*
X119464633Y-65496831D01*
X119533195Y-65510287D01*
X119583597Y-65558675D01*
X119600000Y-65620309D01*
X119600000Y-66697844D01*
X119606401Y-66757372D01*
X119606403Y-66757379D01*
X119656645Y-66892086D01*
X119656649Y-66892093D01*
X119742809Y-67007187D01*
X119742812Y-67007190D01*
X119857906Y-67093350D01*
X119857913Y-67093354D01*
X119992620Y-67143596D01*
X119992627Y-67143598D01*
X120052155Y-67149999D01*
X120052172Y-67150000D01*
X121750000Y-67150000D01*
X121750000Y-66077231D01*
X121893753Y-66100000D01*
X122106247Y-66100000D01*
X122250000Y-66077231D01*
X122250000Y-67150000D01*
X123947828Y-67150000D01*
X123947844Y-67149999D01*
X124007372Y-67143598D01*
X124007379Y-67143596D01*
X124142086Y-67093354D01*
X124142093Y-67093350D01*
X124257187Y-67007190D01*
X124257190Y-67007187D01*
X124343350Y-66892093D01*
X124343354Y-66892086D01*
X124393596Y-66757379D01*
X124393598Y-66757372D01*
X124399999Y-66697844D01*
X124400000Y-66697827D01*
X124400000Y-65000000D01*
X123327231Y-65000000D01*
X123350000Y-64856247D01*
X123350000Y-64643753D01*
X123327231Y-64500000D01*
X124400000Y-64500000D01*
X124400000Y-62802172D01*
X124399999Y-62802155D01*
X124393598Y-62742627D01*
X124393596Y-62742620D01*
X124343354Y-62607913D01*
X124343350Y-62607906D01*
X124257190Y-62492812D01*
X124257187Y-62492809D01*
X124142093Y-62406649D01*
X124142086Y-62406645D01*
X124007379Y-62356403D01*
X124007372Y-62356401D01*
X123947844Y-62350000D01*
X122250000Y-62350000D01*
X122250000Y-63422768D01*
X122106247Y-63400000D01*
X121893753Y-63400000D01*
X121750000Y-63422768D01*
X121750000Y-62350000D01*
X120052155Y-62350000D01*
X119992627Y-62356401D01*
X119992620Y-62356403D01*
X119857913Y-62406645D01*
X119857906Y-62406649D01*
X119742812Y-62492809D01*
X119742809Y-62492812D01*
X119656649Y-62607906D01*
X119656645Y-62607913D01*
X119606403Y-62742620D01*
X119606401Y-62742627D01*
X119600000Y-62802155D01*
X119600000Y-63879690D01*
X119580315Y-63946729D01*
X119527511Y-63992484D01*
X119458353Y-64002428D01*
X119394797Y-63973403D01*
X119358959Y-63920645D01*
X119340803Y-63868761D01*
X119313801Y-63791592D01*
X119191945Y-63538555D01*
X119042523Y-63300752D01*
X118867416Y-63081175D01*
X118668825Y-62882584D01*
X118449248Y-62707477D01*
X118211445Y-62558055D01*
X118211442Y-62558053D01*
X117958411Y-62436200D01*
X117693329Y-62343443D01*
X117693317Y-62343439D01*
X117419512Y-62280945D01*
X117419494Y-62280942D01*
X117140431Y-62249500D01*
X117140425Y-62249500D01*
X116859575Y-62249500D01*
X116859568Y-62249500D01*
X116580505Y-62280942D01*
X116580487Y-62280945D01*
X116306682Y-62343439D01*
X116306670Y-62343443D01*
X116041588Y-62436200D01*
X115788557Y-62558053D01*
X115550753Y-62707476D01*
X115331175Y-62882583D01*
X115132583Y-63081175D01*
X114957476Y-63300753D01*
X114808053Y-63538557D01*
X114686200Y-63791588D01*
X114593443Y-64056670D01*
X114593439Y-64056682D01*
X114530945Y-64330487D01*
X114530942Y-64330505D01*
X114499500Y-64609568D01*
X108560704Y-64609568D01*
X107632625Y-64056670D01*
X97550000Y-58050000D01*
X97549999Y-58050000D01*
X93124000Y-58050000D01*
X93056961Y-58030315D01*
X93011206Y-57977511D01*
X93000000Y-57926000D01*
X93000000Y-55229500D01*
X93019685Y-55162461D01*
X93072489Y-55116706D01*
X93124000Y-55105500D01*
X94520192Y-55105500D01*
X94587231Y-55125185D01*
G37*
%TD.AperFunction*%
%TA.AperFunction,Conductor*%
G36*
X125343039Y-50619685D02*
G01*
X125388794Y-50672489D01*
X125400000Y-50724000D01*
X125400000Y-58576000D01*
X125380315Y-58643039D01*
X125327511Y-58688794D01*
X125276000Y-58700000D01*
X113615587Y-58700000D01*
X113584897Y-58696142D01*
X97587455Y-54609568D01*
X114499500Y-54609568D01*
X114499500Y-54890431D01*
X114530942Y-55169494D01*
X114530945Y-55169512D01*
X114593439Y-55443317D01*
X114593443Y-55443329D01*
X114686200Y-55708411D01*
X114808053Y-55961442D01*
X114808055Y-55961445D01*
X114957477Y-56199248D01*
X115132584Y-56418825D01*
X115331175Y-56617416D01*
X115550752Y-56792523D01*
X115788555Y-56941945D01*
X116041592Y-57063801D01*
X116216952Y-57125162D01*
X116306670Y-57156556D01*
X116306682Y-57156560D01*
X116580491Y-57219055D01*
X116580497Y-57219055D01*
X116580505Y-57219057D01*
X116766547Y-57240018D01*
X116859569Y-57250499D01*
X116859572Y-57250500D01*
X116859575Y-57250500D01*
X117140428Y-57250500D01*
X117140429Y-57250499D01*
X117283055Y-57234429D01*
X117419494Y-57219057D01*
X117419499Y-57219056D01*
X117419509Y-57219055D01*
X117693318Y-57156560D01*
X117958408Y-57063801D01*
X118211445Y-56941945D01*
X118449248Y-56792523D01*
X118668825Y-56617416D01*
X118867416Y-56418825D01*
X119042523Y-56199248D01*
X119191945Y-55961445D01*
X119313801Y-55708408D01*
X119358959Y-55579354D01*
X119399680Y-55522578D01*
X119464633Y-55496831D01*
X119533195Y-55510287D01*
X119583597Y-55558675D01*
X119600000Y-55620309D01*
X119600000Y-56697844D01*
X119606401Y-56757372D01*
X119606403Y-56757379D01*
X119656645Y-56892086D01*
X119656649Y-56892093D01*
X119742809Y-57007187D01*
X119742812Y-57007190D01*
X119857906Y-57093350D01*
X119857913Y-57093354D01*
X119992620Y-57143596D01*
X119992627Y-57143598D01*
X120052155Y-57149999D01*
X120052172Y-57150000D01*
X121750000Y-57150000D01*
X121750000Y-56077231D01*
X121893753Y-56100000D01*
X122106247Y-56100000D01*
X122250000Y-56077231D01*
X122250000Y-57150000D01*
X123947828Y-57150000D01*
X123947844Y-57149999D01*
X124007372Y-57143598D01*
X124007379Y-57143596D01*
X124142086Y-57093354D01*
X124142093Y-57093350D01*
X124257187Y-57007190D01*
X124257190Y-57007187D01*
X124343350Y-56892093D01*
X124343354Y-56892086D01*
X124393596Y-56757379D01*
X124393598Y-56757372D01*
X124399999Y-56697844D01*
X124400000Y-56697827D01*
X124400000Y-55000000D01*
X123327231Y-55000000D01*
X123350000Y-54856247D01*
X123350000Y-54643753D01*
X123327231Y-54500000D01*
X124400000Y-54500000D01*
X124400000Y-52802172D01*
X124399999Y-52802155D01*
X124393598Y-52742627D01*
X124393596Y-52742620D01*
X124343354Y-52607913D01*
X124343350Y-52607906D01*
X124257190Y-52492812D01*
X124257187Y-52492809D01*
X124142093Y-52406649D01*
X124142086Y-52406645D01*
X124007379Y-52356403D01*
X124007372Y-52356401D01*
X123947844Y-52350000D01*
X122250000Y-52350000D01*
X122250000Y-53422768D01*
X122106247Y-53400000D01*
X121893753Y-53400000D01*
X121750000Y-53422768D01*
X121750000Y-52350000D01*
X120052155Y-52350000D01*
X119992627Y-52356401D01*
X119992620Y-52356403D01*
X119857913Y-52406645D01*
X119857906Y-52406649D01*
X119742812Y-52492809D01*
X119742809Y-52492812D01*
X119656649Y-52607906D01*
X119656645Y-52607913D01*
X119606403Y-52742620D01*
X119606401Y-52742627D01*
X119600000Y-52802155D01*
X119600000Y-53879690D01*
X119580315Y-53946729D01*
X119527511Y-53992484D01*
X119458353Y-54002428D01*
X119394797Y-53973403D01*
X119358959Y-53920645D01*
X119318875Y-53806093D01*
X119313801Y-53791592D01*
X119191945Y-53538555D01*
X119042523Y-53300752D01*
X118867416Y-53081175D01*
X118668825Y-52882584D01*
X118654478Y-52871143D01*
X118613060Y-52838113D01*
X118449248Y-52707477D01*
X118211445Y-52558055D01*
X118211442Y-52558053D01*
X117958411Y-52436200D01*
X117693329Y-52343443D01*
X117693317Y-52343439D01*
X117419512Y-52280945D01*
X117419494Y-52280942D01*
X117140431Y-52249500D01*
X117140425Y-52249500D01*
X116859575Y-52249500D01*
X116859568Y-52249500D01*
X116580505Y-52280942D01*
X116580487Y-52280945D01*
X116306682Y-52343439D01*
X116306670Y-52343443D01*
X116041588Y-52436200D01*
X115788557Y-52558053D01*
X115550753Y-52707476D01*
X115331175Y-52882583D01*
X115132583Y-53081175D01*
X114957476Y-53300753D01*
X114808053Y-53538557D01*
X114686200Y-53791588D01*
X114593443Y-54056670D01*
X114593439Y-54056682D01*
X114530945Y-54330487D01*
X114530942Y-54330505D01*
X114499500Y-54609568D01*
X97587455Y-54609568D01*
X97550000Y-54600000D01*
X97549999Y-54600000D01*
X93124000Y-54600000D01*
X93056961Y-54580315D01*
X93011206Y-54527511D01*
X93000000Y-54476000D01*
X93000000Y-51996155D01*
X94079998Y-51996155D01*
X94079998Y-52554000D01*
X94895438Y-52554000D01*
X94864753Y-52607147D01*
X94829998Y-52736857D01*
X94829998Y-52871143D01*
X94864753Y-53000853D01*
X94895438Y-53054000D01*
X94079998Y-53054000D01*
X94079998Y-53611844D01*
X94086399Y-53671372D01*
X94086401Y-53671379D01*
X94136643Y-53806086D01*
X94136647Y-53806093D01*
X94222807Y-53921187D01*
X94222810Y-53921190D01*
X94337904Y-54007350D01*
X94337911Y-54007354D01*
X94472618Y-54057596D01*
X94472625Y-54057598D01*
X94532153Y-54063999D01*
X94532170Y-54064000D01*
X95089998Y-54064000D01*
X95089998Y-53248560D01*
X95143145Y-53279245D01*
X95272855Y-53314000D01*
X95407141Y-53314000D01*
X95536851Y-53279245D01*
X95589998Y-53248560D01*
X95589998Y-54064000D01*
X96147826Y-54064000D01*
X96147842Y-54063999D01*
X96207370Y-54057598D01*
X96207377Y-54057596D01*
X96342084Y-54007354D01*
X96342091Y-54007350D01*
X96457185Y-53921190D01*
X96457188Y-53921187D01*
X96543348Y-53806093D01*
X96543352Y-53806086D01*
X96593594Y-53671379D01*
X96593596Y-53671372D01*
X96599997Y-53611844D01*
X96599998Y-53611827D01*
X96599998Y-53054000D01*
X95784558Y-53054000D01*
X95815243Y-53000853D01*
X95849998Y-52871143D01*
X95849998Y-52736857D01*
X95815243Y-52607147D01*
X95784558Y-52554000D01*
X96599998Y-52554000D01*
X96599998Y-51996172D01*
X96599997Y-51996155D01*
X96593596Y-51936627D01*
X96593594Y-51936620D01*
X96543352Y-51801913D01*
X96543348Y-51801906D01*
X96457188Y-51686812D01*
X96457185Y-51686809D01*
X96342091Y-51600649D01*
X96342084Y-51600645D01*
X96207377Y-51550403D01*
X96207370Y-51550401D01*
X96147842Y-51544000D01*
X95589998Y-51544000D01*
X95589998Y-52359439D01*
X95536851Y-52328755D01*
X95407141Y-52294000D01*
X95272855Y-52294000D01*
X95143145Y-52328755D01*
X95089998Y-52359439D01*
X95089998Y-51544000D01*
X94532153Y-51544000D01*
X94472625Y-51550401D01*
X94472618Y-51550403D01*
X94337911Y-51600645D01*
X94337904Y-51600649D01*
X94222810Y-51686809D01*
X94222807Y-51686812D01*
X94136647Y-51801906D01*
X94136643Y-51801913D01*
X94086401Y-51936620D01*
X94086399Y-51936627D01*
X94079998Y-51996155D01*
X93000000Y-51996155D01*
X93000000Y-50724000D01*
X93019685Y-50656961D01*
X93072489Y-50611206D01*
X93124000Y-50600000D01*
X125276000Y-50600000D01*
X125343039Y-50619685D01*
G37*
%TD.AperFunction*%
M02*
