%TF.GenerationSoftware,KiCad,Pcbnew,8.0.4*%
%TF.CreationDate,2025-03-21T12:56:22-05:00*%
%TF.ProjectId,Chassis,43686173-7369-4732-9e6b-696361645f70,rev?*%
%TF.SameCoordinates,Original*%
%TF.FileFunction,Paste,Top*%
%TF.FilePolarity,Positive*%
%FSLAX46Y46*%
G04 Gerber Fmt 4.6, Leading zero omitted, Abs format (unit mm)*
G04 Created by KiCad (PCBNEW 8.0.4) date 2025-03-21 12:56:22*
%MOMM*%
%LPD*%
G01*
G04 APERTURE LIST*
G04 Aperture macros list*
%AMRoundRect*
0 Rectangle with rounded corners*
0 $1 Rounding radius*
0 $2 $3 $4 $5 $6 $7 $8 $9 X,Y pos of 4 corners*
0 Add a 4 corners polygon primitive as box body*
4,1,4,$2,$3,$4,$5,$6,$7,$8,$9,$2,$3,0*
0 Add four circle primitives for the rounded corners*
1,1,$1+$1,$2,$3*
1,1,$1+$1,$4,$5*
1,1,$1+$1,$6,$7*
1,1,$1+$1,$8,$9*
0 Add four rect primitives between the rounded corners*
20,1,$1+$1,$2,$3,$4,$5,0*
20,1,$1+$1,$4,$5,$6,$7,0*
20,1,$1+$1,$6,$7,$8,$9,0*
20,1,$1+$1,$8,$9,$2,$3,0*%
G04 Aperture macros list end*
%ADD10RoundRect,0.150000X0.700000X-0.150000X0.700000X0.150000X-0.700000X0.150000X-0.700000X-0.150000X0*%
%ADD11RoundRect,0.250000X1.150000X-0.250000X1.150000X0.250000X-1.150000X0.250000X-1.150000X-0.250000X0*%
%ADD12RoundRect,0.237500X0.237500X-0.287500X0.237500X0.287500X-0.237500X0.287500X-0.237500X-0.287500X0*%
%ADD13RoundRect,0.237500X0.237500X-0.250000X0.237500X0.250000X-0.237500X0.250000X-0.237500X-0.250000X0*%
%ADD14RoundRect,0.237500X-0.250000X-0.237500X0.250000X-0.237500X0.250000X0.237500X-0.250000X0.237500X0*%
%ADD15RoundRect,0.237500X-0.237500X0.287500X-0.237500X-0.287500X0.237500X-0.287500X0.237500X0.287500X0*%
%ADD16RoundRect,0.237500X-0.300000X-0.237500X0.300000X-0.237500X0.300000X0.237500X-0.300000X0.237500X0*%
%ADD17RoundRect,0.150000X0.388909X-0.601041X0.601041X-0.388909X-0.388909X0.601041X-0.601041X0.388909X0*%
%ADD18RoundRect,0.250000X0.636396X-0.989949X0.989949X-0.636396X-0.636396X0.989949X-0.989949X0.636396X0*%
%ADD19RoundRect,0.150000X-0.150000X-0.700000X0.150000X-0.700000X0.150000X0.700000X-0.150000X0.700000X0*%
%ADD20RoundRect,0.250000X-0.250000X-1.150000X0.250000X-1.150000X0.250000X1.150000X-0.250000X1.150000X0*%
%ADD21RoundRect,0.237500X-0.237500X0.250000X-0.237500X-0.250000X0.237500X-0.250000X0.237500X0.250000X0*%
%ADD22R,1.200000X1.200000*%
%ADD23R,0.700000X1.522000*%
%ADD24R,2.300000X2.300000*%
%ADD25RoundRect,0.150000X0.601041X0.388909X0.388909X0.601041X-0.601041X-0.388909X-0.388909X-0.601041X0*%
%ADD26RoundRect,0.250000X0.989949X0.636396X0.636396X0.989949X-0.989949X-0.636396X-0.636396X-0.989949X0*%
%ADD27RoundRect,0.150000X-0.601041X-0.388909X-0.388909X-0.601041X0.601041X0.388909X0.388909X0.601041X0*%
%ADD28RoundRect,0.250000X-0.989949X-0.636396X-0.636396X-0.989949X0.989949X0.636396X0.636396X0.989949X0*%
%ADD29RoundRect,0.150000X-0.700000X0.150000X-0.700000X-0.150000X0.700000X-0.150000X0.700000X0.150000X0*%
%ADD30RoundRect,0.250000X-1.150000X0.250000X-1.150000X-0.250000X1.150000X-0.250000X1.150000X0.250000X0*%
%ADD31R,1.550000X5.600000*%
%ADD32RoundRect,0.250000X-0.337500X-0.475000X0.337500X-0.475000X0.337500X0.475000X-0.337500X0.475000X0*%
%ADD33R,2.140000X1.490000*%
%ADD34RoundRect,0.237500X0.237500X-0.300000X0.237500X0.300000X-0.237500X0.300000X-0.237500X-0.300000X0*%
%ADD35RoundRect,0.150000X-0.388909X0.601041X-0.601041X0.388909X0.388909X-0.601041X0.601041X-0.388909X0*%
%ADD36RoundRect,0.250000X-0.636396X0.989949X-0.989949X0.636396X0.636396X-0.989949X0.989949X-0.636396X0*%
G04 APERTURE END LIST*
D10*
X56750000Y-81750000D03*
X56750000Y-80500000D03*
D11*
X53400000Y-83600000D03*
X53400000Y-78650000D03*
D10*
X55750000Y-72125000D03*
X55750000Y-70875000D03*
X55750000Y-69625000D03*
X55750000Y-68375000D03*
D11*
X52400000Y-73975000D03*
X52400000Y-66525000D03*
D12*
X68400000Y-76075000D03*
X68400000Y-74325000D03*
D13*
X63800000Y-76112500D03*
X63800000Y-74287500D03*
D14*
X70337500Y-93000000D03*
X72162500Y-93000000D03*
D15*
X105250000Y-91625000D03*
X105250000Y-93375000D03*
X64600000Y-45987999D03*
X64600000Y-47737999D03*
D13*
X111250000Y-55412500D03*
X111250000Y-53587500D03*
X111300000Y-64957500D03*
X111300000Y-63132500D03*
D16*
X66137500Y-93000000D03*
X67862500Y-93000000D03*
D17*
X63636768Y-32820800D03*
X64520652Y-31936916D03*
D18*
X59959813Y-31760140D03*
X63459992Y-28259961D03*
D19*
X94375000Y-40200000D03*
X95625000Y-40200000D03*
D20*
X92525000Y-36850000D03*
X97475000Y-36850000D03*
D21*
X64600000Y-49887500D03*
X64600000Y-51712500D03*
X105250000Y-97587500D03*
X105250000Y-99412500D03*
D22*
X58750000Y-42600000D03*
X58750000Y-45400000D03*
D12*
X55500000Y-45375000D03*
X55500000Y-43625000D03*
D23*
X74401000Y-89801999D03*
X75671000Y-89801999D03*
X76941000Y-89801999D03*
X78211000Y-89801999D03*
X78211000Y-84373999D03*
X76941000Y-84373999D03*
X75671000Y-84373999D03*
X74401000Y-84373999D03*
D24*
X76306000Y-87087999D03*
D25*
X64520652Y-99354936D03*
X63636768Y-98471052D03*
D26*
X63459992Y-103031891D03*
X59959813Y-99531712D03*
D13*
X111200000Y-75625000D03*
X111200000Y-73800000D03*
D27*
X112173348Y-31445064D03*
X113057232Y-32328948D03*
D28*
X113234008Y-27768109D03*
X116734187Y-31268288D03*
D29*
X111550000Y-83375000D03*
X111550000Y-84625000D03*
X111550000Y-85875000D03*
X111550000Y-87125000D03*
D30*
X114900000Y-81525000D03*
X114900000Y-88975000D03*
D31*
X70337000Y-87596000D03*
X66287000Y-87596000D03*
D19*
X75875000Y-40200000D03*
X77125000Y-40200000D03*
D20*
X74025000Y-36850000D03*
X78975000Y-36850000D03*
D32*
X66462500Y-78362999D03*
X68537500Y-78362999D03*
D33*
X72750000Y-81500000D03*
X72750000Y-77050000D03*
D12*
X108250000Y-64875000D03*
X108250000Y-63125000D03*
D10*
X73650000Y-47925000D03*
X73650000Y-46675000D03*
D11*
X70300000Y-49775000D03*
X70300000Y-44825000D03*
D34*
X78592000Y-81600499D03*
X78592000Y-79875499D03*
X76306000Y-81600499D03*
X76306000Y-79875499D03*
D32*
X66462500Y-81500000D03*
X68537500Y-81500000D03*
D10*
X55750000Y-61500000D03*
X55750000Y-60250000D03*
X55750000Y-59000000D03*
X55750000Y-57750000D03*
D11*
X52400000Y-63350000D03*
X52400000Y-55900000D03*
D12*
X108200001Y-75587500D03*
X108200001Y-73837500D03*
X108250000Y-55375000D03*
X108250000Y-53625000D03*
D35*
X113057232Y-98471052D03*
X112173348Y-99354936D03*
D36*
X116734187Y-99531712D03*
X113234008Y-103031891D03*
D13*
X80624000Y-89778499D03*
X80624000Y-87953499D03*
M02*
