%TF.GenerationSoftware,KiCad,Pcbnew,8.0.4*%
%TF.CreationDate,2025-03-21T12:56:22-05:00*%
%TF.ProjectId,Chassis,43686173-7369-4732-9e6b-696361645f70,rev?*%
%TF.SameCoordinates,Original*%
%TF.FileFunction,Copper,L3,Inr*%
%TF.FilePolarity,Positive*%
%FSLAX46Y46*%
G04 Gerber Fmt 4.6, Leading zero omitted, Abs format (unit mm)*
G04 Created by KiCad (PCBNEW 8.0.4) date 2025-03-21 12:56:22*
%MOMM*%
%LPD*%
G01*
G04 APERTURE LIST*
G04 Aperture macros list*
%AMRotRect*
0 Rectangle, with rotation*
0 The origin of the aperture is its center*
0 $1 length*
0 $2 width*
0 $3 Rotation angle, in degrees counterclockwise*
0 Add horizontal line*
21,1,$1,$2,0,0,$3*%
G04 Aperture macros list end*
%TA.AperFunction,ComponentPad*%
%ADD10R,3.800000X3.800000*%
%TD*%
%TA.AperFunction,ComponentPad*%
%ADD11C,4.000000*%
%TD*%
%TA.AperFunction,ComponentPad*%
%ADD12RotRect,3.800000X3.800000X315.000000*%
%TD*%
%TA.AperFunction,ComponentPad*%
%ADD13RotRect,3.800000X3.800000X135.000000*%
%TD*%
%TA.AperFunction,ComponentPad*%
%ADD14R,1.520000X1.520000*%
%TD*%
%TA.AperFunction,ComponentPad*%
%ADD15C,1.520000*%
%TD*%
%TA.AperFunction,ComponentPad*%
%ADD16C,1.381000*%
%TD*%
%TA.AperFunction,ComponentPad*%
%ADD17RotRect,3.800000X3.800000X225.000000*%
%TD*%
%TA.AperFunction,ComponentPad*%
%ADD18RotRect,3.800000X3.800000X45.000000*%
%TD*%
%TA.AperFunction,ViaPad*%
%ADD19C,0.800000*%
%TD*%
G04 APERTURE END LIST*
D10*
X58700000Y-49750000D03*
D11*
X53700000Y-49750000D03*
D12*
X53372614Y-91372614D03*
D11*
X56908148Y-94908148D03*
D13*
X123227387Y-39427387D03*
D11*
X119691853Y-35891853D03*
D14*
X95339998Y-52804000D03*
D15*
X95339998Y-56304001D03*
X95339998Y-59804001D03*
X95339998Y-63304002D03*
X90739997Y-52804000D03*
X90739997Y-56304001D03*
X90739997Y-59804001D03*
X90739997Y-63304002D03*
D16*
X82375000Y-58774999D03*
X80375000Y-58774999D03*
X82375000Y-60774999D03*
X80375000Y-60774999D03*
X82375000Y-62774999D03*
X80375000Y-62774999D03*
X82375000Y-64774999D03*
X80375000Y-64774999D03*
X82375000Y-66774999D03*
X80375000Y-66774999D03*
X82375000Y-68774999D03*
X80375000Y-68774999D03*
X82375000Y-70774999D03*
X80375000Y-70774999D03*
X82375000Y-72774999D03*
X80375000Y-72774999D03*
D17*
X57127387Y-35572614D03*
D11*
X53591853Y-39108148D03*
D10*
X122000000Y-74750000D03*
D11*
X117000000Y-74750000D03*
D10*
X122000000Y-64750000D03*
D11*
X117000000Y-64750000D03*
D18*
X119272613Y-94827387D03*
D11*
X122808147Y-91291853D03*
D10*
X77250000Y-98500000D03*
D11*
X72250000Y-98500000D03*
D10*
X122000000Y-54750000D03*
D11*
X117000000Y-54750000D03*
D10*
X101000000Y-93000000D03*
D11*
X101000000Y-98000000D03*
D10*
X98000000Y-30000000D03*
D11*
X93000000Y-30000000D03*
D10*
X79500000Y-30000000D03*
D11*
X74500000Y-30000000D03*
D19*
X62750000Y-92500000D03*
X108966000Y-34290000D03*
X62800000Y-95800000D03*
X79756000Y-43500000D03*
X97375000Y-79875000D03*
X66450000Y-77000000D03*
X65050000Y-75550000D03*
X66450000Y-75550000D03*
X65750000Y-76300000D03*
X65050000Y-77000000D03*
X70845000Y-77356000D03*
X78325000Y-86098999D03*
X69750000Y-78500000D03*
X78075000Y-87598999D03*
X68050999Y-79895999D03*
X77423600Y-79921399D03*
X70750000Y-79250000D03*
X64600000Y-44480000D03*
X79325000Y-86848999D03*
X106950000Y-74700000D03*
X106750000Y-54550000D03*
X106650000Y-62150000D03*
X73899998Y-69700000D03*
X103000000Y-80750000D03*
X103000000Y-76750000D03*
X103000000Y-78500000D03*
X64500000Y-42750000D03*
X82000000Y-82000000D03*
X63100000Y-51712500D03*
X80500000Y-82000000D03*
X65500000Y-43500000D03*
X61000000Y-41750000D03*
X65500000Y-42000000D03*
X61000000Y-43250000D03*
X60250000Y-42500000D03*
X81250000Y-81250000D03*
X64500000Y-41250000D03*
X82750000Y-81250000D03*
X103000000Y-74250000D03*
X71400000Y-47900000D03*
X69900000Y-46600000D03*
X76962000Y-43434000D03*
X98625000Y-79625000D03*
X110800000Y-102400000D03*
X106426000Y-32766000D03*
X97500000Y-65250000D03*
X107000000Y-102400000D03*
X98750000Y-66500000D03*
%TA.AperFunction,Conductor*%
G36*
X115683242Y-65066126D02*
G01*
X115748906Y-65268220D01*
X115845377Y-65457554D01*
X115970278Y-65629466D01*
X116120534Y-65779722D01*
X116292446Y-65904623D01*
X116481780Y-66001094D01*
X116683874Y-66066758D01*
X116735693Y-66074965D01*
X115843543Y-66967114D01*
X115843544Y-66967115D01*
X115933447Y-67016540D01*
X115933455Y-67016544D01*
X116225926Y-67132340D01*
X116317666Y-67155896D01*
X116377704Y-67191634D01*
X116408889Y-67254158D01*
X116401321Y-67323617D01*
X116357402Y-67377957D01*
X116291077Y-67399927D01*
X116286828Y-67400000D01*
X114424000Y-67400000D01*
X114356961Y-67380315D01*
X114311206Y-67327511D01*
X114300000Y-67276000D01*
X114300000Y-65249667D01*
X114319685Y-65182628D01*
X114372489Y-65136873D01*
X114441647Y-65126929D01*
X114505203Y-65155954D01*
X114542977Y-65214732D01*
X114545804Y-65226432D01*
X114573755Y-65372958D01*
X114670962Y-65672128D01*
X114781757Y-65907580D01*
X115675034Y-65014304D01*
X115683242Y-65066126D01*
G37*
%TD.AperFunction*%
%TA.AperFunction,Conductor*%
G36*
X119218241Y-65907580D02*
G01*
X119218242Y-65907580D01*
X119329034Y-65672137D01*
X119329038Y-65672128D01*
X119357569Y-65584317D01*
X119397006Y-65526641D01*
X119461364Y-65499442D01*
X119530210Y-65511356D01*
X119581687Y-65558600D01*
X119599500Y-65622634D01*
X119599500Y-66697863D01*
X119599679Y-66701180D01*
X119599572Y-66701185D01*
X119600000Y-66709156D01*
X119600000Y-67276000D01*
X119580315Y-67343039D01*
X119527511Y-67388794D01*
X119476000Y-67400000D01*
X117713172Y-67400000D01*
X117646133Y-67380315D01*
X117600378Y-67327511D01*
X117590434Y-67258353D01*
X117619459Y-67194797D01*
X117678237Y-67157023D01*
X117682334Y-67155896D01*
X117774073Y-67132340D01*
X118066544Y-67016544D01*
X118156454Y-66967114D01*
X117264305Y-66074965D01*
X117316126Y-66066758D01*
X117518220Y-66001094D01*
X117707554Y-65904623D01*
X117879466Y-65779722D01*
X118029722Y-65629466D01*
X118154623Y-65457554D01*
X118251094Y-65268220D01*
X118316758Y-65066126D01*
X118324965Y-65014304D01*
X119218241Y-65907580D01*
G37*
%TD.AperFunction*%
%TA.AperFunction,Conductor*%
G36*
X104522056Y-54308764D02*
G01*
X105848936Y-54836001D01*
X105903968Y-54879049D01*
X105921076Y-54912915D01*
X105922821Y-54918284D01*
X106017467Y-55082216D01*
X106130908Y-55208205D01*
X106144129Y-55222888D01*
X106297265Y-55334148D01*
X106297270Y-55334151D01*
X106470192Y-55411142D01*
X106470197Y-55411144D01*
X106655354Y-55450500D01*
X106655355Y-55450500D01*
X106844644Y-55450500D01*
X106844646Y-55450500D01*
X107029803Y-55411144D01*
X107107816Y-55376409D01*
X107177064Y-55367124D01*
X107204040Y-55374453D01*
X119521791Y-60268923D01*
X119576822Y-60311971D01*
X119599844Y-60377938D01*
X119600000Y-60384158D01*
X119600000Y-62790826D01*
X119599572Y-62798798D01*
X119599678Y-62798804D01*
X119599500Y-62802128D01*
X119599500Y-63877363D01*
X119579815Y-63944402D01*
X119527011Y-63990157D01*
X119457853Y-64000101D01*
X119394297Y-63971076D01*
X119357569Y-63915681D01*
X119329036Y-63827867D01*
X119329034Y-63827862D01*
X119218242Y-63592418D01*
X119218241Y-63592418D01*
X118324965Y-64485693D01*
X118316758Y-64433874D01*
X118251094Y-64231780D01*
X118154623Y-64042446D01*
X118029722Y-63870534D01*
X117879466Y-63720278D01*
X117707554Y-63595377D01*
X117518220Y-63498906D01*
X117316126Y-63433242D01*
X117264304Y-63425034D01*
X118156455Y-62532884D01*
X118156454Y-62532883D01*
X118066552Y-62483459D01*
X118066544Y-62483455D01*
X117774073Y-62367659D01*
X117469379Y-62289426D01*
X117469370Y-62289424D01*
X117157298Y-62250000D01*
X116842701Y-62250000D01*
X116530629Y-62289424D01*
X116530620Y-62289426D01*
X116225926Y-62367659D01*
X115933448Y-62483459D01*
X115933443Y-62483461D01*
X115843544Y-62532883D01*
X116735694Y-63425034D01*
X116683874Y-63433242D01*
X116481780Y-63498906D01*
X116292446Y-63595377D01*
X116120534Y-63720278D01*
X115970278Y-63870534D01*
X115845377Y-64042446D01*
X115748906Y-64231780D01*
X115683242Y-64433874D01*
X115675034Y-64485694D01*
X114781757Y-63592418D01*
X114670963Y-63827867D01*
X114670960Y-63827875D01*
X114573756Y-64127040D01*
X114545804Y-64273568D01*
X114513906Y-64335731D01*
X114453463Y-64370781D01*
X114383666Y-64367589D01*
X114326675Y-64327169D01*
X114300584Y-64262354D01*
X114300000Y-64250332D01*
X114300000Y-61800000D01*
X114299999Y-61799999D01*
X107199402Y-59082934D01*
X104500000Y-58050000D01*
X104499997Y-58050000D01*
X88874000Y-58050000D01*
X88806961Y-58030315D01*
X88761206Y-57977511D01*
X88750000Y-57926000D01*
X88750000Y-57552389D01*
X90552267Y-57552389D01*
X90552267Y-57552390D01*
X90739995Y-57568814D01*
X90739999Y-57568814D01*
X90927725Y-57552390D01*
X90927725Y-57552389D01*
X90739998Y-57364661D01*
X90739997Y-57364661D01*
X90552267Y-57552389D01*
X88750000Y-57552389D01*
X88750000Y-56303998D01*
X89475184Y-56303998D01*
X89475184Y-56304004D01*
X89491606Y-56491729D01*
X89491607Y-56491730D01*
X89679337Y-56304001D01*
X89679337Y-56304000D01*
X89612458Y-56237121D01*
X90231997Y-56237121D01*
X90231997Y-56370881D01*
X90266616Y-56500082D01*
X90333495Y-56615921D01*
X90428077Y-56710503D01*
X90543916Y-56777382D01*
X90673117Y-56812001D01*
X90806877Y-56812001D01*
X90936078Y-56777382D01*
X91051917Y-56710503D01*
X91146499Y-56615921D01*
X91213378Y-56500082D01*
X91247997Y-56370881D01*
X91247997Y-56304000D01*
X91800657Y-56304000D01*
X91800657Y-56304001D01*
X91988385Y-56491729D01*
X91988386Y-56491729D01*
X92004810Y-56304002D01*
X92004810Y-56303999D01*
X94074683Y-56303999D01*
X94074683Y-56304002D01*
X94093905Y-56523715D01*
X94093907Y-56523725D01*
X94150988Y-56736756D01*
X94150993Y-56736770D01*
X94244201Y-56936655D01*
X94244205Y-56936663D01*
X94370710Y-57117331D01*
X94526667Y-57273288D01*
X94707335Y-57399793D01*
X94707337Y-57399794D01*
X94707340Y-57399796D01*
X94827601Y-57455874D01*
X94907228Y-57493005D01*
X94907230Y-57493005D01*
X94907235Y-57493008D01*
X95120278Y-57550093D01*
X95277220Y-57563823D01*
X95339996Y-57569316D01*
X95339998Y-57569316D01*
X95340000Y-57569316D01*
X95394928Y-57564510D01*
X95559718Y-57550093D01*
X95772761Y-57493008D01*
X95972656Y-57399796D01*
X96153327Y-57273289D01*
X96309286Y-57117330D01*
X96435793Y-56936659D01*
X96529005Y-56736764D01*
X96586090Y-56523721D01*
X96605313Y-56304001D01*
X96586090Y-56084281D01*
X96529005Y-55871238D01*
X96435793Y-55671344D01*
X96309286Y-55490672D01*
X96309284Y-55490669D01*
X96153328Y-55334713D01*
X95972660Y-55208208D01*
X95972652Y-55208204D01*
X95772767Y-55114996D01*
X95772753Y-55114991D01*
X95559722Y-55057910D01*
X95559720Y-55057909D01*
X95559718Y-55057909D01*
X95559716Y-55057908D01*
X95559712Y-55057908D01*
X95340000Y-55038686D01*
X95339996Y-55038686D01*
X95120283Y-55057908D01*
X95120273Y-55057910D01*
X94907242Y-55114991D01*
X94907233Y-55114995D01*
X94707342Y-55208205D01*
X94707340Y-55208206D01*
X94526666Y-55334714D01*
X94370711Y-55490669D01*
X94244203Y-55671343D01*
X94244202Y-55671345D01*
X94150992Y-55871236D01*
X94150988Y-55871245D01*
X94093907Y-56084276D01*
X94093905Y-56084286D01*
X94074683Y-56303999D01*
X92004810Y-56303999D01*
X92004810Y-56303998D01*
X91988386Y-56116271D01*
X91988385Y-56116271D01*
X91800657Y-56304000D01*
X91247997Y-56304000D01*
X91247997Y-56237121D01*
X91213378Y-56107920D01*
X91146499Y-55992081D01*
X91051917Y-55897499D01*
X90936078Y-55830620D01*
X90806877Y-55796001D01*
X90673117Y-55796001D01*
X90543916Y-55830620D01*
X90428077Y-55897499D01*
X90333495Y-55992081D01*
X90266616Y-56107920D01*
X90231997Y-56237121D01*
X89612458Y-56237121D01*
X89491607Y-56116270D01*
X89491606Y-56116271D01*
X89475184Y-56303998D01*
X88750000Y-56303998D01*
X88750000Y-55674491D01*
X88769685Y-55607452D01*
X88822489Y-55561697D01*
X88826528Y-55559938D01*
X88993752Y-55490672D01*
X89007593Y-55484939D01*
X89007594Y-55484938D01*
X89007597Y-55484937D01*
X89179654Y-55369973D01*
X89325976Y-55223651D01*
X89438256Y-55055611D01*
X90552266Y-55055611D01*
X90739997Y-55243341D01*
X90739998Y-55243341D01*
X90927726Y-55055611D01*
X90927725Y-55055610D01*
X90740000Y-55039188D01*
X90739994Y-55039188D01*
X90552267Y-55055610D01*
X90552266Y-55055611D01*
X89438256Y-55055611D01*
X89440940Y-55051594D01*
X89520129Y-54860416D01*
X89560499Y-54657461D01*
X89560499Y-54450531D01*
X89560034Y-54448192D01*
X89560145Y-54446943D01*
X89559902Y-54444468D01*
X89560371Y-54444421D01*
X89566261Y-54378600D01*
X89609124Y-54323423D01*
X89675013Y-54300178D01*
X89681651Y-54300000D01*
X104476267Y-54300000D01*
X104522056Y-54308764D01*
G37*
%TD.AperFunction*%
%TA.AperFunction,Conductor*%
G36*
X124346328Y-25399999D02*
G01*
X124347626Y-25400007D01*
X124538077Y-25402343D01*
X124548681Y-25402930D01*
X124928224Y-25440312D01*
X124940249Y-25442096D01*
X125313527Y-25516345D01*
X125325327Y-25519300D01*
X125466859Y-25562234D01*
X125689544Y-25629785D01*
X125701002Y-25633885D01*
X126052627Y-25779532D01*
X126063626Y-25784734D01*
X126399282Y-25964147D01*
X126409713Y-25970399D01*
X126726169Y-26181849D01*
X126735942Y-26189097D01*
X126831185Y-26267260D01*
X127023298Y-26424923D01*
X127030148Y-26430544D01*
X127039165Y-26438717D01*
X127308282Y-26707834D01*
X127316455Y-26716851D01*
X127557902Y-27011057D01*
X127565150Y-27020830D01*
X127776600Y-27337286D01*
X127782856Y-27347724D01*
X127962264Y-27683372D01*
X127967467Y-27694372D01*
X128113114Y-28045997D01*
X128117214Y-28057455D01*
X128227698Y-28421670D01*
X128230654Y-28433474D01*
X128304902Y-28806744D01*
X128306688Y-28818781D01*
X128344068Y-29198304D01*
X128344656Y-29208937D01*
X128346991Y-29399266D01*
X128347000Y-29400787D01*
X128347000Y-101399212D01*
X128346991Y-101400733D01*
X128344656Y-101591062D01*
X128344068Y-101601695D01*
X128306688Y-101981218D01*
X128304902Y-101993255D01*
X128230654Y-102366525D01*
X128227698Y-102378329D01*
X128117214Y-102742544D01*
X128113114Y-102754002D01*
X127967467Y-103105627D01*
X127962264Y-103116627D01*
X127782856Y-103452275D01*
X127776600Y-103462713D01*
X127565150Y-103779169D01*
X127557902Y-103788942D01*
X127316455Y-104083148D01*
X127308282Y-104092165D01*
X127039165Y-104361282D01*
X127030148Y-104369455D01*
X126735942Y-104610902D01*
X126726169Y-104618150D01*
X126409713Y-104829600D01*
X126399275Y-104835856D01*
X126063627Y-105015264D01*
X126052627Y-105020467D01*
X125701002Y-105166114D01*
X125689544Y-105170214D01*
X125325329Y-105280698D01*
X125313525Y-105283654D01*
X124940255Y-105357902D01*
X124928218Y-105359688D01*
X124548695Y-105397068D01*
X124538062Y-105397656D01*
X124347734Y-105399991D01*
X124346213Y-105400000D01*
X52347787Y-105400000D01*
X52346266Y-105399991D01*
X52155937Y-105397656D01*
X52145304Y-105397068D01*
X51765781Y-105359688D01*
X51753744Y-105357902D01*
X51380474Y-105283654D01*
X51368670Y-105280698D01*
X51004455Y-105170214D01*
X50992997Y-105166114D01*
X50641372Y-105020467D01*
X50630372Y-105015264D01*
X50294724Y-104835856D01*
X50284286Y-104829600D01*
X49967830Y-104618150D01*
X49958057Y-104610902D01*
X49663851Y-104369455D01*
X49654834Y-104361282D01*
X49385717Y-104092165D01*
X49377544Y-104083148D01*
X49136097Y-103788942D01*
X49128849Y-103779169D01*
X48917399Y-103462713D01*
X48911143Y-103452275D01*
X48830017Y-103300500D01*
X48731734Y-103116626D01*
X48726532Y-103105627D01*
X48580885Y-102754002D01*
X48576785Y-102742544D01*
X48540444Y-102622743D01*
X48466300Y-102378327D01*
X48463345Y-102366525D01*
X48434240Y-102220205D01*
X48389096Y-101993249D01*
X48387311Y-101981218D01*
X48365080Y-101755500D01*
X48349930Y-101601681D01*
X48349343Y-101591077D01*
X48347007Y-101400589D01*
X48346999Y-101399366D01*
X48346968Y-101278711D01*
X50496500Y-101278711D01*
X50496500Y-101521288D01*
X50528161Y-101761785D01*
X50590947Y-101996104D01*
X50605701Y-102031722D01*
X50683776Y-102220212D01*
X50805064Y-102430289D01*
X50805066Y-102430292D01*
X50805067Y-102430293D01*
X50952733Y-102622736D01*
X50952739Y-102622743D01*
X51124256Y-102794260D01*
X51124262Y-102794265D01*
X51316711Y-102941936D01*
X51526788Y-103063224D01*
X51750900Y-103156054D01*
X51985211Y-103218838D01*
X52165586Y-103242584D01*
X52225711Y-103250500D01*
X52225712Y-103250500D01*
X52468289Y-103250500D01*
X52516388Y-103244167D01*
X52708789Y-103218838D01*
X52943100Y-103156054D01*
X53167212Y-103063224D01*
X53377289Y-102941936D01*
X53569738Y-102794265D01*
X53741265Y-102622738D01*
X53888936Y-102430289D01*
X53906423Y-102400000D01*
X106094540Y-102400000D01*
X106114326Y-102588256D01*
X106114327Y-102588259D01*
X106172818Y-102768277D01*
X106172821Y-102768284D01*
X106267467Y-102932216D01*
X106385429Y-103063226D01*
X106394129Y-103072888D01*
X106547265Y-103184148D01*
X106547270Y-103184151D01*
X106720192Y-103261142D01*
X106720197Y-103261144D01*
X106905354Y-103300500D01*
X106905355Y-103300500D01*
X107094644Y-103300500D01*
X107094646Y-103300500D01*
X107279803Y-103261144D01*
X107452730Y-103184151D01*
X107605871Y-103072888D01*
X107732533Y-102932216D01*
X107827179Y-102768284D01*
X107885674Y-102588256D01*
X107905460Y-102400000D01*
X109894540Y-102400000D01*
X109914326Y-102588256D01*
X109914327Y-102588259D01*
X109972818Y-102768277D01*
X109972821Y-102768284D01*
X110067467Y-102932216D01*
X110185429Y-103063226D01*
X110194129Y-103072888D01*
X110347265Y-103184148D01*
X110347270Y-103184151D01*
X110520192Y-103261142D01*
X110520197Y-103261144D01*
X110705354Y-103300500D01*
X110705355Y-103300500D01*
X110894644Y-103300500D01*
X110894646Y-103300500D01*
X111079803Y-103261144D01*
X111252730Y-103184151D01*
X111405871Y-103072888D01*
X111532533Y-102932216D01*
X111627179Y-102768284D01*
X111685674Y-102588256D01*
X111705460Y-102400000D01*
X111685674Y-102211744D01*
X111627179Y-102031716D01*
X111532533Y-101867784D01*
X111405871Y-101727112D01*
X111405870Y-101727111D01*
X111252734Y-101615851D01*
X111252729Y-101615848D01*
X111079807Y-101538857D01*
X111079802Y-101538855D01*
X110934001Y-101507865D01*
X110894646Y-101499500D01*
X110705354Y-101499500D01*
X110672897Y-101506398D01*
X110520197Y-101538855D01*
X110520192Y-101538857D01*
X110347270Y-101615848D01*
X110347265Y-101615851D01*
X110194129Y-101727111D01*
X110067466Y-101867785D01*
X109972821Y-102031715D01*
X109972818Y-102031722D01*
X109914327Y-102211740D01*
X109914326Y-102211744D01*
X109894540Y-102400000D01*
X107905460Y-102400000D01*
X107885674Y-102211744D01*
X107827179Y-102031716D01*
X107732533Y-101867784D01*
X107605871Y-101727112D01*
X107605870Y-101727111D01*
X107452734Y-101615851D01*
X107452729Y-101615848D01*
X107279807Y-101538857D01*
X107279802Y-101538855D01*
X107134001Y-101507865D01*
X107094646Y-101499500D01*
X106905354Y-101499500D01*
X106872897Y-101506398D01*
X106720197Y-101538855D01*
X106720192Y-101538857D01*
X106547270Y-101615848D01*
X106547265Y-101615851D01*
X106394129Y-101727111D01*
X106267466Y-101867785D01*
X106172821Y-102031715D01*
X106172818Y-102031722D01*
X106114327Y-102211740D01*
X106114326Y-102211744D01*
X106094540Y-102400000D01*
X53906423Y-102400000D01*
X54010224Y-102220212D01*
X54103054Y-101996100D01*
X54165838Y-101761789D01*
X54197500Y-101521288D01*
X54197500Y-101278712D01*
X54165838Y-101038211D01*
X54103054Y-100803900D01*
X54010224Y-100579788D01*
X53888936Y-100369711D01*
X53741265Y-100177262D01*
X53741260Y-100177256D01*
X53569743Y-100005739D01*
X53569736Y-100005733D01*
X53377293Y-99858067D01*
X53377292Y-99858066D01*
X53377289Y-99858064D01*
X53167212Y-99736776D01*
X53114867Y-99715094D01*
X52943104Y-99643947D01*
X52708785Y-99581161D01*
X52468289Y-99549500D01*
X52468288Y-99549500D01*
X52225712Y-99549500D01*
X52225711Y-99549500D01*
X51985214Y-99581161D01*
X51750895Y-99643947D01*
X51526794Y-99736773D01*
X51526785Y-99736777D01*
X51316706Y-99858067D01*
X51124263Y-100005733D01*
X51124256Y-100005739D01*
X50952739Y-100177256D01*
X50952733Y-100177263D01*
X50805067Y-100369706D01*
X50683777Y-100579785D01*
X50683773Y-100579794D01*
X50590947Y-100803895D01*
X50528161Y-101038214D01*
X50496500Y-101278711D01*
X48346968Y-101278711D01*
X48344415Y-91372614D01*
X50179962Y-91372614D01*
X50200442Y-91515069D01*
X50200443Y-91515073D01*
X50260229Y-91645984D01*
X50260230Y-91645985D01*
X50260231Y-91645987D01*
X50297850Y-91692670D01*
X50297853Y-91692673D01*
X50297858Y-91692679D01*
X52370575Y-93765394D01*
X53052558Y-94447377D01*
X53099241Y-94484997D01*
X53099242Y-94484997D01*
X53099244Y-94484999D01*
X53230154Y-94544784D01*
X53230155Y-94544784D01*
X53230157Y-94544785D01*
X53372614Y-94565266D01*
X53515071Y-94544785D01*
X53645987Y-94484997D01*
X53692670Y-94447378D01*
X54453489Y-93686559D01*
X54514812Y-93653074D01*
X54584503Y-93658058D01*
X54640437Y-93699930D01*
X54664854Y-93765394D01*
X54653369Y-93827037D01*
X54578644Y-93985835D01*
X54481418Y-94285064D01*
X54422459Y-94594136D01*
X54422458Y-94594143D01*
X54402704Y-94908142D01*
X54402704Y-94908153D01*
X54422458Y-95222152D01*
X54422459Y-95222159D01*
X54431163Y-95267785D01*
X54473831Y-95491462D01*
X54481418Y-95531231D01*
X54578645Y-95830464D01*
X54578647Y-95830469D01*
X54712609Y-96115151D01*
X54712612Y-96115157D01*
X54881199Y-96380809D01*
X54881202Y-96380813D01*
X55081754Y-96623238D01*
X55081756Y-96623240D01*
X55081758Y-96623242D01*
X55122120Y-96661144D01*
X55311116Y-96838624D01*
X55311126Y-96838632D01*
X55565652Y-97023556D01*
X55565657Y-97023558D01*
X55565664Y-97023564D01*
X55841382Y-97175142D01*
X55841387Y-97175144D01*
X55841389Y-97175145D01*
X55841390Y-97175146D01*
X56133919Y-97290966D01*
X56133922Y-97290967D01*
X56438671Y-97369213D01*
X56438675Y-97369214D01*
X56499643Y-97376916D01*
X56750818Y-97408647D01*
X56750827Y-97408647D01*
X56750830Y-97408648D01*
X56750832Y-97408648D01*
X57065464Y-97408648D01*
X57065466Y-97408648D01*
X57065469Y-97408647D01*
X57065477Y-97408647D01*
X57251741Y-97385116D01*
X57377621Y-97369214D01*
X57682373Y-97290967D01*
X57682376Y-97290966D01*
X57974905Y-97175146D01*
X57974906Y-97175145D01*
X57974904Y-97175145D01*
X57974914Y-97175142D01*
X58250632Y-97023564D01*
X58505178Y-96838626D01*
X58734538Y-96623242D01*
X58935095Y-96380811D01*
X59103685Y-96115155D01*
X59237651Y-95830463D01*
X59247549Y-95800000D01*
X61894540Y-95800000D01*
X61914326Y-95988256D01*
X61914327Y-95988259D01*
X61972818Y-96168277D01*
X61972821Y-96168284D01*
X62067467Y-96332216D01*
X62194129Y-96472888D01*
X62347265Y-96584148D01*
X62347270Y-96584151D01*
X62520192Y-96661142D01*
X62520197Y-96661144D01*
X62705354Y-96700500D01*
X62705355Y-96700500D01*
X62894644Y-96700500D01*
X62894646Y-96700500D01*
X63079803Y-96661144D01*
X63252730Y-96584151D01*
X63405871Y-96472888D01*
X63532533Y-96332216D01*
X63627179Y-96168284D01*
X63685674Y-95988256D01*
X63705460Y-95800000D01*
X63685674Y-95611744D01*
X63627179Y-95431716D01*
X63532533Y-95267784D01*
X63405871Y-95127112D01*
X63405870Y-95127111D01*
X63252734Y-95015851D01*
X63252729Y-95015848D01*
X63079807Y-94938857D01*
X63079802Y-94938855D01*
X62934001Y-94907865D01*
X62894646Y-94899500D01*
X62705354Y-94899500D01*
X62672897Y-94906398D01*
X62520197Y-94938855D01*
X62520192Y-94938857D01*
X62347270Y-95015848D01*
X62347265Y-95015851D01*
X62194129Y-95127111D01*
X62067466Y-95267785D01*
X61972821Y-95431715D01*
X61972818Y-95431722D01*
X61919178Y-95596810D01*
X61914326Y-95611744D01*
X61894540Y-95800000D01*
X59247549Y-95800000D01*
X59334879Y-95531227D01*
X59393836Y-95222163D01*
X59396198Y-95184622D01*
X59413592Y-94908153D01*
X59413592Y-94908142D01*
X59393837Y-94594143D01*
X59393836Y-94594136D01*
X59393836Y-94594133D01*
X59334879Y-94285069D01*
X59237651Y-93985833D01*
X59103685Y-93701141D01*
X59068562Y-93645796D01*
X58935096Y-93435486D01*
X58935093Y-93435482D01*
X58734541Y-93193057D01*
X58734539Y-93193055D01*
X58505179Y-92977671D01*
X58505169Y-92977663D01*
X58250643Y-92792739D01*
X58250636Y-92792734D01*
X58250632Y-92792732D01*
X57974914Y-92641154D01*
X57974911Y-92641152D01*
X57974906Y-92641150D01*
X57974905Y-92641149D01*
X57682376Y-92525329D01*
X57682373Y-92525328D01*
X57377624Y-92447082D01*
X57377611Y-92447080D01*
X57065477Y-92407648D01*
X57065466Y-92407648D01*
X56750830Y-92407648D01*
X56750818Y-92407648D01*
X56438684Y-92447080D01*
X56438671Y-92447082D01*
X56133922Y-92525328D01*
X56133919Y-92525329D01*
X55841390Y-92641149D01*
X55837863Y-92642810D01*
X55837758Y-92642587D01*
X55837758Y-92642588D01*
X55837755Y-92642581D01*
X55837110Y-92641211D01*
X55775775Y-92654632D01*
X55710281Y-92630294D01*
X55668342Y-92574412D01*
X55663273Y-92504726D01*
X55696680Y-92443366D01*
X56447377Y-91692670D01*
X56484997Y-91645987D01*
X56544785Y-91515071D01*
X56565266Y-91372614D01*
X56544785Y-91230157D01*
X56484997Y-91099241D01*
X56447378Y-91052558D01*
X56447373Y-91052553D01*
X56447369Y-91052548D01*
X53692677Y-88297858D01*
X53692670Y-88297851D01*
X53645987Y-88260231D01*
X53645985Y-88260230D01*
X53645983Y-88260228D01*
X53515073Y-88200443D01*
X53515069Y-88200442D01*
X53372614Y-88179962D01*
X53230158Y-88200442D01*
X53230154Y-88200443D01*
X53099243Y-88260229D01*
X53052548Y-88297858D01*
X50297858Y-91052550D01*
X50297852Y-91052557D01*
X50260230Y-91099242D01*
X50260228Y-91099244D01*
X50200443Y-91230154D01*
X50200442Y-91230158D01*
X50179962Y-91372614D01*
X48344415Y-91372614D01*
X48333013Y-47124001D01*
X50494500Y-47124001D01*
X50494500Y-71965072D01*
X50513433Y-72102121D01*
X50513436Y-72102131D01*
X50531669Y-72166857D01*
X50587063Y-72293655D01*
X54384993Y-78499769D01*
X62361440Y-91533908D01*
X62379643Y-91601365D01*
X62358487Y-91667955D01*
X62306110Y-91711913D01*
X62297267Y-91715849D01*
X62144129Y-91827111D01*
X62017466Y-91967785D01*
X61922821Y-92131715D01*
X61922818Y-92131722D01*
X61864327Y-92311740D01*
X61864326Y-92311744D01*
X61844540Y-92500000D01*
X61864326Y-92688256D01*
X61864327Y-92688259D01*
X61922818Y-92868277D01*
X61922821Y-92868284D01*
X62017467Y-93032216D01*
X62139027Y-93167222D01*
X62144129Y-93172888D01*
X62297265Y-93284148D01*
X62297270Y-93284151D01*
X62470192Y-93361142D01*
X62470197Y-93361144D01*
X62655354Y-93400500D01*
X62655355Y-93400500D01*
X62844644Y-93400500D01*
X62844646Y-93400500D01*
X63029803Y-93361144D01*
X63202730Y-93284151D01*
X63253213Y-93247472D01*
X63319016Y-93223993D01*
X63387070Y-93239818D01*
X63431863Y-93283064D01*
X68089552Y-100894091D01*
X68392946Y-101389861D01*
X68432552Y-101454581D01*
X68432556Y-101454587D01*
X68502376Y-101544218D01*
X68532558Y-101575070D01*
X68541104Y-101583806D01*
X68629157Y-101655567D01*
X68760034Y-101715338D01*
X68827073Y-101735023D01*
X68827077Y-101735024D01*
X68969493Y-101755500D01*
X68969496Y-101755500D01*
X74625990Y-101755500D01*
X74626000Y-101755500D01*
X74733456Y-101743947D01*
X74784967Y-101732741D01*
X74819197Y-101721347D01*
X74887497Y-101698616D01*
X74887501Y-101698613D01*
X74887504Y-101698613D01*
X75008543Y-101620825D01*
X75061347Y-101575070D01*
X75155567Y-101466336D01*
X75215338Y-101335459D01*
X75232001Y-101278711D01*
X122496500Y-101278711D01*
X122496500Y-101521288D01*
X122528161Y-101761785D01*
X122590947Y-101996104D01*
X122605701Y-102031722D01*
X122683776Y-102220212D01*
X122805064Y-102430289D01*
X122805066Y-102430292D01*
X122805067Y-102430293D01*
X122952733Y-102622736D01*
X122952739Y-102622743D01*
X123124256Y-102794260D01*
X123124262Y-102794265D01*
X123316711Y-102941936D01*
X123526788Y-103063224D01*
X123750900Y-103156054D01*
X123985211Y-103218838D01*
X124165586Y-103242584D01*
X124225711Y-103250500D01*
X124225712Y-103250500D01*
X124468289Y-103250500D01*
X124516388Y-103244167D01*
X124708789Y-103218838D01*
X124943100Y-103156054D01*
X125167212Y-103063224D01*
X125377289Y-102941936D01*
X125569738Y-102794265D01*
X125741265Y-102622738D01*
X125888936Y-102430289D01*
X126010224Y-102220212D01*
X126103054Y-101996100D01*
X126165838Y-101761789D01*
X126197500Y-101521288D01*
X126197500Y-101278712D01*
X126165838Y-101038211D01*
X126103054Y-100803900D01*
X126010224Y-100579788D01*
X125888936Y-100369711D01*
X125741265Y-100177262D01*
X125741260Y-100177256D01*
X125569743Y-100005739D01*
X125569736Y-100005733D01*
X125377293Y-99858067D01*
X125377292Y-99858066D01*
X125377289Y-99858064D01*
X125167212Y-99736776D01*
X125114867Y-99715094D01*
X124943104Y-99643947D01*
X124708785Y-99581161D01*
X124468289Y-99549500D01*
X124468288Y-99549500D01*
X124225712Y-99549500D01*
X124225711Y-99549500D01*
X123985214Y-99581161D01*
X123750895Y-99643947D01*
X123526794Y-99736773D01*
X123526785Y-99736777D01*
X123316706Y-99858067D01*
X123124263Y-100005733D01*
X123124256Y-100005739D01*
X122952739Y-100177256D01*
X122952733Y-100177263D01*
X122805067Y-100369706D01*
X122683777Y-100579785D01*
X122683773Y-100579794D01*
X122590947Y-100803895D01*
X122528161Y-101038214D01*
X122496500Y-101278711D01*
X75232001Y-101278711D01*
X75235023Y-101268420D01*
X75235024Y-101268416D01*
X75255500Y-101126000D01*
X75255500Y-101024499D01*
X75275185Y-100957460D01*
X75327989Y-100911705D01*
X75379495Y-100900499D01*
X79197872Y-100900499D01*
X79257483Y-100894091D01*
X79392331Y-100843796D01*
X79507546Y-100757546D01*
X79593796Y-100642331D01*
X79644091Y-100507483D01*
X79650500Y-100447873D01*
X79650499Y-97999994D01*
X98494556Y-97999994D01*
X98494556Y-98000005D01*
X98514310Y-98314004D01*
X98514311Y-98314011D01*
X98573270Y-98623083D01*
X98670497Y-98922316D01*
X98670499Y-98922321D01*
X98804461Y-99207003D01*
X98804464Y-99207009D01*
X98973051Y-99472661D01*
X98973054Y-99472665D01*
X99173606Y-99715090D01*
X99173608Y-99715092D01*
X99402968Y-99930476D01*
X99402978Y-99930484D01*
X99657504Y-100115408D01*
X99657509Y-100115410D01*
X99657516Y-100115416D01*
X99933234Y-100266994D01*
X99933239Y-100266996D01*
X99933241Y-100266997D01*
X99933242Y-100266998D01*
X100225771Y-100382818D01*
X100225774Y-100382819D01*
X100530523Y-100461065D01*
X100530527Y-100461066D01*
X100596010Y-100469338D01*
X100842670Y-100500499D01*
X100842679Y-100500499D01*
X100842682Y-100500500D01*
X100842684Y-100500500D01*
X101157316Y-100500500D01*
X101157318Y-100500500D01*
X101157321Y-100500499D01*
X101157329Y-100500499D01*
X101343593Y-100476968D01*
X101469473Y-100461066D01*
X101774225Y-100382819D01*
X101774228Y-100382818D01*
X102066757Y-100266998D01*
X102066758Y-100266997D01*
X102066756Y-100266997D01*
X102066766Y-100266994D01*
X102342484Y-100115416D01*
X102597030Y-99930478D01*
X102826390Y-99715094D01*
X103026947Y-99472663D01*
X103195537Y-99207007D01*
X103329503Y-98922315D01*
X103426731Y-98623079D01*
X103485688Y-98314015D01*
X103485689Y-98314004D01*
X103505444Y-98000005D01*
X103505444Y-97999994D01*
X103485689Y-97685995D01*
X103485688Y-97685988D01*
X103485688Y-97685985D01*
X103426731Y-97376921D01*
X103329503Y-97077685D01*
X103195537Y-96792993D01*
X103087809Y-96623240D01*
X103026948Y-96527338D01*
X103026945Y-96527334D01*
X102826393Y-96284909D01*
X102826391Y-96284907D01*
X102702201Y-96168284D01*
X102597030Y-96069522D01*
X102597027Y-96069520D01*
X102597021Y-96069515D01*
X102342495Y-95884591D01*
X102342488Y-95884586D01*
X102342484Y-95884584D01*
X102066766Y-95733006D01*
X102066763Y-95733004D01*
X102066758Y-95733002D01*
X102066757Y-95733001D01*
X101831333Y-95639791D01*
X101776247Y-95596810D01*
X101753144Y-95530871D01*
X101769357Y-95462909D01*
X101819740Y-95414501D01*
X101876978Y-95400499D01*
X102947872Y-95400499D01*
X103007483Y-95394091D01*
X103142331Y-95343796D01*
X103257546Y-95257546D01*
X103343796Y-95142331D01*
X103394091Y-95007483D01*
X103400500Y-94947873D01*
X103400500Y-94827387D01*
X116079961Y-94827387D01*
X116100441Y-94969842D01*
X116100442Y-94969846D01*
X116160228Y-95100757D01*
X116160229Y-95100758D01*
X116160230Y-95100760D01*
X116197849Y-95147443D01*
X116197852Y-95147446D01*
X116197857Y-95147452D01*
X118341373Y-97290966D01*
X118952557Y-97902150D01*
X118999240Y-97939770D01*
X118999241Y-97939770D01*
X118999243Y-97939772D01*
X119130153Y-97999557D01*
X119130154Y-97999557D01*
X119130156Y-97999558D01*
X119272613Y-98020039D01*
X119415070Y-97999558D01*
X119545986Y-97939770D01*
X119592669Y-97902151D01*
X122347376Y-95147443D01*
X122384996Y-95100760D01*
X122444784Y-94969844D01*
X122465265Y-94827387D01*
X122444784Y-94684930D01*
X122384996Y-94554014D01*
X122347377Y-94507331D01*
X122347372Y-94507326D01*
X122347368Y-94507321D01*
X121596791Y-93756745D01*
X121563306Y-93695422D01*
X121568290Y-93625731D01*
X121610162Y-93569797D01*
X121675626Y-93545380D01*
X121737124Y-93558758D01*
X121737754Y-93557419D01*
X121737757Y-93557413D01*
X121737862Y-93557191D01*
X121741389Y-93558851D01*
X122033918Y-93674671D01*
X122033921Y-93674672D01*
X122338670Y-93752918D01*
X122338674Y-93752919D01*
X122404157Y-93761191D01*
X122650817Y-93792352D01*
X122650826Y-93792352D01*
X122650829Y-93792353D01*
X122650831Y-93792353D01*
X122965463Y-93792353D01*
X122965465Y-93792353D01*
X122965468Y-93792352D01*
X122965476Y-93792352D01*
X123178869Y-93765394D01*
X123277620Y-93752919D01*
X123582372Y-93674672D01*
X123582375Y-93674671D01*
X123874904Y-93558851D01*
X123874905Y-93558850D01*
X123874903Y-93558850D01*
X123874913Y-93558847D01*
X124150631Y-93407269D01*
X124405177Y-93222331D01*
X124634537Y-93006947D01*
X124835094Y-92764516D01*
X125003684Y-92498860D01*
X125137650Y-92214168D01*
X125234878Y-91914932D01*
X125293835Y-91605868D01*
X125293836Y-91605857D01*
X125313591Y-91291858D01*
X125313591Y-91291847D01*
X125293836Y-90977848D01*
X125293835Y-90977841D01*
X125293835Y-90977838D01*
X125234878Y-90668774D01*
X125137650Y-90369538D01*
X125003684Y-90084846D01*
X124835094Y-89819190D01*
X124835092Y-89819187D01*
X124634540Y-89576762D01*
X124634538Y-89576760D01*
X124405178Y-89361376D01*
X124405168Y-89361368D01*
X124150642Y-89176444D01*
X124150635Y-89176439D01*
X124150631Y-89176437D01*
X123874913Y-89024859D01*
X123874910Y-89024857D01*
X123874905Y-89024855D01*
X123874904Y-89024854D01*
X123582375Y-88909034D01*
X123582372Y-88909033D01*
X123277623Y-88830787D01*
X123277610Y-88830785D01*
X122965476Y-88791353D01*
X122965465Y-88791353D01*
X122650829Y-88791353D01*
X122650817Y-88791353D01*
X122338683Y-88830785D01*
X122338670Y-88830787D01*
X122033921Y-88909033D01*
X122033918Y-88909034D01*
X121741389Y-89024854D01*
X121741388Y-89024855D01*
X121465663Y-89176437D01*
X121465651Y-89176444D01*
X121211125Y-89361368D01*
X121211115Y-89361376D01*
X120981755Y-89576760D01*
X120981753Y-89576762D01*
X120781201Y-89819187D01*
X120781198Y-89819191D01*
X120612611Y-90084843D01*
X120612608Y-90084849D01*
X120478646Y-90369531D01*
X120478644Y-90369536D01*
X120381417Y-90668769D01*
X120322458Y-90977841D01*
X120322457Y-90977848D01*
X120302703Y-91291847D01*
X120302703Y-91291858D01*
X120322457Y-91605857D01*
X120322458Y-91605864D01*
X120334303Y-91667955D01*
X120364663Y-91827112D01*
X120381417Y-91914936D01*
X120478644Y-92214169D01*
X120478646Y-92214174D01*
X120553368Y-92372965D01*
X120564101Y-92442005D01*
X120535805Y-92505889D01*
X120477462Y-92544332D01*
X120407597Y-92545131D01*
X120353489Y-92513443D01*
X119592676Y-91752631D01*
X119592669Y-91752624D01*
X119545986Y-91715004D01*
X119545984Y-91715003D01*
X119545982Y-91715001D01*
X119415072Y-91655216D01*
X119415068Y-91655215D01*
X119272613Y-91634735D01*
X119130157Y-91655215D01*
X119130153Y-91655216D01*
X118999242Y-91715002D01*
X118952547Y-91752631D01*
X116197857Y-94507323D01*
X116197851Y-94507330D01*
X116160229Y-94554015D01*
X116160227Y-94554017D01*
X116100442Y-94684927D01*
X116100441Y-94684931D01*
X116079961Y-94827387D01*
X103400500Y-94827387D01*
X103400499Y-91052128D01*
X103394091Y-90992517D01*
X103388617Y-90977841D01*
X103343797Y-90857671D01*
X103343793Y-90857664D01*
X103257547Y-90742455D01*
X103257544Y-90742452D01*
X103142335Y-90656206D01*
X103142328Y-90656202D01*
X103007482Y-90605908D01*
X103007483Y-90605908D01*
X102947883Y-90599501D01*
X102947881Y-90599500D01*
X102947873Y-90599500D01*
X102947864Y-90599500D01*
X99052129Y-90599500D01*
X99052123Y-90599501D01*
X98992516Y-90605908D01*
X98857671Y-90656202D01*
X98857664Y-90656206D01*
X98742455Y-90742452D01*
X98742452Y-90742455D01*
X98656206Y-90857664D01*
X98656202Y-90857671D01*
X98605908Y-90992517D01*
X98599501Y-91052116D01*
X98599501Y-91052123D01*
X98599500Y-91052135D01*
X98599500Y-94947870D01*
X98599501Y-94947876D01*
X98605908Y-95007483D01*
X98656202Y-95142328D01*
X98656206Y-95142335D01*
X98742452Y-95257544D01*
X98742455Y-95257547D01*
X98857664Y-95343793D01*
X98857671Y-95343797D01*
X98992517Y-95394091D01*
X98992516Y-95394091D01*
X98999444Y-95394835D01*
X99052127Y-95400500D01*
X100123020Y-95400499D01*
X100190057Y-95420183D01*
X100235812Y-95472987D01*
X100245756Y-95542146D01*
X100216731Y-95605702D01*
X100168666Y-95639791D01*
X99933239Y-95733003D01*
X99657516Y-95884584D01*
X99657504Y-95884591D01*
X99402978Y-96069515D01*
X99402968Y-96069523D01*
X99173608Y-96284907D01*
X99173606Y-96284909D01*
X98973054Y-96527334D01*
X98973051Y-96527338D01*
X98804464Y-96792990D01*
X98804461Y-96792996D01*
X98670499Y-97077678D01*
X98670497Y-97077683D01*
X98573270Y-97376916D01*
X98514311Y-97685988D01*
X98514310Y-97685995D01*
X98494556Y-97999994D01*
X79650499Y-97999994D01*
X79650499Y-96552128D01*
X79644091Y-96492517D01*
X79602427Y-96380811D01*
X79593797Y-96357671D01*
X79593793Y-96357664D01*
X79507547Y-96242455D01*
X79507544Y-96242452D01*
X79392335Y-96156206D01*
X79392328Y-96156202D01*
X79257482Y-96105908D01*
X79257483Y-96105908D01*
X79197883Y-96099501D01*
X79197881Y-96099500D01*
X79197873Y-96099500D01*
X79197865Y-96099500D01*
X75379500Y-96099500D01*
X75312461Y-96079815D01*
X75266706Y-96027011D01*
X75255500Y-95975500D01*
X75255500Y-95874010D01*
X75255500Y-95874000D01*
X75243947Y-95766544D01*
X75232741Y-95715033D01*
X75207698Y-95639791D01*
X75198616Y-95612502D01*
X75198613Y-95612496D01*
X75151337Y-95538934D01*
X75120825Y-95491457D01*
X75104821Y-95472987D01*
X75075076Y-95438659D01*
X75075072Y-95438656D01*
X75075070Y-95438653D01*
X74966336Y-95344433D01*
X74966333Y-95344431D01*
X74966331Y-95344430D01*
X74835465Y-95284664D01*
X74835460Y-95284662D01*
X74835459Y-95284662D01*
X74777983Y-95267785D01*
X74768417Y-95264976D01*
X74716724Y-95257544D01*
X74626000Y-95244500D01*
X74625998Y-95244500D01*
X71105147Y-95244500D01*
X71038108Y-95224815D01*
X70999013Y-95184622D01*
X66416033Y-87598999D01*
X77169540Y-87598999D01*
X77189326Y-87787255D01*
X77189327Y-87787258D01*
X77247818Y-87967276D01*
X77247821Y-87967283D01*
X77342467Y-88131215D01*
X77458631Y-88260228D01*
X77469129Y-88271887D01*
X77622265Y-88383147D01*
X77622270Y-88383150D01*
X77795192Y-88460141D01*
X77795197Y-88460143D01*
X77980354Y-88499499D01*
X77980355Y-88499499D01*
X78169644Y-88499499D01*
X78169646Y-88499499D01*
X78354803Y-88460143D01*
X78527730Y-88383150D01*
X78680871Y-88271887D01*
X78807533Y-88131215D01*
X78902179Y-87967283D01*
X78955070Y-87804501D01*
X78994505Y-87746829D01*
X79058863Y-87719630D01*
X79098778Y-87721531D01*
X79230354Y-87749499D01*
X79230355Y-87749499D01*
X79419644Y-87749499D01*
X79419646Y-87749499D01*
X79604803Y-87710143D01*
X79777730Y-87633150D01*
X79930871Y-87521887D01*
X80057533Y-87381215D01*
X80152179Y-87217283D01*
X80210674Y-87037255D01*
X80230460Y-86848999D01*
X80210674Y-86660743D01*
X80152179Y-86480715D01*
X80057533Y-86316783D01*
X79930871Y-86176111D01*
X79930870Y-86176110D01*
X79777734Y-86064850D01*
X79777729Y-86064847D01*
X79604807Y-85987856D01*
X79604802Y-85987854D01*
X79435011Y-85951765D01*
X79419646Y-85948499D01*
X79313033Y-85948499D01*
X79245994Y-85928814D01*
X79200239Y-85876010D01*
X79195102Y-85862817D01*
X79152181Y-85730721D01*
X79152180Y-85730720D01*
X79152179Y-85730715D01*
X79057533Y-85566783D01*
X78930871Y-85426111D01*
X78930870Y-85426110D01*
X78777734Y-85314850D01*
X78777729Y-85314847D01*
X78604807Y-85237856D01*
X78604802Y-85237854D01*
X78459001Y-85206864D01*
X78419646Y-85198499D01*
X78230354Y-85198499D01*
X78197897Y-85205397D01*
X78045197Y-85237854D01*
X78045192Y-85237856D01*
X77872270Y-85314847D01*
X77872265Y-85314850D01*
X77719129Y-85426110D01*
X77592466Y-85566784D01*
X77497821Y-85730714D01*
X77497818Y-85730721D01*
X77439327Y-85910739D01*
X77439326Y-85910743D01*
X77419540Y-86098999D01*
X77439326Y-86287255D01*
X77439327Y-86287258D01*
X77497818Y-86467276D01*
X77497821Y-86467283D01*
X77592467Y-86631215D01*
X77610165Y-86650871D01*
X77612058Y-86652973D01*
X77642288Y-86715964D01*
X77633663Y-86785300D01*
X77592794Y-86836263D01*
X77469127Y-86926112D01*
X77342466Y-87066784D01*
X77247821Y-87230714D01*
X77247818Y-87230721D01*
X77198921Y-87381213D01*
X77189326Y-87410743D01*
X77169540Y-87598999D01*
X66416033Y-87598999D01*
X61762137Y-79895999D01*
X67145539Y-79895999D01*
X67165325Y-80084255D01*
X67165326Y-80084258D01*
X67223817Y-80264276D01*
X67223820Y-80264283D01*
X67318466Y-80428215D01*
X67370624Y-80486142D01*
X67445128Y-80568887D01*
X67598264Y-80680147D01*
X67598269Y-80680150D01*
X67771191Y-80757141D01*
X67771196Y-80757143D01*
X67956353Y-80796499D01*
X67956354Y-80796499D01*
X68145643Y-80796499D01*
X68145645Y-80796499D01*
X68330802Y-80757143D01*
X68503729Y-80680150D01*
X68656870Y-80568887D01*
X68783532Y-80428215D01*
X68878178Y-80264283D01*
X68936673Y-80084255D01*
X68956459Y-79895999D01*
X68936673Y-79707743D01*
X68878178Y-79527715D01*
X68783532Y-79363783D01*
X68656870Y-79223111D01*
X68656869Y-79223110D01*
X68503733Y-79111850D01*
X68503728Y-79111847D01*
X68330806Y-79034856D01*
X68330801Y-79034854D01*
X68185000Y-79003864D01*
X68145645Y-78995499D01*
X67956353Y-78995499D01*
X67923896Y-79002397D01*
X67771196Y-79034854D01*
X67771191Y-79034856D01*
X67598269Y-79111847D01*
X67598264Y-79111850D01*
X67445128Y-79223110D01*
X67318465Y-79363784D01*
X67223820Y-79527714D01*
X67223817Y-79527721D01*
X67172149Y-79686740D01*
X67165325Y-79707743D01*
X67145539Y-79895999D01*
X61762137Y-79895999D01*
X58516180Y-74523381D01*
X63494500Y-74523381D01*
X63494500Y-77876000D01*
X63494501Y-77876009D01*
X63506052Y-77983450D01*
X63506054Y-77983462D01*
X63517260Y-78034972D01*
X63551383Y-78137497D01*
X63551386Y-78137503D01*
X63629171Y-78258537D01*
X63629179Y-78258548D01*
X63674923Y-78311340D01*
X63674926Y-78311343D01*
X63674930Y-78311347D01*
X63783664Y-78405567D01*
X63783667Y-78405568D01*
X63783668Y-78405569D01*
X63860883Y-78440833D01*
X63914541Y-78465338D01*
X63981580Y-78485023D01*
X63981584Y-78485024D01*
X64124000Y-78505500D01*
X68733468Y-78505500D01*
X68800507Y-78525185D01*
X68846262Y-78577989D01*
X68856788Y-78616535D01*
X68864326Y-78688256D01*
X68864327Y-78688259D01*
X68922818Y-78868277D01*
X68922821Y-78868284D01*
X69017467Y-79032216D01*
X69144129Y-79172888D01*
X69297265Y-79284148D01*
X69297270Y-79284151D01*
X69470192Y-79361142D01*
X69470197Y-79361144D01*
X69655354Y-79400500D01*
X69655355Y-79400500D01*
X69761967Y-79400500D01*
X69829006Y-79420185D01*
X69874761Y-79472989D01*
X69879898Y-79486182D01*
X69922818Y-79618277D01*
X69922821Y-79618284D01*
X70017467Y-79782216D01*
X70113487Y-79888857D01*
X70144129Y-79922888D01*
X70297265Y-80034148D01*
X70297270Y-80034151D01*
X70470192Y-80111142D01*
X70470197Y-80111144D01*
X70655354Y-80150500D01*
X70655355Y-80150500D01*
X70844644Y-80150500D01*
X70844646Y-80150500D01*
X71029803Y-80111144D01*
X71202730Y-80034151D01*
X71355871Y-79922888D01*
X71357212Y-79921399D01*
X76518140Y-79921399D01*
X76537926Y-80109655D01*
X76537927Y-80109658D01*
X76596418Y-80289676D01*
X76596421Y-80289683D01*
X76691067Y-80453615D01*
X76788427Y-80561744D01*
X76817729Y-80594287D01*
X76970865Y-80705547D01*
X76970870Y-80705550D01*
X77143792Y-80782541D01*
X77143797Y-80782543D01*
X77328954Y-80821899D01*
X77328955Y-80821899D01*
X77518244Y-80821899D01*
X77518246Y-80821899D01*
X77703403Y-80782543D01*
X77876330Y-80705550D01*
X78029471Y-80594287D01*
X78156133Y-80453615D01*
X78250779Y-80289683D01*
X78309274Y-80109655D01*
X78329060Y-79921399D01*
X78324183Y-79875000D01*
X96469540Y-79875000D01*
X96489326Y-80063256D01*
X96489327Y-80063259D01*
X96547818Y-80243277D01*
X96547821Y-80243284D01*
X96642467Y-80407216D01*
X96748971Y-80525500D01*
X96769129Y-80547888D01*
X96922265Y-80659148D01*
X96922270Y-80659151D01*
X97095192Y-80736142D01*
X97095197Y-80736144D01*
X97280354Y-80775500D01*
X97280355Y-80775500D01*
X97469644Y-80775500D01*
X97469646Y-80775500D01*
X97589615Y-80750000D01*
X102094540Y-80750000D01*
X102114326Y-80938256D01*
X102114327Y-80938259D01*
X102172818Y-81118277D01*
X102172821Y-81118284D01*
X102267467Y-81282216D01*
X102394129Y-81422888D01*
X102547265Y-81534148D01*
X102547270Y-81534151D01*
X102720192Y-81611142D01*
X102720197Y-81611144D01*
X102905354Y-81650500D01*
X102905355Y-81650500D01*
X103094644Y-81650500D01*
X103094646Y-81650500D01*
X103279803Y-81611144D01*
X103452730Y-81534151D01*
X103605871Y-81422888D01*
X103732533Y-81282216D01*
X103827179Y-81118284D01*
X103885674Y-80938256D01*
X103905460Y-80750000D01*
X103885674Y-80561744D01*
X103827179Y-80381716D01*
X103732533Y-80217784D01*
X103605871Y-80077112D01*
X103586800Y-80063256D01*
X103452734Y-79965851D01*
X103452729Y-79965848D01*
X103279807Y-79888857D01*
X103279802Y-79888855D01*
X103134001Y-79857865D01*
X103094646Y-79849500D01*
X102905354Y-79849500D01*
X102872897Y-79856398D01*
X102720197Y-79888855D01*
X102720192Y-79888857D01*
X102547270Y-79965848D01*
X102547265Y-79965851D01*
X102394129Y-80077111D01*
X102267466Y-80217785D01*
X102172821Y-80381715D01*
X102172818Y-80381722D01*
X102126102Y-80525500D01*
X102114326Y-80561744D01*
X102094540Y-80750000D01*
X97589615Y-80750000D01*
X97654803Y-80736144D01*
X97827730Y-80659151D01*
X97980871Y-80547888D01*
X98064532Y-80454972D01*
X98124019Y-80418324D01*
X98193876Y-80419655D01*
X98207104Y-80424660D01*
X98345197Y-80486144D01*
X98530354Y-80525500D01*
X98530355Y-80525500D01*
X98719644Y-80525500D01*
X98719646Y-80525500D01*
X98904803Y-80486144D01*
X99077730Y-80409151D01*
X99230871Y-80297888D01*
X99357533Y-80157216D01*
X99452179Y-79993284D01*
X99510674Y-79813256D01*
X99530460Y-79625000D01*
X99510674Y-79436744D01*
X99452179Y-79256716D01*
X99357533Y-79092784D01*
X99230871Y-78952112D01*
X99230867Y-78952109D01*
X99077734Y-78840851D01*
X99077729Y-78840848D01*
X98904807Y-78763857D01*
X98904802Y-78763855D01*
X98759001Y-78732865D01*
X98719646Y-78724500D01*
X98530354Y-78724500D01*
X98497897Y-78731398D01*
X98345197Y-78763855D01*
X98345192Y-78763857D01*
X98172270Y-78840848D01*
X98172265Y-78840851D01*
X98019132Y-78952109D01*
X98019129Y-78952111D01*
X98019129Y-78952112D01*
X97957193Y-79020899D01*
X97935468Y-79045027D01*
X97875981Y-79081675D01*
X97806124Y-79080344D01*
X97792882Y-79075333D01*
X97654807Y-79013857D01*
X97654802Y-79013855D01*
X97509001Y-78982865D01*
X97469646Y-78974500D01*
X97280354Y-78974500D01*
X97247897Y-78981398D01*
X97095197Y-79013855D01*
X97095192Y-79013857D01*
X96922270Y-79090848D01*
X96922265Y-79090851D01*
X96769129Y-79202111D01*
X96642466Y-79342785D01*
X96547821Y-79506715D01*
X96547818Y-79506722D01*
X96489327Y-79686740D01*
X96489326Y-79686744D01*
X96469540Y-79875000D01*
X78324183Y-79875000D01*
X78309274Y-79733143D01*
X78250779Y-79553115D01*
X78156133Y-79389183D01*
X78029471Y-79248511D01*
X77994511Y-79223111D01*
X77876334Y-79137250D01*
X77876329Y-79137247D01*
X77703407Y-79060256D01*
X77703402Y-79060254D01*
X77557601Y-79029264D01*
X77518246Y-79020899D01*
X77328954Y-79020899D01*
X77296497Y-79027797D01*
X77143797Y-79060254D01*
X77143792Y-79060256D01*
X76970870Y-79137247D01*
X76970865Y-79137250D01*
X76817729Y-79248510D01*
X76691066Y-79389184D01*
X76596421Y-79553114D01*
X76596418Y-79553121D01*
X76553003Y-79686740D01*
X76537926Y-79733143D01*
X76518140Y-79921399D01*
X71357212Y-79921399D01*
X71482533Y-79782216D01*
X71577179Y-79618284D01*
X71635674Y-79438256D01*
X71655460Y-79250000D01*
X71635674Y-79061744D01*
X71577179Y-78881716D01*
X71482533Y-78717784D01*
X71458652Y-78691262D01*
X71453541Y-78685585D01*
X71423311Y-78622593D01*
X71431936Y-78553258D01*
X71476678Y-78499593D01*
X71543330Y-78478635D01*
X71580633Y-78483638D01*
X71585349Y-78485023D01*
X71585353Y-78485024D01*
X71727769Y-78505500D01*
X71727772Y-78505500D01*
X86048640Y-78505500D01*
X86058786Y-78504955D01*
X86102678Y-78502603D01*
X86102686Y-78502602D01*
X86102688Y-78502602D01*
X86102689Y-78502602D01*
X86109682Y-78501849D01*
X86129036Y-78499769D01*
X86129046Y-78499767D01*
X86129049Y-78499767D01*
X86138648Y-78498211D01*
X86182448Y-78491114D01*
X86317257Y-78440832D01*
X86378580Y-78407347D01*
X86493762Y-78321123D01*
X88064885Y-76750000D01*
X102094540Y-76750000D01*
X102114326Y-76938256D01*
X102114327Y-76938259D01*
X102172818Y-77118277D01*
X102172821Y-77118284D01*
X102267467Y-77282216D01*
X102351908Y-77375997D01*
X102394129Y-77422888D01*
X102534236Y-77524682D01*
X102576902Y-77580012D01*
X102582881Y-77649625D01*
X102550275Y-77711420D01*
X102534236Y-77725318D01*
X102394129Y-77827111D01*
X102267466Y-77967785D01*
X102172821Y-78131715D01*
X102172818Y-78131722D01*
X102114457Y-78311340D01*
X102114326Y-78311744D01*
X102094540Y-78500000D01*
X102114326Y-78688256D01*
X102114327Y-78688259D01*
X102172818Y-78868277D01*
X102172821Y-78868284D01*
X102267467Y-79032216D01*
X102394129Y-79172888D01*
X102547265Y-79284148D01*
X102547270Y-79284151D01*
X102720192Y-79361142D01*
X102720197Y-79361144D01*
X102905354Y-79400500D01*
X102905355Y-79400500D01*
X103094644Y-79400500D01*
X103094646Y-79400500D01*
X103279803Y-79361144D01*
X103452730Y-79284151D01*
X103605871Y-79172888D01*
X103732533Y-79032216D01*
X103827179Y-78868284D01*
X103885674Y-78688256D01*
X103905460Y-78500000D01*
X103885674Y-78311744D01*
X103827179Y-78131716D01*
X103732533Y-77967784D01*
X103605871Y-77827112D01*
X103603060Y-77825070D01*
X103465763Y-77725318D01*
X103423097Y-77669988D01*
X103417118Y-77600375D01*
X103449723Y-77538580D01*
X103465763Y-77524682D01*
X103474387Y-77518416D01*
X103605871Y-77422888D01*
X103732533Y-77282216D01*
X103827179Y-77118284D01*
X103885674Y-76938256D01*
X103905460Y-76750000D01*
X103885674Y-76561744D01*
X103827179Y-76381716D01*
X103732533Y-76217784D01*
X103605871Y-76077112D01*
X103605870Y-76077111D01*
X103452734Y-75965851D01*
X103452729Y-75965848D01*
X103279807Y-75888857D01*
X103279802Y-75888855D01*
X103134001Y-75857865D01*
X103094646Y-75849500D01*
X102905354Y-75849500D01*
X102872897Y-75856398D01*
X102720197Y-75888855D01*
X102720192Y-75888857D01*
X102547270Y-75965848D01*
X102547265Y-75965851D01*
X102394129Y-76077111D01*
X102267466Y-76217785D01*
X102172821Y-76381715D01*
X102172818Y-76381722D01*
X102114327Y-76561740D01*
X102114326Y-76561744D01*
X102094540Y-76750000D01*
X88064885Y-76750000D01*
X90564884Y-74250000D01*
X102094540Y-74250000D01*
X102114326Y-74438256D01*
X102114327Y-74438259D01*
X102172818Y-74618277D01*
X102172821Y-74618284D01*
X102267467Y-74782216D01*
X102362946Y-74888256D01*
X102394129Y-74922888D01*
X102547265Y-75034148D01*
X102547270Y-75034151D01*
X102720192Y-75111142D01*
X102720197Y-75111144D01*
X102905354Y-75150500D01*
X102905355Y-75150500D01*
X103094644Y-75150500D01*
X103094646Y-75150500D01*
X103279803Y-75111144D01*
X103452730Y-75034151D01*
X103605871Y-74922888D01*
X103732533Y-74782216D01*
X103780000Y-74700000D01*
X106044540Y-74700000D01*
X106064326Y-74888256D01*
X106064327Y-74888259D01*
X106122818Y-75068277D01*
X106122821Y-75068284D01*
X106217467Y-75232216D01*
X106344129Y-75372888D01*
X106497265Y-75484148D01*
X106497270Y-75484151D01*
X106670192Y-75561142D01*
X106670197Y-75561144D01*
X106855354Y-75600500D01*
X106855355Y-75600500D01*
X107044644Y-75600500D01*
X107044646Y-75600500D01*
X107229803Y-75561144D01*
X107402730Y-75484151D01*
X107555871Y-75372888D01*
X107682533Y-75232216D01*
X107777179Y-75068284D01*
X107835674Y-74888256D01*
X107855460Y-74700000D01*
X107835674Y-74511744D01*
X107777179Y-74331716D01*
X107682533Y-74167784D01*
X107555871Y-74027112D01*
X107555870Y-74027111D01*
X107402734Y-73915851D01*
X107402729Y-73915848D01*
X107229807Y-73838857D01*
X107229802Y-73838855D01*
X107073377Y-73805607D01*
X107044646Y-73799500D01*
X106855354Y-73799500D01*
X106826623Y-73805607D01*
X106670197Y-73838855D01*
X106670192Y-73838857D01*
X106497270Y-73915848D01*
X106497265Y-73915851D01*
X106344129Y-74027111D01*
X106217466Y-74167785D01*
X106122821Y-74331715D01*
X106122818Y-74331722D01*
X106071277Y-74490350D01*
X106064326Y-74511744D01*
X106044540Y-74700000D01*
X103780000Y-74700000D01*
X103827179Y-74618284D01*
X103885674Y-74438256D01*
X103905460Y-74250000D01*
X103885674Y-74061744D01*
X103827179Y-73881716D01*
X103732533Y-73717784D01*
X103605871Y-73577112D01*
X103605870Y-73577111D01*
X103452734Y-73465851D01*
X103452729Y-73465848D01*
X103279807Y-73388857D01*
X103279802Y-73388855D01*
X103134001Y-73357865D01*
X103094646Y-73349500D01*
X102905354Y-73349500D01*
X102872897Y-73356398D01*
X102720197Y-73388855D01*
X102720192Y-73388857D01*
X102547270Y-73465848D01*
X102547265Y-73465851D01*
X102394129Y-73577111D01*
X102267466Y-73717785D01*
X102172821Y-73881715D01*
X102172818Y-73881722D01*
X102125108Y-74028560D01*
X102114326Y-74061744D01*
X102094540Y-74250000D01*
X90564884Y-74250000D01*
X92622147Y-72192737D01*
X92655112Y-72156405D01*
X92670385Y-72137836D01*
X92699681Y-72098469D01*
X92762056Y-71968812D01*
X92783077Y-71902180D01*
X92806397Y-71760202D01*
X92936601Y-65250000D01*
X96594540Y-65250000D01*
X96614326Y-65438256D01*
X96614327Y-65438258D01*
X96614327Y-65438259D01*
X96672818Y-65618277D01*
X96672821Y-65618284D01*
X96767467Y-65782216D01*
X96894129Y-65922888D01*
X97047265Y-66034148D01*
X97047270Y-66034151D01*
X97220192Y-66111142D01*
X97220197Y-66111144D01*
X97405354Y-66150500D01*
X97405355Y-66150500D01*
X97594644Y-66150500D01*
X97594646Y-66150500D01*
X97730530Y-66121617D01*
X97800197Y-66126933D01*
X97855931Y-66169070D01*
X97880036Y-66234650D01*
X97874242Y-66281224D01*
X97864327Y-66311739D01*
X97864327Y-66311740D01*
X97864326Y-66311744D01*
X97844540Y-66500000D01*
X97864326Y-66688256D01*
X97864327Y-66688259D01*
X97922818Y-66868277D01*
X97922821Y-66868284D01*
X98017467Y-67032216D01*
X98072914Y-67093796D01*
X98144129Y-67172888D01*
X98297265Y-67284148D01*
X98297270Y-67284151D01*
X98470192Y-67361142D01*
X98470197Y-67361144D01*
X98655354Y-67400500D01*
X98655355Y-67400500D01*
X98844644Y-67400500D01*
X98844646Y-67400500D01*
X99029803Y-67361144D01*
X99202730Y-67284151D01*
X99355871Y-67172888D01*
X99482533Y-67032216D01*
X99577179Y-66868284D01*
X99635674Y-66688256D01*
X99655460Y-66500000D01*
X99635674Y-66311744D01*
X99577179Y-66131716D01*
X99482533Y-65967784D01*
X99355871Y-65827112D01*
X99355870Y-65827111D01*
X99202734Y-65715851D01*
X99202729Y-65715848D01*
X99029807Y-65638857D01*
X99029802Y-65638855D01*
X98884001Y-65607865D01*
X98844646Y-65599500D01*
X98655354Y-65599500D01*
X98546882Y-65622556D01*
X98519468Y-65628383D01*
X98449801Y-65623066D01*
X98394068Y-65580928D01*
X98369963Y-65515348D01*
X98375757Y-65468776D01*
X98385674Y-65438256D01*
X98405460Y-65250000D01*
X98385674Y-65061744D01*
X98327179Y-64881716D01*
X98232533Y-64717784D01*
X98105871Y-64577112D01*
X98095142Y-64569317D01*
X97952734Y-64465851D01*
X97952729Y-64465848D01*
X97779807Y-64388857D01*
X97779802Y-64388855D01*
X97634001Y-64357865D01*
X97594646Y-64349500D01*
X97405354Y-64349500D01*
X97372897Y-64356398D01*
X97220197Y-64388855D01*
X97220192Y-64388857D01*
X97047270Y-64465848D01*
X97047265Y-64465851D01*
X96894129Y-64577111D01*
X96767466Y-64717785D01*
X96672821Y-64881715D01*
X96672818Y-64881722D01*
X96614327Y-65061740D01*
X96614326Y-65061744D01*
X96594540Y-65250000D01*
X92936601Y-65250000D01*
X92971126Y-63523722D01*
X92996759Y-62242092D01*
X92996759Y-62242089D01*
X92996650Y-62240906D01*
X92996706Y-62240619D01*
X92996634Y-62238621D01*
X92996828Y-62238613D01*
X92996846Y-62238613D01*
X92997101Y-62238604D01*
X93010084Y-62172340D01*
X93058455Y-62121922D01*
X93120124Y-62105500D01*
X94460743Y-62105500D01*
X94527782Y-62125185D01*
X94573537Y-62177989D01*
X94583481Y-62247147D01*
X94554456Y-62310703D01*
X94531866Y-62331074D01*
X94529137Y-62332985D01*
X94526664Y-62334717D01*
X94370711Y-62490670D01*
X94244203Y-62671344D01*
X94244202Y-62671346D01*
X94150992Y-62871237D01*
X94150988Y-62871246D01*
X94093907Y-63084277D01*
X94093905Y-63084287D01*
X94074683Y-63304000D01*
X94074683Y-63304003D01*
X94093905Y-63523716D01*
X94093907Y-63523726D01*
X94150988Y-63736757D01*
X94150993Y-63736771D01*
X94244201Y-63936656D01*
X94244205Y-63936664D01*
X94370710Y-64117332D01*
X94526667Y-64273289D01*
X94707335Y-64399794D01*
X94707337Y-64399795D01*
X94707340Y-64399797D01*
X94827601Y-64455875D01*
X94907228Y-64493006D01*
X94907230Y-64493006D01*
X94907235Y-64493009D01*
X95120278Y-64550094D01*
X95277220Y-64563824D01*
X95339996Y-64569317D01*
X95339998Y-64569317D01*
X95340000Y-64569317D01*
X95394928Y-64564511D01*
X95559718Y-64550094D01*
X95772761Y-64493009D01*
X95972656Y-64399797D01*
X96153327Y-64273290D01*
X96309286Y-64117331D01*
X96435793Y-63936660D01*
X96529005Y-63736765D01*
X96586090Y-63523722D01*
X96605313Y-63304002D01*
X96586090Y-63084282D01*
X96529005Y-62871239D01*
X96435793Y-62671345D01*
X96309286Y-62490673D01*
X96309284Y-62490670D01*
X96153328Y-62334714D01*
X96148128Y-62331073D01*
X96104505Y-62276496D01*
X96097313Y-62206997D01*
X96128837Y-62144643D01*
X96189067Y-62109230D01*
X96219254Y-62105500D01*
X97348254Y-62105500D01*
X97415293Y-62125185D01*
X97433756Y-62139692D01*
X97444581Y-62149998D01*
X97444583Y-62150000D01*
X97829107Y-62516104D01*
X108594702Y-72765982D01*
X112762386Y-76734016D01*
X113915524Y-77831914D01*
X113951766Y-77863282D01*
X113951769Y-77863284D01*
X113961370Y-77870828D01*
X113970232Y-77877791D01*
X114009254Y-77905567D01*
X114009258Y-77905569D01*
X114009262Y-77905571D01*
X114140124Y-77965335D01*
X114140131Y-77965338D01*
X114207170Y-77985023D01*
X114207174Y-77985024D01*
X114349590Y-78005500D01*
X114349593Y-78005500D01*
X119475990Y-78005500D01*
X119476000Y-78005500D01*
X119583456Y-77993947D01*
X119634967Y-77982741D01*
X119679905Y-77967784D01*
X119737497Y-77948616D01*
X119737501Y-77948613D01*
X119737504Y-77948613D01*
X119858543Y-77870825D01*
X119911347Y-77825070D01*
X120005567Y-77716336D01*
X120065338Y-77585459D01*
X120085023Y-77518420D01*
X120085024Y-77518416D01*
X120105500Y-77376000D01*
X120105500Y-77274499D01*
X120125185Y-77207460D01*
X120177989Y-77161705D01*
X120229500Y-77150499D01*
X123947871Y-77150499D01*
X123947872Y-77150499D01*
X124007483Y-77144091D01*
X124142331Y-77093796D01*
X124257546Y-77007546D01*
X124343796Y-76892331D01*
X124394091Y-76757483D01*
X124400500Y-76697873D01*
X124400499Y-72802128D01*
X124394091Y-72742517D01*
X124343796Y-72607669D01*
X124343795Y-72607668D01*
X124343793Y-72607664D01*
X124257547Y-72492455D01*
X124257544Y-72492452D01*
X124142335Y-72406206D01*
X124142328Y-72406202D01*
X124007482Y-72355908D01*
X124007483Y-72355908D01*
X123947883Y-72349501D01*
X123947881Y-72349500D01*
X123947873Y-72349500D01*
X123947865Y-72349500D01*
X120229500Y-72349500D01*
X120162461Y-72329815D01*
X120116706Y-72277011D01*
X120105500Y-72225500D01*
X120105500Y-68029510D01*
X120105500Y-68029500D01*
X120093947Y-67922044D01*
X120082741Y-67870533D01*
X120063566Y-67812921D01*
X120048616Y-67768002D01*
X120048613Y-67767997D01*
X120048613Y-67767996D01*
X120019565Y-67722797D01*
X119999881Y-67655760D01*
X120011087Y-67604248D01*
X120065338Y-67485459D01*
X120085023Y-67418420D01*
X120085024Y-67418416D01*
X120105500Y-67276000D01*
X120105500Y-67274499D01*
X120105641Y-67274016D01*
X120105816Y-67271580D01*
X120106345Y-67271617D01*
X120125185Y-67207460D01*
X120177989Y-67161705D01*
X120229500Y-67150499D01*
X123947871Y-67150499D01*
X123947872Y-67150499D01*
X124007483Y-67144091D01*
X124142331Y-67093796D01*
X124257546Y-67007546D01*
X124343796Y-66892331D01*
X124394091Y-66757483D01*
X124400500Y-66697873D01*
X124400499Y-62802128D01*
X124394091Y-62742517D01*
X124367545Y-62671344D01*
X124343797Y-62607671D01*
X124343793Y-62607664D01*
X124257547Y-62492455D01*
X124257544Y-62492452D01*
X124142335Y-62406206D01*
X124142328Y-62406202D01*
X124007482Y-62355908D01*
X124007483Y-62355908D01*
X123947883Y-62349501D01*
X123947881Y-62349500D01*
X123947873Y-62349500D01*
X123947865Y-62349500D01*
X120229500Y-62349500D01*
X120162461Y-62329815D01*
X120116706Y-62277011D01*
X120105500Y-62225500D01*
X120105500Y-60384145D01*
X120105470Y-60381813D01*
X120105341Y-60371484D01*
X120105281Y-60369096D01*
X120105186Y-60365275D01*
X120104708Y-60352586D01*
X120077115Y-60211377D01*
X120077114Y-60211373D01*
X120054095Y-60145416D01*
X120054092Y-60145407D01*
X119987834Y-60017693D01*
X119888277Y-59913818D01*
X119888276Y-59913817D01*
X119888275Y-59913816D01*
X119839192Y-59875421D01*
X119838352Y-59874678D01*
X119833245Y-59870769D01*
X119708453Y-59799148D01*
X119708448Y-59799146D01*
X115796514Y-58244736D01*
X115741481Y-58201687D01*
X115718459Y-58135720D01*
X115734756Y-58067777D01*
X115785199Y-58019431D01*
X115842303Y-58005500D01*
X119375990Y-58005500D01*
X119376000Y-58005500D01*
X119483456Y-57993947D01*
X119534967Y-57982741D01*
X119569197Y-57971347D01*
X119637497Y-57948616D01*
X119637501Y-57948613D01*
X119637504Y-57948613D01*
X119758543Y-57870825D01*
X119811347Y-57825070D01*
X119905567Y-57716336D01*
X119965338Y-57585459D01*
X119985023Y-57518420D01*
X119985024Y-57518416D01*
X120005500Y-57376000D01*
X120005500Y-57274499D01*
X120025185Y-57207460D01*
X120077989Y-57161705D01*
X120129495Y-57150499D01*
X123947872Y-57150499D01*
X124007483Y-57144091D01*
X124142331Y-57093796D01*
X124257546Y-57007546D01*
X124343796Y-56892331D01*
X124394091Y-56757483D01*
X124400500Y-56697873D01*
X124400499Y-52802128D01*
X124394091Y-52742517D01*
X124343796Y-52607669D01*
X124343795Y-52607668D01*
X124343793Y-52607664D01*
X124257547Y-52492455D01*
X124257544Y-52492452D01*
X124142335Y-52406206D01*
X124142328Y-52406202D01*
X124007482Y-52355908D01*
X124007483Y-52355908D01*
X123947883Y-52349501D01*
X123947881Y-52349500D01*
X123947873Y-52349500D01*
X123947865Y-52349500D01*
X120129500Y-52349500D01*
X120062461Y-52329815D01*
X120016706Y-52277011D01*
X120005500Y-52225500D01*
X120005500Y-50724010D01*
X120005500Y-50724000D01*
X119993947Y-50616544D01*
X119982741Y-50565033D01*
X119982637Y-50564722D01*
X119948616Y-50462502D01*
X119948613Y-50462496D01*
X119870828Y-50341462D01*
X119870825Y-50341457D01*
X119870820Y-50341451D01*
X119825076Y-50288659D01*
X119825072Y-50288656D01*
X119825070Y-50288653D01*
X119716336Y-50194433D01*
X119716333Y-50194431D01*
X119716331Y-50194430D01*
X119585465Y-50134664D01*
X119585460Y-50134662D01*
X119585459Y-50134662D01*
X119518420Y-50114977D01*
X119518422Y-50114977D01*
X119518417Y-50114976D01*
X119456354Y-50106053D01*
X119376000Y-50094500D01*
X89379500Y-50094500D01*
X89312461Y-50074815D01*
X89266706Y-50022011D01*
X89255500Y-49970500D01*
X89255500Y-36129500D01*
X89275185Y-36062461D01*
X89327989Y-36016706D01*
X89379500Y-36005500D01*
X95325990Y-36005500D01*
X95326000Y-36005500D01*
X95433456Y-35993947D01*
X95484967Y-35982741D01*
X95519197Y-35971347D01*
X95587497Y-35948616D01*
X95587501Y-35948613D01*
X95587504Y-35948613D01*
X95675833Y-35891847D01*
X117186409Y-35891847D01*
X117186409Y-35891858D01*
X117206163Y-36205857D01*
X117206164Y-36205864D01*
X117265123Y-36514936D01*
X117362350Y-36814169D01*
X117362352Y-36814174D01*
X117496314Y-37098856D01*
X117496317Y-37098862D01*
X117664904Y-37364514D01*
X117664907Y-37364518D01*
X117865459Y-37606943D01*
X117865461Y-37606945D01*
X118094821Y-37822329D01*
X118094831Y-37822337D01*
X118349357Y-38007261D01*
X118349362Y-38007263D01*
X118349369Y-38007269D01*
X118625087Y-38158847D01*
X118625092Y-38158849D01*
X118625094Y-38158850D01*
X118625095Y-38158851D01*
X118917624Y-38274671D01*
X118917627Y-38274672D01*
X118996909Y-38295028D01*
X119222380Y-38352919D01*
X119287863Y-38361191D01*
X119534523Y-38392352D01*
X119534532Y-38392352D01*
X119534535Y-38392353D01*
X119534537Y-38392353D01*
X119849169Y-38392353D01*
X119849171Y-38392353D01*
X119849174Y-38392352D01*
X119849182Y-38392352D01*
X120035446Y-38368821D01*
X120161326Y-38352919D01*
X120466078Y-38274672D01*
X120466081Y-38274671D01*
X120758610Y-38158851D01*
X120762138Y-38157191D01*
X120762242Y-38157413D01*
X120762243Y-38157413D01*
X120762245Y-38157419D01*
X120762914Y-38158841D01*
X120823974Y-38145351D01*
X120889517Y-38169556D01*
X120931570Y-38225353D01*
X120936780Y-38295028D01*
X120903494Y-38356460D01*
X120152631Y-39107323D01*
X120152625Y-39107329D01*
X120152624Y-39107331D01*
X120151966Y-39108148D01*
X120115003Y-39154015D01*
X120115001Y-39154017D01*
X120055216Y-39284927D01*
X120055215Y-39284931D01*
X120034735Y-39427387D01*
X120055215Y-39569842D01*
X120055216Y-39569846D01*
X120115002Y-39700757D01*
X120115003Y-39700758D01*
X120115004Y-39700760D01*
X120152623Y-39747443D01*
X120152626Y-39747446D01*
X120152631Y-39747452D01*
X122907315Y-42502134D01*
X122907331Y-42502150D01*
X122954014Y-42539770D01*
X122954015Y-42539770D01*
X122954017Y-42539772D01*
X123084927Y-42599557D01*
X123084928Y-42599557D01*
X123084930Y-42599558D01*
X123227387Y-42620039D01*
X123369844Y-42599558D01*
X123500760Y-42539770D01*
X123547443Y-42502151D01*
X126302150Y-39747443D01*
X126339770Y-39700760D01*
X126399558Y-39569844D01*
X126420039Y-39427387D01*
X126399558Y-39284930D01*
X126339770Y-39154014D01*
X126302151Y-39107331D01*
X126302146Y-39107326D01*
X126302142Y-39107321D01*
X123547450Y-36352631D01*
X123547443Y-36352624D01*
X123500760Y-36315004D01*
X123500758Y-36315003D01*
X123500756Y-36315001D01*
X123369846Y-36255216D01*
X123369842Y-36255215D01*
X123227387Y-36234735D01*
X123084931Y-36255215D01*
X123084927Y-36255216D01*
X122954016Y-36315002D01*
X122907321Y-36352631D01*
X122146511Y-37113441D01*
X122085188Y-37146926D01*
X122015496Y-37141942D01*
X121959563Y-37100070D01*
X121935146Y-37034606D01*
X121946631Y-36972966D01*
X122021356Y-36814168D01*
X122118584Y-36514932D01*
X122177541Y-36205868D01*
X122182346Y-36129500D01*
X122197297Y-35891858D01*
X122197297Y-35891847D01*
X122177542Y-35577848D01*
X122177541Y-35577841D01*
X122177541Y-35577838D01*
X122118584Y-35268774D01*
X122021356Y-34969538D01*
X121887390Y-34684846D01*
X121756286Y-34478259D01*
X121718801Y-34419191D01*
X121718798Y-34419187D01*
X121518246Y-34176762D01*
X121518244Y-34176760D01*
X121288884Y-33961376D01*
X121288874Y-33961368D01*
X121034348Y-33776444D01*
X121034341Y-33776439D01*
X121034337Y-33776437D01*
X120758619Y-33624859D01*
X120758616Y-33624857D01*
X120758611Y-33624855D01*
X120758610Y-33624854D01*
X120466081Y-33509034D01*
X120466078Y-33509033D01*
X120161329Y-33430787D01*
X120161316Y-33430785D01*
X119849182Y-33391353D01*
X119849171Y-33391353D01*
X119534535Y-33391353D01*
X119534523Y-33391353D01*
X119222389Y-33430785D01*
X119222376Y-33430787D01*
X118917627Y-33509033D01*
X118917624Y-33509034D01*
X118625095Y-33624854D01*
X118625094Y-33624855D01*
X118349369Y-33776437D01*
X118349357Y-33776444D01*
X118094831Y-33961368D01*
X118094821Y-33961376D01*
X117865461Y-34176760D01*
X117865459Y-34176762D01*
X117664907Y-34419187D01*
X117664904Y-34419191D01*
X117496317Y-34684843D01*
X117496314Y-34684849D01*
X117362352Y-34969531D01*
X117362350Y-34969536D01*
X117265123Y-35268769D01*
X117206164Y-35577841D01*
X117206163Y-35577848D01*
X117186409Y-35891847D01*
X95675833Y-35891847D01*
X95708543Y-35870825D01*
X95761347Y-35825070D01*
X95855567Y-35716336D01*
X95915338Y-35585459D01*
X95935023Y-35518420D01*
X95935024Y-35518416D01*
X95955500Y-35376000D01*
X95955500Y-34290000D01*
X108060540Y-34290000D01*
X108080326Y-34478256D01*
X108080327Y-34478259D01*
X108138818Y-34658277D01*
X108138821Y-34658284D01*
X108233467Y-34822216D01*
X108360129Y-34962888D01*
X108513265Y-35074148D01*
X108513270Y-35074151D01*
X108686192Y-35151142D01*
X108686197Y-35151144D01*
X108871354Y-35190500D01*
X108871355Y-35190500D01*
X109060644Y-35190500D01*
X109060646Y-35190500D01*
X109245803Y-35151144D01*
X109418730Y-35074151D01*
X109571871Y-34962888D01*
X109698533Y-34822216D01*
X109793179Y-34658284D01*
X109851674Y-34478256D01*
X109871460Y-34290000D01*
X109851674Y-34101744D01*
X109793179Y-33921716D01*
X109698533Y-33757784D01*
X109571871Y-33617112D01*
X109571870Y-33617111D01*
X109418734Y-33505851D01*
X109418729Y-33505848D01*
X109245807Y-33428857D01*
X109245802Y-33428855D01*
X109100001Y-33397865D01*
X109060646Y-33389500D01*
X108871354Y-33389500D01*
X108838897Y-33396398D01*
X108686197Y-33428855D01*
X108686192Y-33428857D01*
X108513270Y-33505848D01*
X108513265Y-33505851D01*
X108360129Y-33617111D01*
X108233466Y-33757785D01*
X108138821Y-33921715D01*
X108138818Y-33921722D01*
X108080327Y-34101740D01*
X108080326Y-34101744D01*
X108060540Y-34290000D01*
X95955500Y-34290000D01*
X95955500Y-32766000D01*
X105520540Y-32766000D01*
X105540326Y-32954256D01*
X105540327Y-32954259D01*
X105598818Y-33134277D01*
X105598821Y-33134284D01*
X105693467Y-33298216D01*
X105775660Y-33389500D01*
X105820129Y-33438888D01*
X105973265Y-33550148D01*
X105973270Y-33550151D01*
X106146192Y-33627142D01*
X106146197Y-33627144D01*
X106331354Y-33666500D01*
X106331355Y-33666500D01*
X106520644Y-33666500D01*
X106520646Y-33666500D01*
X106705803Y-33627144D01*
X106878730Y-33550151D01*
X107031871Y-33438888D01*
X107158533Y-33298216D01*
X107253179Y-33134284D01*
X107311674Y-32954256D01*
X107331460Y-32766000D01*
X107311674Y-32577744D01*
X107253179Y-32397716D01*
X107158533Y-32233784D01*
X107031871Y-32093112D01*
X107031870Y-32093111D01*
X106878734Y-31981851D01*
X106878729Y-31981848D01*
X106705807Y-31904857D01*
X106705802Y-31904855D01*
X106560001Y-31873865D01*
X106520646Y-31865500D01*
X106331354Y-31865500D01*
X106298897Y-31872398D01*
X106146197Y-31904855D01*
X106146192Y-31904857D01*
X105973270Y-31981848D01*
X105973265Y-31981851D01*
X105820129Y-32093111D01*
X105693466Y-32233785D01*
X105598821Y-32397715D01*
X105598818Y-32397722D01*
X105557626Y-32524499D01*
X105540326Y-32577744D01*
X105520540Y-32766000D01*
X95955500Y-32766000D01*
X95955500Y-32524499D01*
X95975185Y-32457460D01*
X96027989Y-32411705D01*
X96079495Y-32400499D01*
X99947872Y-32400499D01*
X100007483Y-32394091D01*
X100142331Y-32343796D01*
X100257546Y-32257546D01*
X100343796Y-32142331D01*
X100394091Y-32007483D01*
X100400500Y-31947873D01*
X100400499Y-29278711D01*
X122496500Y-29278711D01*
X122496500Y-29521288D01*
X122528161Y-29761785D01*
X122590947Y-29996104D01*
X122592561Y-30000000D01*
X122683776Y-30220212D01*
X122805064Y-30430289D01*
X122805066Y-30430292D01*
X122805067Y-30430293D01*
X122952733Y-30622736D01*
X122952739Y-30622743D01*
X123124256Y-30794260D01*
X123124262Y-30794265D01*
X123316711Y-30941936D01*
X123526788Y-31063224D01*
X123750900Y-31156054D01*
X123985211Y-31218838D01*
X124165586Y-31242584D01*
X124225711Y-31250500D01*
X124225712Y-31250500D01*
X124468289Y-31250500D01*
X124516388Y-31244167D01*
X124708789Y-31218838D01*
X124943100Y-31156054D01*
X125167212Y-31063224D01*
X125377289Y-30941936D01*
X125569738Y-30794265D01*
X125741265Y-30622738D01*
X125888936Y-30430289D01*
X126010224Y-30220212D01*
X126103054Y-29996100D01*
X126165838Y-29761789D01*
X126197500Y-29521288D01*
X126197500Y-29278712D01*
X126165838Y-29038211D01*
X126103054Y-28803900D01*
X126010224Y-28579788D01*
X125888936Y-28369711D01*
X125741265Y-28177262D01*
X125741260Y-28177256D01*
X125569743Y-28005739D01*
X125569736Y-28005733D01*
X125377293Y-27858067D01*
X125377292Y-27858066D01*
X125377289Y-27858064D01*
X125205661Y-27758974D01*
X125167214Y-27736777D01*
X125167205Y-27736773D01*
X124943104Y-27643947D01*
X124801145Y-27605909D01*
X124708789Y-27581162D01*
X124708788Y-27581161D01*
X124708785Y-27581161D01*
X124468289Y-27549500D01*
X124468288Y-27549500D01*
X124225712Y-27549500D01*
X124225711Y-27549500D01*
X123985214Y-27581161D01*
X123750895Y-27643947D01*
X123526794Y-27736773D01*
X123526785Y-27736777D01*
X123316706Y-27858067D01*
X123124263Y-28005733D01*
X123124256Y-28005739D01*
X122952739Y-28177256D01*
X122952733Y-28177263D01*
X122805067Y-28369706D01*
X122683777Y-28579785D01*
X122683773Y-28579794D01*
X122590947Y-28803895D01*
X122528161Y-29038214D01*
X122496500Y-29278711D01*
X100400499Y-29278711D01*
X100400499Y-28052128D01*
X100394091Y-27992517D01*
X100391599Y-27985836D01*
X100343797Y-27857671D01*
X100343793Y-27857664D01*
X100257547Y-27742455D01*
X100257544Y-27742452D01*
X100142335Y-27656206D01*
X100142328Y-27656202D01*
X100007482Y-27605908D01*
X100007483Y-27605908D01*
X99947883Y-27599501D01*
X99947881Y-27599500D01*
X99947873Y-27599500D01*
X99947865Y-27599500D01*
X96079500Y-27599500D01*
X96012461Y-27579815D01*
X95966706Y-27527011D01*
X95955500Y-27475500D01*
X95955500Y-26874010D01*
X95955500Y-26874000D01*
X95943947Y-26766544D01*
X95932741Y-26715033D01*
X95930345Y-26707834D01*
X95898616Y-26612502D01*
X95898613Y-26612496D01*
X95820828Y-26491462D01*
X95820825Y-26491457D01*
X95820820Y-26491451D01*
X95775076Y-26438659D01*
X95775072Y-26438656D01*
X95775070Y-26438653D01*
X95666336Y-26344433D01*
X95666333Y-26344431D01*
X95666331Y-26344430D01*
X95535465Y-26284664D01*
X95535460Y-26284662D01*
X95535459Y-26284662D01*
X95468420Y-26264977D01*
X95468422Y-26264977D01*
X95468417Y-26264976D01*
X95406347Y-26256052D01*
X95326000Y-26244500D01*
X71824000Y-26244500D01*
X71823991Y-26244500D01*
X71823990Y-26244501D01*
X71716549Y-26256052D01*
X71716537Y-26256054D01*
X71665027Y-26267260D01*
X71562502Y-26301383D01*
X71562496Y-26301386D01*
X71441462Y-26379171D01*
X71441451Y-26379179D01*
X71388659Y-26424923D01*
X71294433Y-26533664D01*
X71294430Y-26533668D01*
X71234664Y-26664534D01*
X71214976Y-26731582D01*
X71209949Y-26766549D01*
X71194502Y-26873990D01*
X71194500Y-26874001D01*
X71194500Y-46925247D01*
X71174815Y-46992286D01*
X71122011Y-47038041D01*
X71120936Y-47038526D01*
X70947270Y-47115848D01*
X70947266Y-47115850D01*
X70893350Y-47155023D01*
X70827544Y-47178502D01*
X70759490Y-47162676D01*
X70710796Y-47112570D01*
X70696921Y-47044091D01*
X70713078Y-46992706D01*
X70727179Y-46968284D01*
X70785674Y-46788256D01*
X70805460Y-46600000D01*
X70785674Y-46411744D01*
X70727179Y-46231716D01*
X70632533Y-46067784D01*
X70505871Y-45927112D01*
X70505870Y-45927111D01*
X70352734Y-45815851D01*
X70352729Y-45815848D01*
X70179807Y-45738857D01*
X70179802Y-45738855D01*
X70034001Y-45707865D01*
X69994646Y-45699500D01*
X69805354Y-45699500D01*
X69772897Y-45706398D01*
X69620197Y-45738855D01*
X69620192Y-45738857D01*
X69447270Y-45815848D01*
X69447265Y-45815851D01*
X69294129Y-45927111D01*
X69167466Y-46067785D01*
X69072821Y-46231715D01*
X69072818Y-46231722D01*
X69014327Y-46411740D01*
X69014326Y-46411744D01*
X68994540Y-46600000D01*
X69014326Y-46788256D01*
X69014327Y-46788259D01*
X69072818Y-46968277D01*
X69072820Y-46968282D01*
X69072821Y-46968284D01*
X69167467Y-47132216D01*
X69251461Y-47225500D01*
X69294129Y-47272888D01*
X69447265Y-47384148D01*
X69447270Y-47384151D01*
X69620192Y-47461142D01*
X69620197Y-47461144D01*
X69805354Y-47500500D01*
X69805355Y-47500500D01*
X69994644Y-47500500D01*
X69994646Y-47500500D01*
X70179803Y-47461144D01*
X70352730Y-47384151D01*
X70406647Y-47344977D01*
X70472453Y-47321497D01*
X70540507Y-47337322D01*
X70589202Y-47387427D01*
X70603078Y-47455905D01*
X70586921Y-47507293D01*
X70572822Y-47531713D01*
X70572818Y-47531722D01*
X70514327Y-47711740D01*
X70514326Y-47711744D01*
X70494540Y-47900000D01*
X70514326Y-48088256D01*
X70514327Y-48088259D01*
X70572818Y-48268277D01*
X70572821Y-48268284D01*
X70667467Y-48432216D01*
X70794129Y-48572888D01*
X70947265Y-48684148D01*
X70947266Y-48684148D01*
X70947270Y-48684151D01*
X71120197Y-48761144D01*
X71120936Y-48761473D01*
X71174173Y-48806723D01*
X71194494Y-48873572D01*
X71194500Y-48874752D01*
X71194500Y-57531165D01*
X71194500Y-61476000D01*
X71194501Y-61476009D01*
X71206052Y-61583450D01*
X71206054Y-61583462D01*
X71217260Y-61634972D01*
X71251383Y-61737497D01*
X71251386Y-61737503D01*
X71329171Y-61858537D01*
X71329179Y-61858548D01*
X71374923Y-61911340D01*
X71374926Y-61911343D01*
X71374930Y-61911347D01*
X71483664Y-62005567D01*
X71483667Y-62005568D01*
X71483668Y-62005569D01*
X71544807Y-62033491D01*
X71614541Y-62065338D01*
X71681580Y-62085023D01*
X71681584Y-62085024D01*
X71824000Y-62105500D01*
X71824003Y-62105500D01*
X79177621Y-62105500D01*
X79244660Y-62125185D01*
X79290415Y-62177989D01*
X79300359Y-62247147D01*
X79288622Y-62284769D01*
X79275709Y-62310703D01*
X79259668Y-62342916D01*
X79199263Y-62555220D01*
X79178898Y-62774998D01*
X79178898Y-62774999D01*
X79199263Y-62994777D01*
X79199263Y-62994779D01*
X79199264Y-62994782D01*
X79259668Y-63207081D01*
X79259669Y-63207084D01*
X79358054Y-63404666D01*
X79491071Y-63580810D01*
X79603566Y-63683362D01*
X79639848Y-63743073D01*
X79638087Y-63812921D01*
X79603566Y-63866636D01*
X79491071Y-63969187D01*
X79358054Y-64145331D01*
X79259669Y-64342913D01*
X79199263Y-64555220D01*
X79178898Y-64774998D01*
X79178898Y-64774999D01*
X79199263Y-64994777D01*
X79199263Y-64994779D01*
X79199264Y-64994782D01*
X79259668Y-65207081D01*
X79259669Y-65207084D01*
X79358054Y-65404666D01*
X79491071Y-65580810D01*
X79603566Y-65683362D01*
X79639848Y-65743073D01*
X79638087Y-65812921D01*
X79603566Y-65866636D01*
X79491071Y-65969187D01*
X79358054Y-66145331D01*
X79259669Y-66342913D01*
X79199263Y-66555220D01*
X79178898Y-66774998D01*
X79178898Y-66774999D01*
X79199263Y-66994777D01*
X79199263Y-66994779D01*
X79199264Y-66994782D01*
X79249939Y-67172888D01*
X79259669Y-67207084D01*
X79358054Y-67404666D01*
X79491071Y-67580810D01*
X79603566Y-67683362D01*
X79639848Y-67743073D01*
X79638087Y-67812921D01*
X79603566Y-67866636D01*
X79491071Y-67969187D01*
X79358054Y-68145331D01*
X79259669Y-68342913D01*
X79199263Y-68555220D01*
X79178898Y-68774998D01*
X79178898Y-68774999D01*
X79199263Y-68994777D01*
X79199263Y-68994779D01*
X79199264Y-68994782D01*
X79259668Y-69207081D01*
X79259669Y-69207084D01*
X79358054Y-69404666D01*
X79491071Y-69580810D01*
X79603566Y-69683362D01*
X79639848Y-69743073D01*
X79638087Y-69812921D01*
X79603566Y-69866636D01*
X79491071Y-69969187D01*
X79358054Y-70145331D01*
X79259669Y-70342913D01*
X79229466Y-70449066D01*
X79219485Y-70484148D01*
X79199263Y-70555220D01*
X79178898Y-70774998D01*
X79178898Y-70774999D01*
X79199263Y-70994777D01*
X79259669Y-71207084D01*
X79358054Y-71404666D01*
X79491071Y-71580810D01*
X79603566Y-71683362D01*
X79639848Y-71743073D01*
X79638087Y-71812921D01*
X79603566Y-71866636D01*
X79491071Y-71969187D01*
X79358054Y-72145331D01*
X79259669Y-72342913D01*
X79199263Y-72555220D01*
X79178898Y-72774998D01*
X79178898Y-72774999D01*
X79199263Y-72994777D01*
X79259669Y-73207084D01*
X79358054Y-73404666D01*
X79491071Y-73580810D01*
X79513989Y-73601702D01*
X79550271Y-73661413D01*
X79548510Y-73731261D01*
X79509267Y-73789068D01*
X79445000Y-73816483D01*
X79431071Y-73817337D01*
X64120857Y-73893888D01*
X64120855Y-73893888D01*
X64014691Y-73905705D01*
X63963790Y-73916912D01*
X63862499Y-73950766D01*
X63862493Y-73950769D01*
X63741462Y-74028551D01*
X63741451Y-74028560D01*
X63688659Y-74074304D01*
X63594433Y-74183045D01*
X63594430Y-74183049D01*
X63534664Y-74313915D01*
X63534662Y-74313922D01*
X63514977Y-74380961D01*
X63514976Y-74380965D01*
X63494500Y-74523381D01*
X58516180Y-74523381D01*
X56773366Y-71638723D01*
X56755500Y-71574601D01*
X56755500Y-69700000D01*
X72994538Y-69700000D01*
X73014324Y-69888256D01*
X73014325Y-69888259D01*
X73072816Y-70068277D01*
X73072819Y-70068284D01*
X73167465Y-70232216D01*
X73267137Y-70342913D01*
X73294127Y-70372888D01*
X73447263Y-70484148D01*
X73447268Y-70484151D01*
X73620190Y-70561142D01*
X73620195Y-70561144D01*
X73805352Y-70600500D01*
X73805353Y-70600500D01*
X73994642Y-70600500D01*
X73994644Y-70600500D01*
X74179801Y-70561144D01*
X74352728Y-70484151D01*
X74505869Y-70372888D01*
X74632531Y-70232216D01*
X74727177Y-70068284D01*
X74785672Y-69888256D01*
X74805458Y-69700000D01*
X74785672Y-69511744D01*
X74727177Y-69331716D01*
X74632531Y-69167784D01*
X74505869Y-69027112D01*
X74505868Y-69027111D01*
X74352732Y-68915851D01*
X74352727Y-68915848D01*
X74179805Y-68838857D01*
X74179800Y-68838855D01*
X74033999Y-68807865D01*
X73994644Y-68799500D01*
X73805352Y-68799500D01*
X73772895Y-68806398D01*
X73620195Y-68838855D01*
X73620190Y-68838857D01*
X73447268Y-68915848D01*
X73447263Y-68915851D01*
X73294127Y-69027111D01*
X73167464Y-69167785D01*
X73072819Y-69331715D01*
X73072816Y-69331722D01*
X73014325Y-69511740D01*
X73014324Y-69511744D01*
X72994538Y-69700000D01*
X56755500Y-69700000D01*
X56755500Y-52274499D01*
X56775185Y-52207460D01*
X56827989Y-52161705D01*
X56879500Y-52150499D01*
X60647871Y-52150499D01*
X60647872Y-52150499D01*
X60707483Y-52144091D01*
X60842331Y-52093796D01*
X60957546Y-52007546D01*
X61043796Y-51892331D01*
X61094091Y-51757483D01*
X61100500Y-51697873D01*
X61100499Y-47802128D01*
X61094091Y-47742517D01*
X61082613Y-47711744D01*
X61043797Y-47607671D01*
X61043793Y-47607664D01*
X60957547Y-47492455D01*
X60957544Y-47492452D01*
X60842335Y-47406206D01*
X60842328Y-47406202D01*
X60707482Y-47355908D01*
X60707483Y-47355908D01*
X60647883Y-47349501D01*
X60647881Y-47349500D01*
X60647873Y-47349500D01*
X60647865Y-47349500D01*
X56879500Y-47349500D01*
X56812461Y-47329815D01*
X56766706Y-47277011D01*
X56755500Y-47225500D01*
X56755500Y-47124010D01*
X56755500Y-47124000D01*
X56743947Y-47016544D01*
X56732741Y-46965033D01*
X56719499Y-46925247D01*
X56698616Y-46862502D01*
X56698613Y-46862496D01*
X56620828Y-46741462D01*
X56620825Y-46741457D01*
X56620820Y-46741451D01*
X56575076Y-46688659D01*
X56575072Y-46688656D01*
X56575070Y-46688653D01*
X56466336Y-46594433D01*
X56466333Y-46594431D01*
X56466331Y-46594430D01*
X56335465Y-46534664D01*
X56335460Y-46534662D01*
X56335459Y-46534662D01*
X56268420Y-46514977D01*
X56268422Y-46514977D01*
X56268417Y-46514976D01*
X56206347Y-46506052D01*
X56126000Y-46494500D01*
X51124000Y-46494500D01*
X51123991Y-46494500D01*
X51123990Y-46494501D01*
X51016549Y-46506052D01*
X51016537Y-46506054D01*
X50965027Y-46517260D01*
X50862502Y-46551383D01*
X50862496Y-46551386D01*
X50741462Y-46629171D01*
X50741451Y-46629179D01*
X50688659Y-46674923D01*
X50594433Y-46783664D01*
X50594430Y-46783668D01*
X50534664Y-46914534D01*
X50514976Y-46981582D01*
X50509949Y-47016549D01*
X50494502Y-47123990D01*
X50494500Y-47124001D01*
X48333013Y-47124001D01*
X48332332Y-44480000D01*
X63694540Y-44480000D01*
X63714326Y-44668256D01*
X63714327Y-44668259D01*
X63772818Y-44848277D01*
X63772821Y-44848284D01*
X63867467Y-45012216D01*
X63994129Y-45152888D01*
X64147265Y-45264148D01*
X64147270Y-45264151D01*
X64320192Y-45341142D01*
X64320197Y-45341144D01*
X64505354Y-45380500D01*
X64505355Y-45380500D01*
X64694644Y-45380500D01*
X64694646Y-45380500D01*
X64879803Y-45341144D01*
X65052730Y-45264151D01*
X65205871Y-45152888D01*
X65332533Y-45012216D01*
X65427179Y-44848284D01*
X65485674Y-44668256D01*
X65505460Y-44480000D01*
X65485674Y-44291744D01*
X65427179Y-44111716D01*
X65332533Y-43947784D01*
X65205871Y-43807112D01*
X65205870Y-43807111D01*
X65052734Y-43695851D01*
X65052729Y-43695848D01*
X64879807Y-43618857D01*
X64879802Y-43618855D01*
X64734001Y-43587865D01*
X64694646Y-43579500D01*
X64505354Y-43579500D01*
X64472897Y-43586398D01*
X64320197Y-43618855D01*
X64320192Y-43618857D01*
X64147270Y-43695848D01*
X64147265Y-43695851D01*
X63994129Y-43807111D01*
X63867466Y-43947785D01*
X63772821Y-44111715D01*
X63772818Y-44111722D01*
X63714327Y-44291740D01*
X63714326Y-44291744D01*
X63694540Y-44480000D01*
X48332332Y-44480000D01*
X48330947Y-39108142D01*
X51086409Y-39108142D01*
X51086409Y-39108153D01*
X51106163Y-39422152D01*
X51106164Y-39422159D01*
X51134336Y-39569842D01*
X51159309Y-39700756D01*
X51165123Y-39731231D01*
X51262350Y-40030464D01*
X51262352Y-40030469D01*
X51396314Y-40315151D01*
X51396317Y-40315157D01*
X51564904Y-40580809D01*
X51564907Y-40580813D01*
X51765459Y-40823238D01*
X51765461Y-40823240D01*
X51994821Y-41038624D01*
X51994831Y-41038632D01*
X52249357Y-41223556D01*
X52249362Y-41223558D01*
X52249369Y-41223564D01*
X52525087Y-41375142D01*
X52525092Y-41375144D01*
X52525094Y-41375145D01*
X52525095Y-41375146D01*
X52817624Y-41490966D01*
X52817627Y-41490967D01*
X53122376Y-41569213D01*
X53122380Y-41569214D01*
X53187863Y-41577486D01*
X53434523Y-41608647D01*
X53434532Y-41608647D01*
X53434535Y-41608648D01*
X53434537Y-41608648D01*
X53749169Y-41608648D01*
X53749171Y-41608648D01*
X53749174Y-41608647D01*
X53749182Y-41608647D01*
X53935446Y-41585116D01*
X54061326Y-41569214D01*
X54366078Y-41490967D01*
X54366081Y-41490966D01*
X54658610Y-41375146D01*
X54658611Y-41375145D01*
X54658609Y-41375145D01*
X54658619Y-41375142D01*
X54934337Y-41223564D01*
X55188883Y-41038626D01*
X55418243Y-40823242D01*
X55618800Y-40580811D01*
X55787390Y-40315155D01*
X55921356Y-40030463D01*
X56018584Y-39731227D01*
X56077541Y-39422163D01*
X56086175Y-39284927D01*
X56097297Y-39108153D01*
X56097297Y-39108142D01*
X56077542Y-38794143D01*
X56077541Y-38794136D01*
X56077541Y-38794133D01*
X56018584Y-38485069D01*
X55921356Y-38185833D01*
X55908657Y-38158847D01*
X55846631Y-38027035D01*
X55835897Y-37957995D01*
X55864194Y-37894112D01*
X55922537Y-37855668D01*
X55992402Y-37854869D01*
X56046510Y-37886557D01*
X56434625Y-38274671D01*
X56807331Y-38647377D01*
X56854014Y-38684997D01*
X56854015Y-38684997D01*
X56854017Y-38684999D01*
X56984927Y-38744784D01*
X56984928Y-38744784D01*
X56984930Y-38744785D01*
X57127387Y-38765266D01*
X57269844Y-38744785D01*
X57400760Y-38684997D01*
X57447443Y-38647378D01*
X60202150Y-35892670D01*
X60239770Y-35845987D01*
X60299558Y-35715071D01*
X60320039Y-35572614D01*
X60299558Y-35430157D01*
X60239770Y-35299241D01*
X60202151Y-35252558D01*
X60202146Y-35252553D01*
X60202142Y-35252548D01*
X57447450Y-32497858D01*
X57447443Y-32497851D01*
X57400760Y-32460231D01*
X57400758Y-32460230D01*
X57400756Y-32460228D01*
X57269846Y-32400443D01*
X57269842Y-32400442D01*
X57127387Y-32379962D01*
X56984931Y-32400442D01*
X56984927Y-32400443D01*
X56854016Y-32460229D01*
X56807321Y-32497858D01*
X54052631Y-35252550D01*
X54052625Y-35252557D01*
X54015003Y-35299242D01*
X54015001Y-35299244D01*
X53955216Y-35430154D01*
X53955215Y-35430158D01*
X53934735Y-35572614D01*
X53955215Y-35715069D01*
X53955216Y-35715073D01*
X54015002Y-35845984D01*
X54015003Y-35845985D01*
X54015004Y-35845987D01*
X54052623Y-35892670D01*
X54052626Y-35892673D01*
X54052631Y-35892679D01*
X54803208Y-36643255D01*
X54836693Y-36704578D01*
X54831709Y-36774269D01*
X54789837Y-36830203D01*
X54724373Y-36854620D01*
X54662875Y-36841242D01*
X54662245Y-36842581D01*
X54662243Y-36842588D01*
X54662242Y-36842587D01*
X54662138Y-36842810D01*
X54658610Y-36841149D01*
X54366081Y-36725329D01*
X54366078Y-36725328D01*
X54061329Y-36647082D01*
X54061316Y-36647080D01*
X53749182Y-36607648D01*
X53749171Y-36607648D01*
X53434535Y-36607648D01*
X53434523Y-36607648D01*
X53122389Y-36647080D01*
X53122376Y-36647082D01*
X52817627Y-36725328D01*
X52817624Y-36725329D01*
X52525095Y-36841149D01*
X52525094Y-36841150D01*
X52249369Y-36992732D01*
X52249357Y-36992739D01*
X51994831Y-37177663D01*
X51994821Y-37177671D01*
X51765461Y-37393055D01*
X51765459Y-37393057D01*
X51564907Y-37635482D01*
X51564904Y-37635486D01*
X51396317Y-37901138D01*
X51396314Y-37901144D01*
X51262352Y-38185826D01*
X51262350Y-38185831D01*
X51165123Y-38485064D01*
X51106164Y-38794136D01*
X51106163Y-38794143D01*
X51086409Y-39108142D01*
X48330947Y-39108142D01*
X48328427Y-29329125D01*
X48328436Y-29327652D01*
X48329017Y-29278711D01*
X50496500Y-29278711D01*
X50496500Y-29521288D01*
X50528161Y-29761785D01*
X50590947Y-29996104D01*
X50592561Y-30000000D01*
X50683776Y-30220212D01*
X50805064Y-30430289D01*
X50805066Y-30430292D01*
X50805067Y-30430293D01*
X50952733Y-30622736D01*
X50952739Y-30622743D01*
X51124256Y-30794260D01*
X51124262Y-30794265D01*
X51316711Y-30941936D01*
X51526788Y-31063224D01*
X51750900Y-31156054D01*
X51985211Y-31218838D01*
X52165586Y-31242584D01*
X52225711Y-31250500D01*
X52225712Y-31250500D01*
X52468289Y-31250500D01*
X52516388Y-31244167D01*
X52708789Y-31218838D01*
X52943100Y-31156054D01*
X53167212Y-31063224D01*
X53377289Y-30941936D01*
X53569738Y-30794265D01*
X53741265Y-30622738D01*
X53888936Y-30430289D01*
X54010224Y-30220212D01*
X54103054Y-29996100D01*
X54165838Y-29761789D01*
X54197500Y-29521288D01*
X54197500Y-29278712D01*
X54165838Y-29038211D01*
X54103054Y-28803900D01*
X54010224Y-28579788D01*
X53888936Y-28369711D01*
X53741265Y-28177262D01*
X53741260Y-28177256D01*
X53569743Y-28005739D01*
X53569736Y-28005733D01*
X53377293Y-27858067D01*
X53377292Y-27858066D01*
X53377289Y-27858064D01*
X53205661Y-27758974D01*
X53167214Y-27736777D01*
X53167205Y-27736773D01*
X52943104Y-27643947D01*
X52801145Y-27605909D01*
X52708789Y-27581162D01*
X52708788Y-27581161D01*
X52708785Y-27581161D01*
X52468289Y-27549500D01*
X52468288Y-27549500D01*
X52225712Y-27549500D01*
X52225711Y-27549500D01*
X51985214Y-27581161D01*
X51750895Y-27643947D01*
X51526794Y-27736773D01*
X51526785Y-27736777D01*
X51316706Y-27858067D01*
X51124263Y-28005733D01*
X51124256Y-28005739D01*
X50952739Y-28177256D01*
X50952733Y-28177263D01*
X50805067Y-28369706D01*
X50683777Y-28579785D01*
X50683773Y-28579794D01*
X50590947Y-28803895D01*
X50528161Y-29038214D01*
X50496500Y-29278711D01*
X48329017Y-29278711D01*
X48330694Y-29137389D01*
X48331281Y-29126720D01*
X48368659Y-28747189D01*
X48370444Y-28735159D01*
X48401348Y-28579794D01*
X48444693Y-28361873D01*
X48447648Y-28350076D01*
X48536413Y-28057455D01*
X48558138Y-27985836D01*
X48562229Y-27974402D01*
X48707886Y-27622751D01*
X48713076Y-27611779D01*
X48892509Y-27276081D01*
X48898736Y-27265690D01*
X49110218Y-26949185D01*
X49117439Y-26939448D01*
X49358916Y-26645207D01*
X49367069Y-26636212D01*
X49636212Y-26367069D01*
X49645207Y-26358916D01*
X49939448Y-26117439D01*
X49949185Y-26110218D01*
X50265690Y-25898736D01*
X50276081Y-25892509D01*
X50611779Y-25713076D01*
X50622751Y-25707886D01*
X50974402Y-25562229D01*
X50985836Y-25558138D01*
X51350082Y-25447646D01*
X51361873Y-25444693D01*
X51735168Y-25370442D01*
X51747189Y-25368659D01*
X52126720Y-25331281D01*
X52137378Y-25330694D01*
X52327727Y-25328435D01*
X52329083Y-25328427D01*
X124346328Y-25399999D01*
G37*
%TD.AperFunction*%
%TA.AperFunction,Conductor*%
G36*
X89987927Y-62125185D02*
G01*
X90033682Y-62177989D01*
X90044416Y-62240308D01*
X90043244Y-62253695D01*
X90604055Y-62814506D01*
X90543916Y-62830621D01*
X90428077Y-62897500D01*
X90333495Y-62992082D01*
X90266616Y-63107921D01*
X90250501Y-63168060D01*
X89689691Y-62607250D01*
X89644637Y-62671596D01*
X89551463Y-62871406D01*
X89494399Y-63084368D01*
X89494398Y-63084375D01*
X89475184Y-63304000D01*
X89475184Y-63304003D01*
X89494398Y-63523628D01*
X89494399Y-63523636D01*
X89551460Y-63736589D01*
X89551463Y-63736595D01*
X89644635Y-63936404D01*
X89689691Y-64000752D01*
X90250501Y-63439942D01*
X90266616Y-63500083D01*
X90333495Y-63615922D01*
X90428077Y-63710504D01*
X90543916Y-63777383D01*
X90604054Y-63793496D01*
X90043244Y-64354306D01*
X90107590Y-64399361D01*
X90307403Y-64492535D01*
X90307409Y-64492538D01*
X90520362Y-64549599D01*
X90520370Y-64549600D01*
X90739995Y-64568815D01*
X90739999Y-64568815D01*
X90959623Y-64549600D01*
X90959631Y-64549599D01*
X91172584Y-64492538D01*
X91172595Y-64492534D01*
X91372399Y-64399364D01*
X91372407Y-64399360D01*
X91436748Y-64354307D01*
X91436748Y-64354306D01*
X90875939Y-63793496D01*
X90936078Y-63777383D01*
X91051917Y-63710504D01*
X91146499Y-63615922D01*
X91213378Y-63500083D01*
X91229492Y-63439944D01*
X91790301Y-64000753D01*
X91790302Y-64000753D01*
X91835355Y-63936412D01*
X91835359Y-63936404D01*
X91928529Y-63736600D01*
X91928533Y-63736589D01*
X91985594Y-63523636D01*
X91985595Y-63523628D01*
X92004810Y-63304003D01*
X92004810Y-63304000D01*
X91985595Y-63084375D01*
X91985594Y-63084368D01*
X91928530Y-62871406D01*
X91835357Y-62671597D01*
X91835356Y-62671595D01*
X91790301Y-62607250D01*
X91790301Y-62607249D01*
X91229491Y-63168059D01*
X91213378Y-63107921D01*
X91146499Y-62992082D01*
X91051917Y-62897500D01*
X90936078Y-62830621D01*
X90875938Y-62814506D01*
X91436748Y-62253696D01*
X91435577Y-62240307D01*
X91449344Y-62171807D01*
X91497959Y-62121624D01*
X91559105Y-62105500D01*
X92367385Y-62105500D01*
X92434424Y-62125185D01*
X92480179Y-62177989D01*
X92491360Y-62231980D01*
X92300998Y-71750094D01*
X92279977Y-71816726D01*
X92264704Y-71835295D01*
X86136319Y-77963681D01*
X86074996Y-77997166D01*
X86048638Y-78000000D01*
X71727769Y-78000000D01*
X71660730Y-77980315D01*
X71614975Y-77927511D01*
X71605031Y-77858353D01*
X71620381Y-77814001D01*
X71621355Y-77812312D01*
X71672179Y-77724284D01*
X71730674Y-77544256D01*
X71750460Y-77356000D01*
X71730674Y-77167744D01*
X71672179Y-76987716D01*
X71577533Y-76823784D01*
X71450871Y-76683112D01*
X71450870Y-76683111D01*
X71297734Y-76571851D01*
X71297729Y-76571848D01*
X71124807Y-76494857D01*
X71124802Y-76494855D01*
X70979001Y-76463865D01*
X70939646Y-76455500D01*
X70750354Y-76455500D01*
X70717897Y-76462398D01*
X70565197Y-76494855D01*
X70565192Y-76494857D01*
X70392270Y-76571848D01*
X70392265Y-76571851D01*
X70239129Y-76683111D01*
X70112466Y-76823785D01*
X70017821Y-76987715D01*
X70017818Y-76987722D01*
X69959327Y-77167740D01*
X69959326Y-77167744D01*
X69939540Y-77356000D01*
X69950737Y-77462540D01*
X69938169Y-77531268D01*
X69890437Y-77582292D01*
X69827417Y-77599500D01*
X69655354Y-77599500D01*
X69622897Y-77606398D01*
X69470197Y-77638855D01*
X69470192Y-77638857D01*
X69297270Y-77715848D01*
X69297265Y-77715851D01*
X69144129Y-77827111D01*
X69025401Y-77958972D01*
X68965914Y-77995621D01*
X68933251Y-78000000D01*
X67600000Y-78000000D01*
X64124000Y-78000000D01*
X64056961Y-77980315D01*
X64011206Y-77927511D01*
X64000000Y-77876000D01*
X64000000Y-74523381D01*
X64019685Y-74456342D01*
X64072489Y-74410587D01*
X64123379Y-74399383D01*
X84000000Y-74300000D01*
X88800000Y-69500000D01*
X88800000Y-62229500D01*
X88819685Y-62162461D01*
X88872489Y-62116706D01*
X88924000Y-62105500D01*
X89920888Y-62105500D01*
X89987927Y-62125185D01*
G37*
%TD.AperFunction*%
%TA.AperFunction,Conductor*%
G36*
X95393039Y-26769685D02*
G01*
X95438794Y-26822489D01*
X95450000Y-26874000D01*
X95450000Y-28780184D01*
X95430315Y-28847223D01*
X95377511Y-28892978D01*
X95308353Y-28902922D01*
X95244797Y-28873897D01*
X95221363Y-28842963D01*
X95218241Y-28842418D01*
X94324965Y-29735694D01*
X94316758Y-29683874D01*
X94251094Y-29481780D01*
X94154623Y-29292446D01*
X94029722Y-29120534D01*
X93879466Y-28970278D01*
X93707554Y-28845377D01*
X93518220Y-28748906D01*
X93316126Y-28683242D01*
X93264304Y-28675034D01*
X94156455Y-27782884D01*
X94156454Y-27782883D01*
X94066552Y-27733459D01*
X94066544Y-27733455D01*
X93774073Y-27617659D01*
X93469379Y-27539426D01*
X93469370Y-27539424D01*
X93157298Y-27500000D01*
X92842701Y-27500000D01*
X92530629Y-27539424D01*
X92530620Y-27539426D01*
X92225926Y-27617659D01*
X91933448Y-27733459D01*
X91933443Y-27733461D01*
X91843544Y-27782883D01*
X92735694Y-28675034D01*
X92683874Y-28683242D01*
X92481780Y-28748906D01*
X92292446Y-28845377D01*
X92120534Y-28970278D01*
X91970278Y-29120534D01*
X91845377Y-29292446D01*
X91748906Y-29481780D01*
X91683242Y-29683874D01*
X91675034Y-29735694D01*
X90781757Y-28842418D01*
X90670963Y-29077867D01*
X90670960Y-29077875D01*
X90573755Y-29377041D01*
X90514808Y-29686050D01*
X90514807Y-29686057D01*
X90495057Y-29999994D01*
X90495057Y-30000005D01*
X90514807Y-30313942D01*
X90514808Y-30313949D01*
X90573755Y-30622958D01*
X90670962Y-30922128D01*
X90781757Y-31157580D01*
X91675034Y-30264304D01*
X91683242Y-30316126D01*
X91748906Y-30518220D01*
X91845377Y-30707554D01*
X91970278Y-30879466D01*
X92120534Y-31029722D01*
X92292446Y-31154623D01*
X92481780Y-31251094D01*
X92683874Y-31316758D01*
X92735693Y-31324965D01*
X91843543Y-32217114D01*
X91843544Y-32217115D01*
X91933447Y-32266540D01*
X91933455Y-32266544D01*
X92225926Y-32382340D01*
X92530620Y-32460573D01*
X92530629Y-32460575D01*
X92842701Y-32499999D01*
X92842715Y-32500000D01*
X93157285Y-32500000D01*
X93157298Y-32499999D01*
X93469370Y-32460575D01*
X93469379Y-32460573D01*
X93774073Y-32382340D01*
X94066544Y-32266544D01*
X94156454Y-32217114D01*
X93264305Y-31324965D01*
X93316126Y-31316758D01*
X93518220Y-31251094D01*
X93707554Y-31154623D01*
X93879466Y-31029722D01*
X94029722Y-30879466D01*
X94154623Y-30707554D01*
X94251094Y-30518220D01*
X94316758Y-30316126D01*
X94324965Y-30264305D01*
X95218241Y-31157580D01*
X95222888Y-31156769D01*
X95260156Y-31114740D01*
X95327416Y-31095822D01*
X95394226Y-31116271D01*
X95439375Y-31169594D01*
X95450000Y-31219814D01*
X95450000Y-35376000D01*
X95430315Y-35443039D01*
X95377511Y-35488794D01*
X95326000Y-35500000D01*
X88750000Y-35500000D01*
X88750000Y-53380130D01*
X88730315Y-53447169D01*
X88677511Y-53492924D01*
X88619556Y-53502584D01*
X88619556Y-53503496D01*
X88614087Y-53503496D01*
X88613859Y-53503534D01*
X88613473Y-53503496D01*
X88613464Y-53503496D01*
X88406534Y-53503496D01*
X88406529Y-53503496D01*
X88203586Y-53543864D01*
X88203578Y-53543866D01*
X88012402Y-53623054D01*
X87840341Y-53738020D01*
X87694023Y-53884338D01*
X87579057Y-54056399D01*
X87499869Y-54247575D01*
X87499867Y-54247583D01*
X87459499Y-54450526D01*
X87459499Y-54657465D01*
X87499867Y-54860408D01*
X87499869Y-54860416D01*
X87544219Y-54967487D01*
X87579058Y-55051594D01*
X87636540Y-55137622D01*
X87694023Y-55223653D01*
X87840341Y-55369971D01*
X87840344Y-55369973D01*
X88012401Y-55484937D01*
X88168380Y-55549546D01*
X88222782Y-55593386D01*
X88244847Y-55659680D01*
X88244610Y-55672951D01*
X88244500Y-55674489D01*
X88244500Y-55674491D01*
X88244500Y-56303671D01*
X88244500Y-57926000D01*
X88244501Y-57926009D01*
X88256052Y-58033450D01*
X88256054Y-58033462D01*
X88267260Y-58084972D01*
X88301383Y-58187497D01*
X88301386Y-58187503D01*
X88379171Y-58308537D01*
X88379179Y-58308548D01*
X88424923Y-58361340D01*
X88424926Y-58361343D01*
X88424930Y-58361347D01*
X88533664Y-58455567D01*
X88533667Y-58455568D01*
X88533668Y-58455569D01*
X88606806Y-58488971D01*
X88664541Y-58515338D01*
X88731580Y-58535023D01*
X88731584Y-58535024D01*
X88874000Y-58555500D01*
X90500793Y-58555500D01*
X90567832Y-58575185D01*
X90588474Y-58591819D01*
X90739997Y-58743341D01*
X90739998Y-58743341D01*
X90891519Y-58591819D01*
X90952842Y-58558334D01*
X90979200Y-58555500D01*
X94532149Y-58555500D01*
X94599188Y-58575185D01*
X94644943Y-58627989D01*
X94654887Y-58697147D01*
X94625862Y-58760703D01*
X94603272Y-58781075D01*
X94526666Y-58834714D01*
X94370711Y-58990669D01*
X94244203Y-59171343D01*
X94244202Y-59171345D01*
X94150992Y-59371236D01*
X94150988Y-59371245D01*
X94093907Y-59584276D01*
X94093905Y-59584286D01*
X94074683Y-59803999D01*
X94074683Y-59804002D01*
X94093905Y-60023715D01*
X94093907Y-60023725D01*
X94150988Y-60236756D01*
X94150993Y-60236770D01*
X94244201Y-60436655D01*
X94244205Y-60436663D01*
X94370710Y-60617331D01*
X94526667Y-60773288D01*
X94707335Y-60899793D01*
X94707337Y-60899794D01*
X94707340Y-60899796D01*
X94827601Y-60955874D01*
X94907228Y-60993005D01*
X94907230Y-60993005D01*
X94907235Y-60993008D01*
X94907240Y-60993009D01*
X94907242Y-60993010D01*
X94941004Y-61002056D01*
X95120278Y-61050093D01*
X95277220Y-61063823D01*
X95339996Y-61069316D01*
X95339998Y-61069316D01*
X95340000Y-61069316D01*
X95394928Y-61064510D01*
X95559718Y-61050093D01*
X95772761Y-60993008D01*
X95972656Y-60899796D01*
X96153327Y-60773289D01*
X96309286Y-60617330D01*
X96435793Y-60436659D01*
X96529005Y-60236764D01*
X96586090Y-60023721D01*
X96602566Y-59835389D01*
X96605313Y-59804002D01*
X96605313Y-59803999D01*
X96594758Y-59683361D01*
X96586090Y-59584281D01*
X96529005Y-59371238D01*
X96435793Y-59171344D01*
X96309286Y-58990672D01*
X96309284Y-58990669D01*
X96153329Y-58834714D01*
X96076724Y-58781075D01*
X96033099Y-58726498D01*
X96025905Y-58657000D01*
X96057428Y-58594645D01*
X96117657Y-58559231D01*
X96147847Y-58555500D01*
X104383673Y-58555500D01*
X104427987Y-58563688D01*
X107018745Y-59555050D01*
X113714815Y-62117321D01*
X113770393Y-62159664D01*
X113794255Y-62225333D01*
X113794500Y-62233132D01*
X113794500Y-64250312D01*
X113795095Y-64274878D01*
X113795679Y-64286890D01*
X113797464Y-64311358D01*
X113831652Y-64451124D01*
X113857741Y-64515931D01*
X113857745Y-64515941D01*
X113880521Y-64555216D01*
X113929920Y-64640403D01*
X113929923Y-64640406D01*
X113929924Y-64640407D01*
X113952387Y-64661744D01*
X113987438Y-64722186D01*
X113984246Y-64791983D01*
X113960702Y-64832853D01*
X113894433Y-64909331D01*
X113894430Y-64909335D01*
X113834664Y-65040201D01*
X113834662Y-65040208D01*
X113814977Y-65107247D01*
X113814976Y-65107251D01*
X113794500Y-65249667D01*
X113794500Y-67276000D01*
X113794501Y-67276009D01*
X113806052Y-67383450D01*
X113806054Y-67383462D01*
X113817260Y-67434972D01*
X113851383Y-67537497D01*
X113851386Y-67537503D01*
X113929171Y-67658537D01*
X113929179Y-67658548D01*
X113974923Y-67711340D01*
X113974926Y-67711343D01*
X113974930Y-67711347D01*
X114083664Y-67805567D01*
X114083667Y-67805568D01*
X114083668Y-67805569D01*
X114198070Y-67857816D01*
X114214541Y-67865338D01*
X114281580Y-67885023D01*
X114281584Y-67885024D01*
X114424000Y-67905500D01*
X114424003Y-67905500D01*
X116286876Y-67905500D01*
X116295441Y-67905426D01*
X116295486Y-67905425D01*
X116295511Y-67905425D01*
X116299760Y-67905352D01*
X116308399Y-67905130D01*
X116450029Y-67879786D01*
X116516354Y-67857816D01*
X116645103Y-67793599D01*
X116750549Y-67695708D01*
X116790354Y-67646457D01*
X116791498Y-67645186D01*
X116794470Y-67641366D01*
X116794471Y-67641365D01*
X116868065Y-67517730D01*
X116874373Y-67493160D01*
X116910110Y-67433125D01*
X116972634Y-67401939D01*
X116994477Y-67400000D01*
X117007359Y-67400000D01*
X117074398Y-67419685D01*
X117120153Y-67472489D01*
X117126336Y-67489065D01*
X117140558Y-67537501D01*
X117140561Y-67537507D01*
X117218343Y-67658537D01*
X117218351Y-67658548D01*
X117264095Y-67711340D01*
X117264098Y-67711343D01*
X117264102Y-67711347D01*
X117372836Y-67805567D01*
X117372839Y-67805568D01*
X117372840Y-67805569D01*
X117487242Y-67857816D01*
X117503713Y-67865338D01*
X117570752Y-67885023D01*
X117570756Y-67885024D01*
X117713172Y-67905500D01*
X117713175Y-67905500D01*
X119476000Y-67905500D01*
X119543039Y-67925185D01*
X119588794Y-67977989D01*
X119600000Y-68029500D01*
X119600000Y-72790826D01*
X119599572Y-72798798D01*
X119599678Y-72798804D01*
X119599500Y-72802128D01*
X119599500Y-73877363D01*
X119579815Y-73944402D01*
X119527011Y-73990157D01*
X119457853Y-74000101D01*
X119394297Y-73971076D01*
X119357569Y-73915681D01*
X119329036Y-73827867D01*
X119329034Y-73827862D01*
X119218242Y-73592418D01*
X119218241Y-73592418D01*
X118324965Y-74485693D01*
X118316758Y-74433874D01*
X118251094Y-74231780D01*
X118154623Y-74042446D01*
X118029722Y-73870534D01*
X117879466Y-73720278D01*
X117707554Y-73595377D01*
X117518220Y-73498906D01*
X117316126Y-73433242D01*
X117264304Y-73425034D01*
X118156455Y-72532884D01*
X118156454Y-72532883D01*
X118066552Y-72483459D01*
X118066544Y-72483455D01*
X117774073Y-72367659D01*
X117469379Y-72289426D01*
X117469370Y-72289424D01*
X117157298Y-72250000D01*
X116842701Y-72250000D01*
X116530629Y-72289424D01*
X116530620Y-72289426D01*
X116225926Y-72367659D01*
X115933448Y-72483459D01*
X115933443Y-72483461D01*
X115843544Y-72532883D01*
X116735694Y-73425034D01*
X116683874Y-73433242D01*
X116481780Y-73498906D01*
X116292446Y-73595377D01*
X116120534Y-73720278D01*
X115970278Y-73870534D01*
X115845377Y-74042446D01*
X115748906Y-74231780D01*
X115683242Y-74433874D01*
X115675034Y-74485694D01*
X114781757Y-73592418D01*
X114670963Y-73827867D01*
X114670960Y-73827875D01*
X114573755Y-74127041D01*
X114514808Y-74436050D01*
X114514807Y-74436057D01*
X114495057Y-74749994D01*
X114495057Y-74750005D01*
X114514807Y-75063942D01*
X114514808Y-75063949D01*
X114573755Y-75372958D01*
X114670962Y-75672128D01*
X114781757Y-75907580D01*
X115675034Y-75014304D01*
X115683242Y-75066126D01*
X115748906Y-75268220D01*
X115845377Y-75457554D01*
X115970278Y-75629466D01*
X116120534Y-75779722D01*
X116292446Y-75904623D01*
X116481780Y-76001094D01*
X116683874Y-76066758D01*
X116735693Y-76074965D01*
X115843543Y-76967114D01*
X115843544Y-76967115D01*
X115933447Y-77016540D01*
X115933455Y-77016544D01*
X116225926Y-77132340D01*
X116530620Y-77210573D01*
X116530629Y-77210575D01*
X116842701Y-77249999D01*
X116842715Y-77250000D01*
X117157285Y-77250000D01*
X117157298Y-77249999D01*
X117469370Y-77210575D01*
X117469379Y-77210573D01*
X117774073Y-77132340D01*
X118066544Y-77016544D01*
X118156454Y-76967114D01*
X117264305Y-76074965D01*
X117316126Y-76066758D01*
X117518220Y-76001094D01*
X117707554Y-75904623D01*
X117879466Y-75779722D01*
X118029722Y-75629466D01*
X118154623Y-75457554D01*
X118251094Y-75268220D01*
X118316758Y-75066126D01*
X118324965Y-75014304D01*
X119218241Y-75907580D01*
X119218242Y-75907580D01*
X119329034Y-75672137D01*
X119329038Y-75672128D01*
X119357569Y-75584317D01*
X119397006Y-75526641D01*
X119461364Y-75499442D01*
X119530210Y-75511356D01*
X119581687Y-75558600D01*
X119599500Y-75622634D01*
X119599500Y-76697863D01*
X119599679Y-76701180D01*
X119599572Y-76701185D01*
X119600000Y-76709156D01*
X119600000Y-77376000D01*
X119580315Y-77443039D01*
X119527511Y-77488794D01*
X119476000Y-77500000D01*
X114349590Y-77500000D01*
X114282551Y-77480315D01*
X114264086Y-77465806D01*
X98177673Y-62150000D01*
X105744540Y-62150000D01*
X105764326Y-62338256D01*
X105764327Y-62338259D01*
X105822818Y-62518277D01*
X105822821Y-62518284D01*
X105917467Y-62682216D01*
X106025437Y-62802128D01*
X106044129Y-62822888D01*
X106197265Y-62934148D01*
X106197270Y-62934151D01*
X106370192Y-63011142D01*
X106370197Y-63011144D01*
X106555354Y-63050500D01*
X106555355Y-63050500D01*
X106744644Y-63050500D01*
X106744646Y-63050500D01*
X106929803Y-63011144D01*
X107102730Y-62934151D01*
X107255871Y-62822888D01*
X107382533Y-62682216D01*
X107477179Y-62518284D01*
X107535674Y-62338256D01*
X107555460Y-62150000D01*
X107535674Y-61961744D01*
X107477179Y-61781716D01*
X107382533Y-61617784D01*
X107255871Y-61477112D01*
X107255870Y-61477111D01*
X107102734Y-61365851D01*
X107102729Y-61365848D01*
X106929807Y-61288857D01*
X106929802Y-61288855D01*
X106784001Y-61257865D01*
X106744646Y-61249500D01*
X106555354Y-61249500D01*
X106522897Y-61256398D01*
X106370197Y-61288855D01*
X106370192Y-61288857D01*
X106197270Y-61365848D01*
X106197265Y-61365851D01*
X106044129Y-61477111D01*
X105917466Y-61617785D01*
X105822821Y-61781715D01*
X105822818Y-61781722D01*
X105764327Y-61961740D01*
X105764326Y-61961744D01*
X105744540Y-62150000D01*
X98177673Y-62150000D01*
X97600000Y-61600000D01*
X83493462Y-61600000D01*
X83426423Y-61580315D01*
X83380668Y-61527511D01*
X83370724Y-61458353D01*
X83390629Y-61410596D01*
X83388927Y-61409543D01*
X83391943Y-61404670D01*
X83391943Y-61404669D01*
X83391946Y-61404666D01*
X83490332Y-61207081D01*
X83534345Y-61052389D01*
X90552267Y-61052389D01*
X90552267Y-61052390D01*
X90739995Y-61068814D01*
X90739999Y-61068814D01*
X90927725Y-61052390D01*
X90927725Y-61052389D01*
X90739998Y-60864661D01*
X90739997Y-60864661D01*
X90552267Y-61052389D01*
X83534345Y-61052389D01*
X83550736Y-60994782D01*
X83571102Y-60774999D01*
X83570943Y-60773288D01*
X83556492Y-60617331D01*
X83550736Y-60555216D01*
X83490332Y-60342917D01*
X83391946Y-60145332D01*
X83258930Y-59969190D01*
X83146431Y-59866634D01*
X83110151Y-59806926D01*
X83110225Y-59803998D01*
X89475184Y-59803998D01*
X89475184Y-59804004D01*
X89491606Y-59991729D01*
X89491607Y-59991730D01*
X89679337Y-59804001D01*
X89679337Y-59804000D01*
X89612458Y-59737121D01*
X90231997Y-59737121D01*
X90231997Y-59870881D01*
X90266616Y-60000082D01*
X90333495Y-60115921D01*
X90428077Y-60210503D01*
X90543916Y-60277382D01*
X90673117Y-60312001D01*
X90806877Y-60312001D01*
X90936078Y-60277382D01*
X91051917Y-60210503D01*
X91146499Y-60115921D01*
X91213378Y-60000082D01*
X91247997Y-59870881D01*
X91247997Y-59804000D01*
X91800657Y-59804000D01*
X91800657Y-59804001D01*
X91988385Y-59991729D01*
X91988386Y-59991729D01*
X92004810Y-59804002D01*
X92004810Y-59803998D01*
X91988386Y-59616271D01*
X91988385Y-59616271D01*
X91800657Y-59804000D01*
X91247997Y-59804000D01*
X91247997Y-59737121D01*
X91213378Y-59607920D01*
X91146499Y-59492081D01*
X91051917Y-59397499D01*
X90936078Y-59330620D01*
X90806877Y-59296001D01*
X90673117Y-59296001D01*
X90543916Y-59330620D01*
X90428077Y-59397499D01*
X90333495Y-59492081D01*
X90266616Y-59607920D01*
X90231997Y-59737121D01*
X89612458Y-59737121D01*
X89491607Y-59616270D01*
X89491606Y-59616271D01*
X89475184Y-59803998D01*
X83110225Y-59803998D01*
X83111911Y-59737078D01*
X83146431Y-59683363D01*
X83258930Y-59580808D01*
X83391946Y-59404666D01*
X83490332Y-59207081D01*
X83550736Y-58994782D01*
X83571102Y-58774999D01*
X83550736Y-58555216D01*
X83490332Y-58342917D01*
X83391946Y-58145332D01*
X83258930Y-57969190D01*
X83258928Y-57969187D01*
X83095813Y-57820490D01*
X83095812Y-57820489D01*
X82908149Y-57704292D01*
X82908148Y-57704291D01*
X82757653Y-57645989D01*
X82702329Y-57624557D01*
X82485362Y-57583999D01*
X82264638Y-57583999D01*
X82047671Y-57624557D01*
X82047668Y-57624557D01*
X82047668Y-57624558D01*
X81841851Y-57704291D01*
X81841850Y-57704292D01*
X81654186Y-57820490D01*
X81491071Y-57969188D01*
X81473954Y-57991855D01*
X81417844Y-58033491D01*
X81348132Y-58038182D01*
X81286951Y-58004440D01*
X81276046Y-57991855D01*
X81258928Y-57969188D01*
X81095813Y-57820490D01*
X81095812Y-57820489D01*
X80908149Y-57704292D01*
X80908148Y-57704291D01*
X80757653Y-57645989D01*
X80702329Y-57624557D01*
X80485362Y-57583999D01*
X80264638Y-57583999D01*
X80047671Y-57624557D01*
X80047668Y-57624557D01*
X80047668Y-57624558D01*
X79841851Y-57704291D01*
X79841850Y-57704292D01*
X79654186Y-57820490D01*
X79491071Y-57969187D01*
X79358054Y-58145331D01*
X79259669Y-58342913D01*
X79259668Y-58342917D01*
X79207720Y-58525498D01*
X79199263Y-58555220D01*
X79178898Y-58774998D01*
X79178898Y-58774999D01*
X79199263Y-58994777D01*
X79259669Y-59207084D01*
X79358054Y-59404666D01*
X79491071Y-59580810D01*
X79603566Y-59683362D01*
X79639848Y-59743073D01*
X79638087Y-59812921D01*
X79603566Y-59866636D01*
X79491071Y-59969187D01*
X79358054Y-60145331D01*
X79259669Y-60342913D01*
X79199263Y-60555220D01*
X79178898Y-60774998D01*
X79178898Y-60774999D01*
X79199263Y-60994777D01*
X79199263Y-60994779D01*
X79199264Y-60994782D01*
X79215655Y-61052389D01*
X79259669Y-61207084D01*
X79358056Y-61404670D01*
X79361073Y-61409543D01*
X79359077Y-61410778D01*
X79380182Y-61466608D01*
X79365631Y-61534946D01*
X79316445Y-61584569D01*
X79256538Y-61600000D01*
X71824000Y-61600000D01*
X71756961Y-61580315D01*
X71711206Y-61527511D01*
X71700000Y-61476000D01*
X71700000Y-57481378D01*
X76374500Y-57481378D01*
X76374500Y-57668619D01*
X76411025Y-57852242D01*
X76411027Y-57852250D01*
X76482676Y-58025227D01*
X76482681Y-58025236D01*
X76586697Y-58180906D01*
X76586700Y-58180910D01*
X76719088Y-58313298D01*
X76719092Y-58313301D01*
X76874762Y-58417317D01*
X76874768Y-58417320D01*
X76874769Y-58417321D01*
X77047749Y-58488972D01*
X77180286Y-58515335D01*
X77231379Y-58525498D01*
X77231383Y-58525499D01*
X77231384Y-58525499D01*
X77418617Y-58525499D01*
X77418618Y-58525498D01*
X77602251Y-58488972D01*
X77775231Y-58417321D01*
X77930908Y-58313301D01*
X78063302Y-58180907D01*
X78167322Y-58025230D01*
X78238973Y-57852250D01*
X78275500Y-57668615D01*
X78275500Y-57481383D01*
X78238973Y-57297748D01*
X78167322Y-57124768D01*
X78167321Y-57124767D01*
X78167318Y-57124761D01*
X78063302Y-56969091D01*
X78063299Y-56969087D01*
X77930911Y-56836699D01*
X77930907Y-56836696D01*
X77775237Y-56732680D01*
X77775228Y-56732675D01*
X77602251Y-56661026D01*
X77602243Y-56661024D01*
X77418620Y-56624499D01*
X77418616Y-56624499D01*
X77231384Y-56624499D01*
X77231379Y-56624499D01*
X77047756Y-56661024D01*
X77047748Y-56661026D01*
X76874771Y-56732675D01*
X76874762Y-56732680D01*
X76719092Y-56836696D01*
X76719088Y-56836699D01*
X76586700Y-56969087D01*
X76586697Y-56969091D01*
X76482681Y-57124761D01*
X76482676Y-57124770D01*
X76411027Y-57297747D01*
X76411025Y-57297755D01*
X76374500Y-57481378D01*
X71700000Y-57481378D01*
X71700000Y-48832677D01*
X71719685Y-48765638D01*
X71772489Y-48719883D01*
X71773359Y-48719489D01*
X71852730Y-48684151D01*
X72005871Y-48572888D01*
X72132533Y-48432216D01*
X72227179Y-48268284D01*
X72285674Y-48088256D01*
X72305460Y-47900000D01*
X72285674Y-47711744D01*
X72227179Y-47531716D01*
X72132533Y-47367784D01*
X72005871Y-47227112D01*
X72005870Y-47227111D01*
X71852730Y-47115848D01*
X71773564Y-47080601D01*
X71720327Y-47035351D01*
X71700006Y-46968502D01*
X71700000Y-46967322D01*
X71700000Y-43434000D01*
X76056540Y-43434000D01*
X76076326Y-43622256D01*
X76076327Y-43622259D01*
X76134818Y-43802277D01*
X76134821Y-43802284D01*
X76229467Y-43966216D01*
X76288892Y-44032214D01*
X76356129Y-44106888D01*
X76509265Y-44218148D01*
X76509270Y-44218151D01*
X76682192Y-44295142D01*
X76682197Y-44295144D01*
X76867354Y-44334500D01*
X76867355Y-44334500D01*
X77056644Y-44334500D01*
X77056646Y-44334500D01*
X77241803Y-44295144D01*
X77414730Y-44218151D01*
X77567871Y-44106888D01*
X77694533Y-43966216D01*
X77789179Y-43802284D01*
X77847674Y-43622256D01*
X77860523Y-43500000D01*
X78850540Y-43500000D01*
X78870326Y-43688256D01*
X78870327Y-43688259D01*
X78928818Y-43868277D01*
X78928821Y-43868284D01*
X79023467Y-44032216D01*
X79150129Y-44172888D01*
X79303265Y-44284148D01*
X79303270Y-44284151D01*
X79476192Y-44361142D01*
X79476197Y-44361144D01*
X79661354Y-44400500D01*
X79661355Y-44400500D01*
X79850644Y-44400500D01*
X79850646Y-44400500D01*
X80035803Y-44361144D01*
X80208730Y-44284151D01*
X80361871Y-44172888D01*
X80488533Y-44032216D01*
X80583179Y-43868284D01*
X80641674Y-43688256D01*
X80661460Y-43500000D01*
X80641674Y-43311744D01*
X80583179Y-43131716D01*
X80488533Y-42967784D01*
X80361871Y-42827112D01*
X80361870Y-42827111D01*
X80208734Y-42715851D01*
X80208729Y-42715848D01*
X80035807Y-42638857D01*
X80035802Y-42638855D01*
X79890001Y-42607865D01*
X79850646Y-42599500D01*
X79661354Y-42599500D01*
X79628897Y-42606398D01*
X79476197Y-42638855D01*
X79476192Y-42638857D01*
X79303270Y-42715848D01*
X79303265Y-42715851D01*
X79150129Y-42827111D01*
X79023466Y-42967785D01*
X78928821Y-43131715D01*
X78928818Y-43131722D01*
X78870327Y-43311740D01*
X78870326Y-43311744D01*
X78850540Y-43500000D01*
X77860523Y-43500000D01*
X77867460Y-43434000D01*
X77847674Y-43245744D01*
X77789179Y-43065716D01*
X77694533Y-42901784D01*
X77567871Y-42761112D01*
X77567870Y-42761111D01*
X77414734Y-42649851D01*
X77414729Y-42649848D01*
X77241807Y-42572857D01*
X77241802Y-42572855D01*
X77096001Y-42541865D01*
X77056646Y-42533500D01*
X76867354Y-42533500D01*
X76834897Y-42540398D01*
X76682197Y-42572855D01*
X76682192Y-42572857D01*
X76509270Y-42649848D01*
X76509265Y-42649851D01*
X76356129Y-42761111D01*
X76229466Y-42901785D01*
X76134821Y-43065715D01*
X76134818Y-43065722D01*
X76076327Y-43245740D01*
X76076326Y-43245744D01*
X76056540Y-43434000D01*
X71700000Y-43434000D01*
X71700000Y-29999994D01*
X71995057Y-29999994D01*
X71995057Y-30000005D01*
X72014807Y-30313942D01*
X72014808Y-30313949D01*
X72073755Y-30622958D01*
X72170962Y-30922128D01*
X72281757Y-31157580D01*
X73175034Y-30264304D01*
X73183242Y-30316126D01*
X73248906Y-30518220D01*
X73345377Y-30707554D01*
X73470278Y-30879466D01*
X73620534Y-31029722D01*
X73792446Y-31154623D01*
X73981780Y-31251094D01*
X74183874Y-31316758D01*
X74235693Y-31324965D01*
X73343543Y-32217114D01*
X73343544Y-32217115D01*
X73433447Y-32266540D01*
X73433455Y-32266544D01*
X73725926Y-32382340D01*
X74030620Y-32460573D01*
X74030629Y-32460575D01*
X74342701Y-32499999D01*
X74342715Y-32500000D01*
X74657285Y-32500000D01*
X74657298Y-32499999D01*
X74969370Y-32460575D01*
X74969379Y-32460573D01*
X75274073Y-32382340D01*
X75566544Y-32266544D01*
X75656454Y-32217114D01*
X74764305Y-31324965D01*
X74816126Y-31316758D01*
X75018220Y-31251094D01*
X75207554Y-31154623D01*
X75379466Y-31029722D01*
X75529722Y-30879466D01*
X75654623Y-30707554D01*
X75751094Y-30518220D01*
X75816758Y-30316126D01*
X75824965Y-30264305D01*
X76718241Y-31157580D01*
X76718242Y-31157580D01*
X76829034Y-30922137D01*
X76829038Y-30922128D01*
X76857569Y-30834317D01*
X76897006Y-30776641D01*
X76961364Y-30749442D01*
X77030210Y-30761356D01*
X77081687Y-30808600D01*
X77099500Y-30872634D01*
X77099500Y-31947870D01*
X77099501Y-31947876D01*
X77105908Y-32007483D01*
X77156202Y-32142328D01*
X77156206Y-32142335D01*
X77242452Y-32257544D01*
X77242455Y-32257547D01*
X77357664Y-32343793D01*
X77357671Y-32343797D01*
X77492517Y-32394091D01*
X77492516Y-32394091D01*
X77499444Y-32394835D01*
X77552127Y-32400500D01*
X81447872Y-32400499D01*
X81507483Y-32394091D01*
X81642331Y-32343796D01*
X81757546Y-32257546D01*
X81843796Y-32142331D01*
X81894091Y-32007483D01*
X81900500Y-31947873D01*
X81900499Y-28052128D01*
X81894091Y-27992517D01*
X81843796Y-27857669D01*
X81843795Y-27857668D01*
X81843793Y-27857664D01*
X81757547Y-27742455D01*
X81757544Y-27742452D01*
X81642335Y-27656206D01*
X81642328Y-27656202D01*
X81507482Y-27605908D01*
X81507483Y-27605908D01*
X81447883Y-27599501D01*
X81447881Y-27599500D01*
X81447873Y-27599500D01*
X81447864Y-27599500D01*
X77552129Y-27599500D01*
X77552123Y-27599501D01*
X77492516Y-27605908D01*
X77357671Y-27656202D01*
X77357664Y-27656206D01*
X77242455Y-27742452D01*
X77242452Y-27742455D01*
X77156206Y-27857664D01*
X77156202Y-27857671D01*
X77105908Y-27992517D01*
X77099501Y-28052116D01*
X77099501Y-28052123D01*
X77099500Y-28052135D01*
X77099500Y-29127363D01*
X77079815Y-29194402D01*
X77027011Y-29240157D01*
X76957853Y-29250101D01*
X76894297Y-29221076D01*
X76857569Y-29165681D01*
X76829036Y-29077867D01*
X76829034Y-29077862D01*
X76718242Y-28842418D01*
X76718241Y-28842418D01*
X75824965Y-29735694D01*
X75816758Y-29683874D01*
X75751094Y-29481780D01*
X75654623Y-29292446D01*
X75529722Y-29120534D01*
X75379466Y-28970278D01*
X75207554Y-28845377D01*
X75018220Y-28748906D01*
X74816126Y-28683242D01*
X74764304Y-28675034D01*
X75656455Y-27782884D01*
X75656454Y-27782883D01*
X75566552Y-27733459D01*
X75566544Y-27733455D01*
X75274073Y-27617659D01*
X74969379Y-27539426D01*
X74969370Y-27539424D01*
X74657298Y-27500000D01*
X74342701Y-27500000D01*
X74030629Y-27539424D01*
X74030620Y-27539426D01*
X73725926Y-27617659D01*
X73433448Y-27733459D01*
X73433443Y-27733461D01*
X73343544Y-27782883D01*
X74235694Y-28675034D01*
X74183874Y-28683242D01*
X73981780Y-28748906D01*
X73792446Y-28845377D01*
X73620534Y-28970278D01*
X73470278Y-29120534D01*
X73345377Y-29292446D01*
X73248906Y-29481780D01*
X73183242Y-29683874D01*
X73175034Y-29735694D01*
X72281757Y-28842418D01*
X72170963Y-29077867D01*
X72170960Y-29077875D01*
X72073755Y-29377041D01*
X72014808Y-29686050D01*
X72014807Y-29686057D01*
X71995057Y-29999994D01*
X71700000Y-29999994D01*
X71700000Y-26874000D01*
X71719685Y-26806961D01*
X71772489Y-26761206D01*
X71824000Y-26750000D01*
X95326000Y-26750000D01*
X95393039Y-26769685D01*
G37*
%TD.AperFunction*%
%TA.AperFunction,Conductor*%
G36*
X56193039Y-47019685D02*
G01*
X56238794Y-47072489D01*
X56250000Y-47124000D01*
X56250000Y-52500000D01*
X56250000Y-71750000D01*
X70750000Y-95750000D01*
X74626000Y-95750000D01*
X74693039Y-95769685D01*
X74738794Y-95822489D01*
X74750000Y-95874000D01*
X74750000Y-101126000D01*
X74730315Y-101193039D01*
X74677511Y-101238794D01*
X74626000Y-101250000D01*
X68969493Y-101250000D01*
X68902454Y-101230315D01*
X68863726Y-101190726D01*
X68824116Y-101126000D01*
X63661261Y-92689491D01*
X63643059Y-92622036D01*
X63643706Y-92611831D01*
X63655460Y-92500000D01*
X63635674Y-92311744D01*
X63577179Y-92131716D01*
X63482533Y-91967784D01*
X63355871Y-91827112D01*
X63355870Y-91827111D01*
X63202734Y-91715851D01*
X63202731Y-91715849D01*
X63202730Y-91715849D01*
X63049214Y-91647498D01*
X62995978Y-91602249D01*
X62993910Y-91598987D01*
X51018233Y-72029794D01*
X51000000Y-71965068D01*
X51000000Y-47124000D01*
X51019685Y-47056961D01*
X51072489Y-47011206D01*
X51124000Y-47000000D01*
X56126000Y-47000000D01*
X56193039Y-47019685D01*
G37*
%TD.AperFunction*%
%TA.AperFunction,Conductor*%
G36*
X119443039Y-50619685D02*
G01*
X119488794Y-50672489D01*
X119500000Y-50724000D01*
X119500000Y-53636439D01*
X119480315Y-53703478D01*
X119427511Y-53749233D01*
X119358353Y-53759177D01*
X119294797Y-53730152D01*
X119263802Y-53689236D01*
X119195100Y-53543238D01*
X119195096Y-53543232D01*
X119026542Y-53277632D01*
X119026539Y-53277628D01*
X118935712Y-53167838D01*
X118115269Y-53988281D01*
X118029722Y-53870534D01*
X117879466Y-53720278D01*
X117761717Y-53634729D01*
X118585027Y-52811419D01*
X118585026Y-52811417D01*
X118342227Y-52635014D01*
X118342209Y-52635003D01*
X118066552Y-52483459D01*
X118066544Y-52483455D01*
X117774073Y-52367659D01*
X117469379Y-52289426D01*
X117469370Y-52289424D01*
X117157298Y-52250000D01*
X116842701Y-52250000D01*
X116530629Y-52289424D01*
X116530620Y-52289426D01*
X116225926Y-52367659D01*
X115933455Y-52483455D01*
X115933447Y-52483459D01*
X115657787Y-52635004D01*
X115657782Y-52635007D01*
X115414972Y-52811418D01*
X115414971Y-52811419D01*
X116238281Y-53634729D01*
X116120534Y-53720278D01*
X115970278Y-53870534D01*
X115884729Y-53988281D01*
X115064286Y-53167838D01*
X115064285Y-53167838D01*
X114973459Y-53277629D01*
X114973457Y-53277632D01*
X114804903Y-53543232D01*
X114804900Y-53543238D01*
X114670965Y-53827862D01*
X114670963Y-53827867D01*
X114573755Y-54127041D01*
X114514808Y-54436050D01*
X114514807Y-54436057D01*
X114495057Y-54749994D01*
X114495057Y-54750005D01*
X114514807Y-55063942D01*
X114514808Y-55063949D01*
X114573755Y-55372958D01*
X114670963Y-55672132D01*
X114670965Y-55672137D01*
X114804900Y-55956761D01*
X114804903Y-55956767D01*
X114973457Y-56222367D01*
X114973460Y-56222371D01*
X115064286Y-56332160D01*
X115884728Y-55511717D01*
X115970278Y-55629466D01*
X116120534Y-55779722D01*
X116238281Y-55865270D01*
X115414971Y-56688579D01*
X115414972Y-56688581D01*
X115657772Y-56864985D01*
X115657790Y-56864996D01*
X115933447Y-57016540D01*
X115933455Y-57016544D01*
X116225926Y-57132340D01*
X116530620Y-57210573D01*
X116530629Y-57210575D01*
X116842701Y-57249999D01*
X116842715Y-57250000D01*
X117157285Y-57250000D01*
X117157298Y-57249999D01*
X117469370Y-57210575D01*
X117469379Y-57210573D01*
X117774073Y-57132340D01*
X118066544Y-57016544D01*
X118066552Y-57016540D01*
X118342209Y-56864996D01*
X118342219Y-56864990D01*
X118585026Y-56688579D01*
X118585027Y-56688579D01*
X117761718Y-55865270D01*
X117879466Y-55779722D01*
X118029722Y-55629466D01*
X118115270Y-55511718D01*
X118935712Y-56332160D01*
X119026544Y-56222364D01*
X119195096Y-55956767D01*
X119195099Y-55956761D01*
X119263802Y-55810763D01*
X119310157Y-55758485D01*
X119377417Y-55739568D01*
X119444227Y-55760017D01*
X119489376Y-55813341D01*
X119500000Y-55863560D01*
X119500000Y-57376000D01*
X119480315Y-57443039D01*
X119427511Y-57488794D01*
X119376000Y-57500000D01*
X114274000Y-57500000D01*
X114206961Y-57480315D01*
X114161206Y-57427511D01*
X114150000Y-57376000D01*
X114150000Y-54300000D01*
X107705703Y-54300000D01*
X107638664Y-54280315D01*
X107592909Y-54227511D01*
X107587772Y-54214317D01*
X107577182Y-54181724D01*
X107577180Y-54181720D01*
X107577179Y-54181716D01*
X107482533Y-54017784D01*
X107355871Y-53877112D01*
X107355870Y-53877111D01*
X107202734Y-53765851D01*
X107202729Y-53765848D01*
X107029807Y-53688857D01*
X107029802Y-53688855D01*
X106881084Y-53657245D01*
X106844646Y-53649500D01*
X106655354Y-53649500D01*
X106622897Y-53656398D01*
X106470197Y-53688855D01*
X106470192Y-53688857D01*
X106297270Y-53765848D01*
X106297265Y-53765851D01*
X106144129Y-53877111D01*
X106017466Y-54017785D01*
X105922821Y-54181715D01*
X105920175Y-54187659D01*
X105918535Y-54186928D01*
X105884030Y-54237383D01*
X105819669Y-54264576D01*
X105759755Y-54256619D01*
X104708720Y-53838990D01*
X104617091Y-53812277D01*
X104617079Y-53812274D01*
X104571309Y-53803514D01*
X104571300Y-53803512D01*
X104571295Y-53803512D01*
X104535927Y-53800157D01*
X104476280Y-53794501D01*
X104476275Y-53794500D01*
X104476267Y-53794500D01*
X104476257Y-53794500D01*
X96718909Y-53794500D01*
X96651870Y-53774815D01*
X96606115Y-53722011D01*
X96595620Y-53657245D01*
X96597725Y-53637662D01*
X96600498Y-53611873D01*
X96600497Y-51996128D01*
X96594089Y-51936517D01*
X96543794Y-51801669D01*
X96543793Y-51801668D01*
X96543791Y-51801664D01*
X96457545Y-51686455D01*
X96457542Y-51686452D01*
X96342333Y-51600206D01*
X96342326Y-51600202D01*
X96207480Y-51549908D01*
X96207481Y-51549908D01*
X96147881Y-51543501D01*
X96147879Y-51543500D01*
X96147871Y-51543500D01*
X96147862Y-51543500D01*
X94532127Y-51543500D01*
X94532121Y-51543501D01*
X94472514Y-51549908D01*
X94337669Y-51600202D01*
X94337662Y-51600206D01*
X94222453Y-51686452D01*
X94222450Y-51686455D01*
X94136204Y-51801664D01*
X94136200Y-51801671D01*
X94085906Y-51936517D01*
X94079499Y-51996116D01*
X94079499Y-51996123D01*
X94079498Y-51996135D01*
X94079498Y-53611870D01*
X94079499Y-53611872D01*
X94084376Y-53657245D01*
X94084377Y-53657246D01*
X94071971Y-53726005D01*
X94024360Y-53777142D01*
X93961087Y-53794500D01*
X91822819Y-53794500D01*
X91755780Y-53774815D01*
X91710025Y-53722011D01*
X91700081Y-53652853D01*
X91721244Y-53599376D01*
X91835356Y-53436406D01*
X91928530Y-53236593D01*
X91928533Y-53236587D01*
X91985594Y-53023634D01*
X91985595Y-53023626D01*
X92004810Y-52804001D01*
X92004810Y-52803998D01*
X91985595Y-52584373D01*
X91985594Y-52584366D01*
X91928530Y-52371404D01*
X91835357Y-52171595D01*
X91835356Y-52171593D01*
X91790301Y-52107248D01*
X91790301Y-52107247D01*
X91229491Y-52668056D01*
X91213378Y-52607919D01*
X91146499Y-52492080D01*
X91051917Y-52397498D01*
X90936078Y-52330619D01*
X90875938Y-52314504D01*
X91436748Y-51753694D01*
X91372399Y-51708638D01*
X91172590Y-51615466D01*
X91172584Y-51615463D01*
X90959631Y-51558402D01*
X90959623Y-51558401D01*
X90739999Y-51539187D01*
X90739995Y-51539187D01*
X90520370Y-51558401D01*
X90520363Y-51558402D01*
X90307401Y-51615466D01*
X90107591Y-51708640D01*
X90043245Y-51753694D01*
X90604055Y-52314504D01*
X90543916Y-52330619D01*
X90428077Y-52397498D01*
X90333495Y-52492080D01*
X90266616Y-52607919D01*
X90250501Y-52668058D01*
X89689691Y-52107248D01*
X89644637Y-52171594D01*
X89551463Y-52371404D01*
X89499275Y-52566172D01*
X89462909Y-52625832D01*
X89400062Y-52656361D01*
X89330687Y-52648066D01*
X89276809Y-52603580D01*
X89255535Y-52537028D01*
X89255500Y-52534078D01*
X89255500Y-50724000D01*
X89275185Y-50656961D01*
X89327989Y-50611206D01*
X89379500Y-50600000D01*
X119376000Y-50600000D01*
X119443039Y-50619685D01*
G37*
%TD.AperFunction*%
M02*
