M48
; DRILL file {KiCad 8.0.4} date 2025-03-21T12:56:27-0500
; FORMAT={-:-/ absolute / metric / decimal}
; #@! TF.CreationDate,2025-03-21T12:56:27-05:00
; #@! TF.GenerationSoftware,Kicad,Pcbnew,8.0.4
; #@! TF.FileFunction,Plated,1,4,PTH
FMAT,2
METRIC
; #@! TA.AperFunction,Plated,PTH,ViaDrill
T1C0.400
; #@! TA.AperFunction,Plated,PTH,ComponentDrill
T2C0.850
; #@! TA.AperFunction,Plated,PTH,ComponentDrill
T3C1.016
; #@! TA.AperFunction,Plated,PTH,ComponentDrill
T4C1.020
; #@! TA.AperFunction,Plated,PTH,ComponentDrill
T5C2.700
%
G90
G05
T1
X60.25Y-42.5
X61.0Y-41.75
X61.0Y-43.25
X62.75Y-92.5
X62.8Y-95.8
X63.1Y-51.712
X64.5Y-41.25
X64.5Y-42.75
X64.6Y-44.48
X65.05Y-75.55
X65.05Y-77.0
X65.5Y-42.0
X65.5Y-43.5
X65.75Y-76.3
X66.45Y-75.55
X66.45Y-77.0
X68.051Y-79.896
X69.75Y-78.5
X69.9Y-46.6
X70.75Y-79.25
X70.845Y-77.356
X71.4Y-47.9
X73.9Y-69.7
X76.962Y-43.434
X77.424Y-79.921
X78.075Y-87.599
X78.325Y-86.099
X79.325Y-86.849
X79.756Y-43.5
X80.5Y-82.0
X81.25Y-81.25
X82.0Y-82.0
X82.75Y-81.25
X97.375Y-79.875
X97.5Y-65.25
X98.625Y-79.625
X98.75Y-66.5
X103.0Y-74.25
X103.0Y-76.75
X103.0Y-78.5
X103.0Y-80.75
X106.426Y-32.766
X106.65Y-62.15
X106.75Y-54.55
X106.95Y-74.7
X107.0Y-102.4
X108.966Y-34.29
X110.8Y-102.4
T2
X80.375Y-58.775
X80.375Y-60.775
X80.375Y-62.775
X80.375Y-64.775
X80.375Y-66.775
X80.375Y-68.775
X80.375Y-70.775
X80.375Y-72.775
X82.375Y-58.775
X82.375Y-60.775
X82.375Y-62.775
X82.375Y-64.775
X82.375Y-66.775
X82.375Y-68.775
X82.375Y-70.775
X82.375Y-72.775
T3
X90.74Y-52.804
X90.74Y-56.304
X90.74Y-59.804
X90.74Y-63.304
X95.34Y-56.304
X95.34Y-59.804
X95.34Y-63.304
T4
X95.34Y-52.804
T5
X53.373Y-91.373
X53.592Y-39.108
X53.7Y-49.75
X56.908Y-94.908
X57.127Y-35.573
X58.7Y-49.75
X72.25Y-98.5
X74.5Y-30.0
X77.25Y-98.5
X79.5Y-30.0
X93.0Y-30.0
X98.0Y-30.0
X101.0Y-93.0
X101.0Y-98.0
X117.0Y-54.75
X117.0Y-64.75
X117.0Y-74.75
X119.273Y-94.827
X119.692Y-35.892
X122.0Y-54.75
X122.0Y-64.75
X122.0Y-74.75
X122.808Y-91.292
X123.227Y-39.427
M30
