%TF.GenerationSoftware,KiCad,Pcbnew,9.0.0*%
%TF.CreationDate,2025-04-12T13:05:03-05:00*%
%TF.ProjectId,Chassis,43686173-7369-4732-9e6b-696361645f70,rev?*%
%TF.SameCoordinates,Original*%
%TF.FileFunction,Drillmap*%
%TF.FilePolarity,Positive*%
%FSLAX45Y45*%
G04 Gerber Fmt 4.5, Leading zero omitted, Abs format (unit mm)*
G04 Created by KiCad (PCBNEW 9.0.0) date 2025-04-12 13:05:03*
%MOMM*%
%LPD*%
G01*
G04 APERTURE LIST*
%ADD10C,0.100000*%
%ADD11C,0.200000*%
%ADD12C,0.101600*%
%ADD13C,0.102000*%
%ADD14C,0.270000*%
G04 APERTURE END LIST*
D10*
X5232843Y-2532843D02*
X12434700Y-2540000D01*
X4834700Y-10140000D02*
X4832843Y-2932843D01*
X12834700Y-10140000D02*
G75*
G02*
X12434700Y-10540000I-400000J0D01*
G01*
X12834700Y-2940000D02*
X12834700Y-10140000D01*
X12434700Y-10540000D02*
X5234700Y-10540000D01*
X5234700Y-10540000D02*
G75*
G02*
X4834700Y-10140000I0J400000D01*
G01*
X12434700Y-2540000D02*
G75*
G02*
X12834700Y-2940000I0J-400000D01*
G01*
X4832843Y-2932843D02*
G75*
G02*
X5232843Y-2532843I400000J0D01*
G01*
D11*
D10*
X6005000Y-4230000D02*
X6045000Y-4270000D01*
X6045000Y-4230000D02*
X6005000Y-4270000D01*
X6080000Y-4155000D02*
X6120000Y-4195000D01*
X6120000Y-4155000D02*
X6080000Y-4195000D01*
X6080000Y-4305000D02*
X6120000Y-4345000D01*
X6120000Y-4305000D02*
X6080000Y-4345000D01*
X6255000Y-9230000D02*
X6295000Y-9270000D01*
X6295000Y-9230000D02*
X6255000Y-9270000D01*
X6260000Y-9560000D02*
X6300000Y-9600000D01*
X6300000Y-9560000D02*
X6260000Y-9600000D01*
X6290000Y-5151250D02*
X6330000Y-5191250D01*
X6330000Y-5151250D02*
X6290000Y-5191250D01*
X6430000Y-4105000D02*
X6470000Y-4145000D01*
X6470000Y-4105000D02*
X6430000Y-4145000D01*
X6430000Y-4255000D02*
X6470000Y-4295000D01*
X6470000Y-4255000D02*
X6430000Y-4295000D01*
X6440000Y-4428000D02*
X6480000Y-4468000D01*
X6480000Y-4428000D02*
X6440000Y-4468000D01*
X6485000Y-7535000D02*
X6525000Y-7575000D01*
X6525000Y-7535000D02*
X6485000Y-7575000D01*
X6485000Y-7680000D02*
X6525000Y-7720000D01*
X6525000Y-7680000D02*
X6485000Y-7720000D01*
X6530000Y-4180000D02*
X6570000Y-4220000D01*
X6570000Y-4180000D02*
X6530000Y-4220000D01*
X6530000Y-4330000D02*
X6570000Y-4370000D01*
X6570000Y-4330000D02*
X6530000Y-4370000D01*
X6555000Y-7610000D02*
X6595000Y-7650000D01*
X6595000Y-7610000D02*
X6555000Y-7650000D01*
X6625000Y-7535000D02*
X6665000Y-7575000D01*
X6665000Y-7535000D02*
X6625000Y-7575000D01*
X6625000Y-7680000D02*
X6665000Y-7720000D01*
X6665000Y-7680000D02*
X6625000Y-7720000D01*
X6785100Y-7969600D02*
X6825100Y-8009600D01*
X6825100Y-7969600D02*
X6785100Y-8009600D01*
X6955000Y-7830000D02*
X6995000Y-7870000D01*
X6995000Y-7830000D02*
X6955000Y-7870000D01*
X6970000Y-4640000D02*
X7010000Y-4680000D01*
X7010000Y-4640000D02*
X6970000Y-4680000D01*
X7055000Y-7905000D02*
X7095000Y-7945000D01*
X7095000Y-7905000D02*
X7055000Y-7945000D01*
X7064500Y-7715600D02*
X7104500Y-7755600D01*
X7104500Y-7715600D02*
X7064500Y-7755600D01*
X7120000Y-4770000D02*
X7160000Y-4810000D01*
X7160000Y-4770000D02*
X7120000Y-4810000D01*
X7370000Y-6950000D02*
X7410000Y-6990000D01*
X7410000Y-6950000D02*
X7370000Y-6990000D01*
X7676200Y-4323400D02*
X7716200Y-4363400D01*
X7716200Y-4323400D02*
X7676200Y-4363400D01*
X7722360Y-7972140D02*
X7762360Y-8012140D01*
X7762360Y-7972140D02*
X7722360Y-8012140D01*
X7787500Y-8739900D02*
X7827500Y-8779900D01*
X7827500Y-8739900D02*
X7787500Y-8779900D01*
X7812500Y-8589900D02*
X7852500Y-8629900D01*
X7852500Y-8589900D02*
X7812500Y-8629900D01*
X7912500Y-8664900D02*
X7952500Y-8704900D01*
X7952500Y-8664900D02*
X7912500Y-8704900D01*
X7955600Y-4330000D02*
X7995600Y-4370000D01*
X7995600Y-4330000D02*
X7955600Y-4370000D01*
X8030000Y-8180000D02*
X8070000Y-8220000D01*
X8070000Y-8180000D02*
X8030000Y-8220000D01*
X8105000Y-8105000D02*
X8145000Y-8145000D01*
X8145000Y-8105000D02*
X8105000Y-8145000D01*
X8180000Y-8180000D02*
X8220000Y-8220000D01*
X8220000Y-8180000D02*
X8180000Y-8220000D01*
X8255000Y-8105000D02*
X8295000Y-8145000D01*
X8295000Y-8105000D02*
X8255000Y-8145000D01*
X9717500Y-7967500D02*
X9757500Y-8007500D01*
X9757500Y-7967500D02*
X9717500Y-8007500D01*
X9730000Y-6505000D02*
X9770000Y-6545000D01*
X9770000Y-6505000D02*
X9730000Y-6545000D01*
X9842500Y-7942500D02*
X9882500Y-7982500D01*
X9882500Y-7942500D02*
X9842500Y-7982500D01*
X9855000Y-6630000D02*
X9895000Y-6670000D01*
X9895000Y-6630000D02*
X9855000Y-6670000D01*
X10280000Y-7405000D02*
X10320000Y-7445000D01*
X10320000Y-7405000D02*
X10280000Y-7445000D01*
X10280000Y-7655000D02*
X10320000Y-7695000D01*
X10320000Y-7655000D02*
X10280000Y-7695000D01*
X10280000Y-7830000D02*
X10320000Y-7870000D01*
X10320000Y-7830000D02*
X10280000Y-7870000D01*
X10280000Y-8055000D02*
X10320000Y-8095000D01*
X10320000Y-8055000D02*
X10280000Y-8095000D01*
X10622600Y-3256600D02*
X10662600Y-3296600D01*
X10662600Y-3256600D02*
X10622600Y-3296600D01*
X10645000Y-6195000D02*
X10685000Y-6235000D01*
X10685000Y-6195000D02*
X10645000Y-6235000D01*
X10655000Y-5435000D02*
X10695000Y-5475000D01*
X10695000Y-5435000D02*
X10655000Y-5475000D01*
X10675000Y-7450000D02*
X10715000Y-7490000D01*
X10715000Y-7450000D02*
X10675000Y-7490000D01*
X10680000Y-10220000D02*
X10720000Y-10260000D01*
X10720000Y-10220000D02*
X10680000Y-10260000D01*
X10876600Y-3409000D02*
X10916600Y-3449000D01*
X10916600Y-3409000D02*
X10876600Y-3449000D01*
X11060000Y-10220000D02*
X11100000Y-10260000D01*
X11100000Y-10220000D02*
X11060000Y-10260000D01*
X8080000Y-5877500D02*
G75*
G02*
X7995000Y-5877500I-42500J0D01*
G01*
X7995000Y-5877500D02*
G75*
G02*
X8080000Y-5877500I42500J0D01*
G01*
X8080000Y-6077500D02*
G75*
G02*
X7995000Y-6077500I-42500J0D01*
G01*
X7995000Y-6077500D02*
G75*
G02*
X8080000Y-6077500I42500J0D01*
G01*
X8080000Y-6277500D02*
G75*
G02*
X7995000Y-6277500I-42500J0D01*
G01*
X7995000Y-6277500D02*
G75*
G02*
X8080000Y-6277500I42500J0D01*
G01*
X8080000Y-6477500D02*
G75*
G02*
X7995000Y-6477500I-42500J0D01*
G01*
X7995000Y-6477500D02*
G75*
G02*
X8080000Y-6477500I42500J0D01*
G01*
X8080000Y-6677500D02*
G75*
G02*
X7995000Y-6677500I-42500J0D01*
G01*
X7995000Y-6677500D02*
G75*
G02*
X8080000Y-6677500I42500J0D01*
G01*
X8080000Y-6877500D02*
G75*
G02*
X7995000Y-6877500I-42500J0D01*
G01*
X7995000Y-6877500D02*
G75*
G02*
X8080000Y-6877500I42500J0D01*
G01*
X8080000Y-7077500D02*
G75*
G02*
X7995000Y-7077500I-42500J0D01*
G01*
X7995000Y-7077500D02*
G75*
G02*
X8080000Y-7077500I42500J0D01*
G01*
X8080000Y-7277500D02*
G75*
G02*
X7995000Y-7277500I-42500J0D01*
G01*
X7995000Y-7277500D02*
G75*
G02*
X8080000Y-7277500I42500J0D01*
G01*
X8280000Y-5877500D02*
G75*
G02*
X8195000Y-5877500I-42500J0D01*
G01*
X8195000Y-5877500D02*
G75*
G02*
X8280000Y-5877500I42500J0D01*
G01*
X8280000Y-6077500D02*
G75*
G02*
X8195000Y-6077500I-42500J0D01*
G01*
X8195000Y-6077500D02*
G75*
G02*
X8280000Y-6077500I42500J0D01*
G01*
X8280000Y-6277500D02*
G75*
G02*
X8195000Y-6277500I-42500J0D01*
G01*
X8195000Y-6277500D02*
G75*
G02*
X8280000Y-6277500I42500J0D01*
G01*
X8280000Y-6477500D02*
G75*
G02*
X8195000Y-6477500I-42500J0D01*
G01*
X8195000Y-6477500D02*
G75*
G02*
X8280000Y-6477500I42500J0D01*
G01*
X8280000Y-6677500D02*
G75*
G02*
X8195000Y-6677500I-42500J0D01*
G01*
X8195000Y-6677500D02*
G75*
G02*
X8280000Y-6677500I42500J0D01*
G01*
X8280000Y-6877500D02*
G75*
G02*
X8195000Y-6877500I-42500J0D01*
G01*
X8195000Y-6877500D02*
G75*
G02*
X8280000Y-6877500I42500J0D01*
G01*
X8280000Y-7077500D02*
G75*
G02*
X8195000Y-7077500I-42500J0D01*
G01*
X8195000Y-7077500D02*
G75*
G02*
X8280000Y-7077500I42500J0D01*
G01*
X8280000Y-7277500D02*
G75*
G02*
X8195000Y-7277500I-42500J0D01*
G01*
X8195000Y-7277500D02*
G75*
G02*
X8280000Y-7277500I42500J0D01*
G01*
D12*
X9074000Y-5229600D02*
X9074000Y-5331200D01*
X9023200Y-5280400D02*
X9124800Y-5280400D01*
X9074000Y-5579600D02*
X9074000Y-5681200D01*
X9023200Y-5630400D02*
X9124800Y-5630400D01*
X9074000Y-5929600D02*
X9074000Y-6031200D01*
X9023200Y-5980400D02*
X9124800Y-5980400D01*
X9074000Y-6279600D02*
X9074000Y-6381200D01*
X9023200Y-6330400D02*
X9124800Y-6330400D01*
X9534000Y-5579600D02*
X9534000Y-5681200D01*
X9483200Y-5630400D02*
X9584800Y-5630400D01*
X9534000Y-5929600D02*
X9534000Y-6031200D01*
X9483200Y-5980400D02*
X9584800Y-5980400D01*
X9534000Y-6279600D02*
X9534000Y-6381200D01*
X9483200Y-6330400D02*
X9584800Y-6330400D01*
D13*
X9570063Y-5316463D02*
X9570063Y-5244337D01*
X9497937Y-5244337D01*
X9497937Y-5316463D01*
X9570063Y-5316463D01*
D14*
X5337261Y-9272261D02*
X5472261Y-9137261D01*
X5337261Y-9002261D01*
X5202261Y-9137261D01*
X5337261Y-9272261D01*
X5359185Y-4045815D02*
X5494185Y-3910815D01*
X5359185Y-3775815D01*
X5224185Y-3910815D01*
X5359185Y-4045815D01*
X5370000Y-5110000D02*
X5505000Y-4975000D01*
X5370000Y-4840000D01*
X5235000Y-4975000D01*
X5370000Y-5110000D01*
X5690815Y-9625815D02*
X5825815Y-9490815D01*
X5690815Y-9355815D01*
X5555815Y-9490815D01*
X5690815Y-9625815D01*
X5712739Y-3692261D02*
X5847739Y-3557261D01*
X5712739Y-3422261D01*
X5577739Y-3557261D01*
X5712739Y-3692261D01*
X5870000Y-5110000D02*
X6005000Y-4975000D01*
X5870000Y-4840000D01*
X5735000Y-4975000D01*
X5870000Y-5110000D01*
X7225000Y-9985000D02*
X7360000Y-9850000D01*
X7225000Y-9715000D01*
X7090000Y-9850000D01*
X7225000Y-9985000D01*
X7450000Y-3135000D02*
X7585000Y-3000000D01*
X7450000Y-2865000D01*
X7315000Y-3000000D01*
X7450000Y-3135000D01*
X7725000Y-9985000D02*
X7860000Y-9850000D01*
X7725000Y-9715000D01*
X7590000Y-9850000D01*
X7725000Y-9985000D01*
X7950000Y-3135000D02*
X8085000Y-3000000D01*
X7950000Y-2865000D01*
X7815000Y-3000000D01*
X7950000Y-3135000D01*
X9300000Y-3135000D02*
X9435000Y-3000000D01*
X9300000Y-2865000D01*
X9165000Y-3000000D01*
X9300000Y-3135000D01*
X9800000Y-3135000D02*
X9935000Y-3000000D01*
X9800000Y-2865000D01*
X9665000Y-3000000D01*
X9800000Y-3135000D01*
X10100000Y-9435000D02*
X10235000Y-9300000D01*
X10100000Y-9165000D01*
X9965000Y-9300000D01*
X10100000Y-9435000D01*
X10100000Y-9935000D02*
X10235000Y-9800000D01*
X10100000Y-9665000D01*
X9965000Y-9800000D01*
X10100000Y-9935000D01*
X11700000Y-5610000D02*
X11835000Y-5475000D01*
X11700000Y-5340000D01*
X11565000Y-5475000D01*
X11700000Y-5610000D01*
X11700000Y-6610000D02*
X11835000Y-6475000D01*
X11700000Y-6340000D01*
X11565000Y-6475000D01*
X11700000Y-6610000D01*
X11700000Y-7610000D02*
X11835000Y-7475000D01*
X11700000Y-7340000D01*
X11565000Y-7475000D01*
X11700000Y-7610000D01*
X11927261Y-9617739D02*
X12062261Y-9482739D01*
X11927261Y-9347739D01*
X11792261Y-9482739D01*
X11927261Y-9617739D01*
X11969185Y-3724185D02*
X12104185Y-3589185D01*
X11969185Y-3454185D01*
X11834185Y-3589185D01*
X11969185Y-3724185D01*
X12200000Y-5610000D02*
X12335000Y-5475000D01*
X12200000Y-5340000D01*
X12065000Y-5475000D01*
X12200000Y-5610000D01*
X12200000Y-6610000D02*
X12335000Y-6475000D01*
X12200000Y-6340000D01*
X12065000Y-6475000D01*
X12200000Y-6610000D01*
X12200000Y-7610000D02*
X12335000Y-7475000D01*
X12200000Y-7340000D01*
X12065000Y-7475000D01*
X12200000Y-7610000D01*
X12280815Y-9264185D02*
X12415815Y-9129185D01*
X12280815Y-8994185D01*
X12145815Y-9129185D01*
X12280815Y-9264185D01*
X12322739Y-4077739D02*
X12457739Y-3942739D01*
X12322739Y-3807739D01*
X12187739Y-3942739D01*
X12322739Y-4077739D01*
D11*
X5088620Y-10856484D02*
X5088620Y-10656484D01*
X5088620Y-10656484D02*
X5136239Y-10656484D01*
X5136239Y-10656484D02*
X5164810Y-10666008D01*
X5164810Y-10666008D02*
X5183858Y-10685055D01*
X5183858Y-10685055D02*
X5193381Y-10704103D01*
X5193381Y-10704103D02*
X5202905Y-10742198D01*
X5202905Y-10742198D02*
X5202905Y-10770770D01*
X5202905Y-10770770D02*
X5193381Y-10808865D01*
X5193381Y-10808865D02*
X5183858Y-10827912D01*
X5183858Y-10827912D02*
X5164810Y-10846960D01*
X5164810Y-10846960D02*
X5136239Y-10856484D01*
X5136239Y-10856484D02*
X5088620Y-10856484D01*
X5288620Y-10856484D02*
X5288620Y-10723150D01*
X5288620Y-10761246D02*
X5298143Y-10742198D01*
X5298143Y-10742198D02*
X5307667Y-10732674D01*
X5307667Y-10732674D02*
X5326715Y-10723150D01*
X5326715Y-10723150D02*
X5345762Y-10723150D01*
X5412429Y-10856484D02*
X5412429Y-10723150D01*
X5412429Y-10656484D02*
X5402905Y-10666008D01*
X5402905Y-10666008D02*
X5412429Y-10675531D01*
X5412429Y-10675531D02*
X5421953Y-10666008D01*
X5421953Y-10666008D02*
X5412429Y-10656484D01*
X5412429Y-10656484D02*
X5412429Y-10675531D01*
X5536239Y-10856484D02*
X5517191Y-10846960D01*
X5517191Y-10846960D02*
X5507667Y-10827912D01*
X5507667Y-10827912D02*
X5507667Y-10656484D01*
X5641000Y-10856484D02*
X5621953Y-10846960D01*
X5621953Y-10846960D02*
X5612429Y-10827912D01*
X5612429Y-10827912D02*
X5612429Y-10656484D01*
X5869572Y-10856484D02*
X5869572Y-10656484D01*
X5869572Y-10656484D02*
X5936239Y-10799341D01*
X5936239Y-10799341D02*
X6002905Y-10656484D01*
X6002905Y-10656484D02*
X6002905Y-10856484D01*
X6183858Y-10856484D02*
X6183858Y-10751722D01*
X6183858Y-10751722D02*
X6174334Y-10732674D01*
X6174334Y-10732674D02*
X6155286Y-10723150D01*
X6155286Y-10723150D02*
X6117191Y-10723150D01*
X6117191Y-10723150D02*
X6098143Y-10732674D01*
X6183858Y-10846960D02*
X6164810Y-10856484D01*
X6164810Y-10856484D02*
X6117191Y-10856484D01*
X6117191Y-10856484D02*
X6098143Y-10846960D01*
X6098143Y-10846960D02*
X6088619Y-10827912D01*
X6088619Y-10827912D02*
X6088619Y-10808865D01*
X6088619Y-10808865D02*
X6098143Y-10789817D01*
X6098143Y-10789817D02*
X6117191Y-10780293D01*
X6117191Y-10780293D02*
X6164810Y-10780293D01*
X6164810Y-10780293D02*
X6183858Y-10770770D01*
X6279096Y-10723150D02*
X6279096Y-10923150D01*
X6279096Y-10732674D02*
X6298143Y-10723150D01*
X6298143Y-10723150D02*
X6336239Y-10723150D01*
X6336239Y-10723150D02*
X6355286Y-10732674D01*
X6355286Y-10732674D02*
X6364810Y-10742198D01*
X6364810Y-10742198D02*
X6374334Y-10761246D01*
X6374334Y-10761246D02*
X6374334Y-10818389D01*
X6374334Y-10818389D02*
X6364810Y-10837436D01*
X6364810Y-10837436D02*
X6355286Y-10846960D01*
X6355286Y-10846960D02*
X6336239Y-10856484D01*
X6336239Y-10856484D02*
X6298143Y-10856484D01*
X6298143Y-10856484D02*
X6279096Y-10846960D01*
X6460048Y-10837436D02*
X6469572Y-10846960D01*
X6469572Y-10846960D02*
X6460048Y-10856484D01*
X6460048Y-10856484D02*
X6450524Y-10846960D01*
X6450524Y-10846960D02*
X6460048Y-10837436D01*
X6460048Y-10837436D02*
X6460048Y-10856484D01*
X6460048Y-10732674D02*
X6469572Y-10742198D01*
X6469572Y-10742198D02*
X6460048Y-10751722D01*
X6460048Y-10751722D02*
X6450524Y-10742198D01*
X6450524Y-10742198D02*
X6460048Y-10732674D01*
X6460048Y-10732674D02*
X6460048Y-10751722D01*
D10*
X4787843Y-11165000D02*
X4827843Y-11205000D01*
X4827843Y-11165000D02*
X4787843Y-11205000D01*
D11*
X5126715Y-11076484D02*
X5145762Y-11076484D01*
X5145762Y-11076484D02*
X5164810Y-11086008D01*
X5164810Y-11086008D02*
X5174334Y-11095531D01*
X5174334Y-11095531D02*
X5183858Y-11114579D01*
X5183858Y-11114579D02*
X5193381Y-11152674D01*
X5193381Y-11152674D02*
X5193381Y-11200293D01*
X5193381Y-11200293D02*
X5183858Y-11238388D01*
X5183858Y-11238388D02*
X5174334Y-11257436D01*
X5174334Y-11257436D02*
X5164810Y-11266960D01*
X5164810Y-11266960D02*
X5145762Y-11276484D01*
X5145762Y-11276484D02*
X5126715Y-11276484D01*
X5126715Y-11276484D02*
X5107667Y-11266960D01*
X5107667Y-11266960D02*
X5098143Y-11257436D01*
X5098143Y-11257436D02*
X5088620Y-11238388D01*
X5088620Y-11238388D02*
X5079096Y-11200293D01*
X5079096Y-11200293D02*
X5079096Y-11152674D01*
X5079096Y-11152674D02*
X5088620Y-11114579D01*
X5088620Y-11114579D02*
X5098143Y-11095531D01*
X5098143Y-11095531D02*
X5107667Y-11086008D01*
X5107667Y-11086008D02*
X5126715Y-11076484D01*
X5279096Y-11257436D02*
X5288620Y-11266960D01*
X5288620Y-11266960D02*
X5279096Y-11276484D01*
X5279096Y-11276484D02*
X5269572Y-11266960D01*
X5269572Y-11266960D02*
X5279096Y-11257436D01*
X5279096Y-11257436D02*
X5279096Y-11276484D01*
X5460048Y-11143150D02*
X5460048Y-11276484D01*
X5412429Y-11066960D02*
X5364810Y-11209817D01*
X5364810Y-11209817D02*
X5488620Y-11209817D01*
X5602905Y-11076484D02*
X5621953Y-11076484D01*
X5621953Y-11076484D02*
X5641000Y-11086008D01*
X5641000Y-11086008D02*
X5650524Y-11095531D01*
X5650524Y-11095531D02*
X5660048Y-11114579D01*
X5660048Y-11114579D02*
X5669572Y-11152674D01*
X5669572Y-11152674D02*
X5669572Y-11200293D01*
X5669572Y-11200293D02*
X5660048Y-11238388D01*
X5660048Y-11238388D02*
X5650524Y-11257436D01*
X5650524Y-11257436D02*
X5641000Y-11266960D01*
X5641000Y-11266960D02*
X5621953Y-11276484D01*
X5621953Y-11276484D02*
X5602905Y-11276484D01*
X5602905Y-11276484D02*
X5583858Y-11266960D01*
X5583858Y-11266960D02*
X5574334Y-11257436D01*
X5574334Y-11257436D02*
X5564810Y-11238388D01*
X5564810Y-11238388D02*
X5555286Y-11200293D01*
X5555286Y-11200293D02*
X5555286Y-11152674D01*
X5555286Y-11152674D02*
X5564810Y-11114579D01*
X5564810Y-11114579D02*
X5574334Y-11095531D01*
X5574334Y-11095531D02*
X5583858Y-11086008D01*
X5583858Y-11086008D02*
X5602905Y-11076484D01*
X5793381Y-11076484D02*
X5812429Y-11076484D01*
X5812429Y-11076484D02*
X5831477Y-11086008D01*
X5831477Y-11086008D02*
X5841000Y-11095531D01*
X5841000Y-11095531D02*
X5850524Y-11114579D01*
X5850524Y-11114579D02*
X5860048Y-11152674D01*
X5860048Y-11152674D02*
X5860048Y-11200293D01*
X5860048Y-11200293D02*
X5850524Y-11238388D01*
X5850524Y-11238388D02*
X5841000Y-11257436D01*
X5841000Y-11257436D02*
X5831477Y-11266960D01*
X5831477Y-11266960D02*
X5812429Y-11276484D01*
X5812429Y-11276484D02*
X5793381Y-11276484D01*
X5793381Y-11276484D02*
X5774334Y-11266960D01*
X5774334Y-11266960D02*
X5764810Y-11257436D01*
X5764810Y-11257436D02*
X5755286Y-11238388D01*
X5755286Y-11238388D02*
X5745762Y-11200293D01*
X5745762Y-11200293D02*
X5745762Y-11152674D01*
X5745762Y-11152674D02*
X5755286Y-11114579D01*
X5755286Y-11114579D02*
X5764810Y-11095531D01*
X5764810Y-11095531D02*
X5774334Y-11086008D01*
X5774334Y-11086008D02*
X5793381Y-11076484D01*
X5945762Y-11276484D02*
X5945762Y-11143150D01*
X5945762Y-11162198D02*
X5955286Y-11152674D01*
X5955286Y-11152674D02*
X5974334Y-11143150D01*
X5974334Y-11143150D02*
X6002905Y-11143150D01*
X6002905Y-11143150D02*
X6021953Y-11152674D01*
X6021953Y-11152674D02*
X6031477Y-11171722D01*
X6031477Y-11171722D02*
X6031477Y-11276484D01*
X6031477Y-11171722D02*
X6041000Y-11152674D01*
X6041000Y-11152674D02*
X6060048Y-11143150D01*
X6060048Y-11143150D02*
X6088619Y-11143150D01*
X6088619Y-11143150D02*
X6107667Y-11152674D01*
X6107667Y-11152674D02*
X6117191Y-11171722D01*
X6117191Y-11171722D02*
X6117191Y-11276484D01*
X6212429Y-11276484D02*
X6212429Y-11143150D01*
X6212429Y-11162198D02*
X6221953Y-11152674D01*
X6221953Y-11152674D02*
X6241000Y-11143150D01*
X6241000Y-11143150D02*
X6269572Y-11143150D01*
X6269572Y-11143150D02*
X6288620Y-11152674D01*
X6288620Y-11152674D02*
X6298143Y-11171722D01*
X6298143Y-11171722D02*
X6298143Y-11276484D01*
X6298143Y-11171722D02*
X6307667Y-11152674D01*
X6307667Y-11152674D02*
X6326715Y-11143150D01*
X6326715Y-11143150D02*
X6355286Y-11143150D01*
X6355286Y-11143150D02*
X6374334Y-11152674D01*
X6374334Y-11152674D02*
X6383858Y-11171722D01*
X6383858Y-11171722D02*
X6383858Y-11276484D01*
X6774334Y-11066960D02*
X6602905Y-11324103D01*
X7031477Y-11076484D02*
X7050524Y-11076484D01*
X7050524Y-11076484D02*
X7069572Y-11086008D01*
X7069572Y-11086008D02*
X7079096Y-11095531D01*
X7079096Y-11095531D02*
X7088620Y-11114579D01*
X7088620Y-11114579D02*
X7098143Y-11152674D01*
X7098143Y-11152674D02*
X7098143Y-11200293D01*
X7098143Y-11200293D02*
X7088620Y-11238388D01*
X7088620Y-11238388D02*
X7079096Y-11257436D01*
X7079096Y-11257436D02*
X7069572Y-11266960D01*
X7069572Y-11266960D02*
X7050524Y-11276484D01*
X7050524Y-11276484D02*
X7031477Y-11276484D01*
X7031477Y-11276484D02*
X7012429Y-11266960D01*
X7012429Y-11266960D02*
X7002905Y-11257436D01*
X7002905Y-11257436D02*
X6993382Y-11238388D01*
X6993382Y-11238388D02*
X6983858Y-11200293D01*
X6983858Y-11200293D02*
X6983858Y-11152674D01*
X6983858Y-11152674D02*
X6993382Y-11114579D01*
X6993382Y-11114579D02*
X7002905Y-11095531D01*
X7002905Y-11095531D02*
X7012429Y-11086008D01*
X7012429Y-11086008D02*
X7031477Y-11076484D01*
X7183858Y-11257436D02*
X7193382Y-11266960D01*
X7193382Y-11266960D02*
X7183858Y-11276484D01*
X7183858Y-11276484D02*
X7174334Y-11266960D01*
X7174334Y-11266960D02*
X7183858Y-11257436D01*
X7183858Y-11257436D02*
X7183858Y-11276484D01*
X7317191Y-11076484D02*
X7336239Y-11076484D01*
X7336239Y-11076484D02*
X7355286Y-11086008D01*
X7355286Y-11086008D02*
X7364810Y-11095531D01*
X7364810Y-11095531D02*
X7374334Y-11114579D01*
X7374334Y-11114579D02*
X7383858Y-11152674D01*
X7383858Y-11152674D02*
X7383858Y-11200293D01*
X7383858Y-11200293D02*
X7374334Y-11238388D01*
X7374334Y-11238388D02*
X7364810Y-11257436D01*
X7364810Y-11257436D02*
X7355286Y-11266960D01*
X7355286Y-11266960D02*
X7336239Y-11276484D01*
X7336239Y-11276484D02*
X7317191Y-11276484D01*
X7317191Y-11276484D02*
X7298143Y-11266960D01*
X7298143Y-11266960D02*
X7288620Y-11257436D01*
X7288620Y-11257436D02*
X7279096Y-11238388D01*
X7279096Y-11238388D02*
X7269572Y-11200293D01*
X7269572Y-11200293D02*
X7269572Y-11152674D01*
X7269572Y-11152674D02*
X7279096Y-11114579D01*
X7279096Y-11114579D02*
X7288620Y-11095531D01*
X7288620Y-11095531D02*
X7298143Y-11086008D01*
X7298143Y-11086008D02*
X7317191Y-11076484D01*
X7574334Y-11276484D02*
X7460048Y-11276484D01*
X7517191Y-11276484D02*
X7517191Y-11076484D01*
X7517191Y-11076484D02*
X7498143Y-11105055D01*
X7498143Y-11105055D02*
X7479096Y-11124103D01*
X7479096Y-11124103D02*
X7460048Y-11133627D01*
X7755286Y-11076484D02*
X7660048Y-11076484D01*
X7660048Y-11076484D02*
X7650524Y-11171722D01*
X7650524Y-11171722D02*
X7660048Y-11162198D01*
X7660048Y-11162198D02*
X7679096Y-11152674D01*
X7679096Y-11152674D02*
X7726715Y-11152674D01*
X7726715Y-11152674D02*
X7745763Y-11162198D01*
X7745763Y-11162198D02*
X7755286Y-11171722D01*
X7755286Y-11171722D02*
X7764810Y-11190769D01*
X7764810Y-11190769D02*
X7764810Y-11238388D01*
X7764810Y-11238388D02*
X7755286Y-11257436D01*
X7755286Y-11257436D02*
X7745763Y-11266960D01*
X7745763Y-11266960D02*
X7726715Y-11276484D01*
X7726715Y-11276484D02*
X7679096Y-11276484D01*
X7679096Y-11276484D02*
X7660048Y-11266960D01*
X7660048Y-11266960D02*
X7650524Y-11257436D01*
X7831477Y-11076484D02*
X7964810Y-11076484D01*
X7964810Y-11076484D02*
X7879096Y-11276484D01*
X8031477Y-11076484D02*
X8031477Y-11114579D01*
X8107667Y-11076484D02*
X8107667Y-11114579D01*
X8402906Y-11352674D02*
X8393382Y-11343150D01*
X8393382Y-11343150D02*
X8374334Y-11314579D01*
X8374334Y-11314579D02*
X8364810Y-11295531D01*
X8364810Y-11295531D02*
X8355286Y-11266960D01*
X8355286Y-11266960D02*
X8345763Y-11219341D01*
X8345763Y-11219341D02*
X8345763Y-11181246D01*
X8345763Y-11181246D02*
X8355286Y-11133627D01*
X8355286Y-11133627D02*
X8364810Y-11105055D01*
X8364810Y-11105055D02*
X8374334Y-11086008D01*
X8374334Y-11086008D02*
X8393382Y-11057436D01*
X8393382Y-11057436D02*
X8402906Y-11047912D01*
X8564810Y-11143150D02*
X8564810Y-11276484D01*
X8517191Y-11066960D02*
X8469572Y-11209817D01*
X8469572Y-11209817D02*
X8593382Y-11209817D01*
X8698144Y-11162198D02*
X8679096Y-11152674D01*
X8679096Y-11152674D02*
X8669572Y-11143150D01*
X8669572Y-11143150D02*
X8660048Y-11124103D01*
X8660048Y-11124103D02*
X8660048Y-11114579D01*
X8660048Y-11114579D02*
X8669572Y-11095531D01*
X8669572Y-11095531D02*
X8679096Y-11086008D01*
X8679096Y-11086008D02*
X8698144Y-11076484D01*
X8698144Y-11076484D02*
X8736239Y-11076484D01*
X8736239Y-11076484D02*
X8755287Y-11086008D01*
X8755287Y-11086008D02*
X8764810Y-11095531D01*
X8764810Y-11095531D02*
X8774334Y-11114579D01*
X8774334Y-11114579D02*
X8774334Y-11124103D01*
X8774334Y-11124103D02*
X8764810Y-11143150D01*
X8764810Y-11143150D02*
X8755287Y-11152674D01*
X8755287Y-11152674D02*
X8736239Y-11162198D01*
X8736239Y-11162198D02*
X8698144Y-11162198D01*
X8698144Y-11162198D02*
X8679096Y-11171722D01*
X8679096Y-11171722D02*
X8669572Y-11181246D01*
X8669572Y-11181246D02*
X8660048Y-11200293D01*
X8660048Y-11200293D02*
X8660048Y-11238388D01*
X8660048Y-11238388D02*
X8669572Y-11257436D01*
X8669572Y-11257436D02*
X8679096Y-11266960D01*
X8679096Y-11266960D02*
X8698144Y-11276484D01*
X8698144Y-11276484D02*
X8736239Y-11276484D01*
X8736239Y-11276484D02*
X8755287Y-11266960D01*
X8755287Y-11266960D02*
X8764810Y-11257436D01*
X8764810Y-11257436D02*
X8774334Y-11238388D01*
X8774334Y-11238388D02*
X8774334Y-11200293D01*
X8774334Y-11200293D02*
X8764810Y-11181246D01*
X8764810Y-11181246D02*
X8755287Y-11171722D01*
X8755287Y-11171722D02*
X8736239Y-11162198D01*
X9012429Y-11276484D02*
X9012429Y-11076484D01*
X9098144Y-11276484D02*
X9098144Y-11171722D01*
X9098144Y-11171722D02*
X9088620Y-11152674D01*
X9088620Y-11152674D02*
X9069572Y-11143150D01*
X9069572Y-11143150D02*
X9041001Y-11143150D01*
X9041001Y-11143150D02*
X9021953Y-11152674D01*
X9021953Y-11152674D02*
X9012429Y-11162198D01*
X9221953Y-11276484D02*
X9202906Y-11266960D01*
X9202906Y-11266960D02*
X9193382Y-11257436D01*
X9193382Y-11257436D02*
X9183858Y-11238388D01*
X9183858Y-11238388D02*
X9183858Y-11181246D01*
X9183858Y-11181246D02*
X9193382Y-11162198D01*
X9193382Y-11162198D02*
X9202906Y-11152674D01*
X9202906Y-11152674D02*
X9221953Y-11143150D01*
X9221953Y-11143150D02*
X9250525Y-11143150D01*
X9250525Y-11143150D02*
X9269572Y-11152674D01*
X9269572Y-11152674D02*
X9279096Y-11162198D01*
X9279096Y-11162198D02*
X9288620Y-11181246D01*
X9288620Y-11181246D02*
X9288620Y-11238388D01*
X9288620Y-11238388D02*
X9279096Y-11257436D01*
X9279096Y-11257436D02*
X9269572Y-11266960D01*
X9269572Y-11266960D02*
X9250525Y-11276484D01*
X9250525Y-11276484D02*
X9221953Y-11276484D01*
X9402906Y-11276484D02*
X9383858Y-11266960D01*
X9383858Y-11266960D02*
X9374334Y-11247912D01*
X9374334Y-11247912D02*
X9374334Y-11076484D01*
X9555287Y-11266960D02*
X9536239Y-11276484D01*
X9536239Y-11276484D02*
X9498144Y-11276484D01*
X9498144Y-11276484D02*
X9479096Y-11266960D01*
X9479096Y-11266960D02*
X9469572Y-11247912D01*
X9469572Y-11247912D02*
X9469572Y-11171722D01*
X9469572Y-11171722D02*
X9479096Y-11152674D01*
X9479096Y-11152674D02*
X9498144Y-11143150D01*
X9498144Y-11143150D02*
X9536239Y-11143150D01*
X9536239Y-11143150D02*
X9555287Y-11152674D01*
X9555287Y-11152674D02*
X9564810Y-11171722D01*
X9564810Y-11171722D02*
X9564810Y-11190769D01*
X9564810Y-11190769D02*
X9469572Y-11209817D01*
X9641001Y-11266960D02*
X9660049Y-11276484D01*
X9660049Y-11276484D02*
X9698144Y-11276484D01*
X9698144Y-11276484D02*
X9717191Y-11266960D01*
X9717191Y-11266960D02*
X9726715Y-11247912D01*
X9726715Y-11247912D02*
X9726715Y-11238388D01*
X9726715Y-11238388D02*
X9717191Y-11219341D01*
X9717191Y-11219341D02*
X9698144Y-11209817D01*
X9698144Y-11209817D02*
X9669572Y-11209817D01*
X9669572Y-11209817D02*
X9650525Y-11200293D01*
X9650525Y-11200293D02*
X9641001Y-11181246D01*
X9641001Y-11181246D02*
X9641001Y-11171722D01*
X9641001Y-11171722D02*
X9650525Y-11152674D01*
X9650525Y-11152674D02*
X9669572Y-11143150D01*
X9669572Y-11143150D02*
X9698144Y-11143150D01*
X9698144Y-11143150D02*
X9717191Y-11152674D01*
X9793382Y-11352674D02*
X9802906Y-11343150D01*
X9802906Y-11343150D02*
X9821953Y-11314579D01*
X9821953Y-11314579D02*
X9831477Y-11295531D01*
X9831477Y-11295531D02*
X9841001Y-11266960D01*
X9841001Y-11266960D02*
X9850525Y-11219341D01*
X9850525Y-11219341D02*
X9850525Y-11181246D01*
X9850525Y-11181246D02*
X9841001Y-11133627D01*
X9841001Y-11133627D02*
X9831477Y-11105055D01*
X9831477Y-11105055D02*
X9821953Y-11086008D01*
X9821953Y-11086008D02*
X9802906Y-11057436D01*
X9802906Y-11057436D02*
X9793382Y-11047912D01*
D10*
X4827843Y-11449000D02*
G75*
G02*
X4742843Y-11449000I-42500J0D01*
G01*
X4742843Y-11449000D02*
G75*
G02*
X4827843Y-11449000I42500J0D01*
G01*
D11*
X5126715Y-11340484D02*
X5145762Y-11340484D01*
X5145762Y-11340484D02*
X5164810Y-11350008D01*
X5164810Y-11350008D02*
X5174334Y-11359531D01*
X5174334Y-11359531D02*
X5183858Y-11378579D01*
X5183858Y-11378579D02*
X5193381Y-11416674D01*
X5193381Y-11416674D02*
X5193381Y-11464293D01*
X5193381Y-11464293D02*
X5183858Y-11502388D01*
X5183858Y-11502388D02*
X5174334Y-11521436D01*
X5174334Y-11521436D02*
X5164810Y-11530960D01*
X5164810Y-11530960D02*
X5145762Y-11540484D01*
X5145762Y-11540484D02*
X5126715Y-11540484D01*
X5126715Y-11540484D02*
X5107667Y-11530960D01*
X5107667Y-11530960D02*
X5098143Y-11521436D01*
X5098143Y-11521436D02*
X5088620Y-11502388D01*
X5088620Y-11502388D02*
X5079096Y-11464293D01*
X5079096Y-11464293D02*
X5079096Y-11416674D01*
X5079096Y-11416674D02*
X5088620Y-11378579D01*
X5088620Y-11378579D02*
X5098143Y-11359531D01*
X5098143Y-11359531D02*
X5107667Y-11350008D01*
X5107667Y-11350008D02*
X5126715Y-11340484D01*
X5279096Y-11521436D02*
X5288620Y-11530960D01*
X5288620Y-11530960D02*
X5279096Y-11540484D01*
X5279096Y-11540484D02*
X5269572Y-11530960D01*
X5269572Y-11530960D02*
X5279096Y-11521436D01*
X5279096Y-11521436D02*
X5279096Y-11540484D01*
X5402905Y-11426198D02*
X5383858Y-11416674D01*
X5383858Y-11416674D02*
X5374334Y-11407150D01*
X5374334Y-11407150D02*
X5364810Y-11388103D01*
X5364810Y-11388103D02*
X5364810Y-11378579D01*
X5364810Y-11378579D02*
X5374334Y-11359531D01*
X5374334Y-11359531D02*
X5383858Y-11350008D01*
X5383858Y-11350008D02*
X5402905Y-11340484D01*
X5402905Y-11340484D02*
X5441001Y-11340484D01*
X5441001Y-11340484D02*
X5460048Y-11350008D01*
X5460048Y-11350008D02*
X5469572Y-11359531D01*
X5469572Y-11359531D02*
X5479096Y-11378579D01*
X5479096Y-11378579D02*
X5479096Y-11388103D01*
X5479096Y-11388103D02*
X5469572Y-11407150D01*
X5469572Y-11407150D02*
X5460048Y-11416674D01*
X5460048Y-11416674D02*
X5441001Y-11426198D01*
X5441001Y-11426198D02*
X5402905Y-11426198D01*
X5402905Y-11426198D02*
X5383858Y-11435722D01*
X5383858Y-11435722D02*
X5374334Y-11445246D01*
X5374334Y-11445246D02*
X5364810Y-11464293D01*
X5364810Y-11464293D02*
X5364810Y-11502388D01*
X5364810Y-11502388D02*
X5374334Y-11521436D01*
X5374334Y-11521436D02*
X5383858Y-11530960D01*
X5383858Y-11530960D02*
X5402905Y-11540484D01*
X5402905Y-11540484D02*
X5441001Y-11540484D01*
X5441001Y-11540484D02*
X5460048Y-11530960D01*
X5460048Y-11530960D02*
X5469572Y-11521436D01*
X5469572Y-11521436D02*
X5479096Y-11502388D01*
X5479096Y-11502388D02*
X5479096Y-11464293D01*
X5479096Y-11464293D02*
X5469572Y-11445246D01*
X5469572Y-11445246D02*
X5460048Y-11435722D01*
X5460048Y-11435722D02*
X5441001Y-11426198D01*
X5660048Y-11340484D02*
X5564810Y-11340484D01*
X5564810Y-11340484D02*
X5555286Y-11435722D01*
X5555286Y-11435722D02*
X5564810Y-11426198D01*
X5564810Y-11426198D02*
X5583858Y-11416674D01*
X5583858Y-11416674D02*
X5631477Y-11416674D01*
X5631477Y-11416674D02*
X5650524Y-11426198D01*
X5650524Y-11426198D02*
X5660048Y-11435722D01*
X5660048Y-11435722D02*
X5669572Y-11454769D01*
X5669572Y-11454769D02*
X5669572Y-11502388D01*
X5669572Y-11502388D02*
X5660048Y-11521436D01*
X5660048Y-11521436D02*
X5650524Y-11530960D01*
X5650524Y-11530960D02*
X5631477Y-11540484D01*
X5631477Y-11540484D02*
X5583858Y-11540484D01*
X5583858Y-11540484D02*
X5564810Y-11530960D01*
X5564810Y-11530960D02*
X5555286Y-11521436D01*
X5793381Y-11340484D02*
X5812429Y-11340484D01*
X5812429Y-11340484D02*
X5831477Y-11350008D01*
X5831477Y-11350008D02*
X5841000Y-11359531D01*
X5841000Y-11359531D02*
X5850524Y-11378579D01*
X5850524Y-11378579D02*
X5860048Y-11416674D01*
X5860048Y-11416674D02*
X5860048Y-11464293D01*
X5860048Y-11464293D02*
X5850524Y-11502388D01*
X5850524Y-11502388D02*
X5841000Y-11521436D01*
X5841000Y-11521436D02*
X5831477Y-11530960D01*
X5831477Y-11530960D02*
X5812429Y-11540484D01*
X5812429Y-11540484D02*
X5793381Y-11540484D01*
X5793381Y-11540484D02*
X5774334Y-11530960D01*
X5774334Y-11530960D02*
X5764810Y-11521436D01*
X5764810Y-11521436D02*
X5755286Y-11502388D01*
X5755286Y-11502388D02*
X5745762Y-11464293D01*
X5745762Y-11464293D02*
X5745762Y-11416674D01*
X5745762Y-11416674D02*
X5755286Y-11378579D01*
X5755286Y-11378579D02*
X5764810Y-11359531D01*
X5764810Y-11359531D02*
X5774334Y-11350008D01*
X5774334Y-11350008D02*
X5793381Y-11340484D01*
X5945762Y-11540484D02*
X5945762Y-11407150D01*
X5945762Y-11426198D02*
X5955286Y-11416674D01*
X5955286Y-11416674D02*
X5974334Y-11407150D01*
X5974334Y-11407150D02*
X6002905Y-11407150D01*
X6002905Y-11407150D02*
X6021953Y-11416674D01*
X6021953Y-11416674D02*
X6031477Y-11435722D01*
X6031477Y-11435722D02*
X6031477Y-11540484D01*
X6031477Y-11435722D02*
X6041000Y-11416674D01*
X6041000Y-11416674D02*
X6060048Y-11407150D01*
X6060048Y-11407150D02*
X6088619Y-11407150D01*
X6088619Y-11407150D02*
X6107667Y-11416674D01*
X6107667Y-11416674D02*
X6117191Y-11435722D01*
X6117191Y-11435722D02*
X6117191Y-11540484D01*
X6212429Y-11540484D02*
X6212429Y-11407150D01*
X6212429Y-11426198D02*
X6221953Y-11416674D01*
X6221953Y-11416674D02*
X6241000Y-11407150D01*
X6241000Y-11407150D02*
X6269572Y-11407150D01*
X6269572Y-11407150D02*
X6288620Y-11416674D01*
X6288620Y-11416674D02*
X6298143Y-11435722D01*
X6298143Y-11435722D02*
X6298143Y-11540484D01*
X6298143Y-11435722D02*
X6307667Y-11416674D01*
X6307667Y-11416674D02*
X6326715Y-11407150D01*
X6326715Y-11407150D02*
X6355286Y-11407150D01*
X6355286Y-11407150D02*
X6374334Y-11416674D01*
X6374334Y-11416674D02*
X6383858Y-11435722D01*
X6383858Y-11435722D02*
X6383858Y-11540484D01*
X6774334Y-11330960D02*
X6602905Y-11588103D01*
X7031477Y-11340484D02*
X7050524Y-11340484D01*
X7050524Y-11340484D02*
X7069572Y-11350008D01*
X7069572Y-11350008D02*
X7079096Y-11359531D01*
X7079096Y-11359531D02*
X7088620Y-11378579D01*
X7088620Y-11378579D02*
X7098143Y-11416674D01*
X7098143Y-11416674D02*
X7098143Y-11464293D01*
X7098143Y-11464293D02*
X7088620Y-11502388D01*
X7088620Y-11502388D02*
X7079096Y-11521436D01*
X7079096Y-11521436D02*
X7069572Y-11530960D01*
X7069572Y-11530960D02*
X7050524Y-11540484D01*
X7050524Y-11540484D02*
X7031477Y-11540484D01*
X7031477Y-11540484D02*
X7012429Y-11530960D01*
X7012429Y-11530960D02*
X7002905Y-11521436D01*
X7002905Y-11521436D02*
X6993382Y-11502388D01*
X6993382Y-11502388D02*
X6983858Y-11464293D01*
X6983858Y-11464293D02*
X6983858Y-11416674D01*
X6983858Y-11416674D02*
X6993382Y-11378579D01*
X6993382Y-11378579D02*
X7002905Y-11359531D01*
X7002905Y-11359531D02*
X7012429Y-11350008D01*
X7012429Y-11350008D02*
X7031477Y-11340484D01*
X7183858Y-11521436D02*
X7193382Y-11530960D01*
X7193382Y-11530960D02*
X7183858Y-11540484D01*
X7183858Y-11540484D02*
X7174334Y-11530960D01*
X7174334Y-11530960D02*
X7183858Y-11521436D01*
X7183858Y-11521436D02*
X7183858Y-11540484D01*
X7317191Y-11340484D02*
X7336239Y-11340484D01*
X7336239Y-11340484D02*
X7355286Y-11350008D01*
X7355286Y-11350008D02*
X7364810Y-11359531D01*
X7364810Y-11359531D02*
X7374334Y-11378579D01*
X7374334Y-11378579D02*
X7383858Y-11416674D01*
X7383858Y-11416674D02*
X7383858Y-11464293D01*
X7383858Y-11464293D02*
X7374334Y-11502388D01*
X7374334Y-11502388D02*
X7364810Y-11521436D01*
X7364810Y-11521436D02*
X7355286Y-11530960D01*
X7355286Y-11530960D02*
X7336239Y-11540484D01*
X7336239Y-11540484D02*
X7317191Y-11540484D01*
X7317191Y-11540484D02*
X7298143Y-11530960D01*
X7298143Y-11530960D02*
X7288620Y-11521436D01*
X7288620Y-11521436D02*
X7279096Y-11502388D01*
X7279096Y-11502388D02*
X7269572Y-11464293D01*
X7269572Y-11464293D02*
X7269572Y-11416674D01*
X7269572Y-11416674D02*
X7279096Y-11378579D01*
X7279096Y-11378579D02*
X7288620Y-11359531D01*
X7288620Y-11359531D02*
X7298143Y-11350008D01*
X7298143Y-11350008D02*
X7317191Y-11340484D01*
X7450524Y-11340484D02*
X7574334Y-11340484D01*
X7574334Y-11340484D02*
X7507667Y-11416674D01*
X7507667Y-11416674D02*
X7536239Y-11416674D01*
X7536239Y-11416674D02*
X7555286Y-11426198D01*
X7555286Y-11426198D02*
X7564810Y-11435722D01*
X7564810Y-11435722D02*
X7574334Y-11454769D01*
X7574334Y-11454769D02*
X7574334Y-11502388D01*
X7574334Y-11502388D02*
X7564810Y-11521436D01*
X7564810Y-11521436D02*
X7555286Y-11530960D01*
X7555286Y-11530960D02*
X7536239Y-11540484D01*
X7536239Y-11540484D02*
X7479096Y-11540484D01*
X7479096Y-11540484D02*
X7460048Y-11530960D01*
X7460048Y-11530960D02*
X7450524Y-11521436D01*
X7641001Y-11340484D02*
X7764810Y-11340484D01*
X7764810Y-11340484D02*
X7698143Y-11416674D01*
X7698143Y-11416674D02*
X7726715Y-11416674D01*
X7726715Y-11416674D02*
X7745763Y-11426198D01*
X7745763Y-11426198D02*
X7755286Y-11435722D01*
X7755286Y-11435722D02*
X7764810Y-11454769D01*
X7764810Y-11454769D02*
X7764810Y-11502388D01*
X7764810Y-11502388D02*
X7755286Y-11521436D01*
X7755286Y-11521436D02*
X7745763Y-11530960D01*
X7745763Y-11530960D02*
X7726715Y-11540484D01*
X7726715Y-11540484D02*
X7669572Y-11540484D01*
X7669572Y-11540484D02*
X7650524Y-11530960D01*
X7650524Y-11530960D02*
X7641001Y-11521436D01*
X7945763Y-11340484D02*
X7850524Y-11340484D01*
X7850524Y-11340484D02*
X7841001Y-11435722D01*
X7841001Y-11435722D02*
X7850524Y-11426198D01*
X7850524Y-11426198D02*
X7869572Y-11416674D01*
X7869572Y-11416674D02*
X7917191Y-11416674D01*
X7917191Y-11416674D02*
X7936239Y-11426198D01*
X7936239Y-11426198D02*
X7945763Y-11435722D01*
X7945763Y-11435722D02*
X7955286Y-11454769D01*
X7955286Y-11454769D02*
X7955286Y-11502388D01*
X7955286Y-11502388D02*
X7945763Y-11521436D01*
X7945763Y-11521436D02*
X7936239Y-11530960D01*
X7936239Y-11530960D02*
X7917191Y-11540484D01*
X7917191Y-11540484D02*
X7869572Y-11540484D01*
X7869572Y-11540484D02*
X7850524Y-11530960D01*
X7850524Y-11530960D02*
X7841001Y-11521436D01*
X8031477Y-11340484D02*
X8031477Y-11378579D01*
X8107667Y-11340484D02*
X8107667Y-11378579D01*
X8402906Y-11616674D02*
X8393382Y-11607150D01*
X8393382Y-11607150D02*
X8374334Y-11578579D01*
X8374334Y-11578579D02*
X8364810Y-11559531D01*
X8364810Y-11559531D02*
X8355286Y-11530960D01*
X8355286Y-11530960D02*
X8345763Y-11483341D01*
X8345763Y-11483341D02*
X8345763Y-11445246D01*
X8345763Y-11445246D02*
X8355286Y-11397627D01*
X8355286Y-11397627D02*
X8364810Y-11369055D01*
X8364810Y-11369055D02*
X8374334Y-11350008D01*
X8374334Y-11350008D02*
X8393382Y-11321436D01*
X8393382Y-11321436D02*
X8402906Y-11311912D01*
X8583858Y-11540484D02*
X8469572Y-11540484D01*
X8526715Y-11540484D02*
X8526715Y-11340484D01*
X8526715Y-11340484D02*
X8507667Y-11369055D01*
X8507667Y-11369055D02*
X8488620Y-11388103D01*
X8488620Y-11388103D02*
X8469572Y-11397627D01*
X8755287Y-11340484D02*
X8717191Y-11340484D01*
X8717191Y-11340484D02*
X8698144Y-11350008D01*
X8698144Y-11350008D02*
X8688620Y-11359531D01*
X8688620Y-11359531D02*
X8669572Y-11388103D01*
X8669572Y-11388103D02*
X8660048Y-11426198D01*
X8660048Y-11426198D02*
X8660048Y-11502388D01*
X8660048Y-11502388D02*
X8669572Y-11521436D01*
X8669572Y-11521436D02*
X8679096Y-11530960D01*
X8679096Y-11530960D02*
X8698144Y-11540484D01*
X8698144Y-11540484D02*
X8736239Y-11540484D01*
X8736239Y-11540484D02*
X8755287Y-11530960D01*
X8755287Y-11530960D02*
X8764810Y-11521436D01*
X8764810Y-11521436D02*
X8774334Y-11502388D01*
X8774334Y-11502388D02*
X8774334Y-11454769D01*
X8774334Y-11454769D02*
X8764810Y-11435722D01*
X8764810Y-11435722D02*
X8755287Y-11426198D01*
X8755287Y-11426198D02*
X8736239Y-11416674D01*
X8736239Y-11416674D02*
X8698144Y-11416674D01*
X8698144Y-11416674D02*
X8679096Y-11426198D01*
X8679096Y-11426198D02*
X8669572Y-11435722D01*
X8669572Y-11435722D02*
X8660048Y-11454769D01*
X9012429Y-11540484D02*
X9012429Y-11340484D01*
X9098144Y-11540484D02*
X9098144Y-11435722D01*
X9098144Y-11435722D02*
X9088620Y-11416674D01*
X9088620Y-11416674D02*
X9069572Y-11407150D01*
X9069572Y-11407150D02*
X9041001Y-11407150D01*
X9041001Y-11407150D02*
X9021953Y-11416674D01*
X9021953Y-11416674D02*
X9012429Y-11426198D01*
X9221953Y-11540484D02*
X9202906Y-11530960D01*
X9202906Y-11530960D02*
X9193382Y-11521436D01*
X9193382Y-11521436D02*
X9183858Y-11502388D01*
X9183858Y-11502388D02*
X9183858Y-11445246D01*
X9183858Y-11445246D02*
X9193382Y-11426198D01*
X9193382Y-11426198D02*
X9202906Y-11416674D01*
X9202906Y-11416674D02*
X9221953Y-11407150D01*
X9221953Y-11407150D02*
X9250525Y-11407150D01*
X9250525Y-11407150D02*
X9269572Y-11416674D01*
X9269572Y-11416674D02*
X9279096Y-11426198D01*
X9279096Y-11426198D02*
X9288620Y-11445246D01*
X9288620Y-11445246D02*
X9288620Y-11502388D01*
X9288620Y-11502388D02*
X9279096Y-11521436D01*
X9279096Y-11521436D02*
X9269572Y-11530960D01*
X9269572Y-11530960D02*
X9250525Y-11540484D01*
X9250525Y-11540484D02*
X9221953Y-11540484D01*
X9402906Y-11540484D02*
X9383858Y-11530960D01*
X9383858Y-11530960D02*
X9374334Y-11511912D01*
X9374334Y-11511912D02*
X9374334Y-11340484D01*
X9555287Y-11530960D02*
X9536239Y-11540484D01*
X9536239Y-11540484D02*
X9498144Y-11540484D01*
X9498144Y-11540484D02*
X9479096Y-11530960D01*
X9479096Y-11530960D02*
X9469572Y-11511912D01*
X9469572Y-11511912D02*
X9469572Y-11435722D01*
X9469572Y-11435722D02*
X9479096Y-11416674D01*
X9479096Y-11416674D02*
X9498144Y-11407150D01*
X9498144Y-11407150D02*
X9536239Y-11407150D01*
X9536239Y-11407150D02*
X9555287Y-11416674D01*
X9555287Y-11416674D02*
X9564810Y-11435722D01*
X9564810Y-11435722D02*
X9564810Y-11454769D01*
X9564810Y-11454769D02*
X9469572Y-11473817D01*
X9641001Y-11530960D02*
X9660049Y-11540484D01*
X9660049Y-11540484D02*
X9698144Y-11540484D01*
X9698144Y-11540484D02*
X9717191Y-11530960D01*
X9717191Y-11530960D02*
X9726715Y-11511912D01*
X9726715Y-11511912D02*
X9726715Y-11502388D01*
X9726715Y-11502388D02*
X9717191Y-11483341D01*
X9717191Y-11483341D02*
X9698144Y-11473817D01*
X9698144Y-11473817D02*
X9669572Y-11473817D01*
X9669572Y-11473817D02*
X9650525Y-11464293D01*
X9650525Y-11464293D02*
X9641001Y-11445246D01*
X9641001Y-11445246D02*
X9641001Y-11435722D01*
X9641001Y-11435722D02*
X9650525Y-11416674D01*
X9650525Y-11416674D02*
X9669572Y-11407150D01*
X9669572Y-11407150D02*
X9698144Y-11407150D01*
X9698144Y-11407150D02*
X9717191Y-11416674D01*
X9793382Y-11616674D02*
X9802906Y-11607150D01*
X9802906Y-11607150D02*
X9821953Y-11578579D01*
X9821953Y-11578579D02*
X9831477Y-11559531D01*
X9831477Y-11559531D02*
X9841001Y-11530960D01*
X9841001Y-11530960D02*
X9850525Y-11483341D01*
X9850525Y-11483341D02*
X9850525Y-11445246D01*
X9850525Y-11445246D02*
X9841001Y-11397627D01*
X9841001Y-11397627D02*
X9831477Y-11369055D01*
X9831477Y-11369055D02*
X9821953Y-11350008D01*
X9821953Y-11350008D02*
X9802906Y-11321436D01*
X9802906Y-11321436D02*
X9793382Y-11311912D01*
D12*
X4777043Y-11662200D02*
X4777043Y-11763800D01*
X4726243Y-11713000D02*
X4827843Y-11713000D01*
D11*
X5193381Y-11804484D02*
X5079096Y-11804484D01*
X5136239Y-11804484D02*
X5136239Y-11604484D01*
X5136239Y-11604484D02*
X5117191Y-11633055D01*
X5117191Y-11633055D02*
X5098143Y-11652103D01*
X5098143Y-11652103D02*
X5079096Y-11661627D01*
X5279096Y-11785436D02*
X5288620Y-11794960D01*
X5288620Y-11794960D02*
X5279096Y-11804484D01*
X5279096Y-11804484D02*
X5269572Y-11794960D01*
X5269572Y-11794960D02*
X5279096Y-11785436D01*
X5279096Y-11785436D02*
X5279096Y-11804484D01*
X5412429Y-11604484D02*
X5431477Y-11604484D01*
X5431477Y-11604484D02*
X5450524Y-11614008D01*
X5450524Y-11614008D02*
X5460048Y-11623531D01*
X5460048Y-11623531D02*
X5469572Y-11642579D01*
X5469572Y-11642579D02*
X5479096Y-11680674D01*
X5479096Y-11680674D02*
X5479096Y-11728293D01*
X5479096Y-11728293D02*
X5469572Y-11766388D01*
X5469572Y-11766388D02*
X5460048Y-11785436D01*
X5460048Y-11785436D02*
X5450524Y-11794960D01*
X5450524Y-11794960D02*
X5431477Y-11804484D01*
X5431477Y-11804484D02*
X5412429Y-11804484D01*
X5412429Y-11804484D02*
X5393381Y-11794960D01*
X5393381Y-11794960D02*
X5383858Y-11785436D01*
X5383858Y-11785436D02*
X5374334Y-11766388D01*
X5374334Y-11766388D02*
X5364810Y-11728293D01*
X5364810Y-11728293D02*
X5364810Y-11680674D01*
X5364810Y-11680674D02*
X5374334Y-11642579D01*
X5374334Y-11642579D02*
X5383858Y-11623531D01*
X5383858Y-11623531D02*
X5393381Y-11614008D01*
X5393381Y-11614008D02*
X5412429Y-11604484D01*
X5669572Y-11804484D02*
X5555286Y-11804484D01*
X5612429Y-11804484D02*
X5612429Y-11604484D01*
X5612429Y-11604484D02*
X5593381Y-11633055D01*
X5593381Y-11633055D02*
X5574334Y-11652103D01*
X5574334Y-11652103D02*
X5555286Y-11661627D01*
X5841000Y-11604484D02*
X5802905Y-11604484D01*
X5802905Y-11604484D02*
X5783858Y-11614008D01*
X5783858Y-11614008D02*
X5774334Y-11623531D01*
X5774334Y-11623531D02*
X5755286Y-11652103D01*
X5755286Y-11652103D02*
X5745762Y-11690198D01*
X5745762Y-11690198D02*
X5745762Y-11766388D01*
X5745762Y-11766388D02*
X5755286Y-11785436D01*
X5755286Y-11785436D02*
X5764810Y-11794960D01*
X5764810Y-11794960D02*
X5783858Y-11804484D01*
X5783858Y-11804484D02*
X5821953Y-11804484D01*
X5821953Y-11804484D02*
X5841000Y-11794960D01*
X5841000Y-11794960D02*
X5850524Y-11785436D01*
X5850524Y-11785436D02*
X5860048Y-11766388D01*
X5860048Y-11766388D02*
X5860048Y-11718769D01*
X5860048Y-11718769D02*
X5850524Y-11699722D01*
X5850524Y-11699722D02*
X5841000Y-11690198D01*
X5841000Y-11690198D02*
X5821953Y-11680674D01*
X5821953Y-11680674D02*
X5783858Y-11680674D01*
X5783858Y-11680674D02*
X5764810Y-11690198D01*
X5764810Y-11690198D02*
X5755286Y-11699722D01*
X5755286Y-11699722D02*
X5745762Y-11718769D01*
X5945762Y-11804484D02*
X5945762Y-11671150D01*
X5945762Y-11690198D02*
X5955286Y-11680674D01*
X5955286Y-11680674D02*
X5974334Y-11671150D01*
X5974334Y-11671150D02*
X6002905Y-11671150D01*
X6002905Y-11671150D02*
X6021953Y-11680674D01*
X6021953Y-11680674D02*
X6031477Y-11699722D01*
X6031477Y-11699722D02*
X6031477Y-11804484D01*
X6031477Y-11699722D02*
X6041000Y-11680674D01*
X6041000Y-11680674D02*
X6060048Y-11671150D01*
X6060048Y-11671150D02*
X6088619Y-11671150D01*
X6088619Y-11671150D02*
X6107667Y-11680674D01*
X6107667Y-11680674D02*
X6117191Y-11699722D01*
X6117191Y-11699722D02*
X6117191Y-11804484D01*
X6212429Y-11804484D02*
X6212429Y-11671150D01*
X6212429Y-11690198D02*
X6221953Y-11680674D01*
X6221953Y-11680674D02*
X6241000Y-11671150D01*
X6241000Y-11671150D02*
X6269572Y-11671150D01*
X6269572Y-11671150D02*
X6288620Y-11680674D01*
X6288620Y-11680674D02*
X6298143Y-11699722D01*
X6298143Y-11699722D02*
X6298143Y-11804484D01*
X6298143Y-11699722D02*
X6307667Y-11680674D01*
X6307667Y-11680674D02*
X6326715Y-11671150D01*
X6326715Y-11671150D02*
X6355286Y-11671150D01*
X6355286Y-11671150D02*
X6374334Y-11680674D01*
X6374334Y-11680674D02*
X6383858Y-11699722D01*
X6383858Y-11699722D02*
X6383858Y-11804484D01*
X6774334Y-11594960D02*
X6602905Y-11852103D01*
X7031477Y-11604484D02*
X7050524Y-11604484D01*
X7050524Y-11604484D02*
X7069572Y-11614008D01*
X7069572Y-11614008D02*
X7079096Y-11623531D01*
X7079096Y-11623531D02*
X7088620Y-11642579D01*
X7088620Y-11642579D02*
X7098143Y-11680674D01*
X7098143Y-11680674D02*
X7098143Y-11728293D01*
X7098143Y-11728293D02*
X7088620Y-11766388D01*
X7088620Y-11766388D02*
X7079096Y-11785436D01*
X7079096Y-11785436D02*
X7069572Y-11794960D01*
X7069572Y-11794960D02*
X7050524Y-11804484D01*
X7050524Y-11804484D02*
X7031477Y-11804484D01*
X7031477Y-11804484D02*
X7012429Y-11794960D01*
X7012429Y-11794960D02*
X7002905Y-11785436D01*
X7002905Y-11785436D02*
X6993382Y-11766388D01*
X6993382Y-11766388D02*
X6983858Y-11728293D01*
X6983858Y-11728293D02*
X6983858Y-11680674D01*
X6983858Y-11680674D02*
X6993382Y-11642579D01*
X6993382Y-11642579D02*
X7002905Y-11623531D01*
X7002905Y-11623531D02*
X7012429Y-11614008D01*
X7012429Y-11614008D02*
X7031477Y-11604484D01*
X7183858Y-11785436D02*
X7193382Y-11794960D01*
X7193382Y-11794960D02*
X7183858Y-11804484D01*
X7183858Y-11804484D02*
X7174334Y-11794960D01*
X7174334Y-11794960D02*
X7183858Y-11785436D01*
X7183858Y-11785436D02*
X7183858Y-11804484D01*
X7317191Y-11604484D02*
X7336239Y-11604484D01*
X7336239Y-11604484D02*
X7355286Y-11614008D01*
X7355286Y-11614008D02*
X7364810Y-11623531D01*
X7364810Y-11623531D02*
X7374334Y-11642579D01*
X7374334Y-11642579D02*
X7383858Y-11680674D01*
X7383858Y-11680674D02*
X7383858Y-11728293D01*
X7383858Y-11728293D02*
X7374334Y-11766388D01*
X7374334Y-11766388D02*
X7364810Y-11785436D01*
X7364810Y-11785436D02*
X7355286Y-11794960D01*
X7355286Y-11794960D02*
X7336239Y-11804484D01*
X7336239Y-11804484D02*
X7317191Y-11804484D01*
X7317191Y-11804484D02*
X7298143Y-11794960D01*
X7298143Y-11794960D02*
X7288620Y-11785436D01*
X7288620Y-11785436D02*
X7279096Y-11766388D01*
X7279096Y-11766388D02*
X7269572Y-11728293D01*
X7269572Y-11728293D02*
X7269572Y-11680674D01*
X7269572Y-11680674D02*
X7279096Y-11642579D01*
X7279096Y-11642579D02*
X7288620Y-11623531D01*
X7288620Y-11623531D02*
X7298143Y-11614008D01*
X7298143Y-11614008D02*
X7317191Y-11604484D01*
X7555286Y-11671150D02*
X7555286Y-11804484D01*
X7507667Y-11594960D02*
X7460048Y-11737817D01*
X7460048Y-11737817D02*
X7583858Y-11737817D01*
X7698143Y-11604484D02*
X7717191Y-11604484D01*
X7717191Y-11604484D02*
X7736239Y-11614008D01*
X7736239Y-11614008D02*
X7745763Y-11623531D01*
X7745763Y-11623531D02*
X7755286Y-11642579D01*
X7755286Y-11642579D02*
X7764810Y-11680674D01*
X7764810Y-11680674D02*
X7764810Y-11728293D01*
X7764810Y-11728293D02*
X7755286Y-11766388D01*
X7755286Y-11766388D02*
X7745763Y-11785436D01*
X7745763Y-11785436D02*
X7736239Y-11794960D01*
X7736239Y-11794960D02*
X7717191Y-11804484D01*
X7717191Y-11804484D02*
X7698143Y-11804484D01*
X7698143Y-11804484D02*
X7679096Y-11794960D01*
X7679096Y-11794960D02*
X7669572Y-11785436D01*
X7669572Y-11785436D02*
X7660048Y-11766388D01*
X7660048Y-11766388D02*
X7650524Y-11728293D01*
X7650524Y-11728293D02*
X7650524Y-11680674D01*
X7650524Y-11680674D02*
X7660048Y-11642579D01*
X7660048Y-11642579D02*
X7669572Y-11623531D01*
X7669572Y-11623531D02*
X7679096Y-11614008D01*
X7679096Y-11614008D02*
X7698143Y-11604484D01*
X7888620Y-11604484D02*
X7907667Y-11604484D01*
X7907667Y-11604484D02*
X7926715Y-11614008D01*
X7926715Y-11614008D02*
X7936239Y-11623531D01*
X7936239Y-11623531D02*
X7945763Y-11642579D01*
X7945763Y-11642579D02*
X7955286Y-11680674D01*
X7955286Y-11680674D02*
X7955286Y-11728293D01*
X7955286Y-11728293D02*
X7945763Y-11766388D01*
X7945763Y-11766388D02*
X7936239Y-11785436D01*
X7936239Y-11785436D02*
X7926715Y-11794960D01*
X7926715Y-11794960D02*
X7907667Y-11804484D01*
X7907667Y-11804484D02*
X7888620Y-11804484D01*
X7888620Y-11804484D02*
X7869572Y-11794960D01*
X7869572Y-11794960D02*
X7860048Y-11785436D01*
X7860048Y-11785436D02*
X7850524Y-11766388D01*
X7850524Y-11766388D02*
X7841001Y-11728293D01*
X7841001Y-11728293D02*
X7841001Y-11680674D01*
X7841001Y-11680674D02*
X7850524Y-11642579D01*
X7850524Y-11642579D02*
X7860048Y-11623531D01*
X7860048Y-11623531D02*
X7869572Y-11614008D01*
X7869572Y-11614008D02*
X7888620Y-11604484D01*
X8031477Y-11604484D02*
X8031477Y-11642579D01*
X8107667Y-11604484D02*
X8107667Y-11642579D01*
X8402906Y-11880674D02*
X8393382Y-11871150D01*
X8393382Y-11871150D02*
X8374334Y-11842579D01*
X8374334Y-11842579D02*
X8364810Y-11823531D01*
X8364810Y-11823531D02*
X8355286Y-11794960D01*
X8355286Y-11794960D02*
X8345763Y-11747341D01*
X8345763Y-11747341D02*
X8345763Y-11709246D01*
X8345763Y-11709246D02*
X8355286Y-11661627D01*
X8355286Y-11661627D02*
X8364810Y-11633055D01*
X8364810Y-11633055D02*
X8374334Y-11614008D01*
X8374334Y-11614008D02*
X8393382Y-11585436D01*
X8393382Y-11585436D02*
X8402906Y-11575912D01*
X8460048Y-11604484D02*
X8593382Y-11604484D01*
X8593382Y-11604484D02*
X8507667Y-11804484D01*
X8821953Y-11804484D02*
X8821953Y-11604484D01*
X8907668Y-11804484D02*
X8907668Y-11699722D01*
X8907668Y-11699722D02*
X8898144Y-11680674D01*
X8898144Y-11680674D02*
X8879096Y-11671150D01*
X8879096Y-11671150D02*
X8850525Y-11671150D01*
X8850525Y-11671150D02*
X8831477Y-11680674D01*
X8831477Y-11680674D02*
X8821953Y-11690198D01*
X9031477Y-11804484D02*
X9012429Y-11794960D01*
X9012429Y-11794960D02*
X9002906Y-11785436D01*
X9002906Y-11785436D02*
X8993382Y-11766388D01*
X8993382Y-11766388D02*
X8993382Y-11709246D01*
X8993382Y-11709246D02*
X9002906Y-11690198D01*
X9002906Y-11690198D02*
X9012429Y-11680674D01*
X9012429Y-11680674D02*
X9031477Y-11671150D01*
X9031477Y-11671150D02*
X9060049Y-11671150D01*
X9060049Y-11671150D02*
X9079096Y-11680674D01*
X9079096Y-11680674D02*
X9088620Y-11690198D01*
X9088620Y-11690198D02*
X9098144Y-11709246D01*
X9098144Y-11709246D02*
X9098144Y-11766388D01*
X9098144Y-11766388D02*
X9088620Y-11785436D01*
X9088620Y-11785436D02*
X9079096Y-11794960D01*
X9079096Y-11794960D02*
X9060049Y-11804484D01*
X9060049Y-11804484D02*
X9031477Y-11804484D01*
X9212429Y-11804484D02*
X9193382Y-11794960D01*
X9193382Y-11794960D02*
X9183858Y-11775912D01*
X9183858Y-11775912D02*
X9183858Y-11604484D01*
X9364810Y-11794960D02*
X9345763Y-11804484D01*
X9345763Y-11804484D02*
X9307668Y-11804484D01*
X9307668Y-11804484D02*
X9288620Y-11794960D01*
X9288620Y-11794960D02*
X9279096Y-11775912D01*
X9279096Y-11775912D02*
X9279096Y-11699722D01*
X9279096Y-11699722D02*
X9288620Y-11680674D01*
X9288620Y-11680674D02*
X9307668Y-11671150D01*
X9307668Y-11671150D02*
X9345763Y-11671150D01*
X9345763Y-11671150D02*
X9364810Y-11680674D01*
X9364810Y-11680674D02*
X9374334Y-11699722D01*
X9374334Y-11699722D02*
X9374334Y-11718769D01*
X9374334Y-11718769D02*
X9279096Y-11737817D01*
X9450525Y-11794960D02*
X9469572Y-11804484D01*
X9469572Y-11804484D02*
X9507668Y-11804484D01*
X9507668Y-11804484D02*
X9526715Y-11794960D01*
X9526715Y-11794960D02*
X9536239Y-11775912D01*
X9536239Y-11775912D02*
X9536239Y-11766388D01*
X9536239Y-11766388D02*
X9526715Y-11747341D01*
X9526715Y-11747341D02*
X9507668Y-11737817D01*
X9507668Y-11737817D02*
X9479096Y-11737817D01*
X9479096Y-11737817D02*
X9460049Y-11728293D01*
X9460049Y-11728293D02*
X9450525Y-11709246D01*
X9450525Y-11709246D02*
X9450525Y-11699722D01*
X9450525Y-11699722D02*
X9460049Y-11680674D01*
X9460049Y-11680674D02*
X9479096Y-11671150D01*
X9479096Y-11671150D02*
X9507668Y-11671150D01*
X9507668Y-11671150D02*
X9526715Y-11680674D01*
X9602906Y-11880674D02*
X9612430Y-11871150D01*
X9612430Y-11871150D02*
X9631477Y-11842579D01*
X9631477Y-11842579D02*
X9641001Y-11823531D01*
X9641001Y-11823531D02*
X9650525Y-11794960D01*
X9650525Y-11794960D02*
X9660049Y-11747341D01*
X9660049Y-11747341D02*
X9660049Y-11709246D01*
X9660049Y-11709246D02*
X9650525Y-11661627D01*
X9650525Y-11661627D02*
X9641001Y-11633055D01*
X9641001Y-11633055D02*
X9631477Y-11614008D01*
X9631477Y-11614008D02*
X9612430Y-11585436D01*
X9612430Y-11585436D02*
X9602906Y-11575912D01*
D13*
X4812906Y-12013063D02*
X4812906Y-11940937D01*
X4740780Y-11940937D01*
X4740780Y-12013063D01*
X4812906Y-12013063D01*
D11*
X5193381Y-12068484D02*
X5079096Y-12068484D01*
X5136239Y-12068484D02*
X5136239Y-11868484D01*
X5136239Y-11868484D02*
X5117191Y-11897055D01*
X5117191Y-11897055D02*
X5098143Y-11916103D01*
X5098143Y-11916103D02*
X5079096Y-11925627D01*
X5279096Y-12049436D02*
X5288620Y-12058960D01*
X5288620Y-12058960D02*
X5279096Y-12068484D01*
X5279096Y-12068484D02*
X5269572Y-12058960D01*
X5269572Y-12058960D02*
X5279096Y-12049436D01*
X5279096Y-12049436D02*
X5279096Y-12068484D01*
X5412429Y-11868484D02*
X5431477Y-11868484D01*
X5431477Y-11868484D02*
X5450524Y-11878008D01*
X5450524Y-11878008D02*
X5460048Y-11887531D01*
X5460048Y-11887531D02*
X5469572Y-11906579D01*
X5469572Y-11906579D02*
X5479096Y-11944674D01*
X5479096Y-11944674D02*
X5479096Y-11992293D01*
X5479096Y-11992293D02*
X5469572Y-12030388D01*
X5469572Y-12030388D02*
X5460048Y-12049436D01*
X5460048Y-12049436D02*
X5450524Y-12058960D01*
X5450524Y-12058960D02*
X5431477Y-12068484D01*
X5431477Y-12068484D02*
X5412429Y-12068484D01*
X5412429Y-12068484D02*
X5393381Y-12058960D01*
X5393381Y-12058960D02*
X5383858Y-12049436D01*
X5383858Y-12049436D02*
X5374334Y-12030388D01*
X5374334Y-12030388D02*
X5364810Y-11992293D01*
X5364810Y-11992293D02*
X5364810Y-11944674D01*
X5364810Y-11944674D02*
X5374334Y-11906579D01*
X5374334Y-11906579D02*
X5383858Y-11887531D01*
X5383858Y-11887531D02*
X5393381Y-11878008D01*
X5393381Y-11878008D02*
X5412429Y-11868484D01*
X5555286Y-11887531D02*
X5564810Y-11878008D01*
X5564810Y-11878008D02*
X5583858Y-11868484D01*
X5583858Y-11868484D02*
X5631477Y-11868484D01*
X5631477Y-11868484D02*
X5650524Y-11878008D01*
X5650524Y-11878008D02*
X5660048Y-11887531D01*
X5660048Y-11887531D02*
X5669572Y-11906579D01*
X5669572Y-11906579D02*
X5669572Y-11925627D01*
X5669572Y-11925627D02*
X5660048Y-11954198D01*
X5660048Y-11954198D02*
X5545762Y-12068484D01*
X5545762Y-12068484D02*
X5669572Y-12068484D01*
X5793381Y-11868484D02*
X5812429Y-11868484D01*
X5812429Y-11868484D02*
X5831477Y-11878008D01*
X5831477Y-11878008D02*
X5841000Y-11887531D01*
X5841000Y-11887531D02*
X5850524Y-11906579D01*
X5850524Y-11906579D02*
X5860048Y-11944674D01*
X5860048Y-11944674D02*
X5860048Y-11992293D01*
X5860048Y-11992293D02*
X5850524Y-12030388D01*
X5850524Y-12030388D02*
X5841000Y-12049436D01*
X5841000Y-12049436D02*
X5831477Y-12058960D01*
X5831477Y-12058960D02*
X5812429Y-12068484D01*
X5812429Y-12068484D02*
X5793381Y-12068484D01*
X5793381Y-12068484D02*
X5774334Y-12058960D01*
X5774334Y-12058960D02*
X5764810Y-12049436D01*
X5764810Y-12049436D02*
X5755286Y-12030388D01*
X5755286Y-12030388D02*
X5745762Y-11992293D01*
X5745762Y-11992293D02*
X5745762Y-11944674D01*
X5745762Y-11944674D02*
X5755286Y-11906579D01*
X5755286Y-11906579D02*
X5764810Y-11887531D01*
X5764810Y-11887531D02*
X5774334Y-11878008D01*
X5774334Y-11878008D02*
X5793381Y-11868484D01*
X5945762Y-12068484D02*
X5945762Y-11935150D01*
X5945762Y-11954198D02*
X5955286Y-11944674D01*
X5955286Y-11944674D02*
X5974334Y-11935150D01*
X5974334Y-11935150D02*
X6002905Y-11935150D01*
X6002905Y-11935150D02*
X6021953Y-11944674D01*
X6021953Y-11944674D02*
X6031477Y-11963722D01*
X6031477Y-11963722D02*
X6031477Y-12068484D01*
X6031477Y-11963722D02*
X6041000Y-11944674D01*
X6041000Y-11944674D02*
X6060048Y-11935150D01*
X6060048Y-11935150D02*
X6088619Y-11935150D01*
X6088619Y-11935150D02*
X6107667Y-11944674D01*
X6107667Y-11944674D02*
X6117191Y-11963722D01*
X6117191Y-11963722D02*
X6117191Y-12068484D01*
X6212429Y-12068484D02*
X6212429Y-11935150D01*
X6212429Y-11954198D02*
X6221953Y-11944674D01*
X6221953Y-11944674D02*
X6241000Y-11935150D01*
X6241000Y-11935150D02*
X6269572Y-11935150D01*
X6269572Y-11935150D02*
X6288620Y-11944674D01*
X6288620Y-11944674D02*
X6298143Y-11963722D01*
X6298143Y-11963722D02*
X6298143Y-12068484D01*
X6298143Y-11963722D02*
X6307667Y-11944674D01*
X6307667Y-11944674D02*
X6326715Y-11935150D01*
X6326715Y-11935150D02*
X6355286Y-11935150D01*
X6355286Y-11935150D02*
X6374334Y-11944674D01*
X6374334Y-11944674D02*
X6383858Y-11963722D01*
X6383858Y-11963722D02*
X6383858Y-12068484D01*
X6774334Y-11858960D02*
X6602905Y-12116103D01*
X7031477Y-11868484D02*
X7050524Y-11868484D01*
X7050524Y-11868484D02*
X7069572Y-11878008D01*
X7069572Y-11878008D02*
X7079096Y-11887531D01*
X7079096Y-11887531D02*
X7088620Y-11906579D01*
X7088620Y-11906579D02*
X7098143Y-11944674D01*
X7098143Y-11944674D02*
X7098143Y-11992293D01*
X7098143Y-11992293D02*
X7088620Y-12030388D01*
X7088620Y-12030388D02*
X7079096Y-12049436D01*
X7079096Y-12049436D02*
X7069572Y-12058960D01*
X7069572Y-12058960D02*
X7050524Y-12068484D01*
X7050524Y-12068484D02*
X7031477Y-12068484D01*
X7031477Y-12068484D02*
X7012429Y-12058960D01*
X7012429Y-12058960D02*
X7002905Y-12049436D01*
X7002905Y-12049436D02*
X6993382Y-12030388D01*
X6993382Y-12030388D02*
X6983858Y-11992293D01*
X6983858Y-11992293D02*
X6983858Y-11944674D01*
X6983858Y-11944674D02*
X6993382Y-11906579D01*
X6993382Y-11906579D02*
X7002905Y-11887531D01*
X7002905Y-11887531D02*
X7012429Y-11878008D01*
X7012429Y-11878008D02*
X7031477Y-11868484D01*
X7183858Y-12049436D02*
X7193382Y-12058960D01*
X7193382Y-12058960D02*
X7183858Y-12068484D01*
X7183858Y-12068484D02*
X7174334Y-12058960D01*
X7174334Y-12058960D02*
X7183858Y-12049436D01*
X7183858Y-12049436D02*
X7183858Y-12068484D01*
X7317191Y-11868484D02*
X7336239Y-11868484D01*
X7336239Y-11868484D02*
X7355286Y-11878008D01*
X7355286Y-11878008D02*
X7364810Y-11887531D01*
X7364810Y-11887531D02*
X7374334Y-11906579D01*
X7374334Y-11906579D02*
X7383858Y-11944674D01*
X7383858Y-11944674D02*
X7383858Y-11992293D01*
X7383858Y-11992293D02*
X7374334Y-12030388D01*
X7374334Y-12030388D02*
X7364810Y-12049436D01*
X7364810Y-12049436D02*
X7355286Y-12058960D01*
X7355286Y-12058960D02*
X7336239Y-12068484D01*
X7336239Y-12068484D02*
X7317191Y-12068484D01*
X7317191Y-12068484D02*
X7298143Y-12058960D01*
X7298143Y-12058960D02*
X7288620Y-12049436D01*
X7288620Y-12049436D02*
X7279096Y-12030388D01*
X7279096Y-12030388D02*
X7269572Y-11992293D01*
X7269572Y-11992293D02*
X7269572Y-11944674D01*
X7269572Y-11944674D02*
X7279096Y-11906579D01*
X7279096Y-11906579D02*
X7288620Y-11887531D01*
X7288620Y-11887531D02*
X7298143Y-11878008D01*
X7298143Y-11878008D02*
X7317191Y-11868484D01*
X7555286Y-11935150D02*
X7555286Y-12068484D01*
X7507667Y-11858960D02*
X7460048Y-12001817D01*
X7460048Y-12001817D02*
X7583858Y-12001817D01*
X7698143Y-11868484D02*
X7717191Y-11868484D01*
X7717191Y-11868484D02*
X7736239Y-11878008D01*
X7736239Y-11878008D02*
X7745763Y-11887531D01*
X7745763Y-11887531D02*
X7755286Y-11906579D01*
X7755286Y-11906579D02*
X7764810Y-11944674D01*
X7764810Y-11944674D02*
X7764810Y-11992293D01*
X7764810Y-11992293D02*
X7755286Y-12030388D01*
X7755286Y-12030388D02*
X7745763Y-12049436D01*
X7745763Y-12049436D02*
X7736239Y-12058960D01*
X7736239Y-12058960D02*
X7717191Y-12068484D01*
X7717191Y-12068484D02*
X7698143Y-12068484D01*
X7698143Y-12068484D02*
X7679096Y-12058960D01*
X7679096Y-12058960D02*
X7669572Y-12049436D01*
X7669572Y-12049436D02*
X7660048Y-12030388D01*
X7660048Y-12030388D02*
X7650524Y-11992293D01*
X7650524Y-11992293D02*
X7650524Y-11944674D01*
X7650524Y-11944674D02*
X7660048Y-11906579D01*
X7660048Y-11906579D02*
X7669572Y-11887531D01*
X7669572Y-11887531D02*
X7679096Y-11878008D01*
X7679096Y-11878008D02*
X7698143Y-11868484D01*
X7841001Y-11887531D02*
X7850524Y-11878008D01*
X7850524Y-11878008D02*
X7869572Y-11868484D01*
X7869572Y-11868484D02*
X7917191Y-11868484D01*
X7917191Y-11868484D02*
X7936239Y-11878008D01*
X7936239Y-11878008D02*
X7945763Y-11887531D01*
X7945763Y-11887531D02*
X7955286Y-11906579D01*
X7955286Y-11906579D02*
X7955286Y-11925627D01*
X7955286Y-11925627D02*
X7945763Y-11954198D01*
X7945763Y-11954198D02*
X7831477Y-12068484D01*
X7831477Y-12068484D02*
X7955286Y-12068484D01*
X8031477Y-11868484D02*
X8031477Y-11906579D01*
X8107667Y-11868484D02*
X8107667Y-11906579D01*
X8402906Y-12144674D02*
X8393382Y-12135150D01*
X8393382Y-12135150D02*
X8374334Y-12106579D01*
X8374334Y-12106579D02*
X8364810Y-12087531D01*
X8364810Y-12087531D02*
X8355286Y-12058960D01*
X8355286Y-12058960D02*
X8345763Y-12011341D01*
X8345763Y-12011341D02*
X8345763Y-11973246D01*
X8345763Y-11973246D02*
X8355286Y-11925627D01*
X8355286Y-11925627D02*
X8364810Y-11897055D01*
X8364810Y-11897055D02*
X8374334Y-11878008D01*
X8374334Y-11878008D02*
X8393382Y-11849436D01*
X8393382Y-11849436D02*
X8402906Y-11839912D01*
X8583858Y-12068484D02*
X8469572Y-12068484D01*
X8526715Y-12068484D02*
X8526715Y-11868484D01*
X8526715Y-11868484D02*
X8507667Y-11897055D01*
X8507667Y-11897055D02*
X8488620Y-11916103D01*
X8488620Y-11916103D02*
X8469572Y-11925627D01*
X8821953Y-12068484D02*
X8821953Y-11868484D01*
X8907668Y-12068484D02*
X8907668Y-11963722D01*
X8907668Y-11963722D02*
X8898144Y-11944674D01*
X8898144Y-11944674D02*
X8879096Y-11935150D01*
X8879096Y-11935150D02*
X8850525Y-11935150D01*
X8850525Y-11935150D02*
X8831477Y-11944674D01*
X8831477Y-11944674D02*
X8821953Y-11954198D01*
X9031477Y-12068484D02*
X9012429Y-12058960D01*
X9012429Y-12058960D02*
X9002906Y-12049436D01*
X9002906Y-12049436D02*
X8993382Y-12030388D01*
X8993382Y-12030388D02*
X8993382Y-11973246D01*
X8993382Y-11973246D02*
X9002906Y-11954198D01*
X9002906Y-11954198D02*
X9012429Y-11944674D01*
X9012429Y-11944674D02*
X9031477Y-11935150D01*
X9031477Y-11935150D02*
X9060049Y-11935150D01*
X9060049Y-11935150D02*
X9079096Y-11944674D01*
X9079096Y-11944674D02*
X9088620Y-11954198D01*
X9088620Y-11954198D02*
X9098144Y-11973246D01*
X9098144Y-11973246D02*
X9098144Y-12030388D01*
X9098144Y-12030388D02*
X9088620Y-12049436D01*
X9088620Y-12049436D02*
X9079096Y-12058960D01*
X9079096Y-12058960D02*
X9060049Y-12068484D01*
X9060049Y-12068484D02*
X9031477Y-12068484D01*
X9212429Y-12068484D02*
X9193382Y-12058960D01*
X9193382Y-12058960D02*
X9183858Y-12039912D01*
X9183858Y-12039912D02*
X9183858Y-11868484D01*
X9364810Y-12058960D02*
X9345763Y-12068484D01*
X9345763Y-12068484D02*
X9307668Y-12068484D01*
X9307668Y-12068484D02*
X9288620Y-12058960D01*
X9288620Y-12058960D02*
X9279096Y-12039912D01*
X9279096Y-12039912D02*
X9279096Y-11963722D01*
X9279096Y-11963722D02*
X9288620Y-11944674D01*
X9288620Y-11944674D02*
X9307668Y-11935150D01*
X9307668Y-11935150D02*
X9345763Y-11935150D01*
X9345763Y-11935150D02*
X9364810Y-11944674D01*
X9364810Y-11944674D02*
X9374334Y-11963722D01*
X9374334Y-11963722D02*
X9374334Y-11982769D01*
X9374334Y-11982769D02*
X9279096Y-12001817D01*
X9441001Y-12144674D02*
X9450525Y-12135150D01*
X9450525Y-12135150D02*
X9469572Y-12106579D01*
X9469572Y-12106579D02*
X9479096Y-12087531D01*
X9479096Y-12087531D02*
X9488620Y-12058960D01*
X9488620Y-12058960D02*
X9498144Y-12011341D01*
X9498144Y-12011341D02*
X9498144Y-11973246D01*
X9498144Y-11973246D02*
X9488620Y-11925627D01*
X9488620Y-11925627D02*
X9479096Y-11897055D01*
X9479096Y-11897055D02*
X9469572Y-11878008D01*
X9469572Y-11878008D02*
X9450525Y-11849436D01*
X9450525Y-11849436D02*
X9441001Y-11839912D01*
X4727843Y-12341000D02*
X4827843Y-12241000D01*
X4727843Y-12141000D01*
X4627843Y-12241000D01*
X4727843Y-12341000D01*
X5079096Y-12151531D02*
X5088620Y-12142008D01*
X5088620Y-12142008D02*
X5107667Y-12132484D01*
X5107667Y-12132484D02*
X5155286Y-12132484D01*
X5155286Y-12132484D02*
X5174334Y-12142008D01*
X5174334Y-12142008D02*
X5183858Y-12151531D01*
X5183858Y-12151531D02*
X5193381Y-12170579D01*
X5193381Y-12170579D02*
X5193381Y-12189627D01*
X5193381Y-12189627D02*
X5183858Y-12218198D01*
X5183858Y-12218198D02*
X5069572Y-12332484D01*
X5069572Y-12332484D02*
X5193381Y-12332484D01*
X5279096Y-12313436D02*
X5288620Y-12322960D01*
X5288620Y-12322960D02*
X5279096Y-12332484D01*
X5279096Y-12332484D02*
X5269572Y-12322960D01*
X5269572Y-12322960D02*
X5279096Y-12313436D01*
X5279096Y-12313436D02*
X5279096Y-12332484D01*
X5355286Y-12132484D02*
X5488620Y-12132484D01*
X5488620Y-12132484D02*
X5402905Y-12332484D01*
X5602905Y-12132484D02*
X5621953Y-12132484D01*
X5621953Y-12132484D02*
X5641000Y-12142008D01*
X5641000Y-12142008D02*
X5650524Y-12151531D01*
X5650524Y-12151531D02*
X5660048Y-12170579D01*
X5660048Y-12170579D02*
X5669572Y-12208674D01*
X5669572Y-12208674D02*
X5669572Y-12256293D01*
X5669572Y-12256293D02*
X5660048Y-12294388D01*
X5660048Y-12294388D02*
X5650524Y-12313436D01*
X5650524Y-12313436D02*
X5641000Y-12322960D01*
X5641000Y-12322960D02*
X5621953Y-12332484D01*
X5621953Y-12332484D02*
X5602905Y-12332484D01*
X5602905Y-12332484D02*
X5583858Y-12322960D01*
X5583858Y-12322960D02*
X5574334Y-12313436D01*
X5574334Y-12313436D02*
X5564810Y-12294388D01*
X5564810Y-12294388D02*
X5555286Y-12256293D01*
X5555286Y-12256293D02*
X5555286Y-12208674D01*
X5555286Y-12208674D02*
X5564810Y-12170579D01*
X5564810Y-12170579D02*
X5574334Y-12151531D01*
X5574334Y-12151531D02*
X5583858Y-12142008D01*
X5583858Y-12142008D02*
X5602905Y-12132484D01*
X5793381Y-12132484D02*
X5812429Y-12132484D01*
X5812429Y-12132484D02*
X5831477Y-12142008D01*
X5831477Y-12142008D02*
X5841000Y-12151531D01*
X5841000Y-12151531D02*
X5850524Y-12170579D01*
X5850524Y-12170579D02*
X5860048Y-12208674D01*
X5860048Y-12208674D02*
X5860048Y-12256293D01*
X5860048Y-12256293D02*
X5850524Y-12294388D01*
X5850524Y-12294388D02*
X5841000Y-12313436D01*
X5841000Y-12313436D02*
X5831477Y-12322960D01*
X5831477Y-12322960D02*
X5812429Y-12332484D01*
X5812429Y-12332484D02*
X5793381Y-12332484D01*
X5793381Y-12332484D02*
X5774334Y-12322960D01*
X5774334Y-12322960D02*
X5764810Y-12313436D01*
X5764810Y-12313436D02*
X5755286Y-12294388D01*
X5755286Y-12294388D02*
X5745762Y-12256293D01*
X5745762Y-12256293D02*
X5745762Y-12208674D01*
X5745762Y-12208674D02*
X5755286Y-12170579D01*
X5755286Y-12170579D02*
X5764810Y-12151531D01*
X5764810Y-12151531D02*
X5774334Y-12142008D01*
X5774334Y-12142008D02*
X5793381Y-12132484D01*
X5945762Y-12332484D02*
X5945762Y-12199150D01*
X5945762Y-12218198D02*
X5955286Y-12208674D01*
X5955286Y-12208674D02*
X5974334Y-12199150D01*
X5974334Y-12199150D02*
X6002905Y-12199150D01*
X6002905Y-12199150D02*
X6021953Y-12208674D01*
X6021953Y-12208674D02*
X6031477Y-12227722D01*
X6031477Y-12227722D02*
X6031477Y-12332484D01*
X6031477Y-12227722D02*
X6041000Y-12208674D01*
X6041000Y-12208674D02*
X6060048Y-12199150D01*
X6060048Y-12199150D02*
X6088619Y-12199150D01*
X6088619Y-12199150D02*
X6107667Y-12208674D01*
X6107667Y-12208674D02*
X6117191Y-12227722D01*
X6117191Y-12227722D02*
X6117191Y-12332484D01*
X6212429Y-12332484D02*
X6212429Y-12199150D01*
X6212429Y-12218198D02*
X6221953Y-12208674D01*
X6221953Y-12208674D02*
X6241000Y-12199150D01*
X6241000Y-12199150D02*
X6269572Y-12199150D01*
X6269572Y-12199150D02*
X6288620Y-12208674D01*
X6288620Y-12208674D02*
X6298143Y-12227722D01*
X6298143Y-12227722D02*
X6298143Y-12332484D01*
X6298143Y-12227722D02*
X6307667Y-12208674D01*
X6307667Y-12208674D02*
X6326715Y-12199150D01*
X6326715Y-12199150D02*
X6355286Y-12199150D01*
X6355286Y-12199150D02*
X6374334Y-12208674D01*
X6374334Y-12208674D02*
X6383858Y-12227722D01*
X6383858Y-12227722D02*
X6383858Y-12332484D01*
X6774334Y-12122960D02*
X6602905Y-12380103D01*
X7031477Y-12132484D02*
X7050524Y-12132484D01*
X7050524Y-12132484D02*
X7069572Y-12142008D01*
X7069572Y-12142008D02*
X7079096Y-12151531D01*
X7079096Y-12151531D02*
X7088620Y-12170579D01*
X7088620Y-12170579D02*
X7098143Y-12208674D01*
X7098143Y-12208674D02*
X7098143Y-12256293D01*
X7098143Y-12256293D02*
X7088620Y-12294388D01*
X7088620Y-12294388D02*
X7079096Y-12313436D01*
X7079096Y-12313436D02*
X7069572Y-12322960D01*
X7069572Y-12322960D02*
X7050524Y-12332484D01*
X7050524Y-12332484D02*
X7031477Y-12332484D01*
X7031477Y-12332484D02*
X7012429Y-12322960D01*
X7012429Y-12322960D02*
X7002905Y-12313436D01*
X7002905Y-12313436D02*
X6993382Y-12294388D01*
X6993382Y-12294388D02*
X6983858Y-12256293D01*
X6983858Y-12256293D02*
X6983858Y-12208674D01*
X6983858Y-12208674D02*
X6993382Y-12170579D01*
X6993382Y-12170579D02*
X7002905Y-12151531D01*
X7002905Y-12151531D02*
X7012429Y-12142008D01*
X7012429Y-12142008D02*
X7031477Y-12132484D01*
X7183858Y-12313436D02*
X7193382Y-12322960D01*
X7193382Y-12322960D02*
X7183858Y-12332484D01*
X7183858Y-12332484D02*
X7174334Y-12322960D01*
X7174334Y-12322960D02*
X7183858Y-12313436D01*
X7183858Y-12313436D02*
X7183858Y-12332484D01*
X7383858Y-12332484D02*
X7269572Y-12332484D01*
X7326715Y-12332484D02*
X7326715Y-12132484D01*
X7326715Y-12132484D02*
X7307667Y-12161055D01*
X7307667Y-12161055D02*
X7288620Y-12180103D01*
X7288620Y-12180103D02*
X7269572Y-12189627D01*
X7507667Y-12132484D02*
X7526715Y-12132484D01*
X7526715Y-12132484D02*
X7545763Y-12142008D01*
X7545763Y-12142008D02*
X7555286Y-12151531D01*
X7555286Y-12151531D02*
X7564810Y-12170579D01*
X7564810Y-12170579D02*
X7574334Y-12208674D01*
X7574334Y-12208674D02*
X7574334Y-12256293D01*
X7574334Y-12256293D02*
X7564810Y-12294388D01*
X7564810Y-12294388D02*
X7555286Y-12313436D01*
X7555286Y-12313436D02*
X7545763Y-12322960D01*
X7545763Y-12322960D02*
X7526715Y-12332484D01*
X7526715Y-12332484D02*
X7507667Y-12332484D01*
X7507667Y-12332484D02*
X7488620Y-12322960D01*
X7488620Y-12322960D02*
X7479096Y-12313436D01*
X7479096Y-12313436D02*
X7469572Y-12294388D01*
X7469572Y-12294388D02*
X7460048Y-12256293D01*
X7460048Y-12256293D02*
X7460048Y-12208674D01*
X7460048Y-12208674D02*
X7469572Y-12170579D01*
X7469572Y-12170579D02*
X7479096Y-12151531D01*
X7479096Y-12151531D02*
X7488620Y-12142008D01*
X7488620Y-12142008D02*
X7507667Y-12132484D01*
X7745763Y-12132484D02*
X7707667Y-12132484D01*
X7707667Y-12132484D02*
X7688620Y-12142008D01*
X7688620Y-12142008D02*
X7679096Y-12151531D01*
X7679096Y-12151531D02*
X7660048Y-12180103D01*
X7660048Y-12180103D02*
X7650524Y-12218198D01*
X7650524Y-12218198D02*
X7650524Y-12294388D01*
X7650524Y-12294388D02*
X7660048Y-12313436D01*
X7660048Y-12313436D02*
X7669572Y-12322960D01*
X7669572Y-12322960D02*
X7688620Y-12332484D01*
X7688620Y-12332484D02*
X7726715Y-12332484D01*
X7726715Y-12332484D02*
X7745763Y-12322960D01*
X7745763Y-12322960D02*
X7755286Y-12313436D01*
X7755286Y-12313436D02*
X7764810Y-12294388D01*
X7764810Y-12294388D02*
X7764810Y-12246769D01*
X7764810Y-12246769D02*
X7755286Y-12227722D01*
X7755286Y-12227722D02*
X7745763Y-12218198D01*
X7745763Y-12218198D02*
X7726715Y-12208674D01*
X7726715Y-12208674D02*
X7688620Y-12208674D01*
X7688620Y-12208674D02*
X7669572Y-12218198D01*
X7669572Y-12218198D02*
X7660048Y-12227722D01*
X7660048Y-12227722D02*
X7650524Y-12246769D01*
X7831477Y-12132484D02*
X7955286Y-12132484D01*
X7955286Y-12132484D02*
X7888620Y-12208674D01*
X7888620Y-12208674D02*
X7917191Y-12208674D01*
X7917191Y-12208674D02*
X7936239Y-12218198D01*
X7936239Y-12218198D02*
X7945763Y-12227722D01*
X7945763Y-12227722D02*
X7955286Y-12246769D01*
X7955286Y-12246769D02*
X7955286Y-12294388D01*
X7955286Y-12294388D02*
X7945763Y-12313436D01*
X7945763Y-12313436D02*
X7936239Y-12322960D01*
X7936239Y-12322960D02*
X7917191Y-12332484D01*
X7917191Y-12332484D02*
X7860048Y-12332484D01*
X7860048Y-12332484D02*
X7841001Y-12322960D01*
X7841001Y-12322960D02*
X7831477Y-12313436D01*
X8031477Y-12132484D02*
X8031477Y-12170579D01*
X8107667Y-12132484D02*
X8107667Y-12170579D01*
X8402906Y-12408674D02*
X8393382Y-12399150D01*
X8393382Y-12399150D02*
X8374334Y-12370579D01*
X8374334Y-12370579D02*
X8364810Y-12351531D01*
X8364810Y-12351531D02*
X8355286Y-12322960D01*
X8355286Y-12322960D02*
X8345763Y-12275341D01*
X8345763Y-12275341D02*
X8345763Y-12237246D01*
X8345763Y-12237246D02*
X8355286Y-12189627D01*
X8355286Y-12189627D02*
X8364810Y-12161055D01*
X8364810Y-12161055D02*
X8374334Y-12142008D01*
X8374334Y-12142008D02*
X8393382Y-12113436D01*
X8393382Y-12113436D02*
X8402906Y-12103912D01*
X8469572Y-12151531D02*
X8479096Y-12142008D01*
X8479096Y-12142008D02*
X8498144Y-12132484D01*
X8498144Y-12132484D02*
X8545763Y-12132484D01*
X8545763Y-12132484D02*
X8564810Y-12142008D01*
X8564810Y-12142008D02*
X8574334Y-12151531D01*
X8574334Y-12151531D02*
X8583858Y-12170579D01*
X8583858Y-12170579D02*
X8583858Y-12189627D01*
X8583858Y-12189627D02*
X8574334Y-12218198D01*
X8574334Y-12218198D02*
X8460048Y-12332484D01*
X8460048Y-12332484D02*
X8583858Y-12332484D01*
X8755287Y-12199150D02*
X8755287Y-12332484D01*
X8707667Y-12122960D02*
X8660048Y-12265817D01*
X8660048Y-12265817D02*
X8783858Y-12265817D01*
X9012429Y-12332484D02*
X9012429Y-12132484D01*
X9098144Y-12332484D02*
X9098144Y-12227722D01*
X9098144Y-12227722D02*
X9088620Y-12208674D01*
X9088620Y-12208674D02*
X9069572Y-12199150D01*
X9069572Y-12199150D02*
X9041001Y-12199150D01*
X9041001Y-12199150D02*
X9021953Y-12208674D01*
X9021953Y-12208674D02*
X9012429Y-12218198D01*
X9221953Y-12332484D02*
X9202906Y-12322960D01*
X9202906Y-12322960D02*
X9193382Y-12313436D01*
X9193382Y-12313436D02*
X9183858Y-12294388D01*
X9183858Y-12294388D02*
X9183858Y-12237246D01*
X9183858Y-12237246D02*
X9193382Y-12218198D01*
X9193382Y-12218198D02*
X9202906Y-12208674D01*
X9202906Y-12208674D02*
X9221953Y-12199150D01*
X9221953Y-12199150D02*
X9250525Y-12199150D01*
X9250525Y-12199150D02*
X9269572Y-12208674D01*
X9269572Y-12208674D02*
X9279096Y-12218198D01*
X9279096Y-12218198D02*
X9288620Y-12237246D01*
X9288620Y-12237246D02*
X9288620Y-12294388D01*
X9288620Y-12294388D02*
X9279096Y-12313436D01*
X9279096Y-12313436D02*
X9269572Y-12322960D01*
X9269572Y-12322960D02*
X9250525Y-12332484D01*
X9250525Y-12332484D02*
X9221953Y-12332484D01*
X9402906Y-12332484D02*
X9383858Y-12322960D01*
X9383858Y-12322960D02*
X9374334Y-12303912D01*
X9374334Y-12303912D02*
X9374334Y-12132484D01*
X9555287Y-12322960D02*
X9536239Y-12332484D01*
X9536239Y-12332484D02*
X9498144Y-12332484D01*
X9498144Y-12332484D02*
X9479096Y-12322960D01*
X9479096Y-12322960D02*
X9469572Y-12303912D01*
X9469572Y-12303912D02*
X9469572Y-12227722D01*
X9469572Y-12227722D02*
X9479096Y-12208674D01*
X9479096Y-12208674D02*
X9498144Y-12199150D01*
X9498144Y-12199150D02*
X9536239Y-12199150D01*
X9536239Y-12199150D02*
X9555287Y-12208674D01*
X9555287Y-12208674D02*
X9564810Y-12227722D01*
X9564810Y-12227722D02*
X9564810Y-12246769D01*
X9564810Y-12246769D02*
X9469572Y-12265817D01*
X9641001Y-12322960D02*
X9660049Y-12332484D01*
X9660049Y-12332484D02*
X9698144Y-12332484D01*
X9698144Y-12332484D02*
X9717191Y-12322960D01*
X9717191Y-12322960D02*
X9726715Y-12303912D01*
X9726715Y-12303912D02*
X9726715Y-12294388D01*
X9726715Y-12294388D02*
X9717191Y-12275341D01*
X9717191Y-12275341D02*
X9698144Y-12265817D01*
X9698144Y-12265817D02*
X9669572Y-12265817D01*
X9669572Y-12265817D02*
X9650525Y-12256293D01*
X9650525Y-12256293D02*
X9641001Y-12237246D01*
X9641001Y-12237246D02*
X9641001Y-12227722D01*
X9641001Y-12227722D02*
X9650525Y-12208674D01*
X9650525Y-12208674D02*
X9669572Y-12199150D01*
X9669572Y-12199150D02*
X9698144Y-12199150D01*
X9698144Y-12199150D02*
X9717191Y-12208674D01*
X9793382Y-12408674D02*
X9802906Y-12399150D01*
X9802906Y-12399150D02*
X9821953Y-12370579D01*
X9821953Y-12370579D02*
X9831477Y-12351531D01*
X9831477Y-12351531D02*
X9841001Y-12322960D01*
X9841001Y-12322960D02*
X9850525Y-12275341D01*
X9850525Y-12275341D02*
X9850525Y-12237246D01*
X9850525Y-12237246D02*
X9841001Y-12189627D01*
X9841001Y-12189627D02*
X9831477Y-12161055D01*
X9831477Y-12161055D02*
X9821953Y-12142008D01*
X9821953Y-12142008D02*
X9802906Y-12113436D01*
X9802906Y-12113436D02*
X9793382Y-12103912D01*
M02*
